<svg width="303" height="155" viewBox="0 0 303 155" fill="none" xmlns="http://www.w3.org/2000/svg">
<path d="M223.574 65.3627H224.466C225.083 65.3627 225.77 65.2941 225.77 64.5735C225.77 63.9216 225.221 63.75 224.74 63.75H223.608V65.3627H223.574ZM223.23 63.4412H224.775C225.701 63.4412 226.113 63.8186 226.113 64.5735C226.113 65.2598 225.632 65.5686 225.049 65.6716L226.284 67.5588H225.907L224.672 65.6372H223.608V67.5588H223.265V63.4412H223.23ZM221.343 65.5C221.343 67.2843 222.716 68.6912 224.5 68.6912C226.284 68.6912 227.623 67.25 227.623 65.5C227.623 63.7157 226.284 62.3088 224.5 62.3088C222.681 62.3088 221.343 63.7157 221.343 65.5ZM228 65.5C228 67.4216 226.422 69 224.5 69C222.544 69 221 67.4216 221 65.5C221 63.5784 222.578 62 224.5 62C226.422 62 228 63.5784 228 65.5Z" fill="#2A2A28"/>
<path d="M118.115 86.4475C118.115 86.4475 117.941 86.5876 117.628 86.7277C117.105 86.9379 115.922 87.113 115.191 87.3232C114.634 87.4633 113.973 87.6384 113.277 87.9187C111.432 88.6893 110.492 89.9853 110.005 92.3322C109.726 93.6983 109.9 94.8542 110.492 95.5898C110.945 96.1503 111.606 96.4305 112.407 96.4305C115.678 96.4305 116.723 93.278 117.21 90.861L118.115 86.4475ZM118.219 71C122.709 71 125.459 71.8057 126.851 73.487C127.582 74.3977 127.965 75.6588 128 77.2C128 78.0757 127.896 79.0215 127.687 80.1073L124.589 95.0994C124.171 97.1661 123.893 98.7774 123.928 100.073C123.928 100.494 123.962 100.879 124.032 101.229H115.609C115.609 101.124 115.609 101.054 115.609 100.949C115.609 100.319 115.644 99.6881 115.713 98.9876L115.818 97.7616H115.365L115.191 98.0418C113.66 100.494 110.249 102 107.29 102C104.853 102 103.113 101.369 102.104 100.144C100.99 98.7774 100.711 96.6056 101.303 93.7333C102.452 88.1288 104.993 85.7819 111.328 84.3458L115.539 83.365C118.045 82.8045 119.229 81.7186 119.681 79.5469C119.925 78.3559 119.786 77.4452 119.298 76.8147C118.846 76.2542 118.08 75.939 117.071 75.939C114.808 75.939 113.625 77.0949 112.859 80.0373H105.341C107.22 72.226 114.182 71 118.219 71Z" fill="#2A2A28"/>
<path d="M156.622 86.2165C155.724 90.6194 155.793 92.3101 156.656 93.4021C157.071 93.9304 157.727 94.2122 158.625 94.2122C161.113 94.2122 162.322 92.6976 163.565 86.4983C164.464 82.0601 164.567 79.2775 163.704 78.1856C163.289 77.6572 162.667 77.4107 161.804 77.4107C159.247 77.3754 157.9 80.0524 156.622 86.2165ZM148.538 98.7912C146.776 96.5722 146.431 93.0851 147.64 86.8857C150.3 73.3952 155.344 71 159.696 71C161.769 71 164.913 71.7749 165.293 75.5086L165.362 76.0722H165.984C165.984 76.0722 166.709 72.5851 166.847 71.7749H175C174.689 73.2191 168.955 101.398 168.955 101.398C167.504 108.478 163.047 112 154.895 112C147.329 112 146.189 107.456 146.016 106.047C145.947 105.519 146.12 103.934 146.12 103.934H154.031C154.031 104.638 154.1 105.73 154.342 106.012C154.653 106.435 154.929 106.928 156.207 106.928C157.865 106.928 159.489 106.435 160.249 102.595L161.596 95.9382H160.94L160.767 96.2552C159.144 99.1083 156.138 100.552 152.925 100.552C150.956 100.588 149.54 99.9888 148.538 98.7912Z" fill="#2A2A28"/>
<path d="M189 72C188.72 73.4138 183.126 100.069 182.916 101H174C174.28 99.5862 179.909 72.931 180.084 72H189V72Z" fill="#2A2A28"/>
<path d="M205 62C204.686 63.4251 197.111 100.027 196.901 101H188C188.314 99.5749 195.924 62.9733 196.099 62H205Z" fill="#2A2A28"/>
<path d="M219 62C218.686 63.4251 211.076 100.027 210.901 101H202C202.314 99.5749 209.924 62.9733 210.099 62H219Z" fill="#2A2A28"/>
<path d="M150.106 71C147.137 71 143.56 73.0139 141.808 76.2778L141.629 76.625H140.949C140.949 76.625 141.736 72.875 141.987 71.7986H141.2H132.508C132.58 72.1458 132.615 72.5278 132.615 72.9444C132.615 73.8819 132.472 74.9583 132.258 76.2778C130.577 84.1944 127.215 99.9236 127 101H136.121C136.693 98.2569 139.554 84.8889 139.554 84.8889C140.413 80.8611 142.845 78.9861 147.209 78.9861C147.96 78.9861 148.604 79.0208 149.283 79.125C149.498 78.1875 150.75 72.2153 151 71H150.106V71Z" fill="#2A2A28"/>
<path d="M75.7622 100.143C73.5116 97.3962 73.4413 92.3245 75.4106 82.6742C78.6106 67.2126 83.2173 62 93.6966 62C97.8812 62 100.835 62.9862 102.418 64.9585C103.473 66.2264 103.965 67.9874 104 70.1711C104 71.3685 103.859 72.6717 103.578 74.1157C103.578 74.1157 103.297 75.4189 103.156 76.1585H94.3295C94.3295 76.1585 94.9977 71.9321 94.9977 71.0164C94.9977 69.9598 94.9625 69.3962 94.5405 68.8679C94.1185 68.3044 93.5207 67.8818 92.5361 67.8818C88.6327 67.8818 87.3668 71.6151 85.1162 82.3572C83.3931 90.7044 82.7601 94.5434 84.0964 96.1635C84.5887 96.7975 85.3624 97.0793 86.4173 97.0793C89.4767 97.0793 90.7075 94.4377 92.2548 87.1119H101.152C100.976 87.9572 100.694 89.366 100.694 89.366C98.8307 98.4176 93.5207 102.996 84.9404 102.996C80.2986 103.067 77.3798 102.151 75.7622 100.143Z" fill="#2A2A28"/>
<path d="M188.982 67.82C189.679 51.9123 170.274 39.9643 152.159 43.683C134.043 47.4017 125.299 62.9995 123 67.7856H125.961C129.933 61.209 133.939 56.0786 140.802 54.1848C145.156 52.9797 148.571 53.2552 156.966 57.9035C160.833 60.0383 169.612 66.4427 179.018 67.7511C183.059 68.2676 188.982 67.82 188.982 67.82Z" fill="#2A2A28"/>
</svg>
