<svg width="85" height="84" viewBox="0 0 85 84" fill="none" xmlns="http://www.w3.org/2000/svg">
<g clip-path="url(#clip0)">
<path d="M42.5 20.6719C41.5945 20.6719 40.8594 21.407 40.8594 22.3125C40.8594 23.218 41.5945 23.9531 42.5 23.9531C43.4055 23.9531 44.1406 23.218 44.1406 22.3125C44.1406 21.407 43.4055 20.6719 42.5 20.6719Z" fill="#C1A477"/>
<path d="M15.2656 50.2031C16.1712 50.2031 16.9062 49.468 16.9062 48.5625C16.9062 47.657 16.1712 46.9219 15.2656 46.9219C14.3601 46.9219 13.625 47.657 13.625 48.5625C13.625 49.468 14.3601 50.2031 15.2656 50.2031Z" fill="#C1A477"/>
<path d="M55.625 4.26562C40.8549 4.26562 28.7322 14.449 27.7946 27.276C13.7282 27.9816 0.5 38.1247 0.5 51.8438C0.5 57.577 2.76868 63.132 6.89844 67.5335C7.71555 70.9019 6.72348 74.4722 4.2619 76.9338C3.79279 77.4029 3.65244 78.1085 3.90622 78.7218C4.16 79.3345 4.75793 79.7344 5.42188 79.7344C10.1009 79.7344 14.61 77.8996 17.9605 74.6664C21.2244 75.7789 25.483 76.4531 29.375 76.4531C44.1432 76.4531 56.2646 66.2723 57.2047 53.4478C60.6398 53.2953 64.2126 52.6609 67.0395 51.6976C70.39 54.9308 74.8991 56.7656 79.5781 56.7656C80.2421 56.7656 80.84 56.3657 81.0938 55.7531C81.3476 55.1397 81.2072 54.4341 80.7381 53.965C78.2765 51.5034 77.2845 47.9332 78.1016 44.5648C82.2313 40.1633 84.5 34.6082 84.5 28.875C84.5 14.6201 70.2528 4.26562 55.625 4.26562ZM29.375 73.1719C25.5029 73.1719 21.0905 72.4118 18.1348 71.2358C17.5016 70.9833 16.7781 71.1493 16.3173 71.6524C14.3364 73.8179 11.7607 75.3278 8.95435 76.0218C10.5008 73.0591 10.8955 69.5663 9.95474 66.2569C9.8804 65.9961 9.74261 65.7577 9.55356 65.5635C5.83139 61.7298 3.78125 56.8573 3.78125 51.8438C3.78125 40.2825 15.5015 30.5156 29.375 30.5156C42.4756 30.5156 53.9844 39.6256 53.9844 51.8438C53.9844 63.6043 42.9448 73.1719 29.375 73.1719ZM75.4464 42.5947C75.2574 42.7896 75.1196 43.028 75.0453 43.2881C74.1045 46.5976 74.4992 50.0903 76.0457 53.0531C73.2393 52.3596 70.6636 50.8491 68.6827 48.6836C68.2219 48.1812 67.4984 48.0146 66.8652 48.2671C64.3036 49.286 60.6494 49.9916 57.1996 50.1621C56.7202 43.9579 53.6255 38.1266 48.3345 33.7969H69.7344C70.6406 33.7969 71.375 33.0624 71.375 32.1562C71.375 31.2501 70.6406 30.5156 69.7344 30.5156H43.294C39.5699 28.6199 35.3883 27.5144 31.0842 27.2824C32.0269 16.2633 42.6737 7.54688 55.625 7.54688C69.4985 7.54688 81.2188 17.3137 81.2188 28.875C81.2188 33.8885 79.1686 38.761 75.4464 42.5947Z" fill="#C1A477"/>
<path d="M42.5 46.9219H21.8281C20.9219 46.9219 20.1875 47.6563 20.1875 48.5625C20.1875 49.4687 20.9219 50.2031 21.8281 50.2031H42.5C43.4062 50.2031 44.1406 49.4687 44.1406 48.5625C44.1406 47.6563 43.4062 46.9219 42.5 46.9219Z" fill="#C1A477"/>
<path d="M42.5 56.7656H15.2656C14.3594 56.7656 13.625 57.5001 13.625 58.4062C13.625 59.3124 14.3594 60.0469 15.2656 60.0469H42.5C43.4062 60.0469 44.1406 59.3124 44.1406 58.4062C44.1406 57.5001 43.4062 56.7656 42.5 56.7656Z" fill="#C1A477"/>
<path d="M69.7344 20.6719H49.0625C48.1563 20.6719 47.4219 21.4063 47.4219 22.3125C47.4219 23.2187 48.1563 23.9531 49.0625 23.9531H69.7344C70.6406 23.9531 71.375 23.2187 71.375 22.3125C71.375 21.4063 70.6406 20.6719 69.7344 20.6719Z" fill="#C1A477"/>
</g>
<defs>
<clipPath id="clip0">
<rect width="84" height="84" fill="white" transform="translate(0.5)"/>
</clipPath>
</defs>
</svg>
