<svg width="303" height="155" viewBox="0 0 303 155" fill="none" xmlns="http://www.w3.org/2000/svg">
<path d="M67 92H78.6964C86.9743 92 91 85.3139 91 76.3248C91 66.0377 85.7216 61 78.6964 61H67V92ZM72.9608 66.7288H77.2157C83.1369 66.7288 85.0379 70.725 85.0379 76.9766C85.0379 83.8379 81.7327 86.2685 78.2788 86.2685H72.9608V66.7288Z" fill="#2A2A28"/>
<path d="M92 92H97.9141L99.9956 85.0939H109.93L111.937 92H118L108.069 61H102.08L92 92ZM104.982 68.6407H105.057L108.403 80.0169H101.522L104.982 68.6407Z" fill="#2A2A28"/>
<path d="M138.06 72.339C137.684 69.2055 135.127 66.824 132.196 66.824C126.894 66.824 124.902 72.1182 124.902 77.6331C124.902 82.8832 126.894 88.1774 132.196 88.1774C135.804 88.1774 137.835 85.2647 138.285 81.1185H144C143.397 88.9694 138.773 94 132.196 94C123.887 94 119 86.7203 119 77.6331C119 68.2783 123.887 61 132.196 61C138.096 61 143.06 65.0593 143.774 72.339H138.06Z" fill="#2A2A28"/>
<path d="M145 61H150.728V72.8976H161.272V61H167V92H161.272V78.6278H150.728V92H145V61Z" fill="#2A2A28"/>
<path d="M173.815 82.7935C173.815 86.9866 176.65 88.6161 179.863 88.6161C181.966 88.6161 185.181 87.9152 185.181 84.6921C185.181 81.2937 181.087 80.7211 177.07 79.4862C173.012 78.2513 168.917 76.4396 168.917 70.5287C168.917 64.0879 174.199 61 179.135 61C184.838 61 190.08 63.8672 190.08 71.1482H184.264C184.07 67.3538 181.739 66.3825 178.868 66.3825C176.955 66.3825 174.738 67.3083 174.738 69.9575C174.738 72.3817 176.035 72.6908 182.888 74.7204C184.875 75.2931 191 76.7515 191 83.8959C191 89.6758 187.057 94 179.634 94C173.587 94 167.922 90.5588 168.001 82.7935H173.815Z" fill="#2A2A28"/>
<path d="M192 61H211.707V66.7288H197.79V73.3742H210.562V78.6699H197.79V86.2685H212V92H192V61Z" fill="#2A2A28"/>
<path d="M213 92H218.874V79.8851H224.743C227.698 79.8851 228.782 81.3191 229.193 84.5752C229.493 87.0492 229.416 90.046 230.127 92H236C234.952 90.2619 234.988 86.6161 234.878 84.6621C234.691 81.5363 233.867 78.2788 230.99 77.4111V77.3242C233.943 75.9351 235.214 73.1977 235.214 69.5518C235.214 64.8631 232.186 61 227.398 61H213V92ZM218.874 66.297H225.304C227.921 66.297 229.344 67.5979 229.344 70.596C229.344 73.7218 227.921 75.024 225.304 75.024H218.874V66.297Z" fill="#2A2A28"/>
</svg>
