<svg width="303" height="155" viewBox="0 0 303 155" fill="none" xmlns="http://www.w3.org/2000/svg">
<path d="M129.329 80.0722C129.294 80.4406 129.274 80.7581 129.233 81.0726C128.982 82.9591 128.564 84.8121 127.794 86.5426C126.901 88.5496 125.851 90.4763 124.285 92.0432C122.699 93.6288 120.917 94.9125 118.92 95.9176C117.419 96.6735 115.82 97.0421 114.224 97.4498C112.791 97.8153 111.339 97.992 109.86 97.9903C100.958 97.9803 92.0572 97.9853 83.156 97.9853C82.4697 97.9853 82.0061 97.5119 82.0061 96.8107C82.0059 89.2602 82.0059 81.7099 82.0061 74.1595C82.0061 73.3505 82.3725 72.9785 83.1671 72.9785C86.3016 72.9785 89.4362 72.988 92.5707 72.9744C94.0783 72.9678 95.0702 73.7717 95.4826 75.1522C95.6273 75.6363 95.714 76.1587 95.7167 76.6641C95.7362 80.2921 95.7271 83.9204 95.7271 87.5484C95.7271 88.4896 96.0747 88.8525 96.9988 88.8663C97.4294 88.8729 97.8601 88.8676 98.2908 88.8676C100.349 88.8676 102.407 88.8419 104.464 88.8756C106.208 88.9039 107.885 88.6261 109.518 87.9992C112.252 86.9492 114.158 85.0208 115.187 82.2472C116.382 79.0281 116.327 75.7655 115.148 72.5503C114.55 70.9189 113.542 69.575 112.179 68.4886C110.447 67.1087 108.474 66.4402 106.335 66.2061C105.434 66.1074 104.523 66.0496 103.617 66.048C96.8934 66.0351 90.1696 66.0424 83.446 66.0357C83.1885 66.0354 82.921 65.9901 82.6759 65.9093C82.2033 65.7536 82.0067 65.4414 82.0064 64.9315C82.0054 63.3503 82.0275 61.7687 82.0005 60.1881C81.968 58.2913 83.6187 57.004 85.1295 57.0052C93.8273 57.0126 102.525 56.9819 111.223 57.0383C112.505 57.0467 113.804 57.3744 115.063 57.6909C116.554 58.066 118.037 58.5029 119.406 59.2638C121.493 60.4238 123.399 61.8144 124.939 63.6889C125.016 63.782 125.096 63.872 125.196 63.9892C125.247 63.9058 125.298 63.8449 125.324 63.7742C126.069 61.772 127.451 60.3063 129.129 59.1156C130.593 58.0768 132.23 57.4408 133.993 57.1711C134.534 57.0884 135.083 57.0159 135.629 57.0155C147.653 57.0067 159.676 57.0009 171.7 57.0191C173.15 57.0214 174.551 57.3421 175.918 57.898C177.054 58.3604 178.055 58.998 179.031 59.7352C180.275 60.675 181.134 61.9062 181.797 63.2909C185.432 70.8844 189.049 78.4871 192.668 86.0888C192.797 86.3601 192.882 86.5927 193.268 86.5896C193.697 86.586 193.884 86.3552 194.044 86.0168C197.954 77.7569 201.865 69.4981 205.777 61.239C206.33 60.0717 206.883 58.9047 207.434 57.7364C207.661 57.2561 207.987 56.9972 208.551 57C212.044 57.0174 215.538 57.0086 219.031 57.0089C219.656 57.009 219.973 57.3582 219.998 58.0024C220.016 58.4697 219.907 58.8789 219.705 59.2982C213.899 71.3094 208.101 83.3245 202.308 95.3422C201.618 96.7731 200.463 97.5639 199.006 97.9644C198.871 98.0016 198.721 97.9845 198.578 97.9845C195.287 97.9853 191.997 97.9599 188.707 97.9997C187.643 98.0125 186.758 97.6236 185.901 97.0684C185.291 96.6734 184.923 96.0753 184.609 95.4341C182.788 91.7137 180.968 87.9926 179.147 84.2724C176.763 79.4034 174.382 74.5324 171.99 69.6679C171.091 67.8405 169.682 66.7043 167.681 66.3393C166.569 66.1364 165.461 66.0325 164.332 66.0344C157.129 66.0469 149.927 66.0399 142.725 66.0422C141.99 66.0424 141.258 66.1116 140.601 66.4734C140.001 66.8036 139.531 67.2787 139.288 67.959C138.883 69.0925 138.818 70.2331 139.43 71.2888C139.691 71.7383 140.154 72.0819 140.568 72.4173C141.181 72.9135 141.935 72.9735 142.679 72.9744C147.907 72.9816 153.136 73.0051 158.364 72.9639C160.22 72.9492 161.979 73.259 163.726 73.906C165.794 74.6721 167.444 75.9859 168.743 77.7317C169.544 78.8074 170.015 80.1004 170.377 81.4225C170.879 83.2576 170.853 85.1168 170.793 86.9943C170.75 88.3297 170.436 89.5972 169.964 90.8079C169.622 91.6831 169.105 92.5012 168.582 93.2848C167.135 95.4485 165.024 96.6331 162.638 97.3876C161.208 97.8393 159.752 98.0009 158.255 97.9958C151.364 97.9718 144.472 97.9981 137.581 97.9762C135.856 97.9707 134.684 96.9119 134.583 95.1744C134.48 93.4156 134.512 91.6484 134.502 89.8846C134.5 89.3852 134.843 89.0186 135.334 88.9324C135.544 88.8953 135.76 88.8702 135.974 88.8701C142.039 88.8668 148.105 88.8538 154.171 88.8771C155.657 88.8829 157.16 87.6064 157.275 86.0141C157.323 85.3494 157.252 84.7235 157.076 84.0974C156.796 83.1024 156.053 82.5767 155.169 82.2679C154.682 82.0976 154.141 82.0235 153.623 82.0219C148.06 82.0052 142.497 82.0075 136.933 82.014C135.361 82.0158 133.803 81.8804 132.308 81.369C131.43 81.069 130.588 80.6571 129.732 80.2915C129.613 80.2406 129.503 80.1676 129.329 80.0722Z" fill="#2A2A28"/>
</svg>
