<svg width="85" height="84" viewBox="0 0 85 84" fill="none" xmlns="http://www.w3.org/2000/svg">
<path d="M31.9795 53.7534H68.8014C69.4824 53.7534 70.0342 53.2014 70.0342 52.5205V23.589C70.0342 23.2107 69.8605 22.8532 69.5631 22.6196L51.1522 8.15385C50.7049 7.80256 50.0759 7.80256 49.6287 8.15385L31.2177 22.6196C30.9202 22.8534 30.7466 23.2107 30.7466 23.589V52.5205C30.7466 53.2014 31.2984 53.7534 31.9795 53.7534ZM45.048 51.2876V32.7123H55.7329V51.2876H45.048ZM33.2123 24.1883L50.3904 10.6913L67.5685 24.1883V51.2876H58.1986V31.4794C58.1986 30.7985 57.6468 30.2465 56.9658 30.2465H43.8151C43.134 30.2465 42.5822 30.7985 42.5822 31.4794V51.2876H33.2123V24.1883Z" fill="#C1A477"/>
<path d="M76.6919 51.2876C76.0108 51.2876 75.459 51.8396 75.459 52.5205C75.459 53.2014 76.0108 53.7534 76.6919 53.7534H81.9521C82.6332 53.7534 83.185 53.2014 83.185 52.5205C83.185 51.8396 82.6332 51.2876 81.9521 51.2876H80.5549V10.3561H81.9521C82.6332 10.3561 83.185 9.80413 83.185 9.12326C83.185 8.44238 82.6332 7.89038 81.9521 7.89038H76.6919C76.0108 7.89038 75.459 8.44238 75.459 9.12326C75.459 9.80413 76.0108 10.3561 76.6919 10.3561H78.0891V51.2876H76.6919Z" fill="#C1A477"/>
<path d="M83.2671 63.1233H68.8014C68.1203 63.1233 67.5685 63.6753 67.5685 64.3562C67.5685 65.037 68.1203 65.589 68.8014 65.589H82.0342V81.5342H75.2945V77.5069C75.2945 76.826 74.7427 76.274 74.0616 76.274C73.3806 76.274 72.8288 76.826 72.8288 77.5069V81.5342H64.774V76.1918C64.774 75.5109 64.2221 74.9589 63.5411 74.9589C62.8601 74.9589 62.3082 75.5109 62.3082 76.1918V81.5342H54.2534V77.5069C54.2534 76.826 53.7016 76.274 53.0205 76.274C52.3395 76.274 51.7877 76.826 51.7877 77.5069V81.5342H43.7329V76.1918C43.7329 75.5109 43.181 74.9589 42.5 74.9589C41.819 74.9589 41.2671 75.5109 41.2671 76.1918V81.5342H33.2123V77.5069C33.2123 76.826 32.6605 76.274 31.9795 76.274C31.2984 76.274 30.7466 76.826 30.7466 77.5069V81.5342H22.6918V76.1918C22.6918 75.5109 22.1399 74.9589 21.4589 74.9589C20.7779 74.9589 20.226 75.5109 20.226 76.1918V81.5342H12.1712V77.5069C12.1712 76.826 11.6194 76.274 10.9384 76.274C10.2573 76.274 9.70548 76.826 9.70548 77.5069V81.5342H2.96575V74.7904C2.99304 74.7922 3.02016 74.7945 3.04795 74.7945H6.99315C7.67419 74.7945 8.22603 74.2425 8.22603 73.5616C8.22603 72.8808 7.67419 72.3288 6.99315 72.3288H3.04795C3.02016 72.3288 2.99304 72.3311 2.96575 72.3329V64.2699C2.99304 64.2717 3.02016 64.274 3.04795 64.274H9.62329C10.3043 64.274 10.8562 63.722 10.8562 63.0411C10.8562 62.3602 10.3043 61.8082 9.62329 61.8082H3.04795C3.02016 61.8082 2.99304 61.8105 2.96575 61.8123V53.7493C2.99304 53.7511 3.02016 53.7534 3.04795 53.7534H6.99315C7.67419 53.7534 8.22603 53.2014 8.22603 52.5205C8.22603 51.8397 7.67419 51.2877 6.99315 51.2877H3.04795C3.02016 51.2877 2.99304 51.29 2.96575 51.2918V43.2288C2.99304 43.2306 3.02016 43.2329 3.04795 43.2329H9.62329C10.3043 43.2329 10.8562 42.6809 10.8562 42C10.8562 41.3191 10.3043 40.7671 9.62329 40.7671H3.04795C3.02016 40.7671 2.99304 40.7694 2.96575 40.7712V32.7082C2.99304 32.71 3.02016 32.7123 3.04795 32.7123H6.99315C7.67419 32.7123 8.22603 32.1603 8.22603 31.4795C8.22603 30.7986 7.67419 30.2466 6.99315 30.2466H3.04795C3.02016 30.2466 2.99304 30.2489 2.96575 30.2507V22.1877C2.99304 22.1895 3.02016 22.1918 3.04795 22.1918H9.62329C10.3043 22.1918 10.8562 21.6398 10.8562 20.9589C10.8562 20.278 10.3043 19.726 9.62329 19.726H3.04795C3.02016 19.726 2.99304 19.7283 2.96575 19.7301V11.6671C2.99304 11.6689 3.02016 11.6712 3.04795 11.6712H6.99315C7.67419 11.6712 8.22603 11.1192 8.22603 10.4384C8.22603 9.75748 7.67419 9.20548 6.99315 9.20548H3.04795C3.02016 9.20548 2.99304 9.20778 2.96575 9.20959V2.46575H18.911V64.3562C18.911 65.037 19.4628 65.589 20.1438 65.589H62.7907C63.4717 65.589 64.0236 65.037 64.0236 64.3562C64.0236 63.6753 63.4717 63.1233 62.7907 63.1233H21.3767V1.23288C21.3767 0.552 20.8249 0 20.1438 0H1.73288C1.05184 0 0.5 0.552 0.5 1.23288V82.7671C0.5 83.448 1.05184 84 1.73288 84H83.2671C83.9482 84 84.5 83.448 84.5 82.7671V64.3562C84.5 63.6753 83.9482 63.1233 83.2671 63.1233Z" fill="#C1A477"/>
</svg>
