<svg width="303" height="155" viewBox="0 0 303 155" fill="none" xmlns="http://www.w3.org/2000/svg">
<path fill-rule="evenodd" clip-rule="evenodd" d="M160.84 88.9181V94.6131C160.163 94.7596 159.516 94.7821 158.908 94.7821C155.778 94.7821 153.361 93.2567 153.361 89.8203C153.361 87.8267 154.05 86.5209 155.167 85.7223C156.372 84.8646 158.077 84.5918 159.951 84.5918H165.64V80.7291H159.027C156.782 80.7291 154.437 80.8704 152.396 81.8999C149.7 83.259 148 85.7737 148 89.7864C148 96.3957 152.932 98.8714 158.439 98.9952C160.841 99.0483 163.552 98.6552 165.679 97.9606V88.9164L160.84 88.9181ZM178.034 84.7312H174.155V88.884H178.034C179.294 88.884 180.362 88.1736 180.383 86.8372C180.407 85.4792 179.294 84.7312 178.034 84.7312ZM179.845 98.5324L176.671 92.5515H174.155V98.5324H169.305V80.7291H178.767C182.961 80.7291 185.341 83.3442 185.341 86.6534C185.341 89.7489 183.165 91.3373 181.408 91.9246L185.428 98.5324H179.845ZM227.105 90.6834C227.105 96.1812 223.195 98.9107 218.072 98.9107C212.947 98.9107 209.019 96.1812 209.019 90.6834V80.7291H214.243V89.9824C214.243 92.6499 215.023 94.4292 218.072 94.4292C221.087 94.4292 221.865 92.635 221.865 90.0096V80.7291H227.105V90.6834ZM179.876 64.3652C179.029 63.8665 177.896 63.3059 176.481 62.6758C175.683 62.3219 175.131 62.0123 174.823 61.7622C174.395 61.4178 174.217 60.7849 174.487 60.2907C174.735 59.8279 175.323 59.6028 175.884 59.6028H182.416V56H175.493C172.258 56 169.014 57.2022 169.014 61.0246C169.014 62.7464 169.901 63.9311 171.083 64.8097C172.978 66.2209 174.669 66.493 176.335 67.6148C176.97 68.0428 177.145 68.606 176.905 69.245C176.621 69.9885 175.586 70.0792 174.883 70.0792H169.123V73.8233H176.298C179.557 73.8233 182.596 72.2987 182.596 68.5484C182.596 66.5548 181.52 65.3353 179.876 64.3652V64.3652ZM239.692 84.7329H235.985V88.9608H239.692C241.003 88.9608 241.844 88.1301 241.847 86.8731C241.849 85.5185 240.957 84.7329 239.692 84.7329V84.7329ZM230.847 98.5393V80.7291H240.557C244.854 80.7291 247 83.529 247 86.7607C247 89.9633 244.718 92.766 240.418 92.766H235.985V98.5393H230.847ZM160.84 64.2004V69.8971C160.163 70.0419 159.516 70.0636 158.908 70.0636C155.778 70.0636 153.361 68.5397 153.361 65.1043C153.361 63.109 154.05 61.803 155.167 61.0063C156.372 60.1442 158.077 59.8758 159.951 59.8758H165.64V56.0104H159.027C156.782 56.0104 154.437 56.1535 152.396 57.1821C149.7 58.5402 148 61.0553 148 65.0687C148 71.678 152.932 74.153 158.439 74.2792C160.841 74.3323 163.552 73.9384 165.679 73.2429V64.1987L160.84 64.2004ZM196.942 80.3656C190.793 80.3656 187.262 83.8073 187.262 89.6233C187.262 95.4404 191.041 98.8949 196.942 98.8949C202.848 98.8949 206.584 95.4456 206.584 89.6233C206.584 83.8018 203.096 80.3656 196.942 80.3656V80.3656ZM196.942 94.7203C193.882 94.7203 192.488 92.7336 192.488 89.6233C192.488 86.512 193.951 84.5394 196.942 84.5394C199.939 84.5394 201.358 86.5051 201.358 89.6233C201.358 92.7388 200.005 94.7203 196.942 94.7203V94.7203Z" fill="#2A2A28"/>
<path fill-rule="evenodd" clip-rule="evenodd" d="M119.83 66.5824L98 98H138V56C128.748 56.053 124.255 60.2154 119.83 66.5824Z" fill="#2A2A28"/>
<path fill-rule="evenodd" clip-rule="evenodd" d="M77.3797 99C85.1568 99 91.2371 95.2787 95.5774 88.9077L118 56H77.4039C65.5839 56 56 65.5836 56 77.5004C56 89.3979 65.5708 99 77.3797 99Z" fill="#2A2A28"/>
</svg>
