<svg width="85" height="84" viewBox="0 0 85 84" fill="none" xmlns="http://www.w3.org/2000/svg">
<path d="M82.0946 69.6438L79.3914 66.9399C78.9108 66.4593 78.1315 66.4593 77.6508 66.9399C77.1702 67.4206 77.1702 68.1992 77.6508 68.6799L80.3547 71.3837C80.3745 71.4042 80.4361 71.4651 80.4008 71.574C80.3656 71.6824 80.2803 71.6958 80.2528 71.6997L73.7883 72.7077C72.645 72.8859 71.7574 73.7741 71.5793 74.9168L70.5724 81.3787C70.568 81.4069 70.5545 81.4934 70.4456 81.5286C70.3379 81.5639 70.2783 81.5049 70.2565 81.4825L58.4748 69.7008C62.5661 67.1508 66.0037 63.6472 68.4749 59.5027L74.037 65.066C74.2767 65.3064 74.592 65.4262 74.9066 65.4262C75.2219 65.4262 75.5366 65.3064 75.7769 65.066C76.2576 64.5854 76.2576 63.8061 75.7769 63.3261L69.6957 57.243C71.6235 53.2747 72.7059 48.8232 72.7059 44.1231V13.7498C72.7059 10.1494 69.7784 7.22066 66.1806 7.22066C65.5282 7.22066 64.8815 7.31807 64.258 7.51097C62.7891 7.96407 61.2555 8.1935 59.7001 8.1935C55.0083 8.1935 50.6254 6.09465 47.6755 2.4353C46.4284 0.887602 44.5737 0 42.5883 0C40.6023 0 38.7482 0.887602 37.5017 2.43466C34.5512 6.09465 30.1683 8.1935 25.4765 8.1935C23.9211 8.1935 22.3869 7.96407 20.9186 7.51033C20.2951 7.31807 19.6484 7.22066 18.996 7.22066C15.3976 7.22066 12.4707 10.1494 12.4707 13.7498V27.0722C12.4707 27.7515 13.0212 28.3026 13.7012 28.3026C14.3805 28.3026 14.9317 27.7515 14.9317 27.0722V13.7498C14.9317 11.5068 16.7549 9.68159 18.996 9.68159C19.4017 9.68159 19.8042 9.74247 20.1932 9.86232C21.8973 10.3878 23.6744 10.6544 25.4765 10.6544C30.9162 10.6544 35.9976 8.22169 39.4179 3.97915C40.1947 3.014 41.3502 2.46093 42.5883 2.46093C43.8258 2.46093 44.9813 3.014 45.7593 3.97915C49.179 8.22105 54.2598 10.6544 59.7001 10.6544C61.5016 10.6544 63.2794 10.3878 64.9834 9.86232C65.3718 9.74247 65.7743 9.68159 66.1806 9.68159C68.4217 9.68159 70.245 11.5068 70.245 13.7498V44.1225C70.245 48.7117 69.1215 53.0434 67.1348 56.8572C67.1137 56.8924 67.0951 56.9289 67.0778 56.9655C62.3732 65.9011 53.0588 71.7798 42.5883 71.7798C37.7767 71.7798 33.2483 70.5442 29.3031 68.3748C29.2916 68.3684 29.2807 68.362 29.2685 68.3556C20.5117 63.5235 14.9317 54.3097 14.9317 44.1225V31.994C14.9317 31.3141 14.3805 30.7636 13.7012 30.7636C13.0212 30.7636 12.4707 31.3141 12.4707 31.994V44.1225C12.4707 48.8226 13.5532 53.2747 15.4809 57.2423L9.34394 63.3812C8.86328 63.8625 8.86328 64.6411 9.34394 65.1218C9.58426 65.3621 9.89893 65.482 10.2142 65.482C10.5289 65.482 10.8442 65.3621 11.0845 65.1218L16.7017 59.5027C19.1729 63.6465 22.6112 67.1508 26.7018 69.7008L14.9201 81.4825C14.8983 81.5049 14.8387 81.5639 14.7311 81.5286C14.6221 81.4928 14.6087 81.4069 14.6048 81.3787L13.5974 74.9162C13.4192 73.7741 12.5316 72.8859 11.3883 72.7071L4.92451 71.6997C4.89631 71.6958 4.81172 71.6824 4.77647 71.574C4.74058 71.4651 4.8021 71.4042 4.82197 71.3837L7.60782 68.5979C8.08847 68.1172 8.08847 67.3385 7.60782 66.8579C7.12653 66.3773 6.34788 66.3779 5.86787 66.8579L3.08202 69.6438C2.37322 70.3526 2.12584 71.3843 2.43666 72.3367C2.74684 73.2896 3.55498 73.9767 4.54512 74.1318L11.0089 75.1385C11.0903 75.1514 11.1531 75.2142 11.1659 75.2956L12.1734 81.7581C12.3278 82.7489 13.0155 83.5576 13.9678 83.8678C14.2395 83.9569 14.5177 83.9998 14.7932 83.9998C15.4828 83.9998 16.1544 83.7294 16.6607 83.2225L28.9244 70.9588C33.0278 73.0564 37.6722 74.2407 42.5883 74.2407C47.5044 74.2407 52.1494 73.0564 56.2523 70.9588L68.5159 83.2225C69.0228 83.7294 69.6945 83.9998 70.3834 83.9998C70.659 83.9998 70.9371 83.9569 71.2095 83.8678C72.1618 83.5576 72.8495 82.7489 73.0039 81.7581L74.0113 75.2956C74.0235 75.2142 74.087 75.1514 74.1677 75.1385L80.6322 74.1311C81.6217 73.9767 82.4298 73.289 82.7406 72.3367C83.0508 71.3843 82.8034 70.3526 82.0946 69.6438Z" fill="#C1A477"/>
<path d="M17.2998 44.1226C17.2998 58.0672 28.6438 69.4113 42.5885 69.4113C56.5479 69.4113 67.8772 58.0531 67.8772 44.1226V31.9941C67.8772 31.3141 67.326 30.7636 66.6467 30.7636C65.9668 30.7636 65.4163 31.3141 65.4163 31.9941V44.1226C65.4163 48.2683 64.305 52.1597 62.3651 55.514L53.4314 46.579C52.9507 46.099 52.1714 46.0984 51.6914 46.579C51.2108 47.0597 51.2108 47.839 51.6908 48.3196L60.9891 57.618C56.8305 63.2737 50.1309 66.9503 42.5885 66.9503C30.0012 66.9503 19.7607 56.7099 19.7607 44.1232V16.387L38.6484 35.276C38.8888 35.5163 39.2034 35.6362 39.5187 35.6362C39.8334 35.6362 40.1481 35.5163 40.3884 35.276C40.869 34.7953 40.869 34.0161 40.389 33.5354L22.0858 15.2322C23.2035 15.3994 24.3365 15.484 25.4767 15.484C32.0782 15.484 38.2639 12.6623 42.5885 7.71158C46.9124 12.6623 53.0981 15.484 59.7003 15.484C61.6383 15.484 63.5565 15.2399 65.4163 14.7579V27.0722C65.4163 27.7516 65.9668 28.3027 66.6467 28.3027C67.326 28.3027 67.8772 27.7516 67.8772 27.0722V13.7505C67.8772 13.2128 67.6189 12.7007 67.1857 12.3816C66.755 12.0637 66.1924 11.9676 65.6816 12.1252C63.7513 12.7206 61.739 13.0231 59.7003 13.0231C53.5403 13.0231 47.7866 10.268 43.9151 5.46533C43.5895 5.06094 43.1057 4.82959 42.5885 4.82959C42.0707 4.82959 41.5868 5.06094 41.2613 5.46533C37.3898 10.268 31.6367 13.0231 25.4767 13.0231C23.438 13.0231 21.4257 12.7206 19.4948 12.1252C18.984 11.9676 18.422 12.0637 17.9907 12.3816C17.8401 12.4925 17.7112 12.627 17.6061 12.777C17.5984 12.7879 17.5914 12.7982 17.5844 12.8091C17.412 13.0667 17.3145 13.3647 17.3011 13.6749C17.3011 13.6819 17.3011 13.689 17.3004 13.696V13.7076C17.3004 13.712 17.2998 13.7172 17.2998 13.7223V13.7473V13.7492V44.1226Z" fill="#C1A477"/>
<path d="M50.0105 28.5148L39.2638 40.1933L35.1058 35.82C33.0217 33.6283 29.5431 33.5398 27.3513 35.6239C25.1595 37.7074 25.0711 41.186 27.1546 43.3785L34.7258 51.3425C35.9165 52.5948 37.5905 53.3132 39.3189 53.3132H39.3702C41.1178 53.2985 42.7982 52.5531 43.9806 51.2675L58.0823 35.9425C60.1299 33.7174 59.9857 30.2406 57.7606 28.1924C55.5348 26.1448 52.0581 26.289 50.0105 28.5148ZM56.0943 30.0035C57.3209 31.1327 57.4004 33.0496 56.2718 34.2762L42.1695 49.6013C41.4466 50.3876 40.4193 50.8433 39.3606 50.8523H39.3189C38.2615 50.8523 37.238 50.4126 36.51 49.6468L28.9388 41.6827C27.7897 40.474 27.8384 38.5566 29.0471 37.4075C29.6315 36.8518 30.3813 36.5769 31.1299 36.5769C31.9297 36.5769 32.7289 36.8916 33.3223 37.5158L38.3864 42.8427C38.6184 43.0875 38.9408 43.2259 39.2779 43.2259H39.2882C39.6285 43.2227 39.9534 43.0792 40.1834 42.8286L51.8216 30.181C52.9502 28.9544 54.867 28.8743 56.0943 30.0035Z" fill="#C1A477"/>
</svg>
