<svg width="303" height="155" viewBox="0 0 303 155" fill="none" xmlns="http://www.w3.org/2000/svg">
<path d="M66 110.868C66.2961 110.579 66.3463 110.167 66.4915 109.806C66.9634 108.633 67.4121 107.451 67.883 106.238C68.1169 106.273 68.2876 106.294 68.3335 106.577C68.4094 107.048 68.709 107.38 69.0844 107.622C70.8221 108.741 72.7106 109.114 74.7266 108.734C75.9258 108.507 76.5802 107.707 76.8064 106.505C76.8929 106.045 76.9292 105.582 76.9288 105.114C76.9262 101.318 76.9258 97.522 76.9299 93.7261C76.9305 93.1707 76.9109 92.6542 76.2344 92.4954C75.9792 92.4355 76.0558 92.2124 76.0779 92C78.0368 92 79.9727 92 81.9132 92C82.0053 92.2235 82.0902 92.4558 81.7983 92.5263C81.1821 92.6751 81.141 93.1315 81.1418 93.6509C81.1465 97.4045 81.1429 101.158 81.1445 104.911C81.1449 105.782 81.0863 106.646 80.928 107.504C80.7224 108.618 80.1589 109.504 79.311 110.207C78.1012 111.21 76.6898 111.692 75.1642 111.901C73.1149 112.182 71.1262 111.82 69.146 111.352C68.3184 111.156 67.4972 110.925 66.6511 111.239C66.409 111.329 66.2255 111.11 66 111.123C66 111.038 66 110.953 66 110.868Z" fill="#2A2A28"/>
<path d="M105.904 101.234C106.384 101.532 106.794 101.802 107.184 102.106C109.698 104.066 109.494 108.371 107.236 110.226C105.859 111.357 104.262 111.805 102.564 111.929C100.952 112.048 99.3349 111.983 97.7202 111.979C94.8991 111.973 92.0778 112.025 89.2571 111.948C89.1977 111.946 89.1388 111.93 89.0462 111.916C88.9859 111.682 88.9306 111.477 89.252 111.383C89.8204 111.217 89.8914 110.755 89.8898 110.219C89.8803 106.998 89.8851 103.776 89.8851 100.555C89.8851 98.2994 89.8798 96.0443 89.8887 93.7891C89.8909 93.2173 89.8496 92.7093 89.1943 92.5435C88.9515 92.482 89.0028 92.2631 89.018 92.1005C89.1478 91.9688 89.276 92.0043 89.3933 92.0044C93.6663 92.0114 97.9395 92.0171 102.212 92.0323C103.283 92.036 104.325 92.2293 105.331 92.624C107.09 93.3133 108.209 94.567 108.395 96.5762C108.576 98.5442 107.808 100.035 106.192 101.045C106.122 101.088 106.055 101.135 105.904 101.234ZM94.0673 108.554C96.5421 108.556 98.954 108.641 101.365 108.54C102.138 108.508 102.913 108.408 103.641 108.084C104.288 107.795 104.706 107.306 104.859 106.58C105.171 105.102 104.61 104.045 103.243 103.574C102.361 103.27 101.442 103.185 100.52 103.18C98.4947 103.168 96.4696 103.173 94.4447 103.174C94.3272 103.175 94.1986 103.134 94.0674 103.254C94.0673 104.985 94.0673 106.737 94.0673 108.554ZM94.0583 99.5453C96.7668 99.5614 99.4205 99.6477 102.075 99.5443C102.465 99.529 102.843 99.4244 103.207 99.2804C104.046 98.9479 104.474 98.2614 104.432 97.3373C104.388 96.3825 103.994 95.8471 103.102 95.5609C102.412 95.3394 101.7 95.2843 100.981 95.2847C98.8139 95.2857 96.6466 95.2826 94.4791 95.2855C94.3435 95.2856 94.192 95.2336 94.0583 95.3778C94.0583 96.7311 94.0583 98.1001 94.0583 99.5453Z" fill="#2A2A28"/>
<path d="M149 92.0012C152.19 92.0003 154.737 92.6305 156.994 94.2158C162.398 98.0101 162.496 106.386 156.3 110.203C152.432 112.586 146.527 112.621 142.7 110.178C139.157 107.915 137.566 104.699 138.101 100.662C138.661 96.4457 141.366 93.8747 145.454 92.5379C146.735 92.1194 148.078 91.9857 149 92.0012ZM149.42 108.358C149.702 108.358 149.985 108.374 150.265 108.356C153.84 108.122 156.475 105.885 156.733 102.461C157.015 98.7097 154.746 96.1763 151.444 95.5251C150.284 95.2964 149.114 95.2541 147.95 95.4447C145.3 95.8787 143.331 97.2046 142.573 99.7367C141.795 102.339 142.168 104.783 144.372 106.713C145.79 107.955 147.547 108.352 149.42 108.358Z" fill="#2A2A28"/>
<path d="M200.451 92.0004C203.178 91.9935 205.703 92.6118 207.94 94.1647C213.579 98.0792 213.55 106.986 206.551 110.496C202.583 112.486 198.417 112.522 194.457 110.48C187.741 107.016 188.104 99.8188 190.858 96.3205C192.721 93.9537 195.2 92.5904 198.25 92.1461C198.98 92.0398 199.713 91.9952 200.451 92.0004ZM200.477 108.272C200.758 108.272 201.041 108.29 201.32 108.27C204.898 108.014 207.411 105.787 207.714 102.549C208.069 98.7695 205.816 96.1251 202.344 95.4822C201.229 95.2757 200.104 95.2388 198.987 95.4201C196.316 95.8535 194.338 97.1827 193.591 99.7354C192.831 102.329 193.213 104.76 195.431 106.665C196.856 107.89 198.609 108.277 200.477 108.272Z" fill="#2A2A28"/>
<path d="M132.337 104.762C133.246 106.142 134.134 107.489 135 108.805C134.93 109.021 134.746 109.02 134.646 109.171C134.219 108.703 133.809 108.893 133.388 109.144C131.886 110.041 130.32 110.808 128.635 111.325C126.796 111.889 124.916 112.12 122.995 111.94C119.308 111.593 116.337 110.002 114.404 106.886C111.259 101.816 113.607 95.2801 119.356 93.003C122.814 91.6335 126.339 91.7686 129.863 92.7925C130.673 93.0278 131.48 93.2751 132.281 93.5377C132.771 93.698 133.259 93.8183 133.771 93.6895C134.061 93.6166 134.259 93.7306 134.461 93.9437C133.568 95.3614 132.673 96.7827 131.773 98.2121C131.533 98.1226 131.319 98.0881 131.316 97.8161C131.312 97.4173 131.042 97.1757 130.749 96.9695C130.164 96.5591 129.519 96.2798 128.833 96.0473C128.038 95.7781 127.244 95.5331 126.411 95.4266C124.886 95.2316 123.372 95.2419 121.89 95.72C118.952 96.6684 117.212 99.0616 117.29 102.053C117.367 104.995 119.233 107.308 122.192 108.103C124.729 108.784 127.176 108.437 129.555 107.436C130.253 107.143 130.933 106.812 131.548 106.367C131.936 106.086 132.186 105.748 132.01 105.258C131.912 104.984 132.065 104.89 132.337 104.762Z" fill="#2A2A28"/>
<path d="M183.313 104.779C184.202 106.127 185.092 107.476 186 108.853C185.784 109.032 185.631 109.238 185.35 108.983C185.148 108.8 184.925 108.845 184.705 108.967C184.3 109.192 183.892 109.41 183.488 109.635C180.516 111.29 177.368 112.269 173.903 111.935C166.002 111.172 161.861 103.992 165.118 97.5236C166.57 94.6402 169.181 93.0586 172.349 92.3642C175.203 91.7389 178.028 91.9466 180.814 92.7743C181.603 93.0088 182.391 93.2463 183.173 93.5034C183.702 93.6774 184.228 93.8152 184.786 93.6711C185.056 93.6013 185.229 93.7347 185.425 93.9318C184.536 95.3467 183.643 96.7677 182.748 98.1915C182.462 98.125 182.282 98.0473 182.274 97.7544C182.264 97.4146 182.027 97.1876 181.77 97.0014C181.173 96.5688 180.51 96.2764 179.802 96.0378C179.007 95.7696 178.214 95.5243 177.38 95.4178C175.635 95.1946 173.913 95.2349 172.263 95.927C169.614 97.038 168.147 99.2939 168.244 102.1C168.34 104.874 169.996 107.065 172.717 107.967C175.264 108.811 177.76 108.508 180.207 107.563C181.012 107.253 181.791 106.88 182.495 106.376C182.882 106.098 183.143 105.768 182.979 105.272C182.882 104.979 183.018 104.859 183.313 104.779Z" fill="#2A2A28"/>
<path d="M222.14 92C224.27 92 226.367 92 228.5 92C228.555 92.2441 228.609 92.418 228.315 92.5812C227.555 93.0018 227.492 93.233 227.886 94.0792C228.673 95.7711 229.478 97.4542 230.277 99.1408C231.882 102.533 233.488 105.926 235.094 109.319C235.332 109.823 235.574 110.326 235.911 110.772C236.12 111.05 236.374 111.287 236.7 111.393C237.034 111.501 237.038 111.704 236.955 112C234.67 112 232.408 112 230.125 112C229.986 111.703 230.051 111.547 230.341 111.395C231.045 111.026 231.134 110.756 230.806 109.996C230.365 108.973 229.894 107.965 229.426 106.929C226.476 106.929 223.543 106.929 220.551 106.929C220.096 108.008 219.609 109.104 219.172 110.22C218.944 110.8 219.071 111.068 219.648 111.352C219.917 111.485 220.07 111.619 219.941 111.98C217.998 111.98 216.037 111.98 214.029 111.98C214.001 111.75 213.923 111.561 214.238 111.422C214.913 111.125 215.299 110.528 215.599 109.874C218.012 104.616 220.422 99.3575 222.831 94.098C223.224 93.2401 223.158 93.0025 222.323 92.5705C222.004 92.4051 222 92.2447 222.14 92ZM228.227 104.124C227.185 101.775 226.174 99.4968 225.117 97.1155C224.013 99.497 222.955 101.779 221.867 104.124C224.002 104.124 226.068 104.124 228.227 104.124Z" fill="#2A2A28"/>
<path d="M186 52.632C184.348 61.9689 179.777 68.9744 171.168 72.8126C163.622 76.1769 154.948 75.4214 150.005 72.1741C149.968 71.9291 150.129 71.7431 150.22 71.54C151.798 68.0469 153.937 64.9292 156.365 62.0136C160.459 57.0977 165.163 52.9077 170.61 49.6219C173.841 47.6733 177.244 46.1512 180.945 45.404C182.332 45.1241 183.733 44.9877 185.147 45.0009C185.411 45.0033 185.675 45.0327 185.996 45.0532C185.553 46.5847 185.048 48.0334 184.498 49.4663C182.999 53.3744 181.127 57.0696 178.559 60.3682C175.1 64.8118 170.713 67.8628 165.421 69.5596C165.283 69.604 165.145 69.6505 165.01 69.7038C164.979 69.7161 164.959 69.7606 164.903 69.8278C167.386 69.7625 169.734 69.2511 171.967 68.2058C175.067 66.7548 177.555 64.51 179.757 61.8985C182.055 59.1727 183.943 56.1575 185.676 53.0351C185.746 52.9086 185.776 52.7534 186 52.632ZM156.308 70.6608C164.268 68.8778 170.176 63.976 175.135 57.6404C175.034 57.6205 174.972 57.6616 174.918 57.7121C172.211 60.2538 169.168 62.2848 165.896 63.9741C164.381 64.7561 162.858 65.5235 161.394 66.4066C159.493 67.5539 157.771 68.9289 156.308 70.6608Z" fill="#2A2A28"/>
<path d="M184.112 66.3882C187.322 62.6105 191.297 60.0114 196.309 59.2645C202.748 58.3047 208.44 59.9425 213.181 64.4173C213.909 65.1042 214.5 65.9028 215 66.7649C214.915 67.0054 214.684 67.0896 214.502 67.2166C211.535 69.2797 208.249 70.7022 204.806 71.8009C200.186 73.2751 195.461 74.1157 190.585 73.9871C187.733 73.9118 184.953 73.4755 182.335 72.2904C181.878 72.0834 181.437 71.8512 181 71.5844C181.021 71.528 181.027 71.4589 181.065 71.4244C183.752 68.9895 186.616 66.7924 189.904 65.1688C193.179 63.5515 196.631 62.6677 200.319 62.7614C201.433 62.7896 202.537 62.9002 203.632 63.0994C203.772 63.1249 203.917 63.1278 204.068 63.1066C203.177 62.5972 202.211 62.2814 201.219 62.0421C198.291 61.336 195.431 61.7073 192.609 62.594C189.88 63.4514 187.352 64.7285 184.891 66.1454C184.676 66.2696 184.452 66.3807 184.232 66.498C184.192 66.4613 184.152 66.4247 184.112 66.3882ZM192.764 67.2882C192.931 67.3079 193.014 67.3353 193.09 67.3231C193.296 67.2902 193.499 67.2425 193.703 67.1972C196.419 66.5922 199.174 66.4333 201.95 66.5187C203.754 66.5741 205.557 66.5984 207.348 66.3258C208.327 66.1768 209.289 65.9619 210.211 65.5799C204.192 63.9152 198.467 65.0662 192.764 67.2882Z" fill="#2A2A28"/>
<path d="M180 43.191C179.855 43.3939 179.675 43.38 179.517 43.4233C174.121 44.9008 168.985 46.996 164.327 50.226C158.733 54.1048 154.503 59.2261 151.361 65.3403C151.254 65.5487 151.149 65.7585 151.027 66C150.692 64.0102 153.559 56.5751 155.969 53.1647C158.7 49.301 162.234 46.5074 166.565 44.7961C170.893 43.0861 175.375 42.7146 180 43.191Z" fill="#2A2A28"/>
<path d="M184 75.241C193.578 77.5388 202.627 76.5857 211 71C210.197 73.162 204.229 77.2799 200.385 78.3209C194.431 79.9332 189.021 78.583 184 75.241Z" fill="#2A2A28"/>
<path d="M156 71C157.477 69.2715 159.215 67.8992 161.133 66.7541C162.61 65.8728 164.147 65.1069 165.676 64.3264C168.978 62.6404 172.05 60.6134 174.781 58.0767C174.835 58.0263 174.898 57.9853 175 58.0051C169.996 64.3283 164.034 69.2205 156 71Z" fill="#2A2A28"/>
<path d="M193 66.97C198.557 65.2185 204.135 64.3111 210 65.6235C209.101 65.9246 208.164 66.0941 207.21 66.2115C205.465 66.4263 203.708 66.4072 201.951 66.3635C199.246 66.2963 196.562 66.4215 193.915 66.8984C193.717 66.9341 193.518 66.9717 193.318 66.9976C193.244 67.0072 193.164 66.9856 193 66.97Z" fill="#2A2A28"/>
</svg>
