<svg width="303" height="155" viewBox="0 0 303 155" fill="none" xmlns="http://www.w3.org/2000/svg">
<path d="M24.4811 85.1228L42.1637 88.5727L43.537 86.1639L27.8201 79.264L24.4811 85.1228V85.1228ZM32.6741 70.7489L46.4264 81.0998L47.8008 78.691L36.012 64.8902L32.6753 70.7477L32.6741 70.7489ZM28.5648 77.9624L44.2817 84.861L45.6816 82.4003L31.9294 72.0494L28.5648 77.9612V77.9624ZM40.507 57L36.7962 63.5225L48.5838 77.3245L50.33 74.2649L40.5058 57H40.507ZM20 93H39.6461L41.3923 89.9404L23.7108 86.4881L20 93ZM51.177 84.94L55.7742 93H61L51.177 75.7469L41.3539 93H46.5797L51.177 84.94V84.94Z" fill="#2A2A28"/>
<path d="M93.1481 92.9308H100.697L102.433 89.8807H93.1481V92.9308ZM93.1481 84.459V87.5103H103.806L105.58 84.459H93.1481ZM253.187 88.077V79.0641H249.846V92.9308H252.643L260.686 83.8539V92.9308H264.026V79.0641H261.073L253.187 88.077ZM112.795 79.0641L104.79 92.9308H108.727L113.997 83.7769L119.307 92.9308H123.451L115.448 79.0641H112.793H112.795ZM88.7461 89.8795L80.7434 76H78.0098L70.0071 89.8795H68V97H71.1858V92.9308H87.5673V97H90.7544V89.8795H88.7461ZM73.9956 89.8795L79.2659 80.7128L84.576 89.8795H73.9956ZM197.966 79.0641H182.413V82.1154H196.179L197.966 79.0641ZM108.688 79.0641H93.1481V82.1154H106.913L108.688 79.0641ZM279.047 79.0641L271.161 88.077V79.0641H267.819V92.9308H270.63L278.658 83.8539V92.9308H282V79.0641H279.047ZM242.709 84.459H235.392V79.0641H232.052V92.9308H235.392V87.5103H242.709V92.9308H246.05V79.0641H242.709V84.459ZM202.06 79.0641L194.056 92.9308H198.006L203.277 83.7769L208.586 92.9308H212.718L204.715 79.0641H202.06ZM169.035 84.0346H163.96V79.0513H160.618V92.9308H169.01C171.276 92.9308 173.633 91.6832 173.633 88.4116C173.62 84.1115 170.59 84.0346 169.035 84.0346ZM168.842 89.9961H163.947V86.9063H168.842C169.412 86.9063 170.279 87.0602 170.279 88.4512C170.279 89.7384 169.567 89.9961 168.842 89.9961ZM178.633 79.0641H175.33V92.9436H178.633V79.0641ZM131.87 78.7295C126.288 78.7295 123.647 82.1283 123.647 85.9269C123.647 89.8923 126.224 93.1244 131.87 93.1244C134.331 93.1244 140.029 91.9911 140.029 85.9269C140.029 81.9615 137.478 78.7295 131.87 78.7295ZM131.832 90.0731C128.607 90.0731 127.247 88.2309 127.247 85.9654C127.247 83.4808 128.801 81.8193 131.832 81.8193C135.251 81.8193 136.415 83.4808 136.415 85.9654C136.415 88.9386 134.175 90.0731 131.832 90.0731ZM182.413 92.9308H189.963L191.711 89.8807H182.413V92.9308ZM182.413 84.459V87.5103H193.071L194.859 84.459H182.413ZM217.418 87.9988V79.0641H214.078V92.9308H216.888L224.93 83.9308V92.9308H228.271V79.0641H225.461L217.418 87.9988ZM154.61 84.7551C155.491 84.382 156.242 83.7757 156.242 82.2705C156.242 79.3988 153.82 79.0641 152.11 79.0641H143.084V92.9436H152.266C156.475 92.9436 157.342 90.6386 157.342 88.527C157.355 86.1461 155.996 85.1667 154.61 84.7551ZM146.387 82H151.734C152.538 82 152.874 82.4116 152.874 83.2103C152.874 84.0346 152.343 84.459 151.734 84.459H146.387V82ZM152.266 89.9949H146.387V87.0218H152.266C153.211 87.0218 153.897 87.2526 153.897 88.4885C153.897 89.4679 153.484 89.9949 152.266 89.9949Z" fill="#2A2A28"/>
</svg>
