<svg width="85" height="84" viewBox="0 0 85 84" fill="none" xmlns="http://www.w3.org/2000/svg">
<g clip-path="url(#clip0)">
<path d="M83.7265 34.705L76.7275 31.9057C76.0143 29.4928 75.044 27.1568 73.8359 24.9452L76.8096 18.0065C77.0082 17.5444 76.9044 17.0074 76.5487 16.6517L67.8483 7.95126C67.4926 7.59558 66.9562 7.49176 66.4935 7.69043L59.5548 10.6641C57.3432 9.45602 55.0072 8.48575 52.5943 7.77246L49.795 0.773529C49.6079 0.306336 49.1554 0 48.6523 0H36.3477C35.8446 0 35.3921 0.306336 35.205 0.773529L32.4057 7.77246C29.9934 8.48511 27.6568 9.45602 25.4452 10.6641L18.5065 7.69043C18.0438 7.4924 17.5074 7.59558 17.1517 7.95126L8.45126 16.6517C8.09558 17.0074 7.99176 17.5444 8.19043 18.0071L11.1641 24.9452C9.95602 27.1568 8.98575 29.4934 8.27246 31.9057L1.27353 34.705C0.806336 34.8921 0.5 35.3446 0.5 35.8477V48.1523C0.5 48.6554 0.806336 49.1079 1.27353 49.295L8.27246 52.0943C8.98511 54.5066 9.95538 56.8432 11.1641 59.0548L8.19043 65.9935C7.99176 66.4556 8.09558 66.9926 8.45126 67.3483L17.1517 76.0487C17.5074 76.4044 18.0444 76.5082 18.5065 76.3096L25.4452 73.3359C27.6568 74.544 29.9928 75.5149 32.4057 76.2275L35.205 83.2265C35.3921 83.6937 35.8446 84 36.3477 84H48.6523C49.1554 84 49.6079 83.6937 49.7944 83.2265L52.5943 76.2275C55.0066 75.5149 57.3432 74.544 59.5548 73.3359L66.4929 76.3096C66.9556 76.5082 67.492 76.4044 67.8483 76.0487L76.5487 67.3483C76.9044 66.9926 77.0076 66.4556 76.8096 65.9935L73.8359 59.0548C75.044 56.8432 76.0143 54.5072 76.7275 52.0943L83.7265 49.295C84.1937 49.1079 84.5 48.6554 84.5 48.1523V35.8477C84.5 35.3446 84.1937 34.8921 83.7265 34.705ZM82.0391 47.3192L75.2535 50.0333C74.8966 50.1762 74.6268 50.4774 74.5242 50.8478C73.7988 53.4716 72.7465 56.0043 71.3974 58.3755C71.2071 58.71 71.184 59.1144 71.3359 59.4688L74.2198 66.1967L66.6967 73.7198L59.9688 70.8359C59.6144 70.6847 59.21 70.7071 58.8755 70.8974C56.5036 72.2465 53.9716 73.2988 51.3478 74.0242C50.9774 74.1268 50.6762 74.3966 50.5333 74.7535L47.8192 81.5391H37.1808L34.4661 74.7535C34.3238 74.3966 34.0226 74.1268 33.6522 74.0242C31.0284 73.2988 28.4957 72.2465 26.1245 70.8974C25.79 70.7071 25.3856 70.6847 25.0312 70.8359L18.3027 73.7198L10.7802 66.1967L13.6635 59.4688C13.8153 59.1144 13.7929 58.71 13.6019 58.3755C12.2529 56.0036 11.2012 53.4716 10.4751 50.8478C10.3726 50.4774 10.1028 50.1762 9.74646 50.0333L2.96094 47.3192V36.6808L9.74646 33.9661C10.1034 33.8238 10.3732 33.5226 10.4758 33.1522C11.2012 30.5284 12.2535 27.9964 13.6026 25.6252C13.7929 25.29 13.816 24.8856 13.6641 24.5318L10.7802 17.8027L18.3027 10.2802L25.0318 13.1641C25.3856 13.316 25.7906 13.2929 26.1252 13.1026C28.4964 11.7535 31.0284 10.7012 33.6522 9.97577C34.0226 9.87323 34.3238 9.60342 34.4661 9.24646L37.1808 2.46094H47.8192L50.5339 9.24646C50.6762 9.60342 50.9774 9.87323 51.3478 9.97577C53.9716 10.7012 56.5036 11.7535 58.8748 13.1026C59.21 13.2929 59.6144 13.316 59.9682 13.1641L66.6973 10.2802L74.2198 17.8027L71.3359 24.5318C71.184 24.8856 71.2071 25.29 71.3974 25.6252C72.7465 27.9957 73.7988 30.5284 74.5242 33.1522C74.6268 33.5226 74.8966 33.8238 75.2535 33.9661L82.0391 36.6808V47.3192Z" fill="#C1A477"/>
<path d="M42.5 14.9297C27.5735 14.9297 15.4297 27.0735 15.4297 42C15.4297 56.9265 27.5735 69.0703 42.5 69.0703C57.4265 69.0703 69.5703 56.9265 69.5703 42C69.5703 27.0735 57.4265 14.9297 42.5 14.9297ZM42.5 66.6094C28.9302 66.6094 17.8906 55.5698 17.8906 42C17.8906 28.4302 28.9302 17.3906 42.5 17.3906C56.0698 17.3906 67.1094 28.4302 67.1094 42C67.1094 55.5698 56.0698 66.6094 42.5 66.6094Z" fill="#C1A477"/>
<path d="M42.5 19.8516C37.4705 19.8516 32.7293 21.4954 28.7892 24.6055C28.2554 25.0259 28.1644 25.8001 28.5854 26.3333C29.0065 26.8672 29.78 26.9582 30.3139 26.5371C33.8149 23.773 38.0293 22.3125 42.5 22.3125C53.3557 22.3125 62.1875 31.1443 62.1875 42C62.1875 52.8557 53.3557 61.6875 42.5 61.6875C31.6443 61.6875 22.8125 52.8557 22.8125 42C22.8125 37.5293 24.273 33.3149 27.0371 29.8139C27.4582 29.28 27.3672 28.5065 26.8333 28.0854C26.3001 27.6644 25.5259 27.7554 25.1049 28.2892C21.9954 32.2293 20.3516 36.9705 20.3516 42C20.3516 54.2124 30.2876 64.1484 42.5 64.1484C54.7124 64.1484 64.6484 54.2124 64.6484 42C64.6484 29.7876 54.7124 19.8516 42.5 19.8516Z" fill="#C1A477"/>
<path d="M28.0317 51.0637L41.8848 59.0618C42.0751 59.1714 42.2879 59.2265 42.5 59.2265C42.7128 59.2265 42.9249 59.1714 43.1152 59.0618L56.9683 51.0637C57.3489 50.8439 57.5835 50.4376 57.5835 49.998V34.0019C57.5835 33.5622 57.3489 33.1559 56.9683 32.9361L43.1152 24.9381C42.7346 24.7182 42.2654 24.7182 41.8848 24.9381L28.0317 32.9361C27.6511 33.1559 27.4165 33.5622 27.4165 34.0019V49.998C27.4165 50.4376 27.6511 50.8439 28.0317 51.0637ZM29.8774 36.1328L41.2695 42.71V55.8651L29.8774 49.2879V36.1328ZM43.7305 55.8651V42.71L55.1226 36.1328V49.2879L43.7305 55.8651ZM42.5 27.4246L53.8921 34.0019L42.5 40.5791L31.1079 34.0019L42.5 27.4246Z" fill="#C1A477"/>
</g>
<defs>
<clipPath id="clip0">
<rect width="84" height="84" fill="white" transform="translate(0.5)"/>
</clipPath>
</defs>
</svg>
