<svg width="303" height="155" viewBox="0 0 303 155" fill="none" xmlns="http://www.w3.org/2000/svg">
<path d="M289 85.5581C288.106 85.5234 287.212 85.4619 286.318 85.4608C285.194 85.4596 284.069 85.4914 282.946 85.5417C282.408 85.5658 282.297 85.5468 282.359 84.9582C282.419 84.3832 282.446 83.8049 282.493 83.1433C282.322 83.2467 282.205 83.3069 282.1 83.3821C281.155 84.0578 280.201 84.7218 279.275 85.4203C278.868 85.7271 278.449 85.9221 277.929 85.9638C277.288 86.0152 276.652 86.0267 276.021 85.8976C274.468 85.5797 273.42 84.5282 273.127 82.9965C272.97 82.1766 272.945 81.3482 273.129 80.5338C273.428 79.2079 274.145 78.1792 275.497 77.645C276.955 77.0691 278.466 76.6585 279.997 76.3171C280.805 76.1371 281.62 75.9882 282.454 75.8208C282.465 75.7458 282.488 75.6638 282.489 75.5815C282.496 75.0234 282.423 74.4754 282.26 73.939C281.87 72.6576 280.975 71.9326 279.62 71.7257C278.931 71.6206 278.243 71.648 277.562 71.7939C277.413 71.8258 277.268 71.8758 277.123 71.9224C276.764 72.038 276.523 72.2491 276.395 72.6137C276.24 73.0542 276.025 73.4749 275.827 73.9236C275.435 73.8405 275.064 73.7621 274.64 73.6723C274.674 72.9314 274.708 72.1982 274.742 71.4563C275.993 70.6489 277.261 69.8887 278.63 69.2951C279.08 69.0997 279.565 69.0501 280.051 69.0237C281.495 68.9452 282.911 69.0393 284.246 69.654C285.726 70.336 286.588 71.4555 286.775 73.0253C286.854 73.6962 286.871 74.3775 286.866 75.0537C286.847 77.3094 286.796 79.5648 286.78 81.8205C286.777 82.3726 286.841 82.9279 286.915 83.4769C286.979 83.9606 287.123 84.0785 287.629 84.1474C288.085 84.2093 288.543 84.25 289 84.3001C289 84.7194 289 85.1387 289 85.5581ZM282.491 77.2738C281.212 77.5524 279.997 77.8272 278.868 78.3729C278.777 78.4169 278.691 78.4712 278.604 78.523C277.978 78.8964 277.606 79.4443 277.509 80.1379C277.455 80.5241 277.448 80.9302 277.508 81.3148C277.689 82.4915 278.69 83.1803 279.91 83.0086C280.862 82.8746 281.634 82.4304 282.268 81.7423C282.43 81.5664 282.498 81.38 282.496 81.1412C282.485 79.9828 282.491 78.8244 282.491 77.666C282.491 77.5567 282.491 77.4475 282.491 77.2738Z" fill="#2A2A28"/>
<path d="M38.5102 85.9968C32.7252 85.9968 26.9401 85.9941 21.155 86C20.3769 86.0008 19.6201 85.9091 18.8882 85.6269C17.7396 85.1838 16.8591 84.3956 16.1653 83.37C15.4113 82.2556 14.9523 81.0072 14.6313 79.6996C14.3117 78.3974 14.1166 77.0735 14.0728 75.7314C14.0296 74.4057 13.975 73.0772 14.0125 71.7525C14.0761 69.5084 14.2839 67.2791 15.0008 65.1345C15.3684 64.0346 15.848 62.9979 16.57 62.0947C17.4296 61.0194 18.5165 60.3338 19.8527 60.1029C20.2439 60.0353 20.6455 60.0044 21.0424 60.0042C32.6768 59.9991 44.3112 59.9998 55.9456 60.0005C58.0961 60.0006 59.7543 60.9312 60.9176 62.8053C61.6416 63.9717 62.0803 65.2544 62.3865 66.5912C62.7246 68.0672 62.8973 69.5663 62.9338 71.0818C62.9603 72.1827 63.024 73.2852 62.9905 74.3844C62.9228 76.6026 62.7203 78.8064 61.998 80.9212C61.5529 82.2244 60.9464 83.4296 59.969 84.4026C59.1393 85.2285 58.1569 85.7449 57.015 85.9099C56.5975 85.9702 56.1718 85.9929 55.7498 85.9933C50.0032 85.9985 44.2567 85.9968 38.5102 85.9968ZM38.4686 85.0197C42.1964 85.0197 45.9243 85.0226 49.6521 85.016C50.1131 85.0152 50.5783 84.9953 51.0343 84.93C52.448 84.7274 53.6921 84.1402 54.724 83.106C55.7257 82.1022 56.3592 80.8676 56.8057 79.5211C57.403 77.7198 57.5838 75.8471 57.6414 73.9607C57.692 72.3008 57.5937 70.6455 57.3538 69.0017C57.1281 67.4553 56.7095 65.9708 55.9632 64.6009C55.1892 63.1805 54.1154 62.0966 52.626 61.4906C51.6544 61.0954 50.6387 60.9782 49.6054 60.9778C42.3039 60.975 35.0024 60.9725 27.7009 60.9753C27.1884 60.9755 26.6744 61.0006 26.1638 61.0469C24.3727 61.2093 22.8997 62.009 21.7607 63.4485C20.9849 64.4289 20.4825 65.5572 20.1145 66.7562C19.6056 68.4141 19.4288 70.1267 19.3583 71.8514C19.2829 73.6968 19.3356 75.5389 19.6473 77.3649C19.8762 78.7055 20.2383 80.0016 20.8745 81.2015C22.1853 83.6736 24.2066 84.9863 26.938 85.011C30.7813 85.0459 34.625 85.0198 38.4686 85.0197Z" fill="#2A2A28"/>
<path d="M191.001 62.5598C191.001 62.0414 191.001 61.5466 191.001 61.0047C194.841 61.2002 198.674 61.1589 202.533 61C202.533 61.5218 202.533 62.0167 202.533 62.5578C202.4 62.5667 202.261 62.5737 202.123 62.5858C201.536 62.6375 200.948 62.6866 200.362 62.7448C199.957 62.785 199.716 63.0225 199.644 63.4017C199.572 63.7789 199.505 64.161 199.488 64.5433C199.441 65.6065 199.403 66.6707 199.393 67.7348C199.378 69.3126 199.389 70.8906 199.389 72.4685C199.389 72.5327 199.39 72.5968 199.389 72.661C199.387 72.7813 199.402 72.8778 199.541 72.9383C199.683 72.9999 199.764 72.9308 199.856 72.8579C199.947 72.785 200.042 72.7151 200.128 72.6368C201.071 71.7826 202.04 70.9533 202.949 70.0661C204.667 68.3899 206.363 66.6918 208.043 64.9793C208.796 64.2117 209.487 63.3856 210.211 62.5905C210.332 62.4569 210.389 62.3175 210.379 62.1394C210.364 61.8834 210.362 61.6266 210.357 61.3701C210.354 61.2586 210.356 61.1469 210.356 61.0144C212.613 61.0144 214.836 61.0144 217.083 61.0144C217.083 61.5275 217.083 62.0216 217.083 62.5564C216.941 62.5661 216.802 62.5752 216.663 62.585C216.231 62.6154 215.798 62.6352 215.368 62.6791C214.746 62.7428 214.157 62.9271 213.644 63.2806C213.024 63.7089 212.405 64.1445 211.823 64.6217C210.607 65.6196 209.386 66.615 208.224 67.6711C207.014 68.771 205.871 69.9411 204.699 71.0814C204.673 71.1075 204.658 71.1459 204.625 71.2C205.099 71.7572 205.569 72.3254 206.056 72.8792C208.947 76.1672 211.838 79.4548 214.739 82.7341C215.107 83.15 215.527 83.5225 215.933 83.9053C216.267 84.2211 216.679 84.369 217.142 84.3953C217.414 84.4108 217.686 84.4399 218 84.4664C218 84.6068 218 84.7318 218 84.8569C218 85.2252 218 85.5935 218 85.9613C215.52 85.9613 213.085 85.9613 210.605 85.9613C210.596 85.9497 210.55 85.9046 210.521 85.851C210.127 85.1353 209.629 84.4917 209.088 83.8783C206.698 81.1674 204.308 78.4566 201.915 75.7486C201.563 75.3508 201.209 74.9533 200.827 74.5843C200.616 74.3809 200.364 74.1987 200.097 74.0747C199.643 73.8634 199.393 74.0323 199.392 74.5227C199.39 76.1262 199.388 77.7298 199.402 79.3333C199.413 80.5259 199.446 81.7183 199.477 82.9106C199.482 83.1145 199.526 83.3171 199.548 83.5208C199.597 83.9764 199.896 84.2008 200.319 84.2717C200.693 84.3344 201.074 84.3564 201.453 84.3855C201.805 84.4125 202.158 84.425 202.534 84.4452C202.534 84.9632 202.534 85.4565 202.534 85.9994C198.689 85.8612 194.855 85.8136 191 86C191 85.4652 191 84.971 191 84.4486C191.273 84.4281 191.533 84.4138 191.791 84.388C192.248 84.3427 192.703 84.2893 193.159 84.2414C193.633 84.1916 193.895 83.908 193.968 83.4755C194.044 83.0212 194.097 82.5598 194.115 82.0998C194.182 80.3827 194.275 78.665 194.276 76.9475C194.278 73.895 194.226 70.8424 194.182 67.7901C194.165 66.6235 194.11 65.4573 194.064 64.2912C194.053 64.023 194.022 63.7534 193.972 63.4893C193.879 62.9865 193.687 62.8034 193.168 62.7459C192.582 62.6809 191.993 62.6417 191.405 62.5917C191.277 62.5809 191.149 62.5715 191.001 62.5598Z" fill="#2A2A28"/>
<path d="M86 71.9689C86 71.5088 86 71.0939 86 70.6391C86.141 70.6081 86.2825 70.5737 86.4253 70.5461C87.557 70.3269 88.6905 70.1169 89.8203 69.8881C90.5976 69.7307 91.3328 69.439 92.0572 69.1196C92.4511 68.9459 92.4516 68.9471 92.8729 69.2187C92.8729 70.0999 92.8729 71.0037 92.8729 71.9748C93.0146 71.8767 93.1063 71.8216 93.1887 71.7548C94.0193 71.0815 94.8597 70.4197 95.673 69.7258C96.0848 69.3746 96.5578 69.1939 97.0659 69.1163C98.1189 68.9554 99.1672 69.0319 100.2 69.2898C101.149 69.5266 101.863 70.0959 102.391 70.9085C102.609 71.244 102.794 71.6007 103.007 71.9702C103.101 71.9031 103.193 71.8435 103.279 71.7748C104.121 71.0957 104.973 70.4295 105.797 69.7287C106.21 69.378 106.681 69.1959 107.19 69.1179C108.242 68.9563 109.296 69.0102 110.325 69.2802C112.075 69.7394 113.374 71.3223 113.541 73.1637C113.674 74.6266 113.616 76.0916 113.58 77.5572C113.551 78.6938 113.557 79.8318 113.575 80.9688C113.589 81.8015 113.621 82.6361 113.697 83.4651C113.77 84.272 113.947 84.4303 114.741 84.54C115.15 84.5965 115.563 84.6171 116 84.6561C116 85.1057 116 85.5393 116 86C114.834 85.9642 113.685 85.9054 112.535 85.9003C111.395 85.8954 110.255 85.9447 109.065 85.9713C108.895 85.8486 108.848 85.6418 108.867 85.3796C109.084 82.4036 109.163 79.4233 109.092 76.44C109.077 75.8094 109.027 75.1779 108.96 74.5505C108.807 73.12 107.843 72.2145 106.417 72.1443C105.323 72.0905 104.408 72.4881 103.658 73.2858C103.406 73.5533 103.26 73.8672 103.233 74.2328C103.203 74.6357 103.163 75.0396 103.166 75.4427C103.185 77.9572 103.214 80.4716 103.245 82.986C103.248 83.2251 103.272 83.4658 103.308 83.7022C103.375 84.1362 103.578 84.3518 104.01 84.4228C104.566 84.5141 105.126 84.5815 105.716 84.6637C105.716 85.0983 105.716 85.5316 105.716 85.9733C102.645 85.9733 99.5803 85.9733 96.4938 85.9733C96.4938 85.55 96.4938 85.1261 96.4938 84.6559C96.9001 84.6082 97.3061 84.5604 97.7122 84.513C98.4339 84.4289 98.6903 84.193 98.7226 83.4539C98.7728 82.3058 98.7914 81.1558 98.8019 80.0064C98.8146 78.6163 98.8179 77.2259 98.7986 75.836C98.7909 75.2824 98.7479 74.7238 98.6579 74.178C98.479 73.0936 97.7194 72.3307 96.6475 72.1511C95.241 71.9154 94.0783 72.3619 93.1796 73.4869C93.0013 73.7102 92.8909 73.9499 92.8952 74.2474C92.9003 74.6007 92.8647 74.9545 92.8668 75.3079C92.8815 77.7719 92.8988 80.236 92.9223 82.6999C92.9257 83.0529 92.9562 83.4067 92.9926 83.7582C93.0401 84.2177 93.2121 84.4148 93.6655 84.4905C94.0853 84.5607 94.5115 84.5917 94.9349 84.6405C95.0199 84.6504 95.1046 84.6633 95.2079 84.6772C95.2079 85.1144 95.2079 85.5388 95.2079 85.9738C92.1395 85.9738 89.0883 85.9738 86.0127 85.9738C86.0127 85.554 86.0127 85.1308 86.0127 84.6503C86.1746 84.6503 86.3342 84.6632 86.4912 84.6478C86.9019 84.6076 87.3135 84.5685 87.7208 84.5036C88.0846 84.4455 88.3055 84.2076 88.3435 83.8406C88.4007 83.2887 88.457 82.7344 88.4681 82.1802C88.5281 79.173 88.55 76.1656 88.4093 73.1596C88.4017 72.996 88.3769 72.8328 88.3522 72.6707C88.301 72.3355 88.1887 72.2011 87.8641 72.1378C87.6188 72.09 87.3676 72.0701 87.1182 72.0486C86.758 72.0178 86.3971 71.9967 86 71.9689Z" fill="#2A2A28"/>
<path d="M243.446 93.678C243.446 94.1281 243.446 94.5373 243.446 95C241.692 94.9586 239.955 94.8872 238.218 94.8851C236.489 94.883 234.76 94.9504 233 94.988C233 94.557 233 94.139 233 93.6857C233.11 93.6754 233.221 93.6611 233.332 93.6554C233.748 93.634 234.165 93.63 234.579 93.5924C235.23 93.5333 235.491 93.2925 235.526 92.6652C235.596 91.393 235.673 90.1196 235.685 88.8462C235.721 85.0598 235.741 81.2732 235.736 77.4866C235.735 76.0506 235.653 74.6147 235.601 73.1789C235.592 72.9554 235.555 72.731 235.512 72.5107C235.439 72.1488 235.243 71.9519 234.861 71.915C234.383 71.8687 233.901 71.8625 233.421 71.839C233.292 71.8327 233.163 71.8266 233.002 71.8189C233.002 71.3775 233.002 70.9486 233.002 70.4839C233.365 70.4403 233.725 70.4086 234.081 70.3523C235.132 70.1861 236.194 70.058 237.229 69.823C238.047 69.6373 238.834 69.3236 239.629 69.0513C240.048 68.9076 240.312 69.0686 240.305 69.4981C240.294 70.2228 240.281 70.9474 240.27 71.6721C240.268 71.7833 240.27 71.8946 240.27 72.0706C240.405 71.9826 240.5 71.931 240.583 71.8647C241.522 71.1115 242.456 70.3538 243.398 69.6039C243.515 69.5107 243.658 69.442 243.8 69.3845C244.711 69.0131 245.67 68.9732 246.638 69.0345C247.091 69.0632 247.552 69.0941 247.99 69.2001C250.558 69.8219 252.117 71.4372 252.76 73.8568C253.198 75.5062 252.99 77.1577 252.51 78.7795C252.407 79.1274 252.285 79.4712 252.152 79.8094C251.672 81.0288 250.914 82.0532 249.829 82.8514C248.817 83.5962 247.796 84.3326 246.816 85.1149C245.683 86.0193 244.382 86.305 242.954 86.2141C242.172 86.1643 241.407 86.0246 240.657 85.8061C240.547 85.7741 240.434 85.7523 240.29 85.7178C240.28 85.8482 240.266 85.9556 240.266 86.0631C240.265 88.1379 240.264 90.2126 240.267 92.2874C240.268 92.474 240.286 92.6614 240.31 92.847C240.345 93.1247 240.514 93.3156 240.793 93.3732C241.135 93.4438 241.484 93.4866 241.832 93.5219C242.259 93.5651 242.688 93.5861 243.116 93.6212C243.217 93.6294 243.317 93.6552 243.446 93.678ZM240.265 78.0802C240.265 79.3921 240.265 80.7039 240.266 82.0158C240.266 82.0283 240.266 82.0409 240.265 82.0533C240.254 82.2328 240.281 82.3861 240.435 82.5245C241.279 83.2879 242.231 83.8416 243.409 83.9682C244.693 84.1062 246.499 83.7507 247.404 81.9932C247.576 81.6585 247.736 81.3129 247.853 80.9576C248.334 79.4929 248.432 77.9927 248.227 76.4751C248.121 75.6924 247.916 74.9328 247.554 74.2163C246.874 72.8673 245.254 71.9549 243.645 72.0986C242.433 72.2068 241.414 72.7277 240.534 73.521C240.34 73.6958 240.257 73.8841 240.26 74.1445C240.272 75.4563 240.266 76.7682 240.265 78.0802Z" fill="#2A2A28"/>
<path d="M260.253 85.7343C260.253 85.897 260.253 86.0195 260.253 86.1419C260.253 88.164 260.251 90.1862 260.255 92.2083C260.256 92.4195 260.288 92.6308 260.307 92.8418C260.334 93.1244 260.502 93.3158 260.777 93.377C261.117 93.4526 261.467 93.4939 261.815 93.5294C262.242 93.5729 262.672 93.5935 263.1 93.6277C263.202 93.6358 263.303 93.6588 263.425 93.6781C263.425 94.1093 263.425 94.5293 263.425 95C261.688 94.9655 259.951 94.9008 258.214 94.8931C256.486 94.8854 254.757 94.957 253 94.9944C253 94.563 253 94.1455 253 93.6941C253.109 93.6839 253.219 93.6695 253.331 93.6639C253.734 93.6434 254.138 93.6372 254.54 93.6046C255.21 93.5503 255.469 93.3116 255.534 92.6721C255.583 92.188 255.615 91.7012 255.627 91.215C255.666 89.5557 255.718 87.8962 255.722 86.2367C255.729 82.5296 255.717 78.8224 255.695 75.1154C255.691 74.3681 255.611 73.6211 255.559 72.8743C255.55 72.7384 255.515 72.6037 255.485 72.4698C255.417 72.1617 255.199 71.9899 254.89 71.9569C254.464 71.9113 254.034 71.8991 253.605 71.8793C253.413 71.8705 253.22 71.8778 253 71.8778C253 71.4179 253 70.9997 253 70.5303C253.301 70.4903 253.615 70.4397 253.931 70.4077C255.96 70.2027 257.945 69.8346 259.818 69.0225C259.841 69.0125 259.867 69.0105 259.913 69C260.031 69.0725 260.161 69.1525 260.281 69.2262C260.281 70.1778 260.281 71.1103 260.281 72.0785C260.369 72.0333 260.451 72.0061 260.513 71.9562C261.473 71.1889 262.428 70.4166 263.39 69.6516C263.507 69.5585 263.648 69.4866 263.789 69.4291C264.713 69.0519 265.686 69.0138 266.667 69.0776C267.107 69.1062 267.557 69.1333 267.981 69.2377C270.626 69.8873 272.235 71.55 272.795 74.0663C273.314 76.396 272.808 78.6302 271.718 80.7453C271.411 81.34 270.995 81.8723 270.486 82.3291C270.277 82.5165 270.059 82.6961 269.834 82.8654C268.769 83.6667 267.698 84.46 266.634 85.2626C265.974 85.7603 265.236 86.0744 264.403 86.1846C263.49 86.3055 262.584 86.2486 261.686 86.0677C261.23 85.9758 260.78 85.8579 260.253 85.7343ZM260.253 78.1051C260.253 79.428 260.255 80.7507 260.25 82.0735C260.25 82.2565 260.281 82.4057 260.429 82.5416C261.28 83.3198 262.247 83.8867 263.441 83.9899C264.751 84.1032 265.925 83.7896 266.836 82.8259C267.371 82.26 267.672 81.5676 267.901 80.8463C268.317 79.5377 268.389 78.1959 268.268 76.8448C268.19 75.972 267.985 75.1204 267.589 74.3218C266.896 72.9255 265.296 72.0069 263.724 72.1282C262.467 72.2253 261.412 72.7542 260.507 73.5823C260.312 73.7598 260.246 73.9565 260.248 74.2117C260.259 75.5094 260.253 76.8073 260.253 78.1051Z" fill="#2A2A28"/>
<path d="M68 85.1099C68.4696 82.9855 68.5084 80.8595 68.5556 78.7105C69.0358 78.7105 69.4937 78.7105 69.9749 78.7105C69.9815 78.855 69.9848 78.9846 69.9937 79.1137C70.0551 80.0018 70.1105 80.8905 70.1865 81.7772C70.2003 81.9384 70.2655 82.1251 70.3671 82.2417C70.6894 82.612 71.006 83.0036 71.3859 83.2997C72.9596 84.5262 74.7367 85.0264 76.6864 84.8612C77.588 84.7847 78.4479 84.5616 79.2565 84.125C80.5395 83.4323 81.2173 82.3056 81.4136 80.822C81.4965 80.1954 81.4745 79.5769 81.3478 78.9595C81.1333 77.9144 80.5655 77.1604 79.6634 76.6884C78.9372 76.3085 78.1599 76.0781 77.3755 75.8831C76.0524 75.5542 74.7232 75.2525 73.3997 74.9258C72.9592 74.817 72.5212 74.6876 72.0938 74.5316C70.1792 73.8331 68.9706 72.427 68.4932 70.3622C67.9684 68.0924 68.2659 65.9271 69.391 63.9028C70.1681 62.5046 71.3236 61.5809 72.7196 60.9579C73.7858 60.4821 74.9057 60.2321 76.048 60.1054C78.2629 59.8598 80.4519 60.043 82.6019 60.6599C83.098 60.8023 83.5799 61.0057 84.0593 61.2053C84.4872 61.3834 84.5733 61.5939 84.5047 62.0687C84.3851 62.896 84.2549 63.7227 84.1719 64.5544C84.0982 65.294 84.0822 66.0401 84.0412 66.7833C84.034 66.9143 84.0294 67.0454 84.0222 67.206C83.5338 67.206 83.0645 67.206 82.577 67.206C82.5672 67.0642 82.5566 66.9477 82.5513 66.8309C82.5207 66.1536 82.4755 65.4765 82.4669 64.7988C82.4606 64.3045 82.2648 63.942 81.9113 63.6391C81.1946 63.0248 80.3848 62.6087 79.4951 62.3715C78.0729 61.9924 76.6444 61.957 75.2513 62.4816C73.8837 62.9967 72.9465 63.9906 72.5964 65.5071C72.3916 66.3941 72.4855 67.2829 72.8039 68.1306C73.0647 68.8248 73.5365 69.3323 74.1676 69.6704C74.8917 70.0584 75.6614 70.3035 76.457 70.4597C77.9545 70.7538 79.4567 71.0225 80.9492 71.3428C81.5126 71.4637 82.0646 71.6693 82.6039 71.886C84.3148 72.5736 85.3924 73.8871 85.7657 75.7616C86.4331 79.1128 85.703 82.0304 83.21 84.3569C81.7272 85.7406 79.9924 86.5201 78.05 86.805C76.051 87.0982 74.0537 87.0708 72.0703 86.6545C70.654 86.3573 69.3276 85.7881 68 85.1099Z" fill="#2A2A28"/>
<path d="M115 71.7697C115 71.3322 115 70.9296 115 70.4966C115.383 70.4556 115.754 70.4146 116.125 70.3765C117.702 70.2145 119.228 69.8262 120.733 69.352C121.067 69.2468 121.398 69.1336 121.733 69.0319C122.038 68.9392 122.182 69.0477 122.165 69.3684C122.114 70.3533 122.028 71.3373 122.005 72.3227C121.962 74.1838 121.942 76.0457 121.935 77.9073C121.932 78.7202 121.971 79.5341 122.02 80.3459C122.038 80.6496 122.106 80.9583 122.204 81.2477C122.512 82.1581 123.18 82.6622 124.135 82.7807C125.669 82.9712 126.838 82.3614 127.721 81.1495C128.063 80.68 128.097 80.134 128.106 79.5935C128.127 78.3853 128.125 77.1765 128.117 75.9682C128.11 74.9204 128.08 73.8728 128.06 72.8251C128.059 72.7636 128.053 72.7019 128.047 72.6407C127.994 72.1667 127.86 72.0042 127.381 71.9386C126.935 71.8776 126.483 71.8584 126.034 71.8213C125.861 71.8071 125.687 71.7941 125.486 71.7784C125.486 71.3449 125.486 70.9335 125.486 70.4851C125.795 70.441 126.103 70.4033 126.408 70.3524C127.481 70.1732 128.563 70.0294 129.624 69.7949C130.489 69.6038 131.33 69.3076 132.178 69.046C132.401 68.977 132.59 68.9746 132.782 69.1845C132.747 69.7939 132.705 70.4321 132.675 71.0709C132.6 72.7088 132.498 74.3464 132.468 75.9853C132.435 77.8714 132.463 79.7587 132.476 81.6454C132.479 82.1503 132.525 82.6549 132.556 83.1593C132.563 83.2692 132.592 83.378 132.613 83.4869C132.667 83.772 132.826 83.9563 133.129 83.9933C133.526 84.0418 133.924 84.087 134.322 84.1306C134.543 84.1549 134.765 84.173 135 84.1951C135 84.6409 135 85.0557 135 85.4964C134.893 85.505 134.798 85.5219 134.703 85.5188C134.077 85.4984 133.45 85.4806 132.824 85.4491C131.382 85.3765 129.943 85.463 128.503 85.5175C127.98 85.5373 127.99 85.5315 128.025 85.015C128.074 84.2926 128.107 83.5691 128.147 82.8461C128.121 82.8314 128.094 82.8168 128.067 82.8021C127.963 82.8778 127.851 82.9451 127.756 83.0306C126.914 83.7871 126.07 84.5412 125.239 85.3095C125.031 85.5023 124.806 85.6302 124.534 85.7051C123.174 86.0793 121.812 86.1242 120.463 85.6837C118.734 85.1192 117.601 83.6558 117.519 81.8654C117.483 81.0908 117.535 80.3127 117.538 79.5361C117.544 78.0938 117.545 76.6515 117.543 75.2091C117.541 74.531 117.529 73.8529 117.521 73.1748C117.519 73.0392 117.516 72.9031 117.502 72.7684C117.445 72.2256 117.202 71.9702 116.652 71.9067C116.254 71.8608 115.853 71.8432 115.454 71.8116C115.307 71.8 115.161 71.7847 115 71.7697Z" fill="#2A2A28"/>
<path d="M227.489 75.8036C227.491 74.6984 227.366 73.6346 226.611 72.74C226.1 72.1349 225.4 71.8498 224.621 71.7299C223.919 71.6218 223.219 71.6552 222.525 71.8032C222.401 71.8297 222.279 71.8676 222.159 71.9098C221.799 72.0369 221.521 72.2258 221.39 72.612C221.241 73.0535 221.024 73.474 220.827 73.9264C220.433 73.843 220.062 73.7648 219.658 73.6794C219.652 73.568 219.638 73.4617 219.643 73.3561C219.665 72.8146 219.7 72.2735 219.715 71.7317C219.72 71.5383 219.794 71.417 219.961 71.311C221.02 70.6418 222.106 70.0194 223.236 69.4657C223.868 69.1558 224.54 69.0465 225.234 69.0136C226.132 68.971 227.023 69.0263 227.903 69.2086C228.662 69.366 229.36 69.663 230 70.0844C230.983 70.733 231.528 71.6528 231.74 72.766C231.92 73.7174 231.886 74.6778 231.864 75.6396C231.817 77.6344 231.783 79.6297 231.77 81.6249C231.766 82.214 231.83 82.8055 231.896 83.3925C231.959 83.9505 232.109 84.0756 232.696 84.151C233.125 84.2061 233.555 84.2496 234 84.3C234 84.7147 234 85.105 234 85.5337C233.816 85.5337 233.642 85.543 233.47 85.5323C231.887 85.4332 230.303 85.4039 228.717 85.4753C228.385 85.4902 228.054 85.5248 227.723 85.5415C227.409 85.5574 227.334 85.485 227.352 85.1824C227.387 84.5922 227.428 84.0023 227.466 83.4121C227.47 83.3515 227.466 83.2904 227.466 83.2179C227.291 83.1879 227.199 83.3076 227.096 83.381C226.048 84.1284 225.001 84.8773 223.961 85.6352C223.781 85.7658 223.598 85.8544 223.378 85.8905C222.59 86.0201 221.8 86.052 221.015 85.8906C219.409 85.5606 218.351 84.4493 218.095 82.8436C217.982 82.1324 217.957 81.4182 218.091 80.7098C218.358 79.3029 219.073 78.2126 220.497 77.6436C221.751 77.1424 223.049 76.7725 224.365 76.465C225.382 76.2276 226.409 76.0306 227.489 75.8036ZM227.477 77.2469C226.701 77.4529 225.982 77.6205 225.28 77.8376C224.772 77.9948 224.27 78.1885 223.792 78.4177C223.014 78.791 222.575 79.4276 222.486 80.2555C222.446 80.6299 222.466 81.0201 222.526 81.393C222.69 82.4022 223.551 83.1461 224.843 83.0104C225.827 82.907 226.625 82.4425 227.274 81.729C227.432 81.5542 227.507 81.3671 227.505 81.127C227.494 79.969 227.501 78.811 227.499 77.6529C227.499 77.5445 227.488 77.4361 227.477 77.2469Z" fill="#2A2A28"/>
<path d="M151 85.9581C151 85.5243 151 85.0959 151 84.6351C151.402 84.5939 151.798 84.5612 152.191 84.5105C152.51 84.4693 152.831 84.4224 153.144 84.3497C153.607 84.2426 153.8 84.0185 153.857 83.5406C153.895 83.2157 153.926 82.8881 153.932 82.5612C153.966 80.6609 153.999 78.7606 154.016 76.8601C154.029 75.4181 154.019 73.9758 154.019 72.5336C154.019 72.392 154.019 72.2503 154.019 72.0652C153.033 72.0076 152.085 72.11 151.102 72.1423C151.102 71.8321 151.102 71.5396 151.102 71.2315C151.811 70.8549 152.525 70.461 153.253 70.095C153.633 69.904 153.782 69.6455 153.794 69.2004C153.82 68.1671 153.903 67.1343 153.992 66.104C154.057 65.3583 154.397 64.7212 154.909 64.1963C155.545 63.5448 156.2 62.9127 156.865 62.2919C157.606 61.5997 158.387 60.9504 159.116 60.2453C160.343 59.0579 161.783 58.7926 163.385 59.1434C163.561 59.182 163.735 59.233 163.908 59.283C163.943 59.293 163.971 59.3247 164 59.3446C163.919 60.5494 163.838 61.7487 163.755 62.9878C163.735 63 163.68 63.0301 163.628 63.066C163.285 63.3059 163.006 63.2667 162.68 62.972C162.082 62.4324 161.329 62.3441 160.566 62.422C160.199 62.4595 159.828 62.5553 159.483 62.6884C159.02 62.8667 158.727 63.2326 158.641 63.7367C158.582 64.0846 158.521 64.4368 158.513 64.7883C158.48 66.3476 158.465 67.9074 158.444 69.467C158.443 69.544 158.456 69.6211 158.464 69.7276C158.568 69.7416 158.666 69.7685 158.764 69.7658C160.119 69.7288 161.473 69.6878 162.828 69.6477C162.893 69.6457 162.957 69.6409 163.022 69.6399C163.429 69.6335 163.482 69.71 163.403 70.1295C163.283 70.7595 163.174 71.3916 163.055 72.0577C161.534 72.1057 160.014 71.8794 158.473 72.0851C158.463 72.1851 158.444 72.2857 158.445 72.3863C158.447 74.7854 158.44 77.1846 158.461 79.5835C158.471 80.7757 158.533 81.9673 158.572 83.1592C158.574 83.2247 158.578 83.2902 158.584 83.3555C158.647 84.0476 158.954 84.3667 159.637 84.4293C160.306 84.4906 160.975 84.5383 161.644 84.5932C161.745 84.6015 161.845 84.6166 161.968 84.6313C161.968 85.0769 161.968 85.5043 161.968 85.9756C161.87 85.9835 161.761 86.002 161.651 85.9998C159.896 85.9655 158.14 85.9102 156.384 85.8983C155.081 85.8894 153.777 85.9383 152.474 85.957C151.998 85.9638 151.522 85.9581 151 85.9581Z" fill="#2A2A28"/>
<path d="M184.875 70.0144C184.77 70.8167 184.673 71.5634 184.572 72.3323C183.282 72.3323 182.021 72.3323 180.726 72.3323C180.714 72.4614 180.695 72.5677 180.695 72.6739C180.706 75.2957 180.717 77.9174 180.735 80.5391C180.737 80.8485 180.767 81.1599 180.813 81.4662C180.935 82.2749 181.487 82.8075 182.317 82.9371C182.98 83.0407 183.64 83.0138 184.298 82.8918C184.447 82.8642 184.597 82.8411 184.748 82.8158C184.778 82.8536 184.808 82.8789 184.822 82.9109C185.086 83.4934 185.084 83.4919 184.623 83.9446C184.182 84.3771 183.74 84.8082 183.311 85.2509C183.13 85.4373 182.924 85.5656 182.678 85.6504C181.366 86.1032 180.041 86.12 178.734 85.6784C177.496 85.2603 176.657 84.436 176.351 83.1666C176.285 82.8919 176.267 82.6004 176.269 82.317C176.282 80.6273 176.312 78.9378 176.328 77.2481C176.341 75.7944 176.341 74.3406 176.347 72.8869C176.348 72.7403 176.347 72.5938 176.347 72.4223C175.558 72.4223 174.81 72.4223 174.014 72.4223C174.01 72.1926 173.985 71.9721 174.013 71.7583C174.025 71.6731 174.143 71.5854 174.233 71.5285C174.735 71.2097 175.248 70.9049 175.75 70.5858C176.35 70.2048 176.359 70.2005 176.345 69.5225C176.316 68.1069 176.274 66.6915 176.239 65.276C176.235 65.1157 176.238 64.9552 176.238 64.7457C177.774 64.3223 179.247 63.71 180.665 63C180.76 63.0621 180.82 63.1075 180.886 63.1436C181.087 63.2536 181.151 63.4094 181.128 63.6365C181.053 64.3904 180.983 65.1454 180.937 65.9014C180.855 67.2407 180.791 68.581 180.721 69.921C180.718 69.9815 180.729 70.0427 180.736 70.1461C182.104 70.2111 183.459 70.1238 184.875 70.0144Z" fill="#2A2A28"/>
<path d="M137.02 71.9968C137.02 71.5277 137.02 71.1029 137.02 70.6566C137.607 70.5528 138.182 70.4525 138.756 70.3497C140.208 70.0893 141.665 69.8431 143.023 69.2303C143.081 69.2043 143.14 69.1809 143.198 69.1558C143.591 68.9865 143.591 68.9865 144.017 69.2366C144.017 70.3532 144.017 71.4826 144.017 72.6661C144.122 72.59 144.198 72.5522 144.251 72.4942C144.737 71.9617 145.221 71.4262 145.704 70.8905C145.992 70.5709 146.278 70.2497 146.565 69.9288C147.292 69.1151 148.229 68.9135 149.27 69.0307C149.506 69.0573 149.737 69.1271 150 69.1832C149.939 70.8086 149.88 72.4024 149.819 74.0342C149.596 74.1054 149.359 74.1812 149.107 74.2619C149.006 74.1524 148.91 74.054 148.821 73.95C147.957 72.9443 146.199 72.7986 145.137 73.6138C144.849 73.8348 144.598 74.1121 144.367 74.393C144.137 74.6717 144.037 75.0136 144.035 75.379C144.028 77.1049 144.016 78.8307 144.013 80.5566C144.012 81.325 144.025 82.0935 144.04 82.8618C144.045 83.1131 144.075 83.364 144.098 83.6147C144.137 84.0342 144.382 84.2938 144.785 84.3659C145.285 84.4553 145.793 84.5005 146.298 84.5613C146.573 84.5946 146.85 84.6207 147.143 84.6518C147.143 85.0974 147.143 85.52 147.143 85.9939C143.777 85.8089 140.422 85.8645 137.021 86C136.986 85.5499 137.004 85.1185 137.009 84.6741C137.477 84.6381 137.919 84.6159 138.358 84.5677C139.194 84.4757 139.412 84.2489 139.462 83.416C139.593 81.2392 139.605 79.0602 139.562 76.8808C139.538 75.6719 139.5 74.4633 139.464 73.2546C139.458 73.0665 139.437 72.8775 139.406 72.6917C139.347 72.338 139.233 72.2207 138.87 72.156C138.633 72.1138 138.391 72.0942 138.15 72.0745C137.784 72.0448 137.417 72.0237 137.02 71.9968Z" fill="#2A2A28"/>
<path d="M165 86C165 85.5872 165 85.1982 165 84.7758C165.336 84.7422 165.663 84.7148 165.988 84.6756C166.318 84.6359 166.646 84.5832 166.975 84.5388C167.346 84.489 167.547 84.26 167.6 83.9162C167.665 83.4921 167.723 83.0642 167.741 82.6362C167.866 79.5905 167.827 76.5444 167.74 73.4985C167.732 73.221 167.705 72.943 167.669 72.6674C167.607 72.1898 167.486 72.0427 167.006 71.9795C166.475 71.9096 165.937 71.8893 165.402 71.8489C165.277 71.8396 165.152 71.8363 165.008 71.8293C165.008 71.3835 165.008 70.9609 165.008 70.5168C165.478 70.4579 165.931 70.3938 166.386 70.3456C168.238 70.1493 170.045 69.7638 171.77 69.0532C172.042 68.9411 172.231 69.0182 172.417 69.1726C172.417 69.4597 172.425 69.7361 172.415 70.0118C172.367 71.3632 172.278 72.7143 172.269 74.0659C172.251 76.8473 172.271 79.629 172.283 82.4105C172.285 82.8269 172.32 83.2439 172.355 83.6594C172.404 84.2418 172.557 84.4239 173.138 84.5093C173.744 84.5984 174.356 84.6457 175 84.7149C175 85.1285 175 85.5608 175 86C171.673 86 168.354 86 165 86Z" fill="#2A2A28"/>
<path d="M172.995 62.5189C173.066 63.7982 171.669 65.0387 169.974 64.9991C168.318 64.9603 167.003 63.8835 167 62.4997C166.997 61.1085 168.337 60.0042 170.017 60C171.794 59.9955 173.091 61.2874 172.995 62.5189Z" fill="#2A2A28"/>
<path d="M52.9947 72.849C43.0013 73.8993 33.0078 74.9497 23.0144 76C23.0104 75.9814 23.0063 75.9628 23.0024 75.9442C23.2783 75.8898 23.5534 75.8308 23.8302 75.7818C26.5655 75.2978 29.3013 74.8171 32.0364 74.3319C33.6418 74.0472 35.2462 73.7573 36.8506 73.4671C37.3097 73.384 37.7226 73.1939 38.0707 72.8765C38.6819 72.3191 38.7292 71.5739 38.192 70.9422C37.792 70.4718 37.263 70.2102 36.6793 70.0859C34.5001 69.6216 32.3171 69.1753 30.1354 68.7233C27.8131 68.2421 25.4905 67.7623 23.1684 67.28C23.1087 67.2676 23.0535 67.2329 23 67.145C32.9822 66.0967 42.9643 65.0483 52.9465 64C52.9498 64.0221 52.9531 64.0441 52.9563 64.0662C52.8079 64.0913 52.6594 64.1151 52.5112 64.1416C50.9344 64.4244 49.3577 64.7075 47.7809 64.9908C46.204 65.2741 44.6276 65.5597 43.0503 65.8408C41.8065 66.0624 40.5619 66.2802 39.3171 66.4968C38.8204 66.5832 38.3591 66.7508 37.9654 67.0788C37.2823 67.6481 37.2336 68.4658 37.8357 69.1262C38.1109 69.4281 38.4567 69.616 38.8346 69.7253C39.4478 69.9029 40.0663 70.0679 40.6905 70.1994C43.4345 70.7772 46.1814 71.341 48.9273 71.9099C50.1533 72.164 51.3795 72.4174 52.6053 72.673C52.7382 72.7008 52.8685 72.7415 53 72.7763C52.9982 72.8005 52.9965 72.8247 52.9947 72.849Z" fill="#2A2A28"/>
<path d="M23 76.36C32.9911 75.24 42.9822 74.12 52.9732 73C52.9771 73.0214 52.981 73.0427 52.9849 73.0641C52.5626 73.1562 52.141 73.2521 51.7177 73.3396C49.1225 73.8759 46.5269 74.4109 43.9312 74.9453C42.4482 75.2506 40.965 75.5554 39.4813 75.8576C39.102 75.9349 38.7541 76.0798 38.4638 76.3472C37.9516 76.8192 37.9193 77.4716 38.3864 77.9911C38.7275 78.3704 39.1657 78.5667 39.6476 78.683C41.6435 79.1642 43.6381 79.6513 45.6333 80.1358C47.9843 80.7066 50.3354 81.2766 52.6862 81.8481C52.7967 81.875 52.9046 81.9137 53 82C43.0007 80.15 33.0015 78.2999 23.0023 76.4499C23.0015 76.4199 23.0008 76.39 23 76.36Z" fill="#2A2A28"/>
<path d="M52.9757 79C52.999 79.6777 53.0225 80.3084 52.9592 81C49.9347 80.3529 46.968 79.6758 44 79C46.9726 79 49.9453 79 52.9757 79Z" fill="#2A2A28"/>
</svg>
