<svg width="303" height="155" viewBox="0 0 303 155" fill="none" xmlns="http://www.w3.org/2000/svg">
<path d="M141 70.4142C141 78.5651 141.012 78.8627 141.252 79.7213C141.6 80.9577 142.116 81.8163 142.98 82.5833C144.228 83.6937 145.908 84.3692 148.536 84.7813C150.18 85.0331 151.476 85.0675 152.4 84.8843L153 84.7584V82.9725V81.1752H151.644C149.472 81.1638 148.344 80.6944 147.684 79.5382C147.204 78.7025 147.108 77.6149 147.144 73.6196L147.18 70.1852L149.676 70.1509L152.16 70.128V68.2276V66.3387L149.676 66.3502L147.18 66.3731V64.1865V62H144.096H141V70.4142Z" fill="#2A2A28"/>
<path d="M156 75.5V85H158.973H161.935L161.97 78.7217L162.004 72.4317L162.284 71.818C162.634 71.0391 163.24 70.4727 164.115 70.1186C164.733 69.8708 164.978 69.8472 166.552 69.8708C167.519 69.8708 168.464 69.8944 168.65 69.918L169 69.9534V68.0652V66.177L168.3 66.0826C167.321 65.941 164.826 66.0708 163.987 66.295C163.042 66.5429 162.004 67.0503 161.363 67.5696L160.839 68.0062L160.757 67.6758C160.722 67.4988 160.652 67.0503 160.605 66.6727L160.535 66H158.262H156V75.5Z" fill="#2A2A28"/>
<path d="M177.612 66.1576C176.45 66.3671 175.543 66.6465 174.59 67.089C173.754 67.4732 172.499 68.2649 172.255 68.5559C172.162 68.684 172.429 68.9401 173.568 69.8017L175.009 70.8844L175.915 70.5352C177.019 70.1044 177.531 69.9647 178.669 69.825C179.808 69.6853 181.563 69.8483 182.342 70.1859C183.318 70.6167 184.073 71.6878 184.073 72.6774C184.073 72.9917 184.062 73.0034 183.527 72.9219C182.26 72.7473 178.972 72.7007 177.868 72.8404C176.334 73.0383 174.788 73.4691 173.835 73.9697C171.801 75.0408 170.732 77.1714 171.058 79.4767C171.395 81.8401 172.592 83.2838 175.009 84.2385C177.728 85.3096 182.226 85.2397 184.736 84.0988L185.352 83.8077L185.421 84.2734L185.503 84.7275H187.746H190V78.6035C190 71.8158 189.977 71.5481 189.245 69.9996C188.245 67.8807 185.956 66.5301 182.667 66.0993C181.47 65.948 178.6 65.9713 177.612 66.1576ZM183.19 76.0654L184.073 76.1469L184.05 78.4754L184.015 80.8039L183.376 81.0251C181.761 81.5723 179.355 81.5607 178.042 80.9902C176.938 80.5245 176.287 79.4417 176.461 78.3823C176.554 77.7419 177.019 76.9968 177.472 76.7174C177.856 76.4845 178.774 76.1702 179.309 76.077C179.797 75.9955 182.237 75.9955 183.19 76.0654Z" fill="#2A2A28"/>
<path d="M229.025 66.0371C229.001 66.0607 228.989 70.3468 229.013 75.5421L229.037 85H232.018H235V75.613C235 70.4531 235 66.1906 235 66.1315C235 66.0489 229.12 65.9426 229.025 66.0371Z" fill="#2A2A28"/>
<path d="M243.942 66.1223C240.764 66.7229 238.875 68.3053 238.484 70.6731C238.219 72.2554 238.691 73.7801 239.716 74.7387C240.741 75.6858 242.123 76.2056 245.44 76.8755C248.964 77.5916 249.436 77.7764 249.839 78.5502C250.599 80.0287 248.94 81.3338 246.476 81.1721C245.036 81.0913 244.012 80.4676 243.827 79.5782L243.77 79.2432H240.879H238L238.069 79.9016C238.265 81.8305 239.981 83.5052 242.583 84.3137C243.493 84.6025 245.301 84.8797 246.845 84.9836C248.733 85.0991 251.451 84.5909 252.937 83.8402C253.731 83.4359 254.86 82.408 255.274 81.7034C255.655 81.0451 256 79.8785 256 79.2432C256 78.5964 255.655 77.4414 255.263 76.7715C254.871 76.0901 254.238 75.5703 253.213 75.0621C252.107 74.5077 251.301 74.2421 249.551 73.8725C246.326 73.191 245.9 73.087 245.405 72.8676C244.76 72.5904 244.288 72.1515 244.196 71.7357C244.046 71.0542 244.702 70.1764 245.601 69.8761C246.188 69.6798 247.754 69.6798 248.434 69.8761C249.113 70.0725 249.758 70.65 249.85 71.1466L249.931 71.5047H252.752H255.574L255.493 70.8694C255.355 69.6913 255.01 68.9868 254.111 68.0859C253.19 67.1618 252.326 66.6883 250.852 66.2956C250.092 66.0877 249.551 66.0415 247.363 66.0068C245.52 65.9837 244.53 66.0184 243.942 66.1223Z" fill="#2A2A28"/>
<path d="M201.955 66.1306C201.067 66.2613 200.022 66.5581 199.236 66.9025C198.865 67.0569 198.551 67.1875 198.539 67.1875C198.528 67.1875 198.483 66.9738 198.438 66.7125L198.36 66.2375H196.18H194V75.6188V85H196.865H199.73V77.5781V70.1681L200.157 70.0494C201.629 69.6456 203.674 69.5506 204.629 69.8594C205.258 70.0494 205.798 70.5838 206.034 71.225C206.157 71.5575 206.191 73.03 206.225 78.3144L206.258 85H209.067H211.876L211.843 77.9106C211.82 74.0038 211.764 70.7144 211.719 70.6075C211.64 70.4413 211.742 70.37 212.393 70.1681C213.685 69.7644 214.506 69.6456 215.596 69.705C217.124 69.7763 217.73 70.1681 218.169 71.3438C218.292 71.6763 218.326 73.0894 218.36 78.3738L218.393 85H221.191H224V78.35C224 73.885 223.955 71.51 223.876 71.0825C223.247 67.9713 220.258 66 216.191 66C214.247 66 212.247 66.4988 210.528 67.425L209.91 67.7456L209.236 67.2944C208.449 66.7838 207.202 66.3088 206.135 66.1306C205.292 65.9881 202.888 65.9881 201.955 66.1306Z" fill="#2A2A28"/>
<path d="M58.0337 44.941C55.9006 47.9194 53.3501 52.0263 51.1937 55.9121C50.2547 57.6224 48.9331 60.2866 49.0026 60.3448C49.0374 60.3797 49.3157 60.2168 49.6403 59.9958C50.3243 59.4955 51.3097 59.0301 52.1328 58.8091C53.0487 58.5647 55.0195 58.5996 56.0861 58.8789C58.1728 59.414 59.2394 60.275 64.9664 66.0805C68.9777 70.1409 69.7776 70.8506 71.6905 71.9907C73.2788 72.9447 73.6497 73.1076 73.8468 72.9447C74.0787 72.747 74.0439 72.3281 73.7657 72.0722C73.4642 71.8046 72.1078 69.7686 71.5282 68.7331C70.3573 66.6273 69.3139 63.8234 68.8618 61.5548C68.5024 59.7514 68.398 58.8789 68.0966 55.2141C67.9691 53.6085 67.8416 52.0146 67.8068 51.6656C67.3662 46.721 67.2039 45.9183 66.6011 45.3365C65.8707 44.6385 64.8621 44.7199 63.9347 45.546C62.613 46.721 60.8161 46.6978 59.68 45.4762C59.2742 45.0573 58.938 44.4523 58.938 44.1615C58.938 43.8125 58.7061 44.0102 58.0337 44.941Z" fill="#2A2A28"/>
<path d="M52.7979 65.2091C52.29 65.5226 52.013 66.0041 51.9206 66.7431C51.886 67.0902 51.7475 67.5492 51.632 67.7844C51.3666 68.2882 50.5816 68.9936 50.0507 69.2064C49.2427 69.5311 47.7883 69.3407 47.188 68.8257C46.9687 68.6353 46.9687 68.6577 47.0495 69.923C47.1419 71.5017 47.6151 75.5214 47.9383 77.4809C48.4693 80.7392 49.4389 85.4083 49.866 86.7743C49.993 87.1438 49.9699 87.1774 50.3508 85.9569C50.9741 83.9975 52.3823 82.4635 54.437 81.5006C55.8337 80.8511 56.6301 80.7392 59.4697 80.8176C60.8317 80.8623 62.39 80.9407 62.9325 80.9967C69.3388 81.7357 72.9518 81.8365 75.4566 81.3438C76.8302 81.0751 77.0495 80.9855 76.9918 80.6272C76.9572 80.4257 76.7725 80.3473 75.7452 80.1009C73.8867 79.6643 72.3746 79.138 70.724 78.3766C67.1342 76.7195 66.1876 75.9917 60.3354 70.3709C57.7382 67.8739 55.3489 65.657 55.0257 65.4442C54.2869 64.9516 53.3866 64.862 52.7979 65.2091Z" fill="#2A2A28"/>
<path d="M100.364 79.161C100.33 79.2529 100.42 79.7243 100.576 80.2186C101.314 82.7019 101.66 85.0587 101.66 87.8523C101.672 90.669 101.359 92.4969 100.006 97.4519C98.05 104.672 97.7146 106.454 98.1953 107.201C98.6871 107.971 99.6149 108.167 100.733 107.73C101.482 107.431 102.465 107.477 103.158 107.833C104.086 108.328 104.835 109.627 104.734 110.615C104.712 110.891 104.734 111.029 104.813 110.995C105.897 110.362 110.771 106.615 113.14 104.58C115.845 102.246 118.74 99.5673 118.998 99.1304C119.031 99.0844 118.718 99.1419 118.305 99.2454C117.343 99.5098 115.544 99.5213 114.649 99.2913C112.593 98.7395 111.039 97.5324 109.832 95.532C109.172 94.4283 107.685 91.3702 106.657 88.9445C105.26 85.668 104.064 83.1847 103.382 82.1385C102.342 80.5405 101.012 79 100.688 79C100.543 79 100.397 79.069 100.364 79.161Z" fill="#2A2A28"/>
<path d="M93.6774 83.1403C93.6196 83.2211 93.4694 83.5444 93.3539 83.8677C92.4526 86.3846 89.9335 90.0677 87.6109 92.296C85.9586 93.8778 85.1728 94.4781 80.8165 97.4916C74.2069 102.052 73.6985 102.549 74.103 103.899C74.3109 104.592 74.6229 104.892 75.4318 105.169C75.8247 105.296 76.3331 105.539 76.5526 105.701C77.2806 106.232 77.8122 107.259 77.8122 108.137C77.8122 108.691 77.4077 109.661 77.0033 110.076L76.6451 110.446L77.1766 110.515C79.7303 110.873 82.5382 110.988 88.0963 111C91.3086 111 94.3938 110.954 94.9716 110.896L96 110.804L95.0871 110.353C93.4232 109.557 92.3486 108.495 91.5281 106.844C90.6962 105.169 90.4882 103.68 90.8117 101.763C91.0428 100.39 91.921 96.9489 93.1228 92.6424C93.5965 90.9221 94.0703 89.0863 94.1743 88.5437C94.4054 87.2967 94.5209 83.7522 94.3476 83.3135C94.2205 82.9786 93.8738 82.8978 93.6774 83.1403Z" fill="#2A2A28"/>
<path d="M83.5781 85.4586C81.7792 86.462 78.7234 87.5008 76.2557 87.9376C73.811 88.3744 71.5393 88.3626 66.454 87.8786C58.8317 87.1585 57.5747 87.1231 56.8252 87.6189C55.9603 88.1973 55.845 89.3778 56.5369 90.4993C56.9866 91.2312 57.1135 92.1992 56.8829 93.0609C56.5946 94.1116 55.3838 95.1268 54.4267 95.1268C54.196 95.1268 54 95.174 54 95.233C54 95.4101 58.4165 99.7661 60.423 101.56C62.5217 103.449 65.1278 105.621 66.8921 106.967C68.5988 108.266 68.5873 108.266 68.1837 107.38C67.6648 106.235 67.4457 105.244 67.4572 103.98C67.4572 102.623 67.6878 101.667 68.3336 100.321C69.1754 98.5384 70.8359 97.0864 76.544 93.12C81.3756 89.7674 82.8055 88.5279 84.4199 86.344C85.0542 85.4822 85.1003 85.3405 84.8812 85.1163C84.6736 84.9038 84.4661 84.9628 83.5781 85.4586Z" fill="#2A2A28"/>
<path d="M126.309 88.1562C126.794 84.8586 127.155 80.8432 127.289 77.3335C127.37 75.2204 127.423 72.0781 127.378 71.5317L127.339 71.1507L127.015 71.7036C125.506 74.3011 123.247 75.7001 120.32 75.8856C118.861 75.9677 115.79 75.1621 110.51 73.3282C106.296 71.8605 104.854 71.4599 103.085 71.2342C101.494 71.0341 99.8768 70.9858 99.6156 71.1257C99.5154 71.1835 99.429 71.2975 99.4248 71.3961C99.4284 71.5358 99.6999 71.7268 100.588 72.1553C103.782 73.7411 107.026 76.3908 109.219 79.1708C110.359 80.6359 110.772 81.2639 113.318 85.3747C117.419 92.0188 117.942 92.6558 119.137 92.4237C119.978 92.2543 120.224 92.0324 120.661 91.0634C121.286 89.6844 122.148 89.0216 123.415 88.9458C124.202 88.9039 125.142 89.2414 125.652 89.76C125.829 89.9358 125.983 90.0768 125.998 90.0707C126.018 90.054 126.156 89.1962 126.309 88.1562Z" fill="#2A2A28"/>
</svg>
