<svg width="303" height="155" viewBox="0 0 303 155" fill="none" xmlns="http://www.w3.org/2000/svg">
<path d="M116.674 83.919C116.723 82.2864 116.834 80.6471 117 79H109C109.193 80.6471 109.322 82.2864 109.381 83.919C109.437 85.5494 109.467 87.2929 109.467 89.154V90.9849C109.467 92.8438 109.437 94.5986 109.381 96.2435C109.322 97.8895 109.193 99.4772 109 101H117C116.834 99.4772 116.723 97.8895 116.674 96.2435C116.626 94.5986 116.601 92.8438 116.601 90.9849V89.154C116.601 87.2929 116.626 85.5494 116.674 83.919Z" fill="#2A2A28"/>
<path d="M113 68C111.887 68 110.942 68.3907 110.166 69.1658C109.389 69.9434 109 70.889 109 72C109 73.1148 109.389 74.0603 110.166 74.8367C110.942 75.6143 111.887 76 113 76C114.114 76 115.06 75.6143 115.837 74.8367C116.612 74.0603 117 73.1148 117 72C117 70.889 116.612 69.9434 115.837 69.1658C115.06 68.3907 114.114 68 113 68Z" fill="#2A2A28"/>
<path d="M129.649 76.0456C129.726 73.7261 129.842 71.3783 130 69H122C122.134 71.3783 122.233 73.7261 122.301 76.0456C122.368 78.3652 122.4 80.9128 122.4 83.685V86.4448C122.4 89.217 122.368 91.7612 122.301 94.083C122.233 96.4037 122.134 98.7098 122 101H130C129.842 98.7098 129.726 96.4037 129.649 94.083C129.573 91.7612 129.534 89.217 129.534 86.4448V83.685C129.534 80.9128 129.573 78.3652 129.649 76.0456" fill="#2A2A28"/>
<path d="M171.817 97.625C171.768 96.4628 171.739 95.3826 171.739 94.3889C171.739 93.1789 171.772 91.9666 171.833 90.7567C171.896 89.5455 171.929 88.1489 171.929 86.5678C171.929 83.5559 171.248 81.375 169.89 80.025C168.527 78.6761 166.588 78 164.071 78C162.559 78 161.133 78.3813 159.788 79.1394C158.448 79.9021 157.27 80.9948 156.263 82.4245C155.657 80.9948 154.81 79.9021 153.715 79.1394C152.625 78.3813 151.321 78 149.809 78C148.198 78 146.761 78.3574 145.499 79.0723C144.239 79.786 143.138 80.7945 142.198 82.0978H142.096L142.322 78.6067H135C135.184 80.2822 135.305 81.9498 135.358 83.6117C135.414 85.2713 135.443 87.0493 135.443 88.9422V90.8045C135.443 92.6974 135.414 94.4822 135.358 96.1589C135.305 97.8345 135.184 99.4474 135 101H142.576V100.997C142.581 100.999 142.591 100.999 142.603 101C142.433 99.4463 142.322 97.8299 142.272 96.1509C142.221 94.4709 142.198 92.6826 142.198 90.7863V88.9218C142.198 86.775 142.549 85.0971 143.253 83.886C143.96 82.6738 145.068 82.0648 146.583 82.0648C147.994 82.0648 148.952 82.5804 149.458 83.6049C149.962 84.6316 150.213 86.0772 150.213 87.9417V90.7863C150.213 92.6826 150.187 94.4709 150.14 96.1509C150.086 97.8299 149.979 99.4463 149.809 101H157.386L157.373 100.977C157.202 99.4315 157.095 97.8208 157.045 96.1509C156.993 94.4709 156.966 92.6826 156.966 90.7863V87.4295C156.966 86.8706 157.019 86.2787 157.119 85.656C157.22 85.0357 157.424 84.454 157.723 83.9088C158.028 83.3658 158.438 82.923 158.961 82.5804C159.48 82.2378 160.144 82.0648 160.952 82.0648C162.23 82.0648 163.22 82.5258 163.925 83.441C164.633 84.3584 164.985 85.796 164.985 87.7562C164.985 90.5848 164.95 93.0958 164.883 95.287C164.815 97.4782 164.66 99.3836 164.422 101H172L171.99 100.99C171.924 99.905 171.866 98.7872 171.817 97.625Z" fill="#2A2A28"/>
<path d="M198.238 99.6342C197.835 99.5751 197.51 99.4303 197.267 99.209C197.022 98.9865 196.836 98.6633 196.718 98.2369C196.592 97.8117 196.531 97.2185 196.531 96.462C196.531 94.7566 196.554 93.0465 196.597 91.3248C196.638 89.6055 196.66 87.7356 196.66 85.7161C196.66 84.327 196.426 83.1453 195.955 82.1651C195.48 81.1884 194.818 80.3902 193.962 79.7773C193.106 79.1597 192.092 78.7114 190.922 78.4264C189.75 78.1425 188.004 78 186.606 78C184.926 78 183.234 78.2839 181.538 78.8527C179.837 79.4181 177.385 80.9219 175.917 81.9936C175.917 81.9936 176.267 84.2297 176.474 84.7881L176.921 87.0323C176.921 87.0323 180.438 83.4685 184.506 83.0352C187.382 82.7305 188.617 83.6597 189.027 84.597C189.127 84.9353 189.179 85.2921 189.179 85.6675C189.179 86.0765 189.12 86.424 188.998 86.7067C188.874 86.9929 188.605 87.2536 188.181 87.4899C187.76 87.7228 187.122 87.9626 186.265 88.199C185.408 88.4353 184.245 88.7111 182.771 89.0285C181.583 89.2799 180.513 89.5881 179.566 89.9508C178.622 90.3146 177.81 90.7652 177.124 91.3005C176.443 91.8392 175.919 92.4857 175.55 93.2423C175.182 94.0012 175 94.8991 175 95.9395C175 96.6972 175.136 97.4491 175.415 98.1906C175.697 98.9321 176.142 99.5948 176.752 100.18C177.364 100.763 178.14 101.211 179.081 101.528C180.024 101.841 181.158 102 182.485 102C184.108 102 185.46 101.701 186.541 101.1C187.618 100.501 188.565 99.6967 189.377 98.6865C189.796 99.7605 190.407 100.582 191.211 101.148C192.011 101.717 193.058 102 194.348 102C195.153 102 195.903 101.906 196.601 101.718C197.297 101.527 198.159 101.243 199.176 100.865C199.176 100.865 200.392 100.393 199.87 99.7535C199.622 99.4511 199.154 99.772 198.238 99.6342ZM189.276 91.0873C189.256 91.7964 189.248 92.8287 189.248 94.1865C189.248 95.7298 188.886 96.8976 188.167 97.6854C187.449 98.4744 186.509 98.8672 185.352 98.8672C184.438 98.8672 183.711 98.5602 183.17 97.945C182.626 97.3298 182.351 96.4411 182.351 95.2733C182.351 94.0753 182.574 93.1612 183.013 92.5286C183.45 91.8995 184.012 91.4025 184.698 91.0398C185.386 90.6783 186.138 90.3783 186.965 90.1419C187.79 89.9056 188.574 89.5951 189.314 89.2174C189.314 89.755 189.301 90.3783 189.276 91.0873" fill="#2A2A28"/>
<path d="M218 79.0549C217.859 79.0549 217.331 79 217.158 79C215.361 79 213.813 79.486 212.511 80.4558C211.212 81.4279 210.095 82.944 209.169 85.0044L209.056 84.9166L209.216 79.4476H202C202.137 81.0592 202.225 82.6676 202.265 84.2639C202.307 85.8645 202.328 87.5738 202.328 89.396V91.1876C202.328 93.011 202.307 94.7279 202.265 96.3428C202.225 97.9523 202.137 99.5091 202 101H209.872C209.699 99.5036 209.583 97.949 209.531 96.333C209.48 94.718 209.449 92.9978 209.449 91.1711V89.3785C209.449 88.1794 209.909 87.1404 210.826 86.2584C211.739 85.3763 212.989 84.9342 214.572 84.9342C215.134 84.9342 215.634 84.9956 216.073 85.1152C216.513 85.2326 216.909 85.3818 217.262 85.5595C217.262 85.5595 217.756 85.6648 217.737 85.2019C217.722 84.8431 217.686 84.7115 217.686 84.4449C217.686 84.1772 217.641 83.78 217.641 83.5409L217.621 82.2408C217.662 81.4191 217.71 80.9868 217.762 80.4822C217.815 79.9786 217.895 79.5036 218 79.0549Z" fill="#2A2A28"/>
<path d="M101.896 79H99.1839L95.5079 91.3495C95.0096 89.8589 94.5204 88.3761 94.0437 86.9135C93.1995 84.3219 92.3723 81.6845 91.56 79H87.735H85.885H83.1067L79.474 91.205C79.0575 89.9171 78.6263 88.5732 78.1838 87.1654C77.3066 84.3768 76.4624 81.6554 75.6512 79H68L68.7589 80.9128C69.0865 81.7707 69.4665 82.7843 69.9023 83.9647C70.3574 85.2 70.8557 86.5618 71.3961 88.0569C71.9365 89.5531 72.4758 91.0606 73.0162 92.5859C73.5566 94.1113 74.072 95.6131 74.5624 97.0925C75.0528 98.5686 75.4817 99.8745 75.8549 101H81.7335C82.5071 98.5641 83.3274 96.107 84.1875 93.6375C85.0488 91.1681 85.9192 88.6527 86.7975 86.0914H86.8987C87.2355 87.1598 87.6087 88.31 88.0137 89.5442C88.4187 90.7784 88.8408 92.0428 89.28 93.3419C89.7192 94.6365 90.1595 95.9469 90.5975 97.2729C91.0378 98.6011 91.4587 99.842 91.866 101H97.4887C97.8937 99.8745 98.3579 98.5933 98.8813 97.1597C99.4058 95.7262 99.9371 94.2614 100.477 92.7685C101.017 91.2745 101.566 89.7883 102.125 88.31C102.681 86.8306 103.203 85.4665 103.695 84.2155C104.185 82.9657 104.632 81.885 105.037 80.9688C105.441 80.0539 105.762 79.3976 106 79H103.813H101.896Z" fill="#2A2A28"/>
<path d="M195.063 53L174.497 65.0717L153.935 53H140L174.497 74L209 53H195.063Z" fill="#2A2A28"/>
<path d="M221.062 53L200.499 65.0717L179.935 53H166L200.499 74L235 53H221.062Z" fill="#2A2A28"/>
</svg>
