<svg width="167" height="205" fill="none" xmlns="http://www.w3.org/2000/svg"><path d="M165.998 138.609c-2.895 2.144-6.75 3.83-11.565 5.06-4.814 1.229-9.425 1.876-13.83 1.938-16.719 0-25.937-6.072-27.701-18.176l52.729-.03-.003-3.821h-.005c.051-5.368-1.088-9.98-3.449-13.813-2.486-4.034-5.947-7.092-10.384-9.172-4.436-2.08-9.488-3.12-15.151-3.12-6.042 0-11.298 1.024-15.766 3.073-4.47 2.049-7.899 4.997-10.289 8.84-2.393 3.847-3.588 8.45-3.588 13.808 0 .143.016.275.018.417l-14.765.008c3.364-10.871 4.176-20.353 2.518-28.778-1.848-9.376-6.239-17.862-13.174-25.46l.492-.557c5.653 5.022 10.982 9.093 15.99 12.215 5.008 3.122 10.474 4.72 16.402 4.79 5.927.07 11.464-2.8 16.612-8.616 6.023-6.804 8.034-13.914 6.034-21.326-2.001-7.414-7.821-15.402-17.465-23.968l-7.19-6.387a353.095 353.095 0 00-7.106-6.147c-3.381-3.003-6.79-6.03-10.225-9.083L84.663 1a4358.659 4358.659 0 01-29.815 34.015 4355.636 4355.636 0 01-30.15 33.72l5.237 4.652.011-.013.001.019c10.502-.558 23.852 3.695 32.486 10.304 8.135 6.122 13.246 14.136 15.206 23.893 1.304 5.255 2.042 10.643 2.257 16.039l-54.533.031v.059l-.063-.001c.04.546.062 1.15.064 1.805v.098a21.789 21.789 0 01-.064 1.737h.064v.123l32.52-.018c-.87 6.461-3.645 11.262-8.35 14.382-4.782 3.173-10.815 4.759-18.095 4.759-5.472 0-10.19-.956-14.153-2.87-3.965-1.911-7.002-4.629-9.113-8.153-2.112-3.521-3.167-7.616-3.167-12.281 0-4.619 1.088-8.619 3.264-12.002 2.175-3.383 5.353-5.972 9.533-7.768 4.178-1.796 9.198-2.695 15.058-2.695 4.05 0 8.423.502 13.12 1.505 4.695 1.004 9.283 2.672 13.765 5.004a14.146 14.146 0 01-.13-1.994c0-.724.043-1.459.13-2.205-4.653-2.053-9.35-3.51-14.09-4.374-4.739-.863-9.134-1.295-13.182-1.295-6.592 0-12.248.992-16.965 2.975-4.718 1.983-8.315 4.91-10.792 8.783C2.239 113.107 1 117.818 1 123.371c0 5.505 1.163 10.241 3.49 14.205 2.327 3.967 5.774 7.011 10.34 9.134s10.125 3.184 16.674 3.184c8.143 0 14.94-1.773 20.39-5.32 2.87-1.867 5.104-4.306 6.738-7.286h20.59c-1.603 3.021-3.034 5.661-4.838 7.884-2.27 2.799-5.424 6.296-9.462 10.493l-2.24 2.239c-3.852 3.931-6.342 7.664-7.474 11.199-1.13 3.535-.995 7.093.4 10.671 1.398 3.581 4.112 7.394 8.143 11.442 3.502 3.517 7.17 6.315 11.003 8.397 3.836 2.082 7.617 3.544 11.345 4.387a34.881 34.881 0 011.772-1.893 38.488 38.488 0 011.962-1.838c-3.42-.171-7.148-1.24-11.182-3.204-4.033-1.965-7.78-4.684-11.241-8.16-4.315-4.332-6.875-8.198-7.683-11.593-.806-3.394-.372-6.541 1.302-9.437 1.347-2.328 3.464-4.999 6.327-7.999l14.455 14.516c5.823 5.848 11.09 9.393 15.804 10.636 4.716 1.244 8.816.124 12.301-3.359 2.898-2.894 4.244-6.258 4.038-10.09-.204-3.834-2.384-7.834-6.537-12.005-3.46-3.474-7.076-6.039-10.847-7.697-3.77-1.657-7.441-2.577-11.012-2.761a36.161 36.161 0 00-8.635.588 64.7 64.7 0 011.553-1.648c2.562-2.594 5.745-7.482 7.324-10.768h24.713a21.82 21.82 0 004.65 5.482c5.443 4.603 13.327 6.904 23.648 6.904 4.721 0 9.472-.505 14.255-1.513 4.783-1.008 9.094-2.427 12.934-4.256a31.207 31.207 0 01-.095-2.599c-.002-.978.029-1.876.093-2.697zm-76.94 13.615c4.878 1.408 9.454 4.257 13.729 8.55 3.175 3.19 5.048 6.315 5.614 9.378.567 3.063-.394 5.838-2.884 8.326-3.078 3.075-6.647 3.706-10.711 1.894-4.063-1.814-8.943-5.58-14.644-11.305L69.17 158.028c.138-.137.266-.269.407-.407l.679-.678c2.005-2.003 3.754-4.008 5.437-5.887 4.384-.52 8.838-.138 13.365 1.168zm23.508-29.311c0-6.81 2.155-12.089 6.466-15.84 4.31-3.75 10.18-5.627 17.607-5.627 4.154 0 8.008.821 11.563 2.459 3.556 1.641 6.42 4.035 8.591 7.188 2.171 3.153 3.261 8.078 3.325 12.49h0l-47.524.028c-.005-.237-.028-.458-.028-.698zM71.62 25.798L85.79 9.792l11.97 10.633 8.894 7.902 8.895 7.9c7.924 7.04 12.8 13.526 14.626 19.458 1.826 5.932.277 11.682-4.652 17.25-4.054 4.578-8.34 7.012-12.857 7.309-4.519.295-9.394-1.106-14.62-4.202-5.23-3.096-11.554-7.943-18.98-14.54L72 55.227a556.723 556.723 0 01-8.48-7.699l-6.234-5.538L71.62 25.798zm-7.16 55.219C55.948 74.5 43.622 70.279 32.885 70.01c.933-1.068 1.866-2.121 2.8-3.203a688.403 688.403 0 015.831-6.67c2.298-2.709 6.35-7.398 12.156-14.067l6.567 5.834a689.358 689.358 0 018.729 7.92c6.98 6.313 12.144 12.587 15.49 18.817 3.344 6.23 5.01 12.82 4.996 19.77-.014 6.906-2.815 16.48-6.21 25.003-.227-5.596-.994-11.179-2.33-16.562-2.112-10.516-7.652-19.212-16.454-25.836zm18.793 42.591l.039.019h-.038v-.019zm-23.245 10.623a28.89 28.89 0 001.547-6.313c-.007-.166-.008-.301-.013-.458l45.735-.025c.3 2.451.85 4.727 1.692 6.796H60.008z" fill="#fff" stroke="#fff" stroke-width=".75"/></svg>