<svg width="126" height="126" fill="none" xmlns="http://www.w3.org/2000/svg"><circle cx="63" cy="63" r="61.5" stroke="#E2704C" stroke-width="3"/><path d="M92.213 89.426h-1.787v-48.49c0-.853-.602-1.586-1.438-1.753l-35.861-7.148a1.787 1.787 0 00-2.137 1.752v26.926h-7.267v-12.51a1.787 1.787 0 00-3.575 0v12.51h-1.787c-.987 0-1.787.8-1.787 1.787v26.926h-1.787a1.787 1.787 0 100 3.574h57.426a1.787 1.787 0 100-3.574zm-37.648-53.46l32.287 6.436v47.024H76.01v-3.873c4.073-.83 7.148-4.44 7.148-8.756 0-4.706-3.69-12.51-8.935-12.51-5.232 0-8.936 7.8-8.936 12.51 0 4.315 3.075 7.925 7.148 8.756v3.873H61.714V62.5c0-.987-.8-1.787-1.787-1.787h-5.361V35.966zm19.658 46.192a5.367 5.367 0 01-5.362-5.361c0-3.357 2.83-8.936 5.362-8.936 2.552 0 5.361 5.604 5.361 8.936a5.367 5.367 0 01-5.361 5.361zm-34.075-17.87h17.99v25.138h-17.99V64.287z" fill="#373737"/><path d="M45.51 71.436h7.267a1.787 1.787 0 100-3.575H45.51a1.787 1.787 0 000 3.575zm7.267 3.574H45.51a1.787 1.787 0 100 3.574h7.267a1.787 1.787 0 000-3.574zm0 7.148H45.51a1.787 1.787 0 000 3.574h7.267a1.787 1.787 0 100-3.574zm7.149-35.742h7.148a1.787 1.787 0 100-3.574h-7.148a1.787 1.787 0 100 3.574zm7.148 7.149a1.787 1.787 0 000-3.575h-7.148a1.787 1.787 0 000 3.575h7.148zm7.149 0h7.148a1.787 1.787 0 000-3.575h-7.148a1.787 1.787 0 000 3.575zm0 7.148h7.148a1.787 1.787 0 000-3.574h-7.148a1.787 1.787 0 100 3.574z" fill="#373737"/></svg>