<svg width="126" height="126" fill="none" xmlns="http://www.w3.org/2000/svg"><circle cx="63" cy="63" r="61.5" stroke="#E2704C" stroke-width="3"/><path d="M90.187 40.697H84.35v-6.91c0-.987-.8-1.787-1.787-1.787H44.438c-.987 0-1.787.8-1.787 1.787v6.91h-4.05v-2.025a1.787 1.787 0 00-3.575 0v8.578a1.787 1.787 0 103.574 0v-2.98h4.051v6.791c0 .987.8 1.787 1.787 1.787h38.124c.987 0 1.787-.8 1.787-1.787v-6.79H88.4v11.113L63.067 61.72a1.787 1.787 0 00-1.354 1.733v5.838h-2.025c-.944 0-1.725.734-1.784 1.676-1.022 16.363-.956 15.274-.956 15.36 0 1.747.674 3.406 1.898 4.672 2.58 2.669 6.729 2.67 9.309 0a6.692 6.692 0 001.898-4.671c0-.087.066 1-.956-15.361a1.787 1.787 0 00-1.784-1.676h-2.026v-4.442l25.334-6.334a1.787 1.787 0 001.353-1.733V42.484c0-.987-.8-1.787-1.787-1.787zm-9.412 8.578h-34.55v-13.7h34.55v13.7zM66.478 86.376c-.026 1.658-1.38 3.048-2.978 3.048-1.598 0-2.951-1.39-2.978-3.048l.845-13.512h4.267l.844 13.512z" fill="#373737"/></svg>