<svg width="126" height="126" fill="none" xmlns="http://www.w3.org/2000/svg"><circle cx="63" cy="63" r="61.5" stroke="#E2704C" stroke-width="3"/><g clip-path="url(#clip0)" fill="#373737"><path d="M72.365 72.894v-7.622h4.621L63.75 52.567 50.514 65.272h4.62v5.979a274.142 274.142 0 00-8.822-.328v-8.876c3.557-.127 6.412-3.059 6.412-6.646v-9.108a6.66 6.66 0 00-6.653-6.653h-3.094a6.66 6.66 0 00-6.652 6.653V55.4a6.658 6.658 0 006.413 6.646v8.817c-2.605-.03-4.944-.03-6.934-.03H34v18.159h61V78.315l-1.194-.42c-6.755-2.379-14.143-3.955-21.44-5zM39.9 55.4v-9.108a3.082 3.082 0 013.078-3.078h3.094a3.082 3.082 0 013.078 3.078V55.4a3.08 3.08 0 01-2.838 3.068v-7.621h-3.574v7.621A3.081 3.081 0 0139.9 55.4zm23.85 2.12l4.351 4.178H59.4l4.351-4.177zm-5.04 7.752h10.08v7.15a197.37 197.37 0 00-10.08-.95v-6.2zm32.716 20.146H37.574v-11.01c12.406.014 35.46.305 53.852 6.448v4.562zM78.729 44.269h10.666A5.611 5.611 0 0095 38.664c0-2.61-1.795-4.81-4.215-5.43-.727-3-3.435-5.234-6.654-5.234h-.138c-3.22 0-5.927 2.234-6.654 5.233a5.615 5.615 0 00-4.215 5.431 5.612 5.612 0 005.605 5.605zm0-7.636h1.992v-1.787a3.276 3.276 0 013.272-3.272h.138a3.275 3.275 0 013.271 3.272v1.787h1.993a2.031 2.031 0 010 4.061H78.729c-1.12 0-2.031-.91-2.031-2.03 0-1.12.911-2.031 2.03-2.031z"/></g><defs><clipPath id="clip0"><path fill="#fff" transform="translate(34 28)" d="M0 0h61v61H0z"/></clipPath></defs></svg>