<svg width="126" height="126" fill="none" xmlns="http://www.w3.org/2000/svg"><circle cx="63" cy="63" r="61.5" stroke="#E2704C" stroke-width="3"/><g clip-path="url(#clip0)" fill="#373737"><path d="M91.213 70.244h-1.191v-12.51c0-6.766-5.506-12.271-12.272-12.271H65.147l-3.29-3.29a1.787 1.787 0 00-1.263-.523h-3.932V37.6h2.979a1.787 1.787 0 100-3.575h-9.532a1.787 1.787 0 100 3.575h2.979v4.05h-3.932c-.474 0-.928.189-1.263.524l-3.29 3.289H33.787c-.987 0-1.787.8-1.787 1.787v10.484c0 .987.8 1.788 1.787 1.788h10.816l3.29 3.288c.335.336.79.524 1.263.524h11.438c.474 0 .928-.188 1.263-.524l3.29-3.288h10.816v10.722H74.89a1.787 1.787 0 000 3.574h16.322a1.787 1.787 0 000-3.574zM35.574 49.037h7.983v6.91h-7.983v-6.91zm24.28 10.723h-9.957l-2.766-2.766V47.99l2.766-2.765h9.956l2.766 2.765v9.004l-2.766 2.766zm19.683 10.484v-12.51c0-.987-.8-1.787-1.787-1.787H66.193v-6.91H77.75c4.796 0 8.697 3.902 8.697 8.697v12.51h-6.91zm5.161 8.115a1.788 1.788 0 00-2.459 0c-1.025.972-4.37 4.35-4.37 7.016 0 3.088 2.512 5.6 5.6 5.6 3.087 0 5.6-2.512 5.6-5.6 0-2.667-3.346-6.044-4.371-7.016zm-1.23 9.041a2.027 2.027 0 01-2.025-2.025c.008-.516.889-1.842 2.026-3.138 1.137 1.296 2.018 2.622 2.025 3.138A2.028 2.028 0 0183.47 87.4z"/></g><defs><clipPath id="clip0"><path fill="#fff" transform="translate(32 32)" d="M0 0h61v61H0z"/></clipPath></defs></svg>