<svg width="126" height="126" fill="none" xmlns="http://www.w3.org/2000/svg"><circle cx="63" cy="63" r="61.5" stroke="#E2704C" stroke-width="3"/><path d="M88.52 88.426h-3.81V56.524l2.546 2.546a1.78 1.78 0 001.263.524 1.786 1.786 0 001.264-3.05l-5.071-5.072V38.625c0-.987-.8-1.787-1.787-1.787h-7.149c-.986 0-1.787.8-1.787 1.787v2.124l-9.226-9.225a1.786 1.786 0 00-2.527 0l-25.02 25.02a1.786 1.786 0 102.528 2.526l2.075-2.075v31.43H38.48a1.787 1.787 0 100 3.575h50.04a1.787 1.787 0 100-3.574zM77.563 40.412h3.575v7.486l-3.575-3.575v-3.91zm-32.17 13.01L63.5 35.314 81.135 52.95v35.476H45.393V53.42z" fill="#373737"/><path d="M75.232 55.547a1.787 1.787 0 00-2.527 0l-21.4 21.398a1.786 1.786 0 102.528 2.528l21.399-21.4a1.787 1.787 0 000-2.526zm-17.514 8.417a5.367 5.367 0 005.361-5.361 5.367 5.367 0 00-5.361-5.361 5.367 5.367 0 00-5.362 5.36 5.367 5.367 0 005.362 5.362zm0-7.148c.985 0 1.787.801 1.787 1.787a1.79 1.79 0 01-1.787 1.787 1.79 1.79 0 01-1.787-1.787c0-.986.802-1.787 1.787-1.787zm11.877 14.017a5.367 5.367 0 00-5.361 5.361 5.367 5.367 0 005.361 5.362 5.367 5.367 0 005.362-5.362 5.367 5.367 0 00-5.362-5.361zm0 7.148a1.79 1.79 0 01-1.787-1.787 1.79 1.79 0 011.787-1.787 1.788 1.788 0 010 3.574z" fill="#373737"/></svg>