<svg width="126" height="126" fill="none" xmlns="http://www.w3.org/2000/svg"><circle cx="63" cy="63" r="61.5" stroke="#E2704C" stroke-width="3"/><path d="M37.605 49.937H48.27a5.611 5.611 0 005.605-5.605 5.615 5.615 0 00-4.215-5.43c-.727-3-3.435-5.234-6.654-5.234h-.138c-3.22 0-5.927 2.234-6.654 5.233A5.615 5.615 0 0032 44.332a5.61 5.61 0 005.605 5.605zm0-7.636h1.992v-1.787a3.276 3.276 0 013.272-3.272h.138a3.276 3.276 0 013.272 3.272V42.3h1.992a2.031 2.031 0 010 4.061H37.605a2.031 2.031 0 010-4.061zm54.054 30.975c-3.313-.853-6.7-1.634-10.157-2.342V66.47h.866c4.67 0 8.47-3.8 8.47-8.471V45.95c0-4.67-3.8-8.47-8.47-8.47h-5.306c-4.67 0-8.47 3.8-8.47 8.47V58c0 4.67 3.8 8.47 8.47 8.47h.866v3.764c-13.718-2.58-28.492-4.044-44.103-4.364l-1.823-.038v25.615H93V73.622l-1.341-.346zm-14.597-10.38a4.902 4.902 0 01-4.897-4.897V45.95c0-2.7 2.197-4.897 4.897-4.897h5.306c2.7 0 4.897 2.197 4.897 4.897V58c0 2.7-2.197 4.897-4.897 4.897h-.866v-4.3l4.3-3.674-2.322-2.718-1.978 1.69v-4.303h-3.574v4.304l-1.978-1.69-2.322 2.717 4.3 3.674v4.3h-.866zM35.576 80.989h3.573v6.884h-3.573v-6.884zm17.87 6.884h-3.574v-6.884h3.574v6.884zm3.574-6.884h3.575v6.884H57.02v-6.884zm-10.723 6.884h-3.574v-6.884h3.574v6.884zm43.129 0H64.169v-6.884h4.29v-3.575h-4.29v-2.978h-3.574v2.978H57.02v-2.978h-3.574v2.978h-3.574v-2.978h-3.575v2.978h-3.574v-2.978h-3.574v2.978h-3.573v-7.928c14.992.396 29.177 1.867 42.352 4.385v3.043h3.574v-2.33a204.32 204.32 0 017.924 1.813v11.476z" fill="#373737"/></svg>