<svg width="126" height="126" fill="none" xmlns="http://www.w3.org/2000/svg"><circle cx="63" cy="63" r="61.5" stroke="#E2704C" stroke-width="3"/><path d="M92.213 78.297h-.621v-14.39c0-4.36-3.547-7.908-7.908-7.908h-14.39v-.392c0-.987-.8-1.787-1.787-1.787h-8.014c-.987 0-1.787.8-1.787 1.787v.483h-7.388v-7.387h.9c.986 0 1.786-.8 1.786-1.788v-8.013c0-.987-.8-1.787-1.787-1.787h-16.43c-.987 0-1.787.8-1.787 1.787v8.014c0 .987.8 1.787 1.787 1.787h.621v14.39c0 4.36 3.547 7.908 7.908 7.908h14.39v1.036c0 .987.8 1.787 1.787 1.787h8.014c.987 0 1.787-.8 1.787-1.787V70.91h7.388v7.388h-.9c-.986 0-1.786.8-1.786 1.787v8.014c0 .987.8 1.787 1.787 1.787h16.43c.987 0 1.787-.8 1.787-1.787v-8.014c0-.987-.8-1.787-1.787-1.787zM36.574 40.69H49.43v4.44H36.574v-4.44zm6.742 26.738a4.338 4.338 0 01-4.334-4.334v-14.39h7.762v9.174c0 .987.8 1.788 1.787 1.788h9.175v7.762h-14.39zM65.72 70.25h-4.44V57.394h4.44V70.25zm12.749-2.915h-9.175v-7.762h14.39a4.339 4.339 0 014.334 4.334v14.39h-7.762v-9.175c0-.987-.8-1.787-1.787-1.787zm11.957 18.976H77.57v-4.44h12.856v4.44z" fill="#373737"/></svg>