<svg width="127" height="126" fill="none" xmlns="http://www.w3.org/2000/svg"><circle cx="63.5" cy="63" r="61.5" stroke="#E2704C" stroke-width="3"/><g clip-path="url(#clip0)" fill="#373737"><path d="M63.29 59.103a194.705 194.705 0 00-7.015-11.64 1.787 1.787 0 00-2.98 0c-.035.053-3.55 5.377-7.016 11.64-4.754 8.595-7.165 14.84-7.165 18.56 0 4.396 1.644 8.361 4.63 11.164C46.611 91.518 50.532 93 54.785 93c4.254 0 8.175-1.482 11.04-4.173 2.987-2.803 4.631-6.768 4.631-11.165 0-3.72-2.41-9.964-7.165-18.559zm-8.505 30.323c-7.122 0-12.097-4.838-12.097-11.764 0-5.595 7.716-18.976 12.097-25.916 4.382 6.939 12.097 20.318 12.097 25.916 0 6.926-4.975 11.764-12.097 11.764zm28.779-49.703a113.497 113.497 0 00-4.172-6.922 1.787 1.787 0 00-2.98 0c-.086.129-2.113 3.199-4.172 6.922-2.909 5.258-4.322 8.958-4.322 11.312 0 2.8 1.052 5.33 2.964 7.126 1.829 1.716 4.322 2.662 7.02 2.662 2.698 0 5.191-.946 7.02-2.662 1.912-1.795 2.965-4.326 2.965-7.126 0-2.354-1.414-6.054-4.323-11.312zm-5.662 17.525c-3.774 0-6.41-2.555-6.41-6.213 0-2.669 3.487-9.19 6.41-13.925 2.923 4.734 6.41 11.254 6.41 13.925 0 3.658-2.636 6.213-6.41 6.213z"/></g><defs><clipPath id="clip0"><path fill="#fff" transform="translate(33 32)" d="M0 0h61v61H0z"/></clipPath></defs></svg>