<svg width="127" height="126" fill="none" xmlns="http://www.w3.org/2000/svg"><circle cx="63.5" cy="63" r="61.5" stroke="#E2704C" stroke-width="3"/><g clip-path="url(#clip0)"><path d="M81.925 64.175c-.724-1.678-1.715-3.598-2.764-5.631-2.046-3.966-4.366-8.461-5.586-12.79-1.322-4.688-1.087-8.277.719-10.972a1.787 1.787 0 00-1.905-2.732c-.339.082-8.327 2.078-12.188 8.54-1.293 2.162-1.967 4.548-2.02 7.132-1.152-.87-2.438-1.618-3.667-1.858a1.787 1.787 0 00-2.114 1.987c.628 4.78-1.521 7.952-4.01 11.624-1.168 1.724-2.376 3.506-3.381 5.57-2.655 5.45-2.224 11.305 1.282 17.406C50.1 89.083 57.108 93 64.445 93c1.769 0 3.557-.229 5.324-.701.136-.037.273-.072.407-.113 5.148-1.572 9.254-5.185 11.561-10.172 2.556-5.523 2.627-12.192.188-17.84zM58.031 86.874c-1.485-1.666-2.187-3.928-1.925-6.206.265-2.308 2.297-4.973 4.261-7.55 2.016-2.645 4.209-5.522 4.876-8.561 1.903 2.444 3.633 6.789 1.26 13.711a1.786 1.786 0 001.895 2.355c.636-.074 1.561-.355 2.44-.946.35 2.41-.061 4.857-1.22 6.692-.854 1.35-2.498 2.951-5.518 3.053a17.1 17.1 0 01-1.729-.123 7.55 7.55 0 01-4.34-2.425zm20.463-6.36c-1.158 2.501-2.868 4.575-4.987 6.095 1.496-3.536 1.374-7.944-.42-11.72a1.787 1.787 0 00-1.956-.986c.47-4.693-.816-8.086-2.203-10.295-2.073-3.303-4.834-4.741-4.95-4.8a1.787 1.787 0 00-2.454 2.301c1.27 2.928-1.29 6.287-4 9.843-2.257 2.961-4.59 6.023-4.969 9.308-.19 1.652-.026 3.3.458 4.84a17.478 17.478 0 01-3.623-4.43c-2.92-5.08-3.302-9.68-1.168-14.06.894-1.835 2.029-3.51 3.127-5.13 2.163-3.191 4.386-6.472 4.7-10.892 1.16.888 2.366 2.086 3.152 3.015a1.787 1.787 0 003.095-1.606c-.958-3.657-.635-6.872.962-9.556 1.574-2.645 4.131-4.39 6.262-5.466-.644 2.794-.437 6.02.615 9.749 1.318 4.677 3.726 9.343 5.85 13.459 1.02 1.977 1.984 3.844 2.659 5.408 2.041 4.73 1.985 10.308-.15 14.923z" fill="#373737"/></g><defs><clipPath id="clip0"><path fill="#fff" transform="translate(33 32)" d="M0 0h61v61H0z"/></clipPath></defs></svg>