<svg width="127" height="126" fill="none" xmlns="http://www.w3.org/2000/svg"><circle cx="63.5" cy="63" r="61.5" stroke="#E2704C" stroke-width="3"/><g clip-path="url(#clip0)" fill="#373737"><path d="M88.139 33H37.86a5.367 5.367 0 00-5.361 5.361V88.64A5.367 5.367 0 0037.861 94H88.14a5.367 5.367 0 005.361-5.361V38.36A5.367 5.367 0 0088.139 33zm1.787 55.639a1.79 1.79 0 01-1.787 1.787H37.86a1.79 1.79 0 01-1.787-1.787V38.36a1.79 1.79 0 011.787-1.787h50.28a1.79 1.79 0 011.787 1.787v50.28z"/><path d="M63 42.65c-11.496 0-20.85 9.354-20.85 20.85 0 11.496 9.354 20.85 20.85 20.85 11.496 0 20.85-9.353 20.85-20.85 0-11.496-9.353-20.85-20.85-20.85zm0 38.125c-9.526 0-17.275-7.75-17.275-17.275 0-9.526 7.75-17.275 17.275-17.275 9.526 0 17.275 7.75 17.275 17.275 0 9.526-7.75 17.275-17.275 17.275z"/><path d="M54.78 58.734a4.77 4.77 0 00-4.766 4.766 4.77 4.77 0 004.765 4.766 4.77 4.77 0 004.766-4.766 4.77 4.77 0 00-4.766-4.766zm0 5.957a1.193 1.193 0 01-1.192-1.191 1.192 1.192 0 111.191 1.191zm16.44-5.957a4.77 4.77 0 00-4.765 4.766 4.77 4.77 0 004.766 4.766 4.77 4.77 0 004.765-4.766 4.77 4.77 0 00-4.765-4.766zm0 5.957a1.193 1.193 0 01-1.19-1.191 1.192 1.192 0 111.191 1.191z"/></g><defs><clipPath id="clip0"><path fill="#fff" transform="translate(32.5 33)" d="M0 0h61v61H0z"/></clipPath></defs></svg>