<svg width="126" height="126" fill="none" xmlns="http://www.w3.org/2000/svg"><circle cx="63" cy="63" r="61.5" stroke="#E2704C" stroke-width="3"/><g clip-path="url(#clip0)" fill="#373737"><path d="M91.698 45.748H34.302a1.787 1.787 0 000 3.574h18.523L41.55 91.753a1.787 1.787 0 003.455.918l11.517-43.349h12.98l11.52 43.35a1.787 1.787 0 103.455-.919l-11.276-42.43h18.496a1.787 1.787 0 100-3.575z"/><path d="M63.015 52.897c-.987 0-1.788.8-1.788 1.787v1.906a1.787 1.787 0 003.575 0v-1.906c0-.987-.8-1.787-1.787-1.787zm0 9.053c-.987 0-1.788.801-1.788 1.788v1.906a1.787 1.787 0 003.575 0v-1.906c0-.987-.8-1.787-1.787-1.787zm0 9.056c-.987 0-1.788.8-1.788 1.787v1.906a1.787 1.787 0 003.575 0v-1.906c0-.987-.8-1.787-1.787-1.787zm0 9.054c-.987 0-1.788.8-1.788 1.787v1.907a1.787 1.787 0 003.575 0v-1.907c0-.986-.8-1.787-1.787-1.787zm0 9.055c-.987 0-1.788.8-1.788 1.787v1.31a1.787 1.787 0 003.575 0v-1.31c0-.987-.8-1.787-1.787-1.787zM34.344 36.574c1.09 0 2.335.414 3.03 1.007.612.523 1.5.571 2.166.118a6.474 6.474 0 013.658-1.125 6.542 6.542 0 015.625 3.23 1.787 1.787 0 002.3.716 4.171 4.171 0 011.783-.395c.71 0 1.383.17 2.001.505a1.787 1.787 0 002.413-.703 6.522 6.522 0 015.695-3.353 6.534 6.534 0 015.653 3.278 1.787 1.787 0 002.346.71 4.165 4.165 0 011.871-.437 4.17 4.17 0 011.783.395 1.787 1.787 0 002.3-.716 6.542 6.542 0 015.625-3.23c1.313 0 2.579.39 3.66 1.125a1.787 1.787 0 002.165-.118 4.21 4.21 0 013.118-.99 1.788 1.788 0 00.32-3.56 7.79 7.79 0 00-4.688 1.064A10.04 10.04 0 0082.593 33a10.132 10.132 0 00-7.862 3.77 7.782 7.782 0 00-1.846-.22 7.79 7.79 0 00-1.98.254A10.12 10.12 0 0063.015 33c-3.122 0-6.04 1.447-7.935 3.86a7.813 7.813 0 00-4.02-.09A10.132 10.132 0 0043.198 33c-1.613 0-3.181.38-4.597 1.107A8.912 8.912 0 0034.344 33a1.787 1.787 0 000 3.574z"/></g><defs><clipPath id="clip0"><path fill="#fff" transform="translate(32.5 33)" d="M0 0h61v61H0z"/></clipPath></defs></svg>