<svg width="126" height="126" fill="none" xmlns="http://www.w3.org/2000/svg"><circle cx="63" cy="63" r="61.5" stroke="#E2704C" stroke-width="3"/><path d="M92.184 90.367h-5.966v-4.15h5.966a1.817 1.817 0 001.624-2.628l-4.522-9.045h.952a1.817 1.817 0 001.625-2.628L87.34 62.87h.953a1.817 1.817 0 001.624-2.629l-7.782-15.564a1.816 1.816 0 00-3.25 0l-7.782 15.564a1.816 1.816 0 001.625 2.629h.952l-4.522 9.045a1.816 1.816 0 001.624 2.628h.953l-4.523 9.045a1.816 1.816 0 001.625 2.629h5.966v4.15H49.252v-4.15h4.02c5.293 0 9.599-4.306 9.599-9.599V64.946c0-5.293-4.306-9.6-9.599-9.6H41.6c-5.293 0-9.599 4.307-9.599 9.6v11.673c0 5.293 4.306 9.599 9.599 9.599h4.02v4.15H33.816a1.816 1.816 0 000 3.632h58.368a1.816 1.816 0 000-3.633zM47.436 63.13a1.816 1.816 0 00-1.817 1.817v7.288l-2.736-2.736a1.816 1.816 0 10-2.569 2.569l5.305 5.304v5.214H41.6a5.973 5.973 0 01-5.966-5.966V64.946A5.973 5.973 0 0141.6 58.98h11.673a5.973 5.973 0 015.966 5.966v11.673a5.973 5.973 0 01-5.966 5.966h-4.02V77.37l5.304-5.304a1.816 1.816 0 10-2.568-2.57l-2.736 2.737v-7.288a1.816 1.816 0 00-1.817-1.817zM80.51 49.551l4.843 9.687h-9.686l4.843-9.687zm-2.768 13.32h5.537l4.02 8.04H73.721l4.02-8.04zm-5.966 19.714l4.02-8.04h9.428l4.02 8.04H71.776zm10.809 7.782h-4.15v-4.15h4.15v4.15z" fill="#373737"/><path d="M48.408 47.306a6.7 6.7 0 002.677-.56 8.606 8.606 0 006.078 2.506 8.606 8.606 0 006.08-2.507c.838.367 1.75.561 2.676.561a6.688 6.688 0 006.68-6.68 6.688 6.688 0 00-6.68-6.68 6.69 6.69 0 00-2.677.56A8.606 8.606 0 0057.164 32a8.606 8.606 0 00-6.08 2.506 6.69 6.69 0 00-2.676-.56 6.688 6.688 0 00-6.68 6.68 6.688 6.688 0 006.68 6.68zm0-9.728c.712 0 1.38.239 1.93.69a1.817 1.817 0 002.664-.4 4.988 4.988 0 014.161-2.235c1.676 0 3.232.835 4.162 2.235a1.817 1.817 0 002.664.4 3.013 3.013 0 011.93-.69 3.051 3.051 0 013.047 3.048 3.05 3.05 0 01-3.047 3.047c-.712 0-1.38-.238-1.93-.689a1.817 1.817 0 00-2.664.4 4.988 4.988 0 01-4.162 2.235 4.988 4.988 0 01-4.161-2.235 1.817 1.817 0 00-2.664-.4c-.55.451-1.218.69-1.93.69a3.051 3.051 0 01-3.047-3.048 3.051 3.051 0 013.047-3.048z" fill="#373737"/></svg>