<svg width="126" height="126" fill="none" xmlns="http://www.w3.org/2000/svg"><circle cx="63" cy="63" r="61.5" stroke="#E2704C" stroke-width="3"/><g clip-path="url(#clip0)"><path d="M92.811 57.34l-6.16-12.322a5.332 5.332 0 00-4.795-2.963H37.36A5.367 5.367 0 0032 47.416V76.01a5.368 5.368 0 005.361 5.361h2.095a5.37 5.37 0 005.054 3.574 5.34 5.34 0 003.574-1.37 5.338 5.338 0 003.574 1.37 5.37 5.37 0 005.054-3.574h18.724a5.37 5.37 0 005.054 3.574 5.37 5.37 0 005.054-3.574h2.095A5.368 5.368 0 0093 76.01V58.139c0-.278-.065-.551-.189-.8zM57.02 59.926v-7.149h7.268v7.149H57.02zm-10.722 0v-7.149h7.148v7.149h-7.148zm-10.723 0v-7.149h7.149v7.149h-7.149zm32.287-7.149h7.268v7.149h-7.27v-7.149zm10.842 0h7.831l2.892 5.783v4.94H81.23l-2.528-2.528v-8.195zM37.361 45.63h44.495c.68 0 1.293.378 1.598.988l1.293 2.586H35.574v-1.787a1.79 1.79 0 011.787-1.787zm7.149 35.74a1.79 1.79 0 01-1.787-1.787 1.79 1.79 0 011.787-1.787 1.79 1.79 0 011.787 1.787 1.79 1.79 0 01-1.787 1.787zm7.148 0a1.79 1.79 0 01-1.787-1.787 1.79 1.79 0 011.787-1.787 1.79 1.79 0 011.787 1.787 1.79 1.79 0 01-1.787 1.787zm28.832 0a1.79 1.79 0 01-1.787-1.787 1.79 1.79 0 011.787-1.787 1.79 1.79 0 011.787 1.787 1.79 1.79 0 01-1.787 1.787zm7.149-3.574h-2.095a5.37 5.37 0 00-5.054-3.574 5.37 5.37 0 00-5.054 3.574H56.712a5.37 5.37 0 00-5.054-3.574 5.34 5.34 0 00-3.574 1.37 5.34 5.34 0 00-3.574-1.37 5.37 5.37 0 00-5.054 3.574H37.36a1.79 1.79 0 01-1.787-1.787v-5.362h34.074a1.787 1.787 0 100-3.574H35.574V63.5h40.602l3.05 3.05c.336.336.79.524 1.264.524h8.936v3.574h-1.787a1.787 1.787 0 100 3.575h1.787v1.787a1.79 1.79 0 01-1.787 1.787z" fill="#373737"/></g><defs><clipPath id="clip0"><path fill="#fff" transform="translate(32 33)" d="M0 0h61v61H0z"/></clipPath></defs></svg>