<svg width="126" height="126" fill="none" xmlns="http://www.w3.org/2000/svg"><circle cx="63" cy="63" r="61.5" stroke="#E2704C" stroke-width="3"/><path d="M85.191 68.162c-4.674-2.499-10.828-3.875-17.33-3.875-6.496 0-12.631 1.377-17.275 3.878-4.994 2.689-7.744 6.39-7.744 10.419 0 .073 0 .147.002.215C37.621 79.458 32 81.91 32 85.732c0 2.191 1.703 4.14 4.797 5.49C39.427 92.367 42.843 93 46.416 93c.651 0 1.306-.02 1.946-.06 5.725-.361 11.313-.372 16.608-.032.953.061 1.926.092 2.891.092 6.492 0 12.65-1.4 17.339-3.94 5.03-2.724 7.8-6.445 7.8-10.476 0-4.028-2.773-7.73-7.809-10.422zm-1.694 17.756c-4.175 2.262-9.728 3.508-15.636 3.508-.89 0-1.785-.029-2.662-.085-5.445-.35-11.186-.339-17.062.031-.565.036-1.144.054-1.721.054-6.62 0-10.842-2.425-10.842-3.694 0-.582 2.322-2.706 7.718-3.387a3.563 3.563 0 003.126-3.635 4.383 4.383 0 01-.002-.126c0-5.812 9.82-10.723 21.445-10.723 5.924 0 11.48 1.227 15.645 3.453 3.762 2.012 5.92 4.661 5.92 7.27 0 2.62-2.161 5.293-5.928 7.334z" fill="#373737"/><path d="M92.477 43.365l-3.575-3.574a1.792 1.792 0 00-2.52-.007l-9.806 9.698-1.697-1.131c.086-.64.13-1.287.13-1.935C75.01 38.467 68.597 32 60.714 32c-6.844 0-12.419 4.858-13.9 11.04l-4.842-3.442a1.787 1.787 0 00-2.152.061l-7.148 5.719a1.786 1.786 0 00-.671 1.395v12.153c0 .404.136.775.362 1.075-.229.928-.362 1.812-.362 2.499a5.37 5.37 0 003.574 5.054v5.669a1.787 1.787 0 003.574 0v-5.67a5.37 5.37 0 003.575-5.053c0-.508-.073-1.125-.204-1.787h40.066a5.387 5.387 0 003.267 3.267v2.094a1.787 1.787 0 103.574 0V63.98A5.37 5.37 0 0093 58.926V44.629c0-.474-.188-.929-.523-1.264zm-31.764-7.79c5.791 0 10.524 4.666 10.716 10.476l-4.364-2.91c-.6-.4-1.382-.4-1.982 0l-9.355 6.237-5.684-4.04c.544-5.458 5.16-9.764 10.669-9.764zM37.36 64.286a1.79 1.79 0 01-1.787-1.787c0-1.272.866-4.088 1.787-5.188.93 1.11 1.787 3.942 1.787 5.188a1.79 1.79 0 01-1.787 1.787zm4.02-7.148c-1.07-2.372-2.422-3.575-4.02-3.575a3.12 3.12 0 00-1.787.57v-6.502L41 43.292 60.476 57.14H41.38zm25.264 0l-7.798-5.544 7.227-4.818 7.94 5.293-5.102 5.069h-2.267zm20.994 3.574a1.79 1.79 0 01-1.787-1.787c0-1.272.866-4.089 1.787-5.188.93 1.11 1.787 3.942 1.787 5.188a1.79 1.79 0 01-1.787 1.787zm1.787-10.154a3.12 3.12 0 00-1.787-.569c-2.954 0-4.601 4.319-5.158 7.149h-8.498l13.651-13.561 1.792 1.791v5.19zM62.5 75.01h-3.574a1.787 1.787 0 100 3.574H62.5a1.787 1.787 0 000-3.574zm21.564 3.574h-3.693a1.787 1.787 0 100 3.574h3.694a1.787 1.787 0 000-3.574zm-10.841 3.574h-7.149a1.787 1.787 0 000 3.574h7.149a1.787 1.787 0 000-3.574zm3.574-10.722h-7.149a1.787 1.787 0 000 3.574h7.149a1.787 1.787 0 000-3.575zM58.926 82.158h-7.149a1.787 1.787 0 000 3.574h7.149a1.787 1.787 0 000-3.574z" fill="#373737"/></svg>