<svg width="127" height="126" fill="none" xmlns="http://www.w3.org/2000/svg"><circle cx="63.5" cy="63" r="61.5" stroke="#E2704C" stroke-width="3"/><g clip-path="url(#clip0)" fill="#373737"><path d="M92.213 82.158h-1.787V71.436h1.787a1.787 1.787 0 001.072-3.217l-6.433-4.825v-6.299C91.455 56.827 94 54.764 94 49.99c0-2.823-.888-7.076-2.209-10.582C89.94 34.492 87.677 32 85.064 32c-2.611 0-4.875 2.492-6.727 7.408-1.32 3.507-2.208 7.76-2.208 10.582 0 4.768 2.565 6.838 7.148 7.105v3.618l-4.289-3.217a1.787 1.787 0 00-2.144 0l-7.863 5.898V52.522l.528.524a1.787 1.787 0 002.522-2.532L57.61 36.212a1.787 1.787 0 00-2.522.005L40.791 50.514a1.787 1.787 0 102.527 2.527l.524-.523v5.115l-9.614 3.17A1.787 1.787 0 0033 62.5v28.713C33 92.2 33.8 93 34.787 93h57.426C93.2 93 94 92.2 94 91.213v-7.268c0-.987-.8-1.787-1.787-1.787zm-5.361-44.83c.486.769 1.032 1.846 1.595 3.34.318.844.598 1.712.841 2.572l-2.436 1.624v-7.535zm0 11.832l3.276-2.184c.197 1.19.298 2.237.298 3.014 0 2.49-.684 3.326-3.574 3.524V49.16zm-5.17-8.492c.563-1.494 1.109-2.571 1.595-3.34v7.536l-2.436-1.624c.243-.86.523-1.728.841-2.572zm-1.979 9.322c0-.777.1-1.824.298-3.015l3.276 2.185v4.354c-2.89-.198-3.574-1.033-3.574-3.524zm-1.787 11.17l9.536 7.152c-.368.327-.6.805-.6 1.336v12.51h-3.575v-8.935c0-.987-.8-1.787-1.787-1.787h-7.148c-.987 0-1.787.8-1.787 1.787v8.935H68.98v-12.51c0-.522-.235-1.012-.6-1.336l9.536-7.152zm1.787 13.85v7.148H76.13V75.01h3.574zM47.416 48.943l8.94-8.94 9.05 8.974v17.097l-2.86 2.145a1.787 1.787 0 001.073 3.217h1.787v10.722h-3.693v-5.361a5.367 5.367 0 00-5.361-5.361 5.367 5.367 0 00-5.362 5.36v5.362h-3.574V48.943zm10.723 27.854v5.361h-3.575v-5.361a1.79 1.79 0 011.788-1.787 1.79 1.79 0 011.787 1.787zm-21.565 1.787h1.787a1.787 1.787 0 000-3.574h-1.787v-3.575h1.787a1.787 1.787 0 100-3.574h-1.787v-4.068l7.268-2.396v20.761h-7.268v-3.574zm53.852 10.842H36.574v-3.694h53.852v3.694z"/><path d="M56.352 49.99a5.367 5.367 0 00-5.362 5.362 5.367 5.367 0 005.362 5.36 5.367 5.367 0 005.36-5.36 5.367 5.367 0 00-5.36-5.362zm0 7.149a1.79 1.79 0 01-1.787-1.787 1.79 1.79 0 011.787-1.787 1.79 1.79 0 011.787 1.787 1.79 1.79 0 01-1.787 1.787z"/></g><defs><clipPath id="clip0"><path fill="#fff" transform="translate(33 32)" d="M0 0h61v61H0z"/></clipPath></defs></svg>