<svg width="127" height="126" fill="none" xmlns="http://www.w3.org/2000/svg"><circle cx="63.5" cy="63" r="61.5" stroke="#E2704C" stroke-width="3"/><path d="M81.621 61.607l6.967 3.107a1.787 1.787 0 002.488-1.322l2.896-16.426a1.787 1.787 0 00-1.885-2.093l-7.61.537c.032-3.146-2.216-5.953-5.413-6.517L46.21 33.1a6.56 6.56 0 00-7.59 5.316l-2.484 14.08a6.56 6.56 0 005.316 7.59l.586.104-.517 2.933a4.175 4.175 0 003.383 4.83l2.934.518-.691 3.92a5.377 5.377 0 00-4.172 3.5h-6.402v-5.362a1.787 1.787 0 10-3.574 0v14.297a1.787 1.787 0 003.574 0v-5.361h6.402a5.37 5.37 0 005.054 3.574 5.367 5.367 0 005.36-5.361 5.362 5.362 0 00-2.723-4.665l.691-3.922 2.933.518a4.175 4.175 0 004.83-3.383l.518-2.933 14.666 2.586c3.198.564 6.27-1.305 7.316-4.272zM83.93 49.03l6.125-.432-2.101 11.918-5.608-2.5 1.584-8.986zm-6.073-6.721l.586.103a2.982 2.982 0 012.416 3.45l-2.483 14.08a2.982 2.982 0 01-3.45 2.416l-.587-.103 3.518-19.947zM48.03 79.465a1.79 1.79 0 01-1.788-1.787 1.79 1.79 0 011.788-1.787 1.79 1.79 0 011.787 1.787 1.79 1.79 0 01-1.787 1.787zm7.572-13.86a.596.596 0 01-.69.484l-9.387-1.655a.596.596 0 01-.483-.69l.517-2.934 10.56 1.862-.517 2.934zm-13.529-9.039a2.982 2.982 0 01-2.416-3.45l2.483-14.08a2.982 2.982 0 013.45-2.416l28.747 5.069-3.517 19.946-28.747-5.069z" fill="#373737"/><path d="M47.214 41.14a1.787 1.787 0 10-.62 3.52 1.787 1.787 0 00.62-3.52zm7.04 1.242a1.787 1.787 0 10-.62 3.52 1.787 1.787 0 00.62-3.52zm39.223 42.296a1.787 1.787 0 00-2.528 0c-3.706 3.707-8.643 5.748-13.9 5.748s-10.194-2.041-13.9-5.748a1.787 1.787 0 00-2.528 2.528C65.003 91.587 70.837 94 77.05 94c6.212 0 12.046-2.413 16.428-6.794a1.787 1.787 0 000-2.528z" fill="#373737"/><path d="M65.676 79.623a1.787 1.787 0 000 2.528 16.034 16.034 0 0011.373 4.703c4.119 0 8.237-1.568 11.373-4.703a1.787 1.787 0 00-2.528-2.528c-4.877 4.878-12.813 4.878-17.691 0a1.787 1.787 0 00-2.527 0z" fill="#373737"/><path d="M70.73 74.569a1.787 1.787 0 000 2.527 8.908 8.908 0 006.319 2.613 8.908 8.908 0 006.318-2.613 1.787 1.787 0 10-2.527-2.527 5.368 5.368 0 01-7.582 0 1.787 1.787 0 00-2.528 0zm6.319-2.004a1.787 1.787 0 100-3.574 1.787 1.787 0 000 3.574z" fill="#373737"/></svg>