<svg width="126" height="126" fill="none" xmlns="http://www.w3.org/2000/svg"><circle cx="63" cy="63" r="61.5" stroke="#E2704C" stroke-width="3"/><path d="M80.96 33H42.04l-8.912 13.944v6.998a8.59 8.59 0 004.383 7.481V94h48.242V61.27a8.587 8.587 0 004.118-7.328v-6.998L80.959 33zm-36.742 3.978H78.78l5.47 8.559H38.749l5.47-8.559zm21.919 53.044H55.455V71.763h10.682v18.259zm3.978 0V67.785H51.477v22.237h-9.988V62.52c.075.002.149.005.224.005a8.57 8.57 0 006.595-3.095 8.57 8.57 0 006.596 3.095 8.57 8.57 0 006.595-3.095 8.57 8.57 0 006.596 3.095 8.57 8.57 0 006.595-3.095 8.57 8.57 0 007.085 3.08v27.51h-11.66zm15.778-36.08a4.612 4.612 0 01-4.607 4.606 4.612 4.612 0 01-4.606-4.606H72.7a4.612 4.612 0 01-4.606 4.606 4.612 4.612 0 01-4.607-4.606H59.51a4.612 4.612 0 01-4.606 4.606 4.612 4.612 0 01-4.607-4.606H46.32a4.612 4.612 0 01-4.606 4.606 4.612 4.612 0 01-4.607-4.606v-4.427h48.786v4.427z" fill="#373737"/></svg>