<svg width="148" height="32" fill="none" xmlns="http://www.w3.org/2000/svg"><path d="M29.337.1c.18.062.36.129.541.187 1.22.39 1.988 1.543 1.996 2.752.01 1.55.011 3.099 0 4.648a7.233 7.233 0 01-.988 3.583c-.62 1.079-1.443 1.983-2.522 2.638-.908.552-1.858.99-2.932 1.095-.375.037-.752.082-1.128.084-2.333.007-4.666.004-6.998.004h-.523c-.01-.142-.027-.267-.028-.392-.001-3.83-.011-7.659.006-11.488.005-1.142.493-2.071 1.483-2.684.262-.162.59-.218.885-.327.06-.022.11-.066.165-.1h10.043zM0 23.881c.064-.328.126-.655.191-.983.265-1.328.853-2.492 1.743-3.517a7.443 7.443 0 012.381-1.834c.998-.486 2.058-.757 3.176-.758 2.363-.003 4.726-.001 7.09-.001h.527c.01.137.028.262.028.386.001 3.919.017 7.837-.009 11.756-.008 1.119-.707 2.226-1.947 2.658-.14.05-.271.127-.406.19H2.467c-.04-.032-.075-.084-.12-.095-1.103-.256-1.818-.926-2.16-1.998-.057-.181-.124-.36-.187-.539v-5.265zm23.522 7.898c-.211-.062-.42-.135-.633-.184-2.622-.6-4.487-2.097-5.532-4.587-.287-.685-.496-1.387-.51-2.125-.045-2.42-.065-4.842-.093-7.263-.003-.26 0-.52 0-.832h.548c3.874 0 7.748.012 11.622-.006a2.926 2.926 0 012.858 2.258c.062.264.09.542.09.814.006 2.967-.002 5.934.007 8.902.003 1.105-.651 2.46-2.048 2.846-.114.032-.213.117-.319.177h-5.99zM8.193.1c.255.062.507.139.765.186 1.432.263 2.656.915 3.73 1.892 1.257 1.144 1.97 2.577 2.333 4.204.071.322.11.658.111.987.01 2.484.005 4.968.004 7.452 0 .071-.01.142-.018.27h-.522c-3.93 0-7.862-.003-11.793.001C1.527 15.094.332 14.042.1 12.77c-.013-.073-.066-.139-.1-.208v-9.83c.034-.068.085-.134.1-.206C.328 1.472.926.729 1.943.336l.612-.237h5.638zM148 26.075a1.26 1.26 0 01-.844.264c-.792-.022-1.585 0-2.378-.011-.195-.003-.39-.062-.624-.102-.041-.302-.106-.568-.108-.834-.007-3.393 0-6.785-.008-10.178-.001-.908-.335-1.725-.887-2.426-.487-.619-1.193-.96-1.959-1.098-1.51-.273-2.974-.097-4.341.625-.643.34-1.233.771-1.696 1.337-.131.16-.191.42-.192.636-.011 3.582-.008 7.165-.008 10.747v1.013c-.09.075-.2.167-.343.284-.974 0-1.986.006-2.998-.006-.164-.001-.327-.08-.499-.126-.009-.172-.023-.3-.023-.428 0-5.674 0-11.347-.002-17.02 0-.224-.018-.445.275-.572.828 0 1.693.003 2.559-.002.271-.001.436.12.5.379.091.36.177.722.269 1.082.026.102.07.2.104.298.59-.392 1.128-.774 1.689-1.117a5.861 5.861 0 012.39-.806c.635-.075 1.282-.124 1.919-.087 2.07.12 3.945.727 5.366 2.333.828.937 1.301 2.055 1.562 3.263.097.448.121.91.186 1.366.011.075.06.145.091.217v10.97zm-22.465-7.011h-14.532c.265 1.17.954 2.025 1.855 2.714 1.069.818 2.3 1.146 3.644 1.153 1.067.006 2.115-.069 3.142-.36.983-.28 1.859-.764 2.662-1.387.126-.097.253-.19.431-.322.18.187.374.35.522.549.499.667.981 1.347 1.523 2.095-.18.185-.348.41-.565.573-1.519 1.138-3.198 1.92-5.078 2.26-.989.179-1.985.305-2.987.248-2.147-.12-4.149-.72-5.853-2.068-1.714-1.356-2.748-3.139-3.178-5.285a10.25 10.25 0 01-.15-2.904c.163-1.898.82-3.617 2.065-5.105 1.454-1.737 3.316-2.724 5.519-3.136a10.748 10.748 0 013.163-.097 8.964 8.964 0 013.956 1.388c2.002 1.292 3.204 3.149 3.767 5.437.312 1.269.275 2.561.257 3.851-.001.126-.101.25-.163.396zm-3.799-3.627c-.124-.922-.452-1.67-1.088-2.26-1.544-1.434-3.372-1.902-5.432-1.504-1.576.304-2.849 1.078-3.712 2.45-.248.393-.461.815-.517 1.314h10.749zM61.46 14.144c.258-1.418-.665-2.094-1.691-2.36a7.723 7.723 0 00-2.098-.266c-1.881.044-3.702.38-5.306 1.458-.107.072-.237.11-.347.177-.305.188-.577.108-.768-.149-.514-.69-1.004-1.398-1.532-2.138.146-.19.242-.403.407-.518 1.079-.749 2.213-1.407 3.471-1.81.892-.284 1.803-.503 2.748-.535.758-.026 1.52-.122 2.272-.075 2.004.125 3.873.64 5.331 2.134a4.8 4.8 0 011.311 2.616c.126.767.172 1.553.182 2.332.025 1.93.02 3.86.004 5.79-.01 1.18.197 2.318.572 3.432.136.405.238.82.367 1.268-.188.118-.329.247-.495.305-.787.272-1.58.525-2.371.781-.053.018-.117.003-.237.003-.549-.672-.638-1.607-1.123-2.387-.103.044-.208.06-.273.12-1.285 1.166-2.783 1.884-4.508 2.096-.734.09-1.48.203-2.21.16-1.5-.09-2.944-.456-4.136-1.429-1.042-.85-1.667-1.957-1.876-3.306a6.097 6.097 0 01.181-2.65c.303-1.063.913-1.91 1.774-2.592 1.195-.947 2.605-1.38 4.07-1.651.766-.141 1.55-.178 2.324-.28.786-.104 1.568-.235 2.354-.342.528-.072 1.06-.123 1.603-.184zm.017 3.25c-.132.028-.24.056-.352.073-.797.122-1.595.235-2.39.365-1.008.165-2.02.314-3.017.525-.57.12-1.148.288-1.666.546-.798.398-1.152 1.134-1.1 2.002.057.97.822 1.816 1.797 1.907.948.088 1.927.13 2.862-.009 1.586-.234 2.887-1.053 3.866-2.329v-3.08zM75.64 2.914c.042.261.11.495.11.73.007 3.845.005 7.69.005 11.536v.544c.126-.102.216-.163.292-.237 2.13-2.09 4.245-4.197 6.4-6.261.383-.367.715-.855 1.3-.977.097-.02.193-.066.29-.067 1.424-.003 2.847 0 4.271.002.042 0 .083.018.16.036.024.096.05.203.082.323-.593.535-1.174 1.058-1.754 1.583-.055.048-.107.1-.16.15-.76.727-1.514 1.458-2.278 2.18-.954.9-1.912 1.794-2.873 2.685-.351.326-.718.635-1.097.97.243.294.454.565.68.821.733.824 1.479 1.637 2.205 2.466.906 1.033 1.794 2.083 2.699 3.118.515.59 1.05 1.164 1.572 1.748.445.497.891.992 1.321 1.501.083.098.093.256.157.447-.21.047-.37.114-.531.115a175.52 175.52 0 01-3.7-.001c-.46-.006-.835-.205-1.137-.587-.788-.995-1.614-1.961-2.412-2.95-.642-.794-1.261-1.609-1.9-2.406-.425-.53-.868-1.045-1.3-1.568-.101-.121-.194-.248-.326-.417l-1.96 1.503-.001 5.61c0 .68-.138.82-.808.821-.807 0-1.615.008-2.422-.006-.206-.003-.41-.079-.618-.122V3.08c.116-.046.264-.155.413-.157 1.07-.015 2.141-.008 3.32-.008zm18.804 23.29v-14.42l-2.127-.323a427.9 427.9 0 00-.251-.25c0-.847-.004-1.665.002-2.484.003-.405.142-.542.552-.546.586-.006 1.172-.002 1.824-.002v-.966c.002-1.563.563-2.901 1.678-3.99.857-.838 1.916-1.315 3.09-1.532.467-.087.951-.203 1.415-.163.901.076 1.805.142 2.69.4.898.26 1.716.663 2.505 1.14.146.087.248.248.381.386-.448.817-.873 1.583-1.288 2.354-.137.255-.373.236-.55.147-.78-.395-1.608-.664-2.467-.727-.911-.066-1.849-.236-2.709.334-.565.375-.762.921-.87 1.517-.06.338-.01.695-.01 1.1h.497c1.439 0 2.878-.005 4.317.005.206.002.412.074.645.119 0 1.079.006 2.1-.007 3.12-.001.112-.108.222-.169.34h-5.254v14.18c-.176.291-.394.392-.68.39-.881-.004-1.762.005-2.643-.007-.178-.002-.356-.074-.571-.122z" fill="#898989"/></svg>