<svg width="195" height="40" fill="none" xmlns="http://www.w3.org/2000/svg"><g clip-path="url(#clip0)" fill="#898989"><path d="M39.36 31.235V3.216h18.204V8H44.682v5.758c1.524 0 3.024.011 4.524-.004 1.148-.012 2.292.019 3.421.247 3.515.711 5.94 3.202 6.533 6.63.381 2.199.191 4.315-.834 6.312-1.154 2.247-3.049 3.498-5.418 4.077-.946.231-1.913.274-2.882.273-3.327-.002-6.655 0-9.982-.003-.213 0-.432.042-.683-.056zm5.315-4.769c1.837 0 3.633-.012 5.428.003 2.3.02 3.837-1.484 3.903-3.725.07-2.408-1.358-3.967-3.397-4.095-1.679-.105-3.36-.022-5.039-.043-.29-.004-.589-.061-.895.057v7.803zm-40.54 4.827c-1.089 0-2.178.009-3.266-.004-.68-.008-.86-.21-.862-.912C.005 28.845.02 27.313 0 25.78c-.008-.625.23-1.044.742-1.39 4.954-3.346 9.896-6.708 14.842-10.066l8.893-6.04c.708-.48.97-.48 1.657-.012 1.063.725 2.118 1.462 3.193 2.168.494.324.744.738.736 1.339-.017 1.29-.018 2.58-.021 3.869-.001.484-.21.82-.61 1.09-6.912 4.679-13.82 9.364-20.724 14.055-.494.335-1.011.51-1.604.502-.99-.012-1.98-.003-2.97-.003zm173.934 7.559V10.771h4.774c.106.588-.007 1.208.067 1.896.34-.291.637-.54.929-.796 1.432-1.257 3.135-1.514 4.934-1.334 1.41.142 2.731.567 3.828 1.535 1.183 1.045 1.797 2.41 2.044 3.951.491 3.064.42 6.142.107 9.213-.149 1.46-.53 2.864-1.487 4.042-.951 1.17-2.205 1.802-3.622 2.077-1.487.289-2.982.293-4.419-.33-.793-.344-1.427-.913-2.15-1.553v9.38h-5.005zm11.926-17.863c-.061-1.112-.028-2.26-.298-3.383-.317-1.328-.994-2.31-2.422-2.51-1.817-.254-3.398.32-3.93 2.435-.172.688-.224 1.383-.264 2.082-.091 1.63-.094 3.258.284 4.857.245 1.034.738 1.89 1.788 2.296.512.198 1.039.189 1.57.196 1.571.02 2.488-.894 2.873-2.247.348-1.215.326-2.458.399-3.726zM104.444 10.76v16.035h6.539v-16.02h5.066v16.033h2.718v9.506h-4.766v-5.019h-14.56V10.759h5.003zM62.053 13.2c1.338-1.62 3.165-2.453 5.328-2.626 2.345-.188 4.656-.112 6.84.894 2.151.99 3.249 2.763 3.472 5.122.214 2.253.073 4.514.094 6.77.024 2.62.005 5.238.005 7.895h-4.85c-.12-.526.012-1.088-.061-1.63-.072-.019-.123-.03-.173.024-1.136 1.218-2.57 1.742-4.18 1.832-1.434.081-2.836-.076-4.159-.686-2.067-.954-3.062-2.669-3.266-4.905-.126-1.381.039-2.723.784-3.925.942-1.52 2.374-2.288 4.052-2.634 1.426-.294 2.876-.19 4.317-.203.811-.007 1.622-.001 2.528-.001-.026-1.01.118-2.004-.384-2.934-.39-.725-1.042-1.075-1.789-1.256-.934-.227-1.89-.197-2.833-.104-.797.08-1.51.428-2.095 1.009-.196.194-.4.38-.682.647l-2.948-3.29zm10.7 9.379c-.49 0-.924-.012-1.356.002-1.204.04-2.413-.103-3.614.097-1.167.194-1.89 1.016-1.938 2.215-.045 1.133.581 2 1.695 2.291a6.14 6.14 0 002.991.034c1.306-.306 2.037-1.092 2.186-2.418.08-.715.105-1.443.036-2.221zm79.379-4.062v-7.74h5.034v20.475h-5.009v-8.2h-6.58v8.206h-4.989v-20.49h4.963v7.75h6.581zm-14.452 4.038h-12.619c-.186 2.583 1.338 4.386 3.542 4.64.79.09 1.577.082 2.362-.061 1.211-.221 2.19-.859 3.06-1.779l2.831 3.14c-1.145 1.23-2.666 2.252-4.549 2.691-2.223.52-4.434.488-6.602-.211-2.313-.746-3.944-2.318-4.763-4.643-1.211-3.439-1.286-6.936-.02-10.367 1.153-3.122 3.404-4.964 6.709-5.376 2.604-.325 4.983.213 7.011 1.971 1.475 1.28 2.288 2.97 2.721 4.868.379 1.665.31 3.354.317 5.127zm-12.65-3.452h7.693c-.019-2.706-1.442-4.383-3.793-4.423-2.718-.046-4.017 2.203-3.9 4.423zm-36.79 4.293l4.02-12.647h5.233c-.424 1.164-.838 2.298-1.25 3.433-2.497 6.893-4.985 13.79-7.498 20.678-.554 1.52-1.413 2.812-2.952 3.495-.772.343-1.592.458-2.416.511-.746.049-1.497.01-2.277.01v-4.568c.459 0 .926-.002 1.393 0 1.078.006 1.78-.53 2.136-1.55.334-.957.657-1.919.987-2.884l-6.908-19.109h5.235L88.106 23.4l.134-.004zM22.915 6.27C22.6 6.808.652 21.654.163 21.674c-.21-.138-.153-.356-.153-.55C.007 18 .013 14.876.004 11.752c-.002-.587.26-.966.726-1.28 3.431-2.318 6.854-4.648 10.28-6.974 1.13-.768 2.268-1.525 3.39-2.307.43-.3.813-.314 1.25-.017 2.307 1.575 4.624 3.138 6.937 4.705.149.101.28.22.328.393zm153.073 4.482v4.443h-5.805v16.053h-4.98V15.23h-5.971v-4.478h16.756zM12.536 31.07L29.75 19.393c.417.252.303.606.304.9.008 3.306.005 6.61.005 9.916 0 .12-.011.241-.011.362 0 .468-.223.707-.686.708-.178 0-.356.013-.534.013h-16.2l-.093-.224z"/></g><defs><clipPath id="clip0"><path fill="#fff" d="M0 0h195v40H0z"/></clipPath></defs></svg>