<svg width="125" height="62" fill="none" xmlns="http://www.w3.org/2000/svg"><path d="M71.993 18.85h9.868v21.008h-4.258V21.452H76.26v18.406h-4.266V18.85zm16.616 21.008h-4.257V18.85h6.691c2.989 0 3.168 2.28 3.168 3.785v6.36c0 1.476-.18 3.785-3.168 3.785H88.61v7.078zm0-9.463h.555c.45 0 .789-.398.789-1.05v-6.842c0-.654-.338-1.051-.79-1.051h-.554v8.943zm-25.554 9.463h3.533c2.99 0 3.168-2.28 3.168-3.785V31.88c0-.748 0-2.915-2.886-2.84v-.217a2.567 2.567 0 002.12-.722 2.603 2.603 0 00.766-2.117v-3.378c0-1.477-.179-3.786-3.168-3.786h-3.533c-2.98 0-3.158 2.28-3.158 3.785v2.972h4.257v-3.435a.66.66 0 01.404-.644.646.646 0 01.263-.047.675.675 0 01.628.427.7.7 0 01.05.264v4.183c0 1.287-.433 1.561-1.646 1.561H62.03v2.31h1.73c1.588 0 1.71.728 1.71 1.38v4.893a.685.685 0 01-.416.638.672.672 0 01-.26.053.643.643 0 01-.628-.425.653.653 0 01-.04-.265v-3.956h-4.23v3.605c0 1.467.18 3.738 3.158 3.738zm-15.64 0l2.218-21.008h6.702l2.218 21.008H54.38l-.395-5.583h-2.011l-.395 5.583h-4.164zm4.7-7.892h1.7l-.713-10.514h-.245l-.742 10.514zm44.173 4.145V22.607c0-1.477.188-3.786 3.167-3.786h3.534c2.979 0 3.167 2.28 3.167 3.785V36.12c0 1.467-.188 3.786-3.167 3.786h-3.534c-2.989-.048-3.177-2.319-3.177-3.786l.01-.01zm4.266.35a.67.67 0 00.183.493.646.646 0 00.485.198.671.671 0 00.619-.43.688.688 0 00.048-.261V22.143a.688.688 0 00-.409-.636.67.67 0 00-.743.142.66.66 0 00-.183.494V36.46zM43.665 21.452h3.863V18.85h-8.13v21.008h4.267V21.452zm1.532 35.156a.727.727 0 00.697-.48.742.742 0 00.046-.295v-4.41a.706.706 0 00-.213-.526.696.696 0 00-.53-.194.684.684 0 00-.685.435.695.695 0 00-.048.285v4.41a.732.732 0 00.442.719.72.72 0 00.291.056zM23.224 23.553A34.35 34.35 0 0124.38 9.717 38.355 38.355 0 0129.032.112c2.296 3.342 4 7.06 5.037 10.987a32.151 32.151 0 01.705 13.069 33.108 33.108 0 01-5.723 14.394 30.512 30.512 0 01-3.468-6.133 38.06 38.06 0 01-2.36-8.876zm7.518 6.33a15.577 15.577 0 00-1.682-6.623 14.396 14.396 0 00-1.757 6.908 15.272 15.272 0 001.729 6.965 14.674 14.674 0 001.71-7.25zm-5.77-3.35a41.458 41.458 0 01.761-8.317 35.482 35.482 0 013.28-8.849 35.362 35.362 0 013.318 8.867 34.89 34.89 0 01.714 8.224c.402-1.901.616-3.838.64-5.782a34.4 34.4 0 00-1.232-9.624 35.858 35.858 0 00-3.44-7.921 39.288 39.288 0 00-3.393 8.034 35.24 35.24 0 00-1.184 7.306 41.15 41.15 0 00.536 8.063zm94.445-7.683l-2.819 14.772-2.716-14.772h-5.546v21.008h4.267V26.685h.179l2.162 13.173h3.411l2.19-13.182h.151v13.182H125V18.85h-5.583zM39.398 46.397h85.527v14.498H39.399V46.397zM116.204 58h4.013v1.788h2.078v-3.435h-.452v-7.031h-2.124v7.05h-1.391v-7.05h-2.124V58zm-17.989-7.05h1.673V58h1.946v-7.05h1.551v-1.628h-5.17v1.627zM79.54 49.321l1.984 6.851a.445.445 0 01-.499.294 1.91 1.91 0 01-.535-.057v1.429c.332.166.7.244 1.071.227 1.485 0 1.993-.407 2.472-2.092l1.88-6.7h-2.19l-.827 3.786c-.1.595-.168 1.195-.207 1.798-.056-.947-.056-1.476-.113-1.798l-.808-3.738H79.54zM61.175 58h2.124v-3.691h1.39v3.69h2.125v-8.677H64.69v3.35h-1.391v-3.35h-2.124V58zm-18.797-2.536c0 1.731.94 2.744 2.82 2.744s2.819-1.013 2.819-2.744v-3.9c0-1.353-.855-2.46-2.82-2.46-1.964 0-2.876 1.079-2.876 2.451l.057 3.909zM21.316 39.858v6.625a6.059 6.059 0 014.23-1.724c1.578 0 3.094.618 4.228 1.724a5.833 5.833 0 011.757 4.183 5.833 5.833 0 01-1.757 4.183 12.09 12.09 0 01-8.458 3.458 12.09 12.09 0 01-8.459-3.459 11.691 11.691 0 01-1.476-14.99 12.48 12.48 0 011.476-1.76 11.987 11.987 0 018.459-3.463V18.83a21.034 21.034 0 00-14.98 6.07A21.326 21.326 0 000 39.859a21.336 21.336 0 006.335 14.96 21.042 21.042 0 0014.98 6.077 21.329 21.329 0 008.458-1.704 21.452 21.452 0 007.107-4.92V39.858H21.316z" fill="#898989"/></svg>