<svg width="159" height="26" fill="none" xmlns="http://www.w3.org/2000/svg"><path d="M29.95 11.098c3.222 0 6.445-.002 9.667 0 1.122.001 1.416.333 1.456 1.469.157 4.436-2.177 7.33-5.741 9.44-3.981 2.355-8.333 3.4-12.91 3.522-3.224.086-6.445.033-9.61-.723-3.166-.756-6.12-1.96-8.734-3.97-5.918-4.553-4.894-11.582-.132-15.37C6.92 3.099 10.323 1.68 14.01 1.043 20.48-.075 26.88.157 33.108 2.501c1.925.724 3.703 1.706 5.252 3.073.21.186.438.646.35.815-.126.239-.536.45-.827.454-2.598.033-5.198.036-7.796 0-.38-.005-.808-.188-1.129-.413-4.964-3.465-12.528-3.238-16.975.53-3.116 2.641-3.881 6.575-1.892 9.87 1.205 1.995 2.979 3.333 5.11 4.141 4.402 1.671 8.681 1.4 12.738-1.088 1.54-.944 2.735-2.246 3.484-3.928.341-.765.21-.977-.638-.978-3.493-.005-6.986-.002-10.479-.002-1.147 0-1.434-.29-1.439-1.445-.002-.4-.006-.798.002-1.197.017-.851.366-1.21 1.226-1.232.623-.016 1.247-.004 1.87-.004h7.984zM97.464 25.66c-4.017-.046-7.921-.58-11.66-2.108-2.076-.847-3.981-1.968-5.656-3.488-4.684-4.25-3.776-10.423.004-13.921 2.609-2.415 5.713-3.906 9.106-4.706C96-.154 102.686-.041 109.225 2.506c2.359.919 4.458 2.236 6.163 4.147 3.966 4.447 3.421 10.48-1.294 14.116-3.214 2.479-6.91 3.804-10.864 4.392-1.905.283-3.843.34-5.766.5zM85.963 12.974c.014.293.024.587.044.88.008.125.036.249.06.372.491 2.586 2.029 4.42 4.175 5.764 2.87 1.796 6.02 2.322 9.337 1.865 2.391-.33 4.57-1.21 6.44-2.784 3.918-3.297 4.035-8.407.278-11.882-4.654-4.305-13.22-4.23-17.784.17-1.58 1.524-2.526 3.36-2.55 5.615z" fill="#898989"/><path d="M123.738 24.837c-1.684 0-3.369.02-5.052-.016-.404-.01-.803-.212-1.205-.325.263-.323.469-.727.795-.956 4.367-3.066 8.751-6.108 13.131-9.156 1.153-.803 1.153-1.868-.008-2.653-4.369-2.952-8.74-5.9-13.11-8.85-.155-.104-.367-.18-.448-.328-.169-.308-.376-.666-.348-.982.015-.159.513-.386.794-.388 3.014-.027 6.029-.017 9.043-.014 1.151 0 2.101.39 2.96 1.223 2.246 2.183 4.564 4.292 6.854 6.43.836.78 1.252.787 2.074.021 2.398-2.234 4.804-4.463 7.186-6.716.594-.561 1.268-.89 2.061-.907 1.932-.04 3.866-.043 5.799-.054 1.247-.007 2.496-.03 3.741.018.323.012.79.176.922.42.227.419-.117.786-.475 1.039-.494.348-.999.68-1.499 1.018-3.973 2.681-7.944 5.365-11.92 8.04-.494.332-.868.724-.888 1.353-.017.552.248.926.702 1.24a3309.67 3309.67 0 0113.14 9.141c.385.27 1.056.49.852 1.056-.087.24-.83.328-1.276.331-3.347.027-6.694.006-10.041.02-.888.004-1.614-.309-2.235-.932-2.047-2.06-4.097-4.114-6.148-6.17-.717-.72-1.177-.715-1.9.01-2.003 2.013-4.016 4.02-6.009 6.044-.7.71-1.496 1.073-2.503 1.052-1.662-.035-3.326-.01-4.989-.01zm-62.873-.009c-4.594 0-9.19.002-13.784 0-1.805 0-2.381-.585-2.382-2.416-.002-6.278-.002-12.555 0-18.833 0-1.805.596-2.411 2.404-2.412 9.273-.005 18.546-.003 27.818-.001 1.163 0 1.469.322 1.47 1.502.004 2.13-.056 2.192-2.16 2.192H55.517c-1.265 0-1.497.232-1.5 1.494-.002 1.07 0 2.142 0 3.212 0 1.364.251 1.624 1.587 1.624l15.343.001c.208 0 .417-.009.624.008.619.05.951.38.977 1.001a21.03 21.03 0 010 1.637c-.024.645-.378.983-1.025 1.019-.165.009-.332.002-.499.002-5.093 0-10.187-.001-15.28.003-.31 0-.626.012-.928.072-.485.097-.778.418-.782.923-.014 1.448-.024 2.897.005 4.345.013.685.388.954 1.193.955 4.2.002 8.4 0 12.599 0 2.412 0 4.823-.002 7.235.002.953.001 1.308.363 1.324 1.331.005.336.003.672 0 1.008-.007.995-.327 1.328-1.305 1.33-2.474.004-4.948.001-7.422.001h-6.799z" fill="#898989"/></svg>