<svg width="133" height="77" fill="none" xmlns="http://www.w3.org/2000/svg"><path d="M131.235 17.857L67.092.114a2.212 2.212 0 00-1.184 0L1.765 17.857C.725 18.144 0 19.145 0 20.29v35.486c0 1.145.726 2.145 1.765 2.432l64.143 17.744a2.226 2.226 0 001.184 0l64.143-17.744c1.039-.287 1.765-1.287 1.765-2.432V20.289c0-1.145-.726-2.145-1.765-2.432z" fill="#DBDBDB"/><path d="M66.5 73.52L2.356 55.775V20.289L66.5 2.546l64.144 17.743v35.487L66.5 73.519z" fill="#898989"/><path d="M66.5 71.671l-.03-.008L4.132 54.419V21.647l.082-.023L66.5 4.394l.03.008 62.339 17.245V54.42l-.082.023L66.5 71.672zM4.352 54.251l62.147 17.19 62.148-17.19V21.815L66.5 4.622 4.352 21.815V54.25z" fill="#F8F8F8"/><path d="M16.272 43.47h-2.223V32.207h6.668v2.481h-4.445v8.78zm9.874-11.262c1.63 0 4.075 0 4.075 2.959 0 .477 0 2.205-1.482 2.682v.115c1.482.477 1.482 2.07 1.482 2.547 0 2.959-2.445 2.959-4.075 2.959h-4.148V32.208h4.148zm.74 4.39c.816 0 .816 0 .816-.954s0-.955-.815-.955H24.22v1.91h2.667zM24.22 39.08v1.909h2.667c.815 0 .815 0 .815-.954s0-.954-.815-.954H24.22zm13.403-6.872l3.21 10.34v.922h-2.148l-.741-2.386h-4.297l-.74 2.386h-2.15v-.923l3.211-10.34h3.655v.001zm-3.31 6.49h2.965c-.594-1.909-.81-2.83-1.08-3.818h-.805c-.243 1.006-.486 1.909-1.08 3.818zm7.427-6.49h3.556c2.297 0 4.667 0 4.667 4.263 0 4.23-2.37 4.23-4.667 4.23h-1.334v2.768H41.74V32.21zm2.223 6.013h2.222c1.408 0 1.408 0 1.408-1.75 0-1.782 0-1.782-1.408-1.782h-2.222v3.532zm15.697 2.767h-1.136v-8.78h-6.816c0 2.863 0 6.235-1.481 8.78h-.89v4.153h1.927V43.47h6.572v1.67h1.926v-4.152h-.102zm-7.063 0c.89-2.29.89-5.154.89-6.3H56.3v6.3h-3.704zm10.58 0h5.037v2.481h-7.26V32.21h7.26v2.48h-5.037v1.91h4.148v2.48h-4.148v1.909zm8.973-1.528s.974-2.29 3.492-7.252h2.667V43.47h-2.223v-7.254h-.212s-.973 2.386-3.492 7.253h-2.666V32.21h2.222v7.252h.212zm2.074-9.792c.729 0 1.121-.132 1.442-.705l.987.97c-.889 1.512-1.671 1.512-2.61 1.512h-.064c-.938 0-1.72 0-2.61-1.527l.989-.955c.332.573.725.705 1.441.705h.425zm38.005 9.792s.973-2.29 3.492-7.252h2.666V43.47h-2.222v-7.254h-.212s-.973 2.386-3.492 7.253h-2.667V32.21h2.223v7.252h.212zm2.074-9.792c.728 0 1.121-.132 1.442-.705l.987.97c-.889 1.512-1.672 1.512-2.61 1.512h-.064c-.939 0-1.721 0-2.61-1.527l.988-.955c.333.573.726.705 1.442.705h.425zm-19.108 8.171l2.931 4.676v.954h-2.37c-1.334-2.29-2.307-4.39-2.307-4.39h-1.546v4.39h-2.222V32.21h2.222v4.39h1.546s.973-2.1 2.306-4.39h2.371v.954l-2.931 4.676zm6.569 1.621s.974-2.29 3.492-7.252h2.667V43.47h-2.222v-7.254h-.212s-.974 2.386-3.492 7.253H99.33V32.21h2.223v7.252h.211zm-15.541.345c-.277 1.305-.713 1.31-1.97 1.31-2.074 0-2.074 0-2.074-2.99v-.573c0-2.99 0-2.99 2.074-2.99 1.457 0 1.457 0 1.852 2.036l2.223-.716c0-.811 0-3.992-3.778-3.992h-.593c-4.148 0-4.148 4.135-4.148 5.471v.954c0 1.337 0 5.472 4.148 5.472l.855-.002c2.545 0 3.69-2.306 3.775-3.66l-2.364-.32zm17.314 28.508a11.83 11.83 0 00-1.202-1.875c.132-.25.384-.65.836-1.144a6.592 6.592 0 011.689-1.287l.978-.488-.907-.61c-.082-.054-2.04-1.356-4.92-2.153l-.414-.115v-5.433l-.344-.177c-9.311-4.785-20.637-7.314-32.754-7.314-12.116 0-23.442 2.529-32.752 7.314l-.344.177v5.433l-.415.114c-2.88.797-4.838 2.1-4.92 2.154l-.907.61.978.488c.01.004.945.475 1.689 1.287.452.494.705.895.836 1.144a11.86 11.86 0 00-1.2 1.874c-.852 1.641-1.237 3.332-1.305 3.654l-.344 1.624 1.336-.978a20.946 20.946 0 015.434-2.86l.083-.028c1.38-.478 2.81-.813 4.266-.992l.553-.067.021-4.833c8.19-3.957 17.514-6.046 26.991-6.046s18.8 2.09 26.992 6.046l.022 4.833.553.067a20.86 20.86 0 014.266.992l.084.029a20.948 20.948 0 015.433 2.86l1.336.977-.345-1.624c-.068-.321-.453-2.012-1.303-3.653z" fill="#fff"/><path d="M101.598 66.546s.189-.678 1.107-1.681c.84-.918 1.875-1.427 1.875-1.427s-1.922-1.291-4.737-2.07c0 0-.702 3.781-.878 4.366V55.597c-9.415-4.839-20.673-7.245-32.465-7.245-11.79 0-23.05 2.406-32.464 7.245v10.137c-.176-.584-.879-4.365-.879-4.365-2.814.778-4.737 2.069-4.737 2.069s1.035.51 1.875 1.427c.918 1.003 1.107 1.681 1.107 1.681s-.702.76-1.377 2.06c-.824 1.589-1.196 3.257-1.246 3.493a21.499 21.499 0 0110.079-3.997l.02-4.669c7.757-3.813 17.301-6.283 27.623-6.283 10.32 0 19.866 2.47 27.622 6.283l.02 4.67a21.48 21.48 0 0110.079 3.996c-.05-.236-.422-1.905-1.245-3.492-.677-1.302-1.379-2.061-1.379-2.061zm-67.544-.767l.016-.01c-.002.02-.008.024-.016.01zm64.876-.01l.015.01c-.008.014-.013.01-.015-.01z" fill="#999"/><path d="M103.483 71.05a22.037 22.037 0 00-8.899-3.338l-.02-4.556-.247-.121c-8.422-4.14-18.04-6.33-27.817-6.33-9.776 0-19.396 2.19-27.817 6.33l-.248.12-.02 4.557a22.026 22.026 0 00-8.898 3.338c.196-.635.492-1.45.9-2.238.636-1.226 1.303-1.957 1.31-1.964l.168-.183-.067-.24c-.022-.08-.245-.81-1.208-1.861a7.375 7.375 0 00-1.333-1.128 18.507 18.507 0 013.524-1.505c.173.92.534 2.819.724 3.633l-.08.045.215.392.128.222.264.009h.378l.038-1.21V55.87c9.113-4.627 20.18-7.072 32.02-7.072 11.843 0 22.908 2.445 32.022 7.072l-.03 9.953.046.392.4.018h.261l.327-.583-.069-.05c.188-.793.557-2.733.733-3.666a18.541 18.541 0 013.524 1.504 7.392 7.392 0 00-1.333 1.128c-.962 1.051-1.185 1.782-1.207 1.862l-.067.24.168.182c.007.007.674.739 1.31 1.964.408.787.703 1.602.9 2.237z" fill="#999"/><path d="M42.33 58.597l.318-.224-.977-2.529-.205.08c.17.441.184.74.299 3.13l-.908.354c-1.52-1.844-1.71-2.074-1.88-2.515l-.205.08 1.01 2.617.351-.137.08.206-1.26.49-.08-.206.424-.3-1.135-2.94-.468.182-.08-.206 1.846-.718c1.393 1.69 1.583 1.92 1.753 2.362l.176-.069c-.17-.44-.184-.74-.29-2.93l1.787-.696.08.206-.423.3 1.135 2.94.468-.182.08.206-1.816.706-.08-.207zm5.257-5.1l-.448.262.875 3.031.483-.14.061.211-1.993.58-.061-.212.448-.261-.254-.88-.815.237c.152.526-.015.968-.163 1.362l-1.147.334-.062-.212.538-1.427-.035-.122c-.777.029-.947-.557-1.008-.769-.315-1.091.772-1.407 1.769-1.697l1.751-.51.061.213zm-1.458.621l-.362.106c-.876.254-.858.315-.648 1.043.21.727.227.788 1.103.533l.363-.105-.456-1.577zm5.563-.632l-.279-.563c-.323-.01-.647-.02-1.082.077-.86.19-.804.446-.554 1.587l.04.185c.243 1.11.301 1.377 1.222 1.174.368-.082.717-.255 1.065-.429l.246-.054.096.442a5.918 5.918 0 01-1.523.54c-1.843.407-2.115-.837-2.242-1.422l-.04-.186c-.135-.616-.4-1.829 1.472-2.241a6.172 6.172 0 011.578-.143l.216.986-.215.047zm5.066.102c.067.437.273 1.788-1.529 2.066l-.372.058c-1.802.278-2.008-1.074-2.075-1.51l-.048-.312c-.067-.437-.273-1.788 1.528-2.066l.373-.057c1.802-.278 2.008 1.073 2.075 1.51l.048.311zm-2.872.348c.205 1.34.223 1.465 1.093 1.331.87-.134.851-.259.646-1.6l-.019-.125c-.205-1.34-.224-1.465-1.094-1.33-.87.133-.85.258-.645 1.6l.019.124zm7.858.679l.02.22-1.19.104c-.594-.665-.876-.999-.927-1.58l-.688.061.125 1.43.501-.045.02.22-2.067.183-.018-.22.49-.17-.276-3.142-.501.044-.02-.22 2.066-.183.02.22-.49.17.114 1.304.688-.06c-.023-.268.226-.67.336-.848l.249-.402c.193-.313.373-.603.827-.643.03-.003.156-.014.349.027l.075.854-.908.08-.456.737 1.661 1.859zm4.396-1.622c.014.442.053 1.809-1.77 1.861l-.377.011c-1.822.053-1.861-1.313-1.874-1.755l-.009-.315c-.013-.442-.052-1.808 1.77-1.86l.378-.012c1.822-.053 1.861 1.314 1.874 1.755l.009.315zm-2.892-.01c.039 1.356.042 1.482.922 1.456.88-.025.876-.151.837-1.507l-.004-.127c-.039-1.356-.042-1.482-.922-1.456-.88.025-.876.151-.837 1.507l.004.127zm7.177 1.61l.38-.08.106-2.712-.22-.009c-.018.473-.123.753-.965 2.995l-.974-.038c-.666-2.3-.75-2.588-.731-3.06l-.22-.01-.109 2.808.378.014-.01.22-1.35-.052.009-.22.507-.107.122-3.154-.502-.02.008-.22 1.98.077c.61 2.109.693 2.396.675 2.87l.189.007c.018-.473.123-.754.895-2.808l1.917.075-.009.22-.507.107-.123 3.154.503.02-.01.22-1.947-.076.008-.22zm2.278.124l.513-.072.336-3.139-.5-.053.023-.22 3.5.377-.116 1.098-.22-.024-.097-.708-1.673-.18-.132 1.24.624.066c.876.095 1.845.2 1.733 1.25-.107 1.005-1.077.9-1.952.806l-2.063-.222.024-.22zm1.59-1.273l-.132 1.239.75.08c.594.065.601.001.661-.563.06-.555.066-.612-.528-.676l-.75-.08zm2.777 1.741l.516-.039.537-3.107-.496-.086.038-.217 2.042.356-.038.217-.516.038-.381 2.205.217.039c.07-.404.304-.652 1.863-2.3l1.392.242-.037.217-.517.038-.537 3.106.495.086-.037.218-2.043-.355.038-.217.517-.039.38-2.205-.216-.038c-.07.404-.304.651-1.863 2.3l-1.392-.242.038-.217zm10.09-1.215h-.517l-.762 3.06.488.121-.054.215-2.01-.505.053-.214h.518l.316-1.27-1.341-.336-.346 1.392.488.123-.053.214-2.011-.505.052-.214h.519l.76-3.06-.487-.121.053-.214 2.012.504-.054.214h-.518l-.316 1.27 1.341.336.346-1.392-.488-.122.053-.214 2.011.504-.052.214zm-.684 3.206l.367.027 2.105-2.513.045-.134-.477-.16.07-.209 1.84.61.228 3.764.298.099-.069.21-1.9-.63.07-.21.517.038-.04-.65-1.781-.59-.417.498-.04.12.477.158-.069.21-1.293-.429.07-.21zm1.555-.686l1.473.488c-.084-1.357-.103-1.668.003-1.987l-.299-.1c-.106.32-.305.559-1.177 1.599zm6.805 1.2l.1-.707-.857-.352-1.163 2.862.466.19-.083.206-1.92-.787.083-.204.513.074 1.115-2.745-.858-.352-.42.578-.205-.084.415-1.022 3.433 1.405-.415 1.022-.204-.083z" fill="#F8F8F8"/><path d="M78.097 10.797c-2.714 1.371-5.948 3.11-9.092 3.81.026.046-1.462-5.46-1.462-5.46-.04.03-2.08 3.479-4.454 6.781-5.41.992-9.932.646-9.932.646a32.584 32.584 0 006.517 3.48c-1.573 1.69-8.014 4.75-15.679 6.175 23.063-1.108 28.253-8.614 34.102-15.432zM60.884 21.756c.787-.701 1.57-1.57 2.35-2.575-1.3-.44-2.6-.865-3.903-1.396 4.592-.22 9.239-1.45 13.702-3.594-3.821 3.421-8.062 6.544-12.149 7.565z" fill="#DBDBDB"/><path d="M65.374 22.55c1.923.899 3.531 1.9 5.565 3.84a287.8 287.8 0 00-.96-6.542 28.634 28.634 0 01-4.605 2.702z" fill="#DBDBDB"/><path d="M59.753 64.889h1.136v-2.807h-.104l-.957.24-.075-.3 1.435-.36h.27v3.227h.927v.241h-2.632v-.241zm4.019.141l1.695-1.277-.09-.12c-.139.105-.338.255-.986.255h-.12c-1.196 0-1.196-.72-1.196-1.11v-.121c0-.39 0-1.13 1.316-1.13h.24c1.315 0 1.315.8 1.315 1.28 0 .601 0 1.171-.922 1.862l-.723.54h-.53v-.18zm1.545-2.313c0-.87 0-.87-.807-.87s-.807 0-.807.87c0 .872 0 .872.747.872.867 0 .867-.091.867-.872zm1.348 1.473v-.272l.539-.72c.478-.645.478-1.02.478-1.47v-.061h.658v.12c0 .24 0 .35-.419.91l-.777 1.041v.15h1.465v-1.35l.36-.085h.208v1.435h.48v.301h-.48v1.02h-.568v-1.02h-1.944zm5.885-2.483l-1.696 1.275.09.12c.14-.104.339-.254.987-.254h.12c1.196 0 1.196.72 1.196 1.11v.12c0 .39 0 1.132-1.316 1.132h-.24c-1.315 0-1.315-.8-1.315-1.281 0-.6 0-1.201.883-1.862l.722-.54h.569v.18zm-1.546 2.312c0 .87 0 .87.807.87.808 0 .808 0 .808-.87 0-.871 0-.871-.748-.871-.867 0-.867.09-.867.87zm-14.78-.661c.255 0 .255.154.255.257v.102c0 .103 0 .257-.255.257h-.205c-.256 0-.256-.154-.256-.256v-.104c0-.102 0-.256.256-.256h.205zm1.062 0c.255 0 .255.154.255.257v.102c0 .103 0 .257-.255.257h-.205c-.255 0-.255-.154-.255-.256v-.104c0-.102 0-.256.255-.256h.205zm1.061 0c.256 0 .256.154.256.257v.102c0 .103 0 .257-.256.257h-.204c-.256 0-.256-.154-.256-.256v-.104c0-.102 0-.256.256-.256h.204zm16.511 0c.255 0 .255.154.255.257v.102c0 .103 0 .257-.255.257h-.205c-.256 0-.256-.154-.256-.256v-.104c0-.102 0-.256.256-.256h.205zm1.062 0c.255 0 .255.154.255.257v.102c0 .103 0 .257-.255.257h-.205c-.255 0-.255-.154-.255-.256v-.104c0-.102 0-.256.255-.256h.205zm1.061 0c.256 0 .256.154.256.257v.102c0 .103 0 .257-.256.257h-.204c-.256 0-.256-.154-.256-.256v-.104c0-.102 0-.256.255-.256h.205z" fill="#F8F8F8"/></svg>