<svg width="157" height="58" fill="none" xmlns="http://www.w3.org/2000/svg"><path d="M20.682.43c.12.305.39.183.599.201 4.442.386 8.864.87 13.205 1.978A101.11 101.11 0 0154.16 9.847c.437.215.843.55 1.379.493.141.342.458.448.752.606 2.718 1.458 5.352 3.06 7.86 4.866a113.8 113.8 0 0014.49 8.899c3.188 1.638 6.462 3.068 9.918 4.036.311.087.712.092.866.553-.336.138-.632.09-.92.09-7.053.031-14.108.058-21.161.088-.563.003-1.128-.004-1.688.04-4.002.318-7.827-.348-11.51-1.98-3.544-1.569-6.666-3.819-9.796-6.062-1.673-1.2-3.262-2.518-4.995-3.634-3.203-2.42-6.512-4.669-10.053-6.567C23.29 8.052 17.2 5.02 10.75 2.78A78.29 78.29 0 004.306.86C4.057.797 3.745.843 3.79.43h16.89zM157 44.708c-.344.44-.531.984-.926 1.392-.88.91-1.952 1.37-3.198 1.374-3.144.013-6.288.036-9.431-.006-2.658-.035-4.226-1.655-4.288-4.359-.031-1.34.046-2.683-.015-4.02-.118-2.588 1.739-3.873 3.436-4.257a7.449 7.449 0 011.674-.168c2.681.007 5.362.04 8.042-.01 2.055-.037 3.594.716 4.488 2.646.044.094.105.163.218.163v7.245zm-3.285-6.6h-11.172v6.08h11.172v-6.08zm-41.824 19.883c-.285-.344-.666-.568-1.014-.836-1.177-.909-1.68-2.535-1.238-3.958.466-1.497 1.667-2.43 3.237-2.501 1.172-.053 2.228.213 3.032 1.19-.102.432-.46.625-.74.882-1.878-1.153-3.286-1.035-4.076.326-.626 1.078-.274 2.476.797 3.166 1.049.676 2.366.394 2.992-.65-.215-.313-.537-.138-.809-.17-.29-.032-.583-.036-.9-.054-.114-.396-.096-.743-.024-1.126h3.268c.128 1.478-.573 2.738-1.787 3.333-.253.124-.604.069-.75.398h-1.988zm-70.544-.001c-.14-.374-.532-.355-.806-.508-1.46-.817-2.178-2.506-1.756-4.2.392-1.577 1.888-2.662 3.571-2.591 1.64.069 2.973 1.264 3.289 2.95.304 1.623-.554 3.264-2.046 3.965-.285.134-.665.054-.861.385h-1.391zm3.032-3.75c-.01-1.305-.995-2.31-2.24-2.287-1.258.023-2.182 1.03-2.173 2.364.01 1.31.968 2.28 2.251 2.276 1.254-.003 2.174-1.004 2.163-2.352zm80.23 3.751c.066-.224-.238-.323-.138-.533 1.02-2.11 1.691-4.374 2.617-6.539.422-.18.837-.137 1.338-.045l2.557 6.741c-.453.206-.857.127-1.287.08l-.562-1.312c-.898-.115-1.78-.068-2.698-.033l-.834 1.641h-.993zm2.3-3.065c.636.092 1.133.138 1.683-.023-.263-.723-.442-1.411-.876-2.113l-.807 2.136zM23.265 57.991c-.022-.578-.36-1.037-.517-1.587-.92-.174-1.805-.046-2.65-.083-.45.376-.416.957-.776 1.372-.355.093-.741.042-1.264.017l2.592-6.842c.48-.1.868-.064 1.333-.024.722 1.91 1.43 3.812 2.164 5.703.183.471.336.934.31 1.444h-1.192zm-1.93-5.327l-.86 2.254c.581.117 1.083.134 1.616-.007-.1-.735-.445-1.345-.756-2.247zm31.736 5.327c-.202-.364-.163-.764-.163-1.157V52.3c-.39-.266-.747-.083-1.075-.236-.252-.348-.072-.744-.119-1.197h3.668c.147.393.064.756.068 1.1-.332.307-.734.066-1.198.284 0 1.154.002 2.38 0 3.607-.001.716.054 1.438-.188 2.132h-.993zm71.437-29.542c-.056.337.215.464.426.659l-.194.186c-1.22.006-2.439-.03-3.661-.018-5.689.059-11.38.04-17.069.103-3.247.036-6.465-.078-9.666-.74-3.152-.651-6.214-1.526-9.138-2.907-4.76-2.249-9.518-4.5-13.998-7.297-1.424-.89-2.852-1.777-4.235-2.909.303-.201.506-.366.734-.482 5.044-2.573 10.186-4.926 15.47-6.954.284-.11.568-.2.642-.553.623.16 1.172-.124 1.723-.327 4.315-1.592 8.702-2.923 13.205-3.862 2.603-.542 5.236-.729 7.878-.847 3.931-.177 7.865-.327 11.797-.484 4.694-.187 9.387-.372 14.08-.552a7.215 7.215 0 011.601.097c-1.849.36-3.702.702-5.546 1.084-8.303 1.716-16.213 4.541-23.664 8.649-.26.143-.545.25-.73.504-.149.069-.304.127-.447.207-4.145 2.319-8.001 5.064-11.67 8.087-.827.68-1.562 1.443-2.104 2.378-.713 1.228-.48 2.322.668 3.144.598.428 1.266.712 1.959.947 1.82.617 3.682 1.039 5.57 1.385 4.842.887 9.648.922 14.436-.377 1.952-.53 3.954-.794 5.983-.73 1.103.034 2.114.241 3.022 1.024.727.625 1.735.758 2.691.853.153.015.212-.128.237-.268z" fill="#898989"/><path d="M83.818 7.537c-.073.352-.358.444-.642.553-5.284 2.028-10.425 4.38-15.47 6.954-.228.116-.43.281-.734.482 1.383 1.132 2.811 2.02 4.235 2.91 4.48 2.797 9.238 5.047 13.999 7.296 2.923 1.38 5.985 2.256 9.138 2.907 3.2.662 6.419.776 9.666.74 5.689-.063 11.379-.044 17.068-.103 1.221-.012 2.44.024 3.661.018.402.466.264 1.077.602 1.733H29.915c.163-3.97 4.484-9.919 9.438-13.185 1.733 1.116 3.322 2.435 4.995 3.634 3.13 2.243 6.252 4.493 9.796 6.063 3.683 1.63 7.508 2.297 11.51 1.979.56-.044 1.125-.038 1.688-.04l21.162-.087c.287-.001.583.047.92-.09-.155-.462-.556-.467-.867-.554-3.456-.968-6.73-2.398-9.919-4.036a113.805 113.805 0 01-14.49-8.9c-2.507-1.805-5.14-3.407-7.859-4.865-.294-.158-.61-.264-.752-.607.555-.398 1.226-.468 1.855-.628 4.812-1.224 9.698-1.955 14.651-2.286 3.304-.22 6.604-.174 9.906-.095.625.015 1.246.135 1.869.207z" fill="#DBDBDB"/><path d="M124.507 28.45c-.024.139-.083.282-.237.267-.957-.095-1.964-.227-2.69-.852-.909-.784-1.92-.99-3.023-1.025-2.029-.064-4.031.2-5.983.73-4.788 1.3-9.594 1.264-14.436.377-1.888-.346-3.75-.768-5.57-1.385-.693-.235-1.36-.52-1.959-.947-1.149-.822-1.38-1.916-.668-3.144.543-.935 1.277-1.697 2.103-2.378 3.67-3.022 7.526-5.768 11.672-8.087.142-.08.297-.138.446-.206 5.782 2.097 11.099 5 15.519 9.387 2.088 2.073 3.819 4.432 4.826 7.262z" fill="#DBDBDB"/><path d="M119.053 47.435V34.784c.259-.23.535-.142.788-.143 4.202-.005 8.404-.002 12.606-.002.596 0 1.183.045 1.766.193 2.269.571 3.422 2.543 2.817 4.834-.121.454-.319.875-.542 1.291.103.203.185.384.282.556 1.045 1.848.768 3.553-.815 4.915-.78.67-1.688 1.08-2.712 1.083-4.632.015-9.265.004-13.896 0-.062 0-.124-.031-.294-.076zm3.412-8.119H133.7c.071-.489.106-.91-.025-1.37h-11.181c-.139.463-.102.884-.029 1.37zm.013 4.77h11.244c.04-.495.092-.916-.039-1.32h-11.224c-.063.462-.088.857.019 1.32zm-63.69 3.347c0-2.948-.049-5.83.016-8.71.05-2.175 1.721-3.962 3.948-4.01 4.53-.098 9.064-.022 13.597-.014.026 0 .051.039.146.116.109.997.032 2.056.05 3.23H62.133a3.38 3.38 0 00-.037 1.331c.354.246.694.15 1.014.15 3.144.007 6.288.003 9.431.004 1.111 0 2.168.19 3.099.869 2.052 1.497 2.173 4.419.227 6.056-.783.659-1.69 1.07-2.72 1.072-4.666.011-9.331.004-13.997 0-.092 0-.185-.047-.363-.094zm15.35-4.813H62.093c-.013.528-.138.988.076 1.4h12.057c-.038-.492.05-.918-.088-1.4zm34.209 4.861c-1.521 0-3.042-.005-4.564.002-3.219.013-4.54-2.279-4.437-4.501.066-1.404.041-2.814.006-4.22-.038-1.504.672-2.543 1.873-3.306.833-.53 1.761-.774 2.733-.78 3.042-.017 6.086-.034 9.128.001 2.405.029 4.149 1.851 4.18 4.299.018 1.373-.072 2.752.022 4.119.166 2.412-1.828 4.395-4.277 4.384-1.555-.006-3.109 0-4.664 0v.002zm-5.617-3.292h11.127v-6.087H102.73v6.087zM82.425 42.73v4.73c-1.14.124-2.22.035-3.38.066V34.763c.218-.206.496-.12.748-.121 4.37-.006 8.74 0 13.109-.01.807-.002 1.58.136 2.312.472 1.712.785 2.634 2.454 2.347 4.223-.288 1.775-1.884 3.265-3.707 3.365-1.254.07-2.515.034-3.772.036-2.185.004-4.37.002-6.554.002h-1.103zm.069-3.27h11.697c.026-.552.112-1.037-.057-1.497H82.503a4.086 4.086 0 00-.009 1.497zm-59.569 3.27v4.723H19.57V34.758c.236-.2.512-.115.765-.116 4.337-.006 8.673 0 13.01-.007.909-.002 1.775.145 2.587.573 1.663.875 2.48 2.51 2.111 4.232-.383 1.793-1.901 3.205-3.684 3.25-2.614.068-5.23.032-7.845.039-1.154.003-2.308 0-3.589 0zm.066-3.281h11.786c-.023-.538.06-.997-.067-1.473H22.9c.06.536-.057.996.09 1.473zm33.175 8.035h-3.63l-2.065-3.326h-6.765l-1.884 3.319h-3.755c-.096-.308.136-.498.258-.719a3131.31 3131.31 0 015.422-9.825c.34-.614.734-1.19 1.31-1.62 1.53-1.142 3.64-.857 4.76.685.391.537.729 1.119 1.053 1.701 1.693 3.033 3.374 6.073 5.056 9.111.11.198.284.374.24.674zm-7.482-6.667c-.54-.928-.975-1.79-1.618-2.675-.516.99-1.117 1.74-1.487 2.675h3.105zm-36.401.288l5.442 6.341h-3.95c-1.568-1.751-3.38-3.459-4.947-5.406-1.383 1.863-2.918 3.617-4.41 5.441H.202l5.427-6.43L0 34.72h4.289l4.545 5.412c1.432-1.913 3.117-3.619 4.617-5.444h4.207l-5.375 6.417zm89.676 9.794c.382-.159.71-.073 1.126-.102l2.673 4.14.201-.026v-3.892c.48-.305.84-.207 1.277-.177v6.785c-.31.233-.679.06-1.07.13-1.062-1.36-1.839-2.908-3.009-4.482v4.367c-.443.133-.788.136-1.198.012V50.9zm-6.209 6.813h-1.14l-2.752-4.223-.166.053v3.918c-.227.317-.436.281-.63.282-.162 0-.325-.018-.57-.033v-6.8c.332-.204.694-.082 1.134-.077l2.74 4.224.16-.025v-4.04c.45-.271.8-.2 1.224-.117v6.838zm37.255.001v-6.866c1.079-.11 2.101-.087 3.096.15 1.631.389 2.589 2.39 2.113 4.3-.368 1.473-1.2 2.195-2.692 2.36a14.86 14.86 0 01-2.517.056zm1.255-1.319c1.002-.006 1.967.185 2.457-.838.424-.885.452-1.828-.123-2.664-.562-.817-1.412-.84-2.334-.7v4.202zm-85.954 1.264c-.473.113-.797.112-1.302-.006-.022-2.21-.01-4.458-.012-6.762 1.013-.182 1.934-.139 2.82.107 1.248.347 1.652 2.168.729 3.14-.201.211-.452.374-.726.597l1.49 2.913c-.492.155-.9.099-1.353.055l-1.494-2.776-.152.04v2.692zm1.285-5.32c-.359-.26-.765-.226-1.222-.148-.097.43-.08.84-.017 1.274.504.111.927.076 1.289-.235.122-.276.141-.527-.05-.89zM32.644 57.71H31.26l-1.44-2.7-.18.048v2.53c-.45.219-.826.176-1.276.059v-6.744a5.4 5.4 0 012.832.12c1.231.384 1.54 2.234.592 3.183-.187.187-.476.247-.636.584l1.492 2.92zm-2.983-4.212c.54.043.969.06 1.297-.294.138-.307.143-.59-.097-.882-.359-.246-.762-.216-1.2-.127v1.303zm91.904 1.185c.257 1.08 1.069 1.89 1.407 2.985-.42.114-.803.08-1.232.062-.625-.846-.976-1.867-1.675-2.954v2.794c-.463.244-.839.2-1.293.07V50.9a5.484 5.484 0 012.818.128c1.202.37 1.551 2.148.66 3.091-.202.215-.456.379-.685.564zm-1.496-2.497c-.032.494-.137.916.076 1.316.468.055.886.036 1.222-.295.126-.307.145-.592-.08-.863-.339-.272-.731-.22-1.218-.158zM79.79 57.627c-.517.16-.842.112-1.188.073-.402-.326-.354-.915-.7-1.324-.872-.111-1.755-.05-2.62-.036-.356.384-.399.88-.663 1.31-.383.146-.79.123-1.296-.008l2.542-6.703c.452-.22.845-.129 1.356-.096l2.57 6.784zm-3.226-4.942l-.85 2.271c.613.042 1.115.12 1.642-.058-.15-.757-.477-1.373-.792-2.213zm-7.128 1.249l2.514 3.721c-.519.143-.932.08-1.383.08-.794-.828-1.3-1.896-2.16-2.949v2.871c-.493.109-.867.136-1.302-.023v-6.633c.193-.235.403-.198.595-.195.191.002.397-.054.645.146v2.061c.859-.662 1.224-1.56 1.927-2.176.403-.05.82-.071 1.342.049-.606 1.106-1.48 1.929-2.178 3.048zm-34.5 3.723c-.436.132-.785.098-1.197.015V50.9c.956-.217 1.878-.126 2.764.103.79.204 1.14.87 1.218 1.667.082.832-.321 1.51-1.051 1.884-.493.253-1.03.19-1.59.266-.208.924.012 1.867-.144 2.836zm.091-5.462c-.027.486-.12.903.078 1.301.453.066.864.064 1.206-.243.166-.334.174-.638-.084-.925-.345-.237-.726-.212-1.2-.133zm49.781 4.288c.132.46.113.814.012 1.21a19.25 19.25 0 01-3.028 0v-6.759c.337-.245.732-.077 1.228-.148v5.6l1.788.097zM25.54 50.917c.384-.184.739-.124 1.176-.056v6.773c-.356.18-.732.13-1.177.028v-6.745zm72.711.001c.41-.188.764-.099 1.193-.087v6.828c-.387.124-.76.11-1.193.01v-6.751zM87.95 57.657c-.396.127-.747.118-1.167.007v-6.732c.367-.236.73-.078 1.166-.132v6.857zm-27.516-2.602c-.042-.226.167-.357.194-.55-.094-.248-.556-.092-.514-.48.168-.34.416-.008.612-.088.244-.131.01-.462.315-.64.268.25.405.784.921.607.094.412-.218.404-.381.53-.125.249.322.433.116.68-.33.144-.396-.216-.663-.26-.19-.021-.279.5-.6.201z" fill="#898989"/></svg>