<svg width="93" height="21" viewBox="0 0 93 21" fill="none" xmlns="http://www.w3.org/2000/svg">
<path d="M23.5014 6.60368C23.0239 6.73575 22.6277 6.87798 22.3229 7.03038C22.0181 7.18277 21.7235 7.36564 21.4492 7.55868C21.1749 7.75171 20.992 7.89394 20.9107 7.97522L20.7278 8.15809V6.71543H17.8019V20.7255H20.7278V13.1464C20.7278 11.8562 21.0529 10.8504 21.7133 10.129C22.3737 9.40772 23.2576 9.05213 24.3751 9.05213C25.2793 9.05213 25.6857 9.05213 26.0921 9.05213V6.41064H24.9542C24.4666 6.41064 23.9789 6.4716 23.5014 6.60368Z" fill="white"/>
<path d="M48.6848 6.41064C48.1971 6.41064 47.7196 6.4716 47.2421 6.60368C46.7646 6.73575 46.3684 6.87798 46.0636 7.03038C45.7588 7.18277 45.4642 7.36564 45.1899 7.55868C44.9156 7.75171 44.7327 7.89394 44.6514 7.97522L44.4686 8.15809V6.71543H41.5426V20.7255H44.4686V13.1464C44.4686 11.8562 44.7937 10.8504 45.454 10.129C46.1144 9.40772 46.9983 9.05213 48.1158 9.05213C49.0607 9.05213 49.8633 9.3874 50.5033 10.0478C51.1434 10.7081 51.4685 11.5514 51.4685 12.5572V20.7255H54.3945V12.5572C54.3945 10.6878 53.8662 9.19437 52.8197 8.08697C51.7428 6.96942 50.3713 6.41064 48.6848 6.41064Z" fill="white"/>
<path d="M67.6119 8.32064L67.4087 8.10729C67.2969 7.99554 67.1039 7.84314 66.8195 7.63995C66.5451 7.44692 66.2302 7.25389 65.8848 7.07102C65.5393 6.88814 65.1126 6.72559 64.6148 6.60368C64.117 6.4716 63.609 6.41064 63.0807 6.41064C61.2317 6.41064 59.6265 7.12181 58.2651 8.54415C56.9037 9.96649 56.223 11.6835 56.223 13.7052C56.223 15.727 56.9037 17.4541 58.2651 18.8663C59.6265 20.2886 61.2317 20.9998 63.0807 20.9998C63.8935 20.9998 64.6961 20.8271 65.4885 20.4816C66.281 20.1362 66.789 19.8518 67.0328 19.6384C67.2766 19.4149 67.4595 19.2422 67.5916 19.1101L68.0792 20.7153H70.5074V0.284424H67.5814V8.32064H67.6119ZM66.3318 17.0172C65.4784 17.9316 64.4929 18.3888 63.3855 18.3888C62.2781 18.3888 61.2926 17.9316 60.4392 17.0172C59.5858 16.1029 59.149 15.0056 59.149 13.7154C59.149 12.4251 59.5757 11.3279 60.4392 10.4135C61.3028 9.49915 62.2781 9.04197 63.3855 9.04197C64.4929 9.04197 65.4682 9.49915 66.3318 10.4135C67.1852 11.3279 67.6119 12.4251 67.6119 13.7154C67.6119 15.0056 67.1852 16.1029 66.3318 17.0172Z" fill="white"/>
<path d="M76.3591 0.284424H73.4535V20.7153H76.3591V0.284424Z" fill="white"/>
<path d="M82.2216 6.71582H79.2957V20.7259H82.2216V6.71582Z" fill="white"/>
<path d="M82.5159 0.284424H79.0109V3.78947H82.5159V0.284424Z" fill="white"/>
<path d="M89.1402 3.11899C89.4754 2.78372 89.892 2.62117 90.3898 2.62117H92.2896V0H89.638C87.0371 0.0609574 85.7266 1.51378 85.7266 4.36861V6.70532H83.6743V9.32648H85.7266V20.7154H88.6322V9.33664H91.8528V6.71548H88.6322V4.39909C88.6322 3.88096 88.8049 3.45425 89.1402 3.11899Z" fill="white"/>
<path d="M14.2844 11.5211C14.0202 11.1554 13.7154 10.8303 13.3497 10.5255C12.9839 10.2207 12.7401 10.0277 12.5979 9.93622C12.4556 9.84478 12.354 9.78383 12.2728 9.74319L12.8011 9.32664C13.1363 9.0625 13.4716 8.585 13.8069 7.90431C14.1421 7.22361 14.3148 6.47181 14.3148 5.64888C14.3148 4.22654 13.7256 2.97691 12.5572 1.87968C11.3889 0.792608 9.9767 0.25415 8.32069 0.25415H0V20.7257H8.76771C10.6472 20.7257 12.2118 20.1364 13.4614 18.9579C14.7212 17.7794 15.3409 16.3672 15.3409 14.7315C15.3409 14.1118 15.2292 13.5124 15.0057 12.9435C14.7822 12.3542 14.5383 11.8869 14.2844 11.5211ZM3.21042 3.02771H8.32069C9.12329 3.02771 9.78366 3.29186 10.312 3.82016C10.8403 4.34846 11.1044 5.00883 11.1044 5.80127C11.1044 6.59372 10.8403 7.25409 10.312 7.78239C9.78366 8.31069 9.12329 8.57484 8.32069 8.57484H3.21042V3.02771ZM11.1654 16.9666C10.5152 17.6067 9.72271 17.9318 8.76771 17.9318H3.21042V11.2062H8.76771C9.73287 11.2062 10.5355 11.5313 11.1755 12.1815C11.8156 12.8317 12.1407 13.6241 12.1407 14.5791C12.1305 15.5341 11.8054 16.3266 11.1654 16.9666Z" fill="white"/>
<path d="M37.4952 7.92442C36.398 6.90846 35.0061 6.41064 33.2892 6.41064C30.5156 6.41064 28.057 6.85767 28.057 6.85767V9.8141C28.057 9.8141 30.5156 9.04197 33.2892 9.04197C34.1426 9.04197 34.8436 9.29596 35.3922 9.79378C35.9408 10.3018 36.2151 10.9215 36.2151 11.6631L31.1049 12.547C29.8451 12.7604 28.8494 13.248 28.118 14.0303C27.3865 14.8126 27.0309 15.7778 27.0309 16.9258C27.0309 17.9926 27.4982 18.9374 28.4431 19.7603C29.3879 20.5832 30.5664 20.9998 31.9888 20.9998C32.4764 20.9998 32.9539 20.9388 33.4314 20.8169C33.9089 20.695 34.3051 20.5528 34.6099 20.4004C34.9249 20.248 35.2195 20.0651 35.4836 19.8721C35.758 19.679 35.9307 19.5368 36.0221 19.4555C36.1135 19.3743 36.1745 19.3133 36.2151 19.2727L36.7028 20.7255H39.1309V11.6733C39.1309 10.19 38.5925 8.94038 37.4952 7.92442ZM36.2151 14.2945C36.2151 15.6051 35.8799 16.6109 35.2093 17.322C34.5388 18.0332 33.6143 18.3888 32.4256 18.3888C31.6636 18.3888 31.0642 18.2161 30.6071 17.8605C30.16 17.5049 29.9264 17.0985 29.9264 16.6312C29.9264 16.1232 30.0889 15.7066 30.414 15.3815C30.7391 15.0463 31.1557 14.8329 31.684 14.7415L36.2151 14.01V14.2945Z" fill="white"/>
</svg>
