<svg width="263" height="103" viewBox="0 0 263 103" fill="none" xmlns="http://www.w3.org/2000/svg">
<path d="M133.594 13.1173C134.399 13.1606 135.204 13.199 136.009 13.2481C138.248 13.3845 140.495 13.4545 142.725 13.682C145.703 13.9857 148.684 14.3182 151.635 14.8064C158.491 15.9404 165.171 17.7047 171.472 20.692C174.507 22.1309 177.368 23.8412 179.828 26.1479C181.645 27.8518 183.134 29.7823 183.832 32.2061C184.605 34.8927 184.18 37.4386 182.782 39.8404C181.489 42.0642 179.661 43.7977 177.608 45.3139C174.651 47.4978 171.378 49.1057 167.964 50.4487C163.615 52.1597 159.129 53.4139 154.535 54.2751C151.92 54.7654 149.293 55.2252 146.653 55.5491C143.936 55.8823 141.2 56.1094 138.466 56.2443C135.38 56.3966 132.285 56.4662 129.195 56.4363C126.622 56.4116 124.048 56.2358 121.481 56.0434C119.227 55.8746 116.973 55.6572 114.737 55.3377C112.266 54.9848 109.805 54.5453 107.359 54.0472C102.78 53.1143 98.3073 51.8127 93.9919 50.0117C90.6561 48.6196 87.4701 46.9632 84.6337 44.7078C82.7364 43.1989 81.0793 41.4764 79.959 39.3062C79.4028 38.2286 79.0129 37.0953 78.8988 35.8796C78.8854 35.7377 78.8251 35.5997 78.7866 35.4599C78.7866 35.0219 78.7866 34.5838 78.7866 34.1457C78.8856 33.6474 78.9678 33.1452 79.0866 32.6517C79.6464 30.3276 80.9465 28.4298 82.5987 26.7446C84.8697 24.4281 87.5692 22.7048 90.4498 21.2437C96.154 18.3502 102.24 16.5912 108.489 15.3307C112.001 14.6223 115.54 14.0749 119.112 13.783C121.732 13.569 124.357 13.421 126.98 13.2488C127.785 13.1959 128.59 13.1607 129.395 13.1173C130.794 13.1173 132.194 13.1173 133.594 13.1173ZM103.278 48.0069C103.711 47.8924 103.851 47.6346 103.976 47.3606C104.25 46.7633 104.522 46.1656 104.797 45.5692C105.009 45.1104 105.353 44.8557 105.88 44.8838C106.083 44.8946 106.286 44.8913 106.487 44.9092C108.135 45.0557 109.781 45.2453 111.431 45.3458C114.185 45.5136 116.941 45.6866 119.699 45.7421C122.366 45.7958 125.037 45.7517 127.704 45.6602C129.778 45.5891 131.856 45.4518 133.917 45.2127C136.627 44.8983 138.911 43.6629 140.801 41.7186C141.387 41.1159 141.435 40.6297 140.999 39.8932C140.674 39.3427 140.325 38.8057 139.995 38.2574C139.62 37.6338 139.664 37.3844 140.243 36.9692C141.824 35.8358 143.412 34.7129 144.994 33.5811C145.398 33.2923 145.831 33.1553 146.335 33.1769C148.21 33.2571 150.086 33.3173 151.961 33.3901C153.744 33.4591 155.528 33.5259 157.31 33.6116C157.993 33.6444 158.217 33.9813 158.014 34.6413C157.795 35.3556 157.558 36.0648 157.312 36.7708C157.04 37.5563 156.728 37.7374 155.892 37.6126C154.893 37.4634 153.887 37.3449 152.899 37.1428C151.829 36.9239 150.919 37.1254 150.076 37.8297C149.136 38.6144 149.135 38.8738 150.119 39.5904C151.14 40.3348 152.155 41.0938 153.126 41.9012C153.994 42.6227 154.288 43.6076 154.163 44.7097C154.12 45.0877 154.064 45.4741 153.939 45.8313C153.581 46.8638 153.181 47.8824 152.805 48.9092C152.734 49.1043 152.695 49.3113 152.648 49.4884C152.975 49.7682 153.267 49.8479 153.622 49.7509C154.242 49.5819 154.871 49.4491 155.49 49.2812C159.564 48.1772 163.515 46.7691 167.17 44.6317C169.244 43.4182 171.148 41.9958 172.659 40.1101C173.781 38.7098 174.544 37.1463 174.68 35.3428C174.824 33.4252 174.184 31.7196 173.104 30.1597C171.874 28.3852 170.257 27.0084 168.458 25.8432C163.169 22.4154 157.235 20.6554 151.131 19.3557C150.95 19.3171 150.74 19.4099 150.468 19.4534C150.585 19.7261 150.645 19.8939 150.726 20.0519C151.831 22.2172 151.7 24.332 150.325 26.3119C149.641 27.2972 148.849 28.2329 147.984 29.0667C144.336 32.5823 140.222 35.4953 135.855 38.0647C133.027 39.7288 129.983 40.8302 126.733 41.3307C124.206 41.7197 121.657 41.9121 119.102 42.0356C115.348 42.2168 111.597 42.2279 107.844 42.0297C106.675 41.9679 106.558 41.7647 107.054 40.6904C110.106 34.0806 113.158 27.4708 116.21 20.8607C116.316 20.6316 116.412 20.3982 116.521 20.1485C116.127 19.5983 115.632 19.2011 115.082 18.8731C114.96 18.8001 114.758 18.8183 114.602 18.8454C110.798 19.5049 107.048 20.3867 103.4 21.6556C100.25 22.7513 97.2089 24.0786 94.4396 25.9543C92.5085 27.2622 90.7641 28.7654 89.5604 30.7931C88.1573 33.1562 87.9594 35.5962 89.1454 38.1074C89.7787 39.4484 90.6945 40.5859 91.7707 41.5968C94.0026 43.6934 96.6257 45.1934 99.4117 46.4272C100.684 46.9906 101.988 47.4826 103.278 48.0069ZM118.478 22.1114C116.318 27.1956 114.199 32.1834 112.031 37.2886C112.351 37.3143 112.545 37.3786 112.712 37.3358C114.228 36.9477 115.632 36.3379 116.739 35.1971C117.249 34.6721 117.754 34.1388 118.21 33.5689C119.449 32.0208 120.528 30.3711 121.184 28.4897C121.632 27.2046 121.658 25.9197 120.995 24.6777C120.496 23.7425 119.725 23.0322 118.986 22.2972C118.889 22.2006 118.704 22.1904 118.478 22.1114ZM139.288 17.1717C139.233 17.2361 139.178 17.3004 139.123 17.3648C139.27 17.5532 139.405 17.753 139.567 17.9281C141.002 19.4798 141.6 21.2781 141.191 23.3658C140.95 24.5944 140.342 25.6481 139.546 26.6029C136.976 29.6878 134.04 32.3728 130.701 34.6323C126.047 37.7821 120.921 39.5223 115.294 39.8116C113.824 39.8871 112.354 39.9613 110.886 40.0458C110.566 40.0642 110.23 40.0623 109.912 40.3521C110.089 40.4196 110.214 40.4973 110.346 40.5117C110.766 40.5578 111.189 40.6101 111.61 40.6072C114.058 40.5903 116.496 40.4378 118.923 40.1036C121.004 39.8168 123.048 39.3866 124.993 38.5842C131.147 36.0451 136.146 31.9984 140.351 26.9377C141.365 25.7169 141.951 24.2825 142.047 22.685C142.173 20.6043 141.448 18.8619 139.864 17.4849C139.703 17.345 139.481 17.2744 139.288 17.1717ZM129.73 16.9059C129.692 16.9582 129.654 17.0103 129.615 17.0625C129.727 17.2396 129.829 17.4231 129.951 17.5926C130.528 18.3937 131.142 19.1705 131.683 19.9943C132.473 21.197 132.794 22.5266 132.573 23.9599C132.397 25.0992 131.9 26.1122 131.261 27.0591C129.515 29.6498 127.47 31.9831 125.134 34.0713C123.147 35.8478 120.916 37.1618 118.301 37.8057C116.013 38.3688 113.692 38.7143 111.35 38.9462C111.021 38.9788 110.654 38.9299 110.385 39.2559C110.698 39.5301 111.063 39.4719 111.395 39.4726C113.574 39.4768 115.711 39.1318 117.839 38.6929C119.884 38.2709 121.753 37.4693 123.479 36.3109C125.709 34.8153 127.602 32.9612 129.346 30.9487C130.558 29.5506 131.738 28.1226 132.625 26.4922C133.442 24.9921 133.853 23.4061 133.383 21.7041C132.857 19.8004 131.599 18.38 130.188 17.0714C130.08 16.9701 129.885 16.959 129.73 16.9059Z" fill="#898989"/>
<path d="M129.673 90.8722C129.673 82.2518 129.673 73.6834 129.673 65.0493C129.867 65.0322 130.059 65.0004 130.251 65.0003C134.577 64.9974 138.903 65.0152 143.229 64.9939C148.764 64.9669 153.581 68.5233 154.891 74.3434C155.672 77.8129 155.452 81.2146 153.878 84.4229C152.138 87.9691 149.229 90.0819 145.293 90.7537C144.68 90.8583 144.05 90.9032 143.427 90.9049C139.083 90.9177 134.739 90.9122 130.395 90.9099C130.162 90.9098 129.929 90.8862 129.673 90.8722ZM136.488 69.7632C136.322 70.4281 136.358 85.7264 136.533 86.1734C136.714 86.1734 136.914 86.1734 137.114 86.1734C138.568 86.1734 140.024 86.2079 141.477 86.1659C144.225 86.0865 146.33 84.8734 147.566 82.4226C148.775 80.0226 148.874 77.4803 148.126 74.9196C147.161 71.6119 144.609 69.7367 141.15 69.7361C139.788 69.7359 138.425 69.7351 137.063 69.7373C136.867 69.7378 136.67 69.7547 136.488 69.7632Z" fill="#898989"/>
<path d="M99.8687 90.8685C103.042 82.2252 106.192 73.6463 109.352 65.0406C112.545 65.0406 115.704 65.0406 118.903 65.0406C122.06 73.636 125.212 82.2174 128.388 90.862C126.151 90.862 123.974 90.862 121.733 90.862C121.156 89.304 120.57 87.7228 119.977 86.1245C116.083 86.1245 112.221 86.1245 108.28 86.1245C107.7 87.6887 107.113 89.2705 106.52 90.8685C104.308 90.8685 102.129 90.8685 99.8687 90.8685ZM110.031 81.3389C112.809 81.3389 115.469 81.3389 118.225 81.3389C116.867 77.6394 115.531 73.9993 114.194 70.3592C114.148 70.3647 114.102 70.3702 114.056 70.3758C112.723 74.007 111.39 77.6383 110.031 81.3389Z" fill="#898989"/>
<path d="M159.71 90.8696C157.477 90.8696 155.296 90.8696 153.055 90.8696C156.227 82.2311 159.378 73.6493 162.539 65.0413C165.72 65.0413 168.864 65.0413 172.091 65.0413C175.236 73.6065 178.392 82.2001 181.572 90.8623C179.317 90.8623 177.14 90.8623 174.917 90.8623C174.337 89.2939 173.758 87.7249 173.169 86.1309C169.266 86.1309 165.389 86.1309 161.463 86.1309C160.884 87.6981 160.304 89.2658 159.71 90.8696ZM167.385 70.367C167.34 70.3631 167.295 70.3594 167.25 70.3556C165.913 73.9975 164.575 77.6395 163.221 81.3261C165.989 81.3261 168.66 81.3261 171.409 81.3261C170.052 77.6301 168.718 73.9985 167.385 70.367Z" fill="#898989"/>
<path d="M88.1357 86.1663C91.7605 86.1663 95.2845 86.1663 98.8378 86.1663C98.8378 87.7642 98.8378 89.2878 98.8378 90.8616C93.053 90.8616 87.2871 90.8616 81.4824 90.8616C81.4824 82.2592 81.4824 73.6892 81.4824 65.1214C81.8643 64.9744 87.2723 64.9222 88.1357 65.0669C88.1357 72.0547 88.1357 79.0539 88.1357 86.1663Z" fill="#898989"/>
</svg>
