<svg width="263" height="103" viewBox="0 0 263 103" fill="none" xmlns="http://www.w3.org/2000/svg">
<path d="M120.177 48.6618C120.177 47.6667 120.177 46.7231 120.177 45.7613C114.924 45.7613 109.717 45.7613 104.483 45.7613C104.483 50.5785 104.483 55.3834 104.483 60.2185C109.691 60.2185 114.908 60.2185 120.155 60.2185C120.155 58.2927 120.155 56.3644 120.155 54.4067C117.475 54.4067 114.794 54.4067 112.085 54.4067C112.085 53.5337 112.085 52.6895 112.085 51.8246C115.89 51.8246 119.687 51.8246 123.513 51.8246C123.52 51.956 123.532 52.0724 123.532 52.1889C123.533 54.3658 123.552 56.5429 123.52 58.7194C123.511 59.3737 123.395 60.0337 123.262 60.6774C123.013 61.8757 122.23 62.5808 121.051 62.823C120.453 62.9458 119.837 63.0397 119.229 63.042C114.618 63.0598 110.007 63.0588 105.395 63.0428C104.823 63.0409 104.245 62.9461 103.68 62.8442C102.324 62.6003 101.543 61.7569 101.304 60.4233C101.198 59.8347 101.12 59.2321 101.117 58.6354C101.101 54.883 101.097 51.1304 101.12 47.3781C101.124 46.7118 101.232 46.0378 101.367 45.3825C101.611 44.1898 102.376 43.4634 103.561 43.2198C104.159 43.0971 104.775 42.9991 105.382 42.9967C110.006 42.9785 114.629 42.9752 119.253 42.9996C119.93 43.0032 120.617 43.1316 121.28 43.2857C122.285 43.5193 122.932 44.177 123.236 45.1654C123.501 46.0268 123.554 46.9121 123.527 47.8047C123.524 47.8807 123.458 48.0093 123.402 48.0208C122.346 48.2394 121.288 48.444 120.177 48.6618Z" fill="#898989"/>
<path d="M169.294 42.9868C171.738 42.9868 174.182 42.9768 176.626 42.9945C177.164 42.9984 177.71 43.0572 178.237 43.1653C179.785 43.4829 180.49 44.2435 180.756 45.8712C180.845 46.4144 180.894 46.9701 180.896 47.5202C180.908 51.2241 180.911 54.9281 180.894 58.632C180.891 59.2285 180.819 59.8336 180.701 60.4189C180.393 61.9378 179.663 62.6358 178.132 62.8973C177.589 62.99 177.033 63.044 176.483 63.0453C171.643 63.0565 166.803 63.0588 161.964 63.0429C161.367 63.0409 160.766 62.9477 160.176 62.8424C158.838 62.6031 158.058 61.7702 157.812 60.4533C157.704 59.8772 157.623 59.2865 157.621 58.7021C157.604 54.9262 157.6 51.1502 157.623 47.3745C157.627 46.7083 157.736 46.0345 157.871 45.3794C158.117 44.1858 158.887 43.4633 160.07 43.2193C160.679 43.0937 161.306 43.0035 161.927 42.9972C164.382 42.9722 166.838 42.9868 169.294 42.9868ZM160.985 45.7612C160.985 50.594 160.985 55.4072 160.985 60.2245C166.528 60.2245 172.046 60.2245 177.56 60.2245C177.56 55.387 177.56 50.5739 177.56 45.7612C172.021 45.7612 166.512 45.7612 160.985 45.7612Z" fill="#898989"/>
<path d="M68.7212 63.0225C68.7212 56.3394 68.7212 49.6806 68.7212 42.9872C69.3973 42.9872 70.0564 42.9784 70.7149 42.9957C70.827 42.9987 70.9516 43.0963 71.0446 43.1791C75.0142 46.7156 78.9814 50.2547 82.9474 53.7952C84.0241 54.7564 85.116 55.7021 86.1622 56.6956C86.7531 57.2566 87.2657 57.9 87.8129 58.5068C87.883 58.5846 87.9493 58.6657 88.0371 58.7684C87.6271 53.5053 87.9561 48.2707 87.8125 43.0139C88.8578 43.0139 89.8599 43.0139 90.8799 43.0139C90.8799 49.6838 90.8799 56.3426 90.8799 63.0499C90.2801 63.0499 89.6826 63.0585 89.0858 63.0415C88.9851 63.0386 88.8759 62.9381 88.7903 62.8609C83.9436 58.4835 79.0979 54.105 74.2548 49.7236C73.3318 48.8887 72.3483 48.1124 71.6305 47.0003C71.9265 52.3802 71.6904 57.6879 71.7932 63.0225C70.7489 63.0225 69.7476 63.0225 68.7212 63.0225Z" fill="#898989"/>
<path d="M198.828 63.0402C197.683 63.0402 196.601 63.0402 195.478 63.0402C195.478 57.2843 195.478 51.5398 195.478 45.7557C192.41 45.7557 189.382 45.7557 186.325 45.7557C186.325 44.8221 186.325 43.9279 186.325 43.01C193.545 43.01 200.762 43.01 208 43.01C208 43.9121 208 44.8062 208 45.7396C204.946 45.7396 201.906 45.7396 198.828 45.7396C198.828 51.5211 198.828 57.2638 198.828 63.0402Z" fill="#898989"/>
<path d="M151.712 60.2357C151.712 61.2047 151.712 62.1042 151.712 63.0277C145.534 63.0277 139.366 63.0277 133.176 63.0277C133.176 56.3597 133.176 49.6938 133.176 43.0073C134.274 43.0073 135.364 43.0073 136.496 43.0073C136.496 48.7336 136.496 54.4618 136.496 60.2357C141.584 60.2357 146.631 60.2357 151.712 60.2357Z" fill="#898989"/>
<path d="M55 43.0012C56.1125 43.0012 57.2034 43.0012 58.3148 43.0012C58.3148 49.6831 58.3148 56.3499 58.3148 63.0338C57.2062 63.0338 56.1156 63.0338 55 63.0338C55 56.3656 55 49.7005 55 43.0012Z" fill="#898989"/>
</svg>
