<svg width="263" height="103" viewBox="0 0 263 103" fill="none" xmlns="http://www.w3.org/2000/svg">
<path d="M73.6816 23.4305C73.8026 23.7346 74.0729 23.6133 74.2809 23.6314C78.7228 24.0165 83.1454 24.501 87.4862 25.6086C94.2896 27.3445 100.848 29.7444 107.159 32.8468C107.596 33.0615 108.002 33.3966 108.538 33.3396C108.679 33.6818 108.996 33.7881 109.29 33.946C112.008 35.4044 114.642 37.0061 117.15 38.8116C121.767 42.1355 126.589 45.1157 131.64 47.711C134.828 49.3491 138.102 50.7791 141.558 51.7467C141.869 51.8337 142.27 51.8387 142.424 52.3004C142.088 52.4381 141.792 52.3897 141.504 52.3909C134.451 52.4212 127.397 52.4482 120.343 52.4782C119.78 52.4807 119.215 52.4737 118.655 52.5181C114.653 52.8364 110.828 52.1696 107.145 50.5387C103.601 48.9695 100.479 46.7191 97.3489 44.4758C95.6756 43.2767 94.0868 41.9584 92.3544 40.8421C89.1506 38.4216 85.8421 36.1734 82.3007 34.2748C76.2903 31.0522 70.2 28.0195 63.7519 25.7805C61.6302 25.0438 59.4794 24.4117 57.3046 23.8603C57.0567 23.7975 56.7441 23.8426 56.7908 23.4305C62.4211 23.4305 68.0514 23.4305 73.6816 23.4305Z" fill="#898989"/>
<path d="M210 67.7078C209.656 68.1475 209.469 68.6918 209.074 69.1004C208.194 70.0095 207.122 70.4692 205.876 70.4741C202.732 70.4866 199.588 70.51 196.445 70.4681C193.787 70.4326 192.219 68.813 192.157 66.1095C192.126 64.7696 192.203 63.4259 192.142 62.0882C192.024 59.5013 193.881 58.2156 195.578 57.8316C196.129 57.7068 196.686 57.6627 197.252 57.6641C199.933 57.6711 202.614 57.7045 205.294 57.6548C207.349 57.6167 208.888 58.3697 209.782 60.2996C209.826 60.3937 209.887 60.463 210 60.4625C210 62.8776 210 65.2927 210 67.7078ZM206.715 61.108C202.966 61.108 199.256 61.108 195.543 61.108C195.543 63.173 195.543 65.1667 195.543 67.1888C199.286 67.1888 202.97 67.1888 206.715 67.1888C206.715 65.1346 206.715 63.1444 206.715 61.108Z" fill="#898989"/>
<path d="M164.891 80.9911C164.606 80.6465 164.225 80.4235 163.877 80.1554C162.7 79.2463 162.197 77.6199 162.639 76.1973C163.105 74.7 164.306 73.7667 165.876 73.696C167.048 73.6434 168.104 73.9087 168.908 74.8867C168.806 75.3176 168.448 75.5114 168.168 75.7677C166.29 74.6151 164.882 74.7327 164.092 76.0939C163.466 77.1717 163.818 78.57 164.889 79.26C165.938 79.9359 167.255 79.6538 167.881 78.6106C167.666 78.2968 167.344 78.472 167.072 78.4408C166.782 78.4077 166.489 78.4041 166.172 78.3861C166.058 77.9903 166.076 77.6433 166.148 77.2596C167.275 77.2596 168.349 77.2596 169.416 77.2596C169.544 78.7377 168.843 79.9979 167.629 80.5933C167.376 80.7173 167.025 80.662 166.879 80.991C166.216 80.9911 165.554 80.9911 164.891 80.9911Z" fill="#898989"/>
<path d="M94.3466 80.9909C94.2067 80.6158 93.8151 80.6353 93.5405 80.4817C92.0804 79.6647 91.3631 77.9759 91.7847 76.2815C92.177 74.7045 93.6727 73.6195 95.3563 73.6906C96.9963 73.7598 98.3287 74.9548 98.6448 76.6401C98.9495 78.2643 98.0906 79.9051 96.5991 80.6057C96.3139 80.7397 95.9343 80.6603 95.7377 80.9909C95.274 80.9909 94.8103 80.9909 94.3466 80.9909ZM97.3795 77.2406C97.3681 75.935 96.3838 74.9304 95.1386 74.9533C93.8811 74.9765 92.9569 75.9822 92.9662 77.317C92.9753 78.6278 93.9336 79.5969 95.2171 79.5933C96.4714 79.5896 97.3912 78.5888 97.3795 77.2406Z" fill="#898989"/>
<path d="M177.609 80.9911C177.675 80.7666 177.371 80.6684 177.471 80.4579C178.491 78.3484 179.162 76.0842 180.088 73.9193C180.51 73.7386 180.925 73.7819 181.426 73.8737C182.265 76.0866 183.111 78.3172 183.983 80.6151C183.53 80.8205 183.126 80.7418 182.696 80.6947C182.506 80.2516 182.325 79.8293 182.134 79.3831C181.236 79.2678 180.354 79.3153 179.436 79.3498C179.155 79.9031 178.878 80.4471 178.602 80.9911C178.27 80.9911 177.94 80.9911 177.609 80.9911ZM179.909 77.9258C180.545 78.0184 181.042 78.0642 181.592 77.903C181.329 77.1797 181.15 76.4916 180.716 75.7902C180.435 76.5344 180.195 77.17 179.909 77.9258Z" fill="#898989"/>
<path d="M76.2651 80.991C76.2434 80.4135 75.9046 79.9536 75.7483 79.4042C74.8287 79.2302 73.9429 79.3584 73.0975 79.3206C72.6479 79.6968 72.682 80.2779 72.322 80.6934C71.9673 80.7862 71.5809 80.7348 71.0576 80.7098C71.9481 78.3601 72.805 76.0991 73.6503 73.8683C74.1305 73.7682 74.5184 73.8043 74.9826 73.8438C75.7046 75.7533 76.4128 77.6555 77.1468 79.5472C77.3296 80.018 77.4834 80.4809 77.4573 80.991C77.0599 80.991 76.6625 80.991 76.2651 80.991ZM74.3351 75.664C74.0023 76.5372 73.7475 77.2053 73.4759 77.9176C74.056 78.0355 74.5584 78.0521 75.091 77.9107C74.9915 77.1757 74.6464 76.5663 74.3351 75.664Z" fill="#898989"/>
<path d="M106.071 80.9912C105.869 80.6266 105.908 80.2273 105.908 79.8337C105.908 78.3031 105.908 76.7724 105.908 75.3009C105.518 75.0348 105.161 75.218 104.832 75.0655C104.582 74.7173 104.761 74.3207 104.714 73.8678C105.975 73.8678 107.176 73.8678 108.382 73.8678C108.529 74.2609 108.446 74.624 108.45 74.9676C108.118 75.2753 107.716 75.0343 107.252 75.2523C107.252 76.406 107.254 77.6325 107.252 78.8589C107.251 79.575 107.306 80.2966 107.065 80.9912C106.733 80.9912 106.402 80.9912 106.071 80.9912Z" fill="#898989"/>
<path d="M177.508 51.449C177.452 51.7861 177.723 51.9131 177.934 52.1076C177.865 52.1735 177.803 52.2339 177.74 52.2944C176.52 52.2996 175.301 52.2636 174.079 52.2762C168.39 52.3347 162.699 52.3158 157.01 52.3788C153.763 52.4148 150.545 52.3011 147.344 51.6393C144.192 50.9875 141.13 50.1129 138.206 48.7319C133.446 46.4831 128.688 44.2329 124.208 41.4351C122.784 40.5459 121.355 39.6578 119.973 38.5262C120.276 38.325 120.479 38.1597 120.706 38.0437C125.751 35.4706 130.893 33.118 136.177 31.0897C136.461 30.9807 136.745 30.8891 136.819 30.537C137.442 30.6964 137.991 30.4134 138.542 30.2101C142.857 28.6178 147.244 27.2869 151.747 26.3482C154.35 25.8057 156.983 25.6191 159.625 25.5006C163.556 25.3244 167.49 25.1745 171.422 25.0174C176.116 24.83 180.809 24.6449 185.502 24.4647C186.029 24.4445 186.559 24.462 187.103 24.5622C185.254 24.9223 183.401 25.2644 181.557 25.6457C173.254 27.3618 165.344 30.187 157.893 34.2946C157.633 34.4376 157.348 34.5445 157.163 34.7994C157.014 34.8678 156.859 34.926 156.716 35.0059C152.571 37.3245 148.715 40.0704 145.045 43.0932C144.219 43.7735 143.484 44.5363 142.942 45.471C142.229 46.6989 142.461 47.7928 143.61 48.6148C144.208 49.0426 144.876 49.3272 145.568 49.5621C147.388 50.1792 149.251 50.6006 151.139 50.9467C155.981 51.8342 160.787 51.869 165.575 50.5699C167.527 50.0404 169.529 49.7763 171.558 49.8397C172.661 49.8741 173.672 50.0811 174.58 50.8645C175.307 51.4894 176.315 51.6224 177.271 51.717C177.424 51.7322 177.483 51.5888 177.508 51.449Z" fill="#898989"/>
<path d="M136.818 30.5371C136.744 30.8892 136.46 30.9808 136.176 31.0898C130.892 33.1181 125.751 35.4707 120.706 38.0437C120.478 38.1597 120.275 38.325 119.972 38.5263C121.355 39.6578 122.783 40.5459 124.207 41.4353C128.687 44.2329 133.445 46.4831 138.206 48.732C141.129 50.1129 144.191 50.9875 147.344 51.6393C150.545 52.3011 153.763 52.4149 157.01 52.3789C162.699 52.3158 168.389 52.3348 174.078 52.2763C175.299 52.2638 176.518 52.2998 177.739 52.2944C178.141 52.7605 178.003 53.3714 178.341 54.0268C146.412 54.0268 114.665 54.0268 82.9146 54.0268C83.0775 50.0571 87.3986 44.1085 92.3534 40.842C94.0856 41.9582 95.6745 43.2767 97.3479 44.4757C100.478 46.719 103.6 48.9694 107.144 50.5386C110.827 52.1695 114.652 52.8363 118.654 52.518C119.214 52.4735 119.779 52.4804 120.342 52.4781C127.396 52.448 134.45 52.4211 141.503 52.3908C141.791 52.3895 142.087 52.4379 142.423 52.3002C142.269 51.8385 141.868 51.8335 141.557 51.7466C138.101 50.779 134.827 49.3491 131.638 47.7109C126.588 45.1156 121.766 42.1354 117.149 38.8115C114.641 37.006 112.007 35.4042 109.289 33.9459C108.995 33.788 108.678 33.6817 108.537 33.3395C109.092 32.9405 109.763 32.8706 110.392 32.7107C115.204 31.4868 120.09 30.7564 125.043 30.4254C128.347 30.2045 131.647 30.2507 134.949 30.3296C135.574 30.3446 136.195 30.4653 136.818 30.5371Z" fill="#DBDBDB"/>
<path d="M177.507 51.4491C177.483 51.5889 177.424 51.7324 177.27 51.7171C176.313 51.6225 175.306 51.4895 174.58 50.8647C173.671 50.0812 172.66 49.8743 171.557 49.8398C169.528 49.7764 167.526 50.0406 165.574 50.5701C160.786 51.8692 155.98 51.8344 151.138 50.9468C149.251 50.6008 147.387 50.1794 145.568 49.5623C144.875 49.3274 144.208 49.0427 143.61 48.6149C142.46 47.793 142.228 46.6991 142.941 45.4711C143.484 44.5364 144.218 43.7737 145.044 43.0933C148.714 40.0706 152.571 37.3248 156.716 35.0061C156.858 34.9262 157.013 34.8679 157.162 34.7996C162.944 36.8966 168.261 39.8009 172.681 44.1874C174.769 46.2597 176.5 48.6186 177.507 51.4491Z" fill="#DBDBDB"/>
<path d="M172.053 70.4353C172.053 66.1832 172.053 61.972 172.053 57.7838C172.312 57.5534 172.588 57.6415 172.841 57.6411C177.043 57.6358 181.245 57.6393 185.447 57.6385C186.043 57.6383 186.63 57.6843 187.213 57.8316C189.482 58.403 190.635 60.375 190.03 62.6655C189.909 63.1201 189.711 63.5412 189.488 63.9574C189.591 64.1602 189.673 64.3408 189.77 64.5126C190.815 66.3614 190.538 68.0661 188.955 69.428C188.175 70.0983 187.267 70.5076 186.243 70.511C181.611 70.5263 176.978 70.5147 172.347 70.5105C172.285 70.5104 172.223 70.48 172.053 70.4353ZM175.465 62.3165C179.265 62.3165 182.978 62.3165 186.7 62.3165C186.771 61.8274 186.806 61.4053 186.675 60.9455C182.94 60.9455 179.227 60.9455 175.494 60.9455C175.355 61.4086 175.392 61.8304 175.465 62.3165ZM175.478 67.0868C179.26 67.0868 182.979 67.0868 186.722 67.0868C186.762 66.5908 186.814 66.1703 186.683 65.7651C182.904 65.7651 179.181 65.7651 175.459 65.7651C175.396 66.2284 175.371 66.6228 175.478 67.0868Z" fill="#898989"/>
<path d="M111.788 70.4327C111.788 67.4847 111.739 64.6027 111.804 61.7234C111.854 59.5475 113.525 57.7612 115.752 57.713C120.282 57.6147 124.816 57.6914 129.349 57.6988C129.375 57.6988 129.4 57.7379 129.495 57.815C129.604 58.8122 129.527 59.8712 129.544 61.0451C124.718 61.0451 119.941 61.0451 115.134 61.0451C115.02 61.5747 115.032 61.99 115.097 62.3763C115.451 62.6216 115.791 62.5251 116.111 62.5258C119.255 62.5329 122.399 62.5288 125.542 62.53C126.653 62.5305 127.71 62.72 128.641 63.3988C130.693 64.896 130.814 67.8177 128.868 69.4554C128.085 70.1137 127.178 70.5243 126.148 70.5268C121.482 70.538 116.817 70.5312 112.151 70.5269C112.059 70.5268 111.966 70.4804 111.788 70.4327ZM127.138 65.6199C123.077 65.6199 119.096 65.6199 115.093 65.6199C115.08 66.1483 114.955 66.6084 115.169 67.0209C119.196 67.0209 123.176 67.0209 127.226 67.0209C127.187 66.5278 127.276 66.1024 127.138 65.6199Z" fill="#898989"/>
<path d="M161.347 70.4813C159.826 70.4813 158.305 70.476 156.783 70.4825C153.564 70.4963 152.243 68.204 152.346 65.9816C152.411 64.5778 152.387 63.1678 152.352 61.7617C152.314 60.2577 153.024 59.2194 154.225 58.4557C155.058 57.9256 155.986 57.6817 156.958 57.6761C160 57.6588 163.044 57.6416 166.086 57.6772C168.491 57.7055 170.235 59.5281 170.266 61.9759C170.284 63.349 170.194 64.7278 170.288 66.0947C170.454 68.5071 168.46 70.4898 166.011 70.4794C164.456 70.4727 162.902 70.4782 161.347 70.4782C161.347 70.4793 161.347 70.4803 161.347 70.4813ZM155.73 67.1886C159.471 67.1886 163.154 67.1886 166.857 67.1886C166.857 65.1257 166.857 63.1311 166.857 61.1017C163.121 61.1017 159.44 61.1017 155.73 61.1017C155.73 63.1582 155.73 65.1499 155.73 67.1886Z" fill="#898989"/>
<path d="M135.425 65.7296C135.425 67.3913 135.425 68.8918 135.425 70.4593C134.285 70.5844 133.206 70.4952 132.045 70.5258C132.045 66.2404 132.045 62.008 132.045 57.7627C132.263 57.5572 132.541 57.6423 132.793 57.6419C137.163 57.6357 141.532 57.6411 145.902 57.6321C146.709 57.6305 147.482 57.7677 148.214 58.1037C149.926 58.8893 150.848 60.5577 150.561 62.3267C150.273 64.1024 148.677 65.592 146.854 65.6924C145.6 65.7614 144.339 65.726 143.082 65.7283C140.897 65.7324 138.712 65.7296 136.527 65.7296C136.203 65.7296 135.878 65.7296 135.425 65.7296ZM135.494 62.4604C139.448 62.4604 143.301 62.4604 147.191 62.4604C147.217 61.9076 147.303 61.4229 147.134 60.9632C143.217 60.9632 139.362 60.9632 135.503 60.9632C135.404 61.4869 135.408 61.9447 135.494 62.4604Z" fill="#898989"/>
<path d="M75.9254 65.7294C75.9254 67.376 75.9254 68.8781 75.9254 70.4526C74.7928 70.4526 73.7171 70.4526 72.5698 70.4526C72.5698 66.2313 72.5698 61.9959 72.5698 57.7579C72.8056 57.5589 73.0817 57.6427 73.335 57.6423C77.6716 57.6365 82.0083 57.6427 86.3448 57.6347C87.2535 57.633 88.1201 57.7802 88.9319 58.2076C90.5952 59.0834 91.4113 60.7178 91.0432 62.4401C90.6602 64.2327 89.1415 65.6445 87.3586 65.6903C84.745 65.7575 82.1288 65.7225 79.5138 65.729C78.36 65.7319 77.2061 65.7294 75.9254 65.7294ZM75.9913 62.4488C79.9256 62.4488 83.8277 62.4488 87.7769 62.4488C87.7542 61.9106 87.8374 61.4515 87.7098 60.9763C83.7779 60.9763 79.8739 60.9763 75.9015 60.9763C75.9603 61.5116 75.8442 61.9725 75.9913 62.4488Z" fill="#898989"/>
<path d="M109.166 70.4836C107.986 70.4836 106.805 70.4836 105.535 70.4836C104.862 69.3981 104.162 68.2712 103.471 67.1576C101.203 67.1576 98.9889 67.1576 96.7057 67.1576C96.0888 68.2448 95.4656 69.3431 94.8224 70.477C93.5733 70.477 92.3225 70.477 91.0672 70.477C90.971 70.1687 91.2035 69.9791 91.325 69.7584C93.128 66.4808 94.9324 63.204 96.7472 59.9332C97.0877 59.3195 97.4809 58.7426 98.0572 58.3128C99.5877 57.1709 101.697 57.4557 102.818 58.9977C103.208 59.5354 103.546 60.1166 103.87 60.699C105.563 63.7321 107.244 66.7715 108.926 69.8102C109.035 70.0079 109.21 70.1844 109.166 70.4836ZM101.684 63.8171C101.144 62.8891 100.709 62.0271 100.065 61.142C99.5499 62.1319 98.9488 62.8816 98.5794 63.8171C99.6091 63.8171 100.577 63.8171 101.684 63.8171Z" fill="#898989"/>
<path d="M65.2826 64.1053C67.1207 66.2472 68.8761 68.2924 70.7247 70.4464C69.3733 70.4464 68.1485 70.4464 66.7755 70.4464C65.2075 68.6948 63.3952 66.9874 61.8277 65.0402C60.4448 66.9026 58.9099 68.6571 57.4183 70.481C56.0601 70.481 54.7126 70.481 53.202 70.481C55.0447 68.298 56.8161 66.1995 58.6294 64.0513C56.7622 61.9513 54.9308 59.8915 53 57.7198C54.4797 57.7198 55.8342 57.7198 57.2888 57.7198C58.7705 59.4841 60.3103 61.3173 61.8344 63.132C63.2662 61.2187 64.9506 59.5134 66.4507 57.6876C67.8441 57.6876 69.1812 57.6876 70.6579 57.6876C68.8274 59.8733 67.0812 61.958 65.2826 64.1053Z" fill="#898989"/>
<path d="M154.959 73.8987C155.341 73.7404 155.669 73.8264 156.085 73.797C156.967 75.1633 157.863 76.5499 158.758 77.9365C158.825 77.928 158.892 77.9195 158.959 77.911C158.959 76.5861 158.959 75.2613 158.959 74.0195C159.439 73.7136 159.799 73.8123 160.236 73.8424C160.236 76.0946 160.236 78.3464 160.236 80.6273C159.926 80.86 159.557 80.6862 159.166 80.7568C158.104 79.3969 157.327 77.8491 156.157 76.275C156.157 77.8864 156.157 79.2628 156.157 80.6421C155.714 80.775 155.369 80.7781 154.959 80.6545C154.959 78.4188 154.959 76.1926 154.959 73.8987Z" fill="#898989"/>
<path d="M148.75 80.7125C148.323 80.7125 147.996 80.7125 147.61 80.7125C146.697 79.3105 145.778 77.8998 144.858 76.4889C144.803 76.5066 144.748 76.5242 144.692 76.5419C144.692 77.8893 144.692 79.2367 144.692 80.46C144.465 80.7773 144.256 80.7413 144.063 80.7421C143.9 80.7429 143.737 80.7244 143.493 80.7094C143.493 78.4375 143.493 76.1826 143.493 73.9087C143.824 73.7047 144.186 73.8267 144.626 73.8321C145.524 75.2164 146.445 76.6365 147.366 78.0564C147.42 78.0478 147.473 78.0392 147.527 78.0306C147.527 76.665 147.527 75.2992 147.527 73.9913C147.975 73.72 148.326 73.7905 148.75 73.8742C148.75 76.129 148.75 78.3832 148.75 80.7125Z" fill="#898989"/>
<path d="M186.005 80.7133C186.005 78.3521 186.005 76.1216 186.005 73.8471C187.084 73.7363 188.106 73.7596 189.101 73.9969C190.732 74.3856 191.69 76.3861 191.214 78.2963C190.846 79.7703 190.014 80.4919 188.522 80.6574C187.704 80.7482 186.887 80.7632 186.005 80.7133ZM187.26 79.3943C188.262 79.3881 189.227 79.5792 189.717 78.5556C190.141 77.6707 190.169 76.7279 189.594 75.8917C189.032 75.0747 188.182 75.0514 187.26 75.1925C187.26 76.5887 187.26 77.943 187.26 79.3943Z" fill="#898989"/>
<path d="M101.306 80.6578C100.833 80.7713 100.509 80.7703 100.004 80.6516C99.9821 78.4413 99.9943 76.1939 99.9921 73.89C101.005 73.7075 101.926 73.7512 102.811 73.9972C104.06 74.3445 104.463 76.1654 103.541 77.1367C103.34 77.348 103.089 77.511 102.815 77.7342C103.305 78.6907 103.787 79.6326 104.306 80.6471C103.814 80.8024 103.405 80.7457 102.952 80.7017C102.454 79.7771 101.956 78.8515 101.458 77.926C101.407 77.939 101.356 77.9522 101.306 77.9652C101.306 78.8492 101.306 79.7333 101.306 80.6578ZM102.591 75.3387C102.232 75.0789 101.826 75.1121 101.369 75.1896C101.272 75.6209 101.29 76.0308 101.352 76.4642C101.856 76.5753 102.279 76.5402 102.641 76.229C102.763 75.953 102.782 75.7017 102.591 75.3387Z" fill="#898989"/>
<path d="M85.6441 80.7105C85.0842 80.7105 84.6925 80.7105 84.2595 80.7105C83.7768 79.8046 83.2983 78.9069 82.8199 78.0092C82.7602 78.0257 82.7005 78.0421 82.6409 78.0584C82.6409 78.9042 82.6409 79.7501 82.6409 80.5871C82.1896 80.8069 81.8139 80.7639 81.3638 80.6468C81.3638 78.4112 81.3638 76.1843 81.3638 73.9025C82.3281 73.6822 83.289 73.7409 84.1961 74.0235C85.4273 74.4073 85.7357 76.2575 84.788 77.2063C84.6012 77.3932 84.3123 77.4532 84.1517 77.7902C84.6102 78.6874 85.092 79.6301 85.6441 80.7105ZM82.6605 76.4981C83.2016 76.5411 83.6297 76.5585 83.9583 76.2042C84.0962 75.8965 84.1012 75.6131 83.861 75.3225C83.5022 75.0756 83.0992 75.1062 82.6605 75.1947C82.6605 75.6481 82.6605 76.0384 82.6605 76.4981Z" fill="#898989"/>
<path d="M174.565 77.6832C174.822 78.7624 175.634 79.5725 175.972 80.6679C175.552 80.7817 175.169 80.7478 174.74 80.7299C174.115 79.8842 173.764 78.8634 173.065 77.7755C173.065 78.8538 173.065 79.7221 173.065 80.5703C172.602 80.8142 172.226 80.7694 171.772 80.6402C171.772 78.4131 171.772 76.1878 171.772 73.8994C172.725 73.6867 173.685 73.7507 174.59 74.0283C175.792 74.3972 176.141 76.1764 175.25 77.119C175.048 77.3336 174.794 77.4975 174.565 77.6832ZM173.069 75.1857C173.037 75.6797 172.932 76.1016 173.145 76.5018C173.613 76.5569 174.031 76.5385 174.367 76.2071C174.493 75.8998 174.512 75.6154 174.287 75.3439C173.948 75.0723 173.556 75.1233 173.069 75.1857Z" fill="#898989"/>
<path d="M132.791 80.6274C132.273 80.7878 131.948 80.7392 131.602 80.6996C131.2 80.3736 131.248 79.7846 130.902 79.3757C130.03 79.2648 129.147 79.3259 128.281 79.3403C127.926 79.724 127.883 80.2205 127.619 80.6491C127.236 80.7962 126.829 80.7734 126.323 80.6418C127.189 78.3593 128.035 76.1261 128.865 73.9391C129.317 73.7193 129.71 73.8104 130.221 73.8432C131.06 76.0585 131.914 78.3139 132.791 80.6274ZM129.564 75.6852C129.233 76.5708 128.985 77.2326 128.714 77.9565C129.327 77.9982 129.829 78.0766 130.356 77.8982C130.206 77.1407 129.879 76.5254 129.564 75.6852Z" fill="#898989"/>
<path d="M122.436 76.9344C123.261 78.1547 124.076 79.3606 124.95 80.6553C124.431 80.7982 124.018 80.7352 123.567 80.7348C122.773 79.9068 122.267 78.8386 121.407 77.7863C121.407 78.8398 121.407 79.7355 121.407 80.6573C120.913 80.7655 120.54 80.793 120.105 80.6344C120.105 78.3959 120.105 76.1733 120.105 74.0014C120.298 73.7658 120.508 73.8032 120.7 73.8055C120.892 73.8078 121.097 73.7518 121.345 73.952C121.345 74.5465 121.345 75.2022 121.345 76.0134C122.204 75.3511 122.569 74.4521 123.272 73.8366C123.675 73.787 124.093 73.7657 124.614 73.8858C124.009 74.9917 123.134 75.8147 122.436 76.9344Z" fill="#898989"/>
<path d="M87.9359 80.6574C87.4996 80.7886 87.1506 80.7546 86.7393 80.6715C86.7393 78.4073 86.7393 76.179 86.7393 73.9005C87.6954 73.684 88.6174 73.7752 89.5031 74.004C90.2933 74.2083 90.6432 74.8745 90.7215 75.6706C90.8034 76.5028 90.3999 77.1818 89.67 77.5553C89.1768 77.8078 88.6399 77.7447 88.0802 77.8207C87.8718 78.7453 88.0923 79.6882 87.9359 80.6574ZM88.0273 75.1949C87.9996 75.6813 87.9078 76.098 88.1048 76.4965C88.5578 76.5618 88.969 76.5603 89.3107 76.2532C89.4768 75.9186 89.4847 75.6146 89.2272 75.3279C88.8815 75.0906 88.5009 75.1156 88.0273 75.1949Z" fill="#898989"/>
<path d="M137.808 79.4833C137.94 79.9439 137.921 80.2969 137.82 80.6926C136.81 80.7682 135.834 80.7768 134.792 80.6934C134.792 78.4259 134.792 76.1989 134.792 73.9344C135.129 73.6886 135.524 73.8572 136.02 73.786C136.02 75.6773 136.02 77.4964 136.02 79.3863C136.673 79.4217 137.218 79.4513 137.808 79.4833Z" fill="#898989"/>
<path d="M78.5391 73.9172C78.9241 73.7335 79.2785 73.7929 79.7157 73.8612C79.7157 76.1011 79.7157 78.3471 79.7157 80.6342C79.3598 80.8148 78.9839 80.7644 78.5391 80.6617C78.5391 78.4056 78.5391 76.1591 78.5391 73.9172Z" fill="#898989"/>
<path d="M151.251 73.9179C151.661 73.7304 152.015 73.8195 152.444 73.8308C152.444 76.1118 152.444 78.3591 152.444 80.659C152.057 80.7832 151.684 80.7688 151.251 80.6686C151.251 78.4148 151.251 76.1913 151.251 73.9179Z" fill="#898989"/>
<path d="M140.949 80.6568C140.554 80.7839 140.203 80.7749 139.783 80.6636C139.783 78.4225 139.783 76.1737 139.783 73.9325C140.15 73.6955 140.512 73.8542 140.949 73.8001C140.949 76.0921 140.949 78.3388 140.949 80.6568Z" fill="#898989"/>
<path d="M113.434 78.055C113.392 77.8287 113.601 77.6976 113.628 77.5047C113.534 77.257 113.072 77.4134 113.114 77.0257C113.282 76.6849 113.53 77.0168 113.726 76.9374C113.97 76.8057 113.737 76.4752 114.04 76.2968C114.309 76.5465 114.446 77.0812 114.962 76.9036C115.056 77.3157 114.744 77.3082 114.581 77.434C114.456 77.6828 114.904 77.8669 114.697 78.1132C114.367 78.258 114.302 77.8979 114.034 77.8547C113.844 77.8327 113.755 78.3539 113.434 78.055Z" fill="#898989"/>
</svg>
