<svg width="263" height="103" viewBox="0 0 263 103" fill="none" xmlns="http://www.w3.org/2000/svg">
<path d="M196.235 30.8567L132.092 13.1135C131.704 13.0059 131.296 13.0059 130.908 13.1135L66.7648 30.8567C65.7257 31.1442 65 32.1445 65 33.2895V68.7759C65 69.9209 65.7257 70.9207 66.7648 71.2082L130.908 88.9524C131.102 89.0059 131.301 89.033 131.5 89.033C131.699 89.033 131.898 89.0059 132.092 88.9524L196.235 71.2082C197.274 70.9207 198 69.9209 198 68.7759V33.2895C198 32.1445 197.274 31.1442 196.235 30.8567Z" fill="#DBDBDB"/>
<path d="M131.5 86.5192L67.3564 68.776V33.2892L131.5 15.546L195.644 33.2892V68.776L131.5 86.5192Z" fill="#898989"/>
<path d="M131.5 84.6711L131.471 84.6629L69.1313 67.4189V34.6468L69.2126 34.6243L131.5 17.394L131.529 17.4022L193.869 34.6473V67.4194L193.787 67.4418L131.5 84.6711ZM69.3517 67.2501L131.499 84.4417L193.647 67.2501V34.8155L131.5 17.6235L69.3517 34.8155V67.2501Z" fill="#F8F8F8"/>
<path d="M81.2716 56.4691H79.0493V45.2083H85.7168V47.6894H81.2716V56.4691Z" fill="white"/>
<path d="M91.1457 45.2083C92.7759 45.2083 95.2207 45.2082 95.2207 48.1666C95.2207 48.6438 95.2207 50.3717 93.7393 50.8489V50.9641C95.2207 51.4413 95.2207 53.034 95.2207 53.5111C95.2207 56.4696 92.7759 56.4696 91.1457 56.4696H86.9976V45.2083H91.1457ZM91.8866 49.5983C92.7017 49.5983 92.7017 49.5983 92.7017 48.6439C92.7017 47.6895 92.7017 47.6894 91.8866 47.6894H89.2199V49.5983H91.8866ZM89.2199 52.0791V53.9878H91.8866C92.7017 53.9878 92.7017 53.9878 92.7017 53.0339C92.7017 52.0796 92.7017 52.0796 91.8866 52.0796H89.2199V52.0791Z" fill="white"/>
<path d="M102.623 45.2083L105.834 55.5474V56.4696H103.685L102.944 54.0837H98.6475L97.9065 56.4696H95.7578V55.5469L98.9684 45.2078H102.623V45.2083ZM99.3138 51.6977H102.278C101.684 49.789 101.469 48.8677 101.198 47.8802H100.393C100.15 48.8856 99.9069 49.789 99.3138 51.6977Z" fill="white"/>
<path d="M106.74 45.2083H110.296C112.593 45.2083 114.963 45.2082 114.963 49.4707C114.963 53.7017 112.593 53.7018 110.296 53.7018H108.963V56.4691H106.74V45.2083ZM108.963 51.2205H111.185C112.593 51.2205 112.593 51.2204 112.593 49.4707C112.593 47.6889 112.593 47.6889 111.185 47.6889H108.963V51.2205Z" fill="white"/>
<path d="M124.66 53.9878H123.524V45.2083H116.708C116.708 48.0709 116.708 51.4433 115.227 53.9883H114.337V58.1408H116.264V56.4696H120.32H122.518H122.836V58.1408H124.762V53.9883H124.66V53.9878ZM117.597 53.9878C118.487 51.6977 118.487 48.8345 118.487 47.6889H121.302V53.9878H117.597Z" fill="white"/>
<path d="M128.177 53.9878H133.214V56.4691H125.954V45.2083H133.214V47.6894H128.177V49.5983H132.325V52.0796H128.177V53.9878Z" fill="white"/>
<path d="M137.15 52.4609C137.15 52.4609 138.124 50.1708 140.642 45.2082H143.309V56.4696H141.086V49.2159H140.875C140.875 49.2159 139.901 51.6019 137.383 56.4691H134.716V45.2082H136.938V52.4609H137.15ZM139.224 42.6683C139.953 42.6683 140.345 42.5358 140.666 41.9633L141.654 42.9334C140.764 44.4445 139.982 44.4445 139.044 44.4445H138.979C138.041 44.4445 137.258 44.4445 136.369 42.9176L137.358 41.9633C137.69 42.5363 138.083 42.6683 138.799 42.6683H139.224Z" fill="white"/>
<path d="M177.229 52.4609C177.229 52.4609 178.202 50.1708 180.721 45.2082H183.387V56.4696H181.165V49.2159H180.953C180.953 49.2159 179.98 51.6019 177.461 56.4691H174.794V45.2082H177.017V52.4609H177.229ZM179.303 42.6683C180.031 42.6683 180.424 42.5358 180.745 41.9633L181.732 42.9334C180.843 44.4445 180.06 44.4445 179.122 44.4445H179.058C178.119 44.4445 177.337 44.4445 176.448 42.9176L177.436 41.9633C177.769 42.5363 178.162 42.6683 178.878 42.6683H179.303Z" fill="white"/>
<path d="M160.195 50.8386L163.126 55.5147V56.4691H160.755C159.422 54.1785 158.449 52.0791 158.449 52.0791H156.903V56.4691H154.681V45.2083H156.903V49.5983H158.449C158.449 49.5983 159.422 47.4984 160.755 45.2083H163.126V46.1626L160.195 50.8386Z" fill="white"/>
<path d="M166.764 52.4608C166.764 52.4608 167.738 50.1708 170.256 45.2083H172.923V56.4696H170.701V49.2159H170.489C170.489 49.2159 169.515 51.6019 166.997 56.4691H164.33V45.2083H166.553V52.4608H166.764Z" fill="white"/>
<path d="M151.223 52.8046C150.946 54.1102 150.51 54.1153 149.253 54.1153C147.179 54.1153 147.179 54.1153 147.179 51.1252V50.8198V50.7622V50.5522C147.179 47.5621 147.179 47.5621 149.253 47.5621C150.71 47.5621 150.71 47.5621 151.105 49.5983L153.328 48.882C153.328 48.0709 153.328 44.8896 149.55 44.8896H148.957C144.809 44.8896 144.809 49.0253 144.809 50.361V50.7617V50.8193V51.3154C144.809 52.6516 144.809 56.7867 148.957 56.7867L149.812 56.7852C152.357 56.7852 153.503 54.4793 153.587 53.1247L151.223 52.8046Z" fill="white"/>
<path d="M168.537 81.3129C168.085 80.4406 167.619 79.7972 167.335 79.4383C167.467 79.188 167.719 78.7883 168.171 78.2943C168.915 77.4827 169.851 77.0111 169.86 77.007L170.838 76.5191L169.931 75.9094C169.849 75.8548 167.891 74.5527 165.011 73.7559L164.597 73.6412V68.2075L164.253 68.0306C154.942 63.2455 143.616 60.7168 131.499 60.7168C119.383 60.7168 108.057 63.246 98.7468 68.0306L98.4025 68.2075V73.6407L97.9881 73.7554C95.1076 74.5517 93.1503 75.8543 93.0681 75.9088L92.1611 76.5186L93.1392 77.0065C93.1488 77.0111 94.0838 77.4821 94.8278 78.2938C95.2802 78.7883 95.5326 79.189 95.6642 79.4378C95.3808 79.7967 94.9151 80.4401 94.4631 81.3124C93.6115 82.953 93.227 84.644 93.159 84.9663L92.8147 86.5895L94.1508 85.6122C95.815 84.3942 97.6504 83.4312 99.5853 82.7526L99.668 82.7236C101.049 82.2459 102.479 81.9114 103.934 81.7325L104.487 81.6647L104.508 76.8321C112.699 72.8749 122.022 70.7857 131.499 70.7857C140.976 70.7857 150.3 72.8754 158.491 76.8321L158.513 81.6647L159.066 81.7325C160.52 81.9119 161.951 82.2459 163.332 82.7236L163.416 82.7526C165.351 83.4317 167.184 84.3937 168.849 85.6122L170.185 86.5895L169.84 84.9663C169.772 84.6446 169.387 82.9535 168.537 81.3129Z" fill="white"/>
<path d="M166.598 79.5459C166.598 79.5459 166.787 78.8683 167.705 77.865C168.545 76.9473 169.58 76.4375 169.58 76.4375C169.58 76.4375 167.658 75.1467 164.843 74.3682C164.843 74.3682 164.141 78.149 163.965 78.7337V68.5965C154.55 63.7584 143.292 61.3525 131.5 61.3525C119.709 61.3525 108.451 63.7584 99.0356 68.5965V78.7342C98.8599 78.15 98.1571 74.3687 98.1571 74.3687C95.3426 75.1472 93.4204 76.438 93.4204 76.438C93.4204 76.438 94.4548 76.9484 95.2948 77.8655C96.213 78.8683 96.4019 79.5464 96.4019 79.5464C96.4019 79.5464 95.7001 80.3055 95.0247 81.6066C94.2009 83.1946 93.8292 84.8633 93.7789 85.0993C96.6777 82.978 100.12 81.5637 103.858 81.1024L103.879 76.4334C111.635 72.6205 121.179 70.1499 131.501 70.1499C141.822 70.1499 151.367 72.6205 159.123 76.4334L159.144 81.1024C162.882 81.5632 166.324 82.9775 169.222 85.0993C169.172 84.8633 168.8 83.1941 167.977 81.6066C167.3 80.305 166.598 79.5459 166.598 79.5459ZM99.0544 78.7791C99.0595 78.7755 99.0651 78.773 99.0702 78.7694C99.0676 78.7888 99.0625 78.7934 99.0544 78.7791ZM163.93 78.7694C163.935 78.7725 163.94 78.7755 163.945 78.7791C163.937 78.7934 163.932 78.7888 163.93 78.7694Z" fill="#999999"/>
<path d="M168.483 84.0496C165.799 82.3056 162.753 81.1615 159.584 80.7124L159.564 76.1556L159.317 76.0348C150.895 71.8941 141.276 69.7054 131.5 69.7054C121.724 69.7054 112.104 71.8941 103.683 76.0348L103.436 76.1556L103.416 80.7124C100.247 81.1615 97.2001 82.3056 94.5172 84.0496C94.7132 83.4149 95.0088 82.5997 95.4171 81.812C96.0529 80.5864 96.7202 79.8554 96.7268 79.8477L96.8949 79.6652L96.8284 79.4251C96.806 79.3456 96.5826 78.615 95.6197 77.5637C95.1708 77.0733 94.6741 76.694 94.2866 76.4355C94.988 76.0429 96.2393 75.4149 97.8111 74.9315C97.9837 75.8518 98.3453 77.7498 98.5348 78.5635L98.4545 78.6094L98.6704 79.0009L98.7978 79.2232L99.0619 79.2319H99.4397L99.4778 78.0221V68.8688C108.591 64.2422 119.657 61.7971 131.499 61.7971C143.341 61.7971 154.407 64.2422 163.52 68.8693L163.489 78.822L163.536 79.2145L163.937 79.2324H164.197L164.524 78.6486L164.455 78.5997C164.643 77.8064 165.012 75.866 165.188 74.9326C166.759 75.4159 168.01 76.044 168.712 76.4365C168.325 76.695 167.828 77.0743 167.379 77.5648C166.417 78.616 166.194 79.3471 166.172 79.4271L166.105 79.6662L166.273 79.8487C166.28 79.8564 166.947 80.5875 167.583 81.8131C167.991 82.5997 168.286 83.4149 168.483 84.0496Z" fill="#999999"/>
<path d="M107.33 71.5974L107.647 71.3725L106.671 68.8444L106.466 68.9244C106.636 69.3654 106.65 69.6641 106.765 72.0547L105.857 72.408C104.336 70.564 104.146 70.334 103.976 69.893L103.772 69.9731L104.782 72.5895L105.133 72.4528L105.213 72.6588L103.953 73.1487L103.874 72.9428L104.297 72.643L103.162 69.7024L102.693 69.8849L102.614 69.6789L104.46 68.9611C105.853 70.6511 106.043 70.8816 106.213 71.3226L106.389 71.2543C106.219 70.8138 106.205 70.5145 106.1 68.3233L107.886 67.6279L107.966 67.8339L107.543 68.1342L108.678 71.0743L109.146 70.8918L109.225 71.0977L107.41 71.8044L107.33 71.5974Z" fill="#F8F8F8"/>
<path d="M112.587 66.4971L112.139 66.7587L113.014 69.7901L113.497 69.6493L113.558 69.8614L111.565 70.4411L111.504 70.229L111.952 69.9675L111.698 69.088L110.883 69.3251C111.035 69.8507 110.869 70.2932 110.72 70.6868L109.573 71.0208L109.512 70.8087L110.049 69.3817L110.014 69.2604C109.237 69.2889 109.067 68.7031 109.006 68.491C108.691 67.4 109.778 67.0839 110.775 66.7939L112.526 66.2845L112.587 66.4971ZM111.13 67.1181L110.767 67.2236C109.891 67.478 109.909 67.5387 110.119 68.2667C110.329 68.9942 110.346 69.0549 111.222 68.8L111.585 68.6945L111.13 67.1181Z" fill="#F8F8F8"/>
<path d="M116.692 66.4859L116.413 65.9225C116.09 65.9134 115.765 65.9037 115.331 66C114.471 66.1892 114.527 66.4461 114.777 67.5866L114.817 67.7716C115.06 68.8815 115.118 69.1487 116.039 68.9457C116.407 68.8642 116.756 68.6908 117.104 68.517L117.35 68.463L117.446 68.905C116.711 69.2715 116.23 69.3776 115.923 69.4454C114.08 69.8517 113.808 68.6077 113.681 68.0225L113.64 67.8374C113.506 67.221 113.24 66.0082 115.113 65.5957C115.328 65.5483 115.871 65.429 116.691 65.4525L116.907 66.439L116.692 66.4859Z" fill="#F8F8F8"/>
<path d="M121.758 66.5884C121.825 67.0248 122.031 68.3763 120.229 68.6542L119.857 68.7118C118.055 68.9896 117.848 67.6381 117.781 67.2017L117.734 66.8897C117.667 66.4533 117.46 65.1023 119.262 64.8244L119.635 64.7668C121.437 64.4889 121.643 65.84 121.71 66.2769L121.758 66.5884ZM118.886 66.9356C119.091 68.2764 119.109 68.4013 119.979 68.2672C120.849 68.1331 120.83 68.0082 120.625 66.6674L120.606 66.5425C120.401 65.2017 120.382 65.0768 119.512 65.2114C118.643 65.3454 118.662 65.4703 118.867 66.8112L118.886 66.9356Z" fill="#F8F8F8"/>
<path d="M126.744 67.6146L126.764 67.8344L125.574 67.9394C124.98 67.2741 124.698 66.9401 124.647 66.3589L123.959 66.4201L124.084 67.8496L124.585 67.8053L124.604 68.025L122.538 68.2075L122.52 67.9878L123.009 67.8175L122.733 64.6755L122.233 64.7199L122.213 64.5002L124.279 64.3171L124.299 64.5369L123.809 64.7071L123.923 66.0112L124.611 65.9506C124.588 65.6834 124.837 65.2817 124.947 65.1028L125.196 64.701C125.389 64.3885 125.569 64.0984 126.023 64.0576C126.054 64.0551 126.179 64.0439 126.372 64.0852L126.447 64.9386L125.539 65.0186L125.083 65.7558L126.744 67.6146Z" fill="#F8F8F8"/>
<path d="M131.141 65.9934C131.154 66.4349 131.193 67.8017 129.371 67.8542L128.993 67.8654C127.171 67.9184 127.132 66.5516 127.119 66.1101L127.11 65.7951C127.097 65.353 127.058 63.9867 128.88 63.9342L129.258 63.923C131.079 63.87 131.119 65.2368 131.132 65.6783L131.141 65.9934ZM128.248 65.9827C128.287 67.3388 128.29 67.4652 129.17 67.4392C130.05 67.4137 130.046 67.2878 130.007 65.9317L130.003 65.8053C129.964 64.4491 129.961 64.3232 129.081 64.3487C128.201 64.3742 128.205 64.5001 128.244 65.8562L128.248 65.9827Z" fill="#F8F8F8"/>
<path d="M135.425 67.5932L135.806 67.5132L135.911 64.8009L135.691 64.7923C135.673 65.2654 135.568 65.5453 134.726 67.7869L133.752 67.7487C133.086 65.4484 133.002 65.1614 133.021 64.6883L132.801 64.6796L132.692 67.4867L133.069 67.5009L133.061 67.7217L131.71 67.6692L131.719 67.4484L132.226 67.3419L132.348 64.1876L131.846 64.1683L131.854 63.9475L133.833 64.025C134.444 66.1336 134.527 66.4211 134.509 66.8943L134.698 66.9019C134.716 66.4288 134.821 66.1484 135.593 64.0938L137.51 64.1688L137.501 64.3895L136.994 64.4961L136.871 67.6498L137.373 67.6697L137.365 67.8904L135.417 67.814L135.425 67.5932Z" fill="#F8F8F8"/>
<path d="M137.703 67.7165L138.216 67.6446L138.552 64.5062L138.051 64.4526L138.075 64.2329L141.576 64.6097L141.459 65.7078L141.24 65.6844L141.142 64.9757L139.469 64.7952L139.337 66.0351L139.961 66.1024C140.837 66.1972 141.806 66.3012 141.694 67.3525C141.587 68.3568 140.617 68.2523 139.742 68.1585L137.679 67.9362L137.703 67.7165ZM139.294 66.4435L139.161 67.6829L139.911 67.7634C140.505 67.8276 140.512 67.7644 140.572 67.2001C140.632 66.6454 140.638 66.5878 140.044 66.524L139.294 66.4435Z" fill="#F8F8F8"/>
<path d="M142.07 68.1846L142.586 68.1464L143.123 65.0395L142.627 64.9534L142.665 64.7362L144.707 65.0915L144.669 65.3087L144.153 65.347L143.772 67.5524L143.989 67.5907C144.059 67.1869 144.293 66.9391 145.852 65.2904L147.244 65.5325L147.207 65.7497L146.69 65.788L146.153 68.8943L146.649 68.9804L146.611 69.1976L144.568 68.8428L144.606 68.6256L145.123 68.5874L145.503 66.3819L145.287 66.3442C145.217 66.7479 144.983 66.9952 143.424 68.6439L142.032 68.4018L142.07 68.1846Z" fill="#F8F8F8"/>
<path d="M152.161 66.9702L151.643 66.9707L150.881 70.0296L151.369 70.1514L151.315 70.3656L149.304 69.8614L149.358 69.6472H149.876L150.192 68.3773L148.851 68.0413L148.505 69.4331L148.993 69.5555L148.94 69.7696L146.929 69.2654L146.982 69.0513L147.5 69.0508L148.261 65.9919L147.773 65.87L147.827 65.6559L149.838 66.1601L149.784 66.3742L149.266 66.3747L148.95 67.6442L150.291 67.9801L150.637 66.5883L150.149 66.466L150.202 66.2519L152.213 66.7561L152.161 66.9702Z" fill="#F8F8F8"/>
<path d="M151.476 70.1759L151.843 70.2035L153.949 67.6901L153.993 67.5555L153.516 67.3969L153.585 67.1874L155.425 67.7971L155.654 71.5611L155.952 71.66L155.883 71.8695L153.984 71.2399L154.053 71.0299L154.57 71.0681L154.53 70.4181L152.749 69.8277L152.332 70.3258L152.292 70.4456L152.769 70.6037L152.7 70.8137L151.407 70.385L151.476 70.1759ZM153.031 69.4897L154.504 69.9776C154.42 68.6215 154.402 68.31 154.507 67.9909L154.208 67.8919C154.102 68.2116 153.903 68.4497 153.031 69.4897Z" fill="#F8F8F8"/>
<path d="M159.836 70.6908L159.937 69.9832L159.079 69.6314L157.916 72.4935L158.382 72.6837L158.299 72.8886L156.379 72.1025L156.462 71.8981L156.975 71.972L158.09 69.2266L157.232 68.8754L156.811 69.4525L156.607 69.3689L157.022 68.3467L160.455 69.7522L160.04 70.7744L159.836 70.6908Z" fill="#F8F8F8"/>
<path d="M143.097 23.7974C140.383 25.1683 137.149 26.9063 134.005 27.6073C134.032 27.6532 132.543 22.1461 132.543 22.1461C132.502 22.1772 130.464 25.6256 128.089 28.9282C122.679 29.9203 118.157 29.5742 118.157 29.5742C120.338 31.0842 122.509 32.1865 124.674 33.0537C123.101 34.7442 116.66 37.8036 108.995 39.2291C132.058 38.1212 137.248 30.6147 143.097 23.7974ZM125.884 34.7559C126.671 34.0549 127.455 33.1867 128.234 32.1809C126.934 31.7419 125.634 31.3157 124.331 30.7855C128.923 30.5642 133.57 29.3345 138.033 27.1913C134.212 30.6121 129.971 33.7353 125.884 34.7559Z" fill="#DBDBDB"/>
<path d="M130.374 35.5503C132.297 36.4486 133.905 37.4509 135.939 39.3908C135.614 36.9961 135.295 34.8258 134.98 32.8483C133.643 33.8139 132.131 34.7234 130.374 35.5503Z" fill="#DBDBDB"/>
<path d="M124.753 77.889H125.89V75.0815H125.785L124.828 75.3216L124.753 75.0213L126.188 74.6614H126.458V77.8895H127.385V78.1302H124.753V77.889Z" fill="#F8F8F8"/>
<path d="M128.772 78.0292L130.467 76.7531L130.378 76.6333C130.238 76.7383 130.039 76.8882 129.391 76.8882H129.271C128.075 76.8882 128.075 76.1679 128.075 75.7773V75.6565C128.075 75.2665 128.075 74.5262 129.391 74.5262H129.63C130.946 74.5262 130.946 75.3267 130.946 75.8074C130.946 76.408 130.946 76.9785 130.024 77.6688L129.301 78.2092H128.772V78.0292ZM130.317 75.7172C130.317 74.8469 130.317 74.8469 129.51 74.8469C128.703 74.8469 128.703 74.8469 128.703 75.7172C128.703 76.5885 128.703 76.5885 129.45 76.5885C130.317 76.5885 130.317 76.4977 130.317 75.7172Z" fill="#F8F8F8"/>
<path d="M131.666 77.1891V76.9183L132.204 76.198C132.682 75.5525 132.682 75.1773 132.682 74.7272V74.667H133.34V74.7873C133.34 75.0274 133.34 75.1376 132.921 75.6978L132.144 76.7384V76.8883H133.609V75.5373L133.969 75.4526H134.177V76.8883H134.656V77.1891H134.177V78.2092H133.609V77.1891H131.666Z" fill="#F8F8F8"/>
<path d="M137.549 74.7067L135.854 75.9823L135.944 76.1026C136.084 75.9976 136.283 75.8477 136.931 75.8477H137.051C138.247 75.8477 138.247 76.568 138.247 76.9586V77.0784C138.247 77.4689 138.247 78.2097 136.931 78.2097H136.692C135.376 78.2097 135.376 77.4092 135.376 76.9285C135.376 76.3284 135.376 75.7279 136.259 75.0671L136.981 74.5267H137.549V74.7067ZM136.004 77.0187C136.004 77.889 136.004 77.889 136.811 77.889C137.619 77.889 137.619 77.889 137.619 77.0187C137.619 76.148 137.619 76.148 136.871 76.148C136.004 76.148 136.004 76.2382 136.004 77.0187Z" fill="#F8F8F8"/>
<path d="M121.224 76.358C121.479 76.358 121.479 76.512 121.479 76.6145V76.7175C121.479 76.8199 121.479 76.9739 121.224 76.9739H121.019C120.763 76.9739 120.763 76.8199 120.763 76.7175V76.6145C120.763 76.512 120.763 76.358 121.019 76.358H121.224Z" fill="#F8F8F8"/>
<path d="M122.286 76.358C122.541 76.358 122.541 76.512 122.541 76.6145V76.7175C122.541 76.8199 122.541 76.9739 122.286 76.9739H122.081C121.826 76.9739 121.826 76.8199 121.826 76.7175V76.6145C121.826 76.512 121.826 76.358 122.081 76.358H122.286Z" fill="#F8F8F8"/>
<path d="M123.347 76.358C123.603 76.358 123.603 76.512 123.603 76.6145V76.7175C123.603 76.8199 123.603 76.9739 123.347 76.9739H123.143C122.887 76.9739 122.887 76.8199 122.887 76.7175V76.6145C122.887 76.512 122.887 76.358 123.143 76.358H123.347Z" fill="#F8F8F8"/>
<path d="M139.858 76.358C140.113 76.358 140.113 76.512 140.113 76.6145V76.7175C140.113 76.8199 140.113 76.9739 139.858 76.9739H139.653C139.397 76.9739 139.397 76.8199 139.397 76.7175V76.6145C139.397 76.512 139.397 76.358 139.653 76.358H139.858Z" fill="#F8F8F8"/>
<path d="M140.92 76.358C141.175 76.358 141.175 76.512 141.175 76.6145V76.7175C141.175 76.8199 141.175 76.9739 140.92 76.9739H140.715C140.46 76.9739 140.46 76.8199 140.46 76.7175V76.6145C140.46 76.512 140.46 76.358 140.715 76.358H140.92Z" fill="#F8F8F8"/>
<path d="M141.981 76.358C142.237 76.358 142.237 76.512 142.237 76.6145V76.7175C142.237 76.8199 142.237 76.9739 141.981 76.9739H141.776C141.521 76.9739 141.521 76.8199 141.521 76.7175V76.6145C141.521 76.512 141.521 76.358 141.776 76.358H141.981Z" fill="#F8F8F8"/>
</svg>
