<svg width="263" height="103" viewBox="0 0 263 103" fill="none" xmlns="http://www.w3.org/2000/svg">
<path d="M85.3369 36.0995C85.5174 36.1621 85.6967 36.2287 85.8785 36.2869C87.0978 36.677 87.866 37.8301 87.8739 39.0395C87.8841 40.5886 87.8854 42.138 87.8736 43.6871C87.8639 44.9658 87.5188 46.1673 86.8859 47.2703C86.2669 48.3489 85.4429 49.2526 84.3641 49.9082C83.4556 50.4604 82.5062 50.8976 81.432 51.0033C81.0567 51.0402 80.6803 51.0854 80.3042 51.0866C77.9713 51.0943 75.6384 51.0905 73.3055 51.0905C73.1449 51.0905 72.9843 51.0905 72.7835 51.0905C72.773 50.949 72.7555 50.8241 72.7554 50.6991C72.754 46.8698 72.7435 43.0405 72.7608 39.2113C72.7661 38.0691 73.2538 37.1399 74.2436 36.527C74.5055 36.3649 74.8335 36.3095 75.1294 36.2001C75.1887 36.1781 75.2394 36.1336 75.294 36.0995C78.6417 36.0995 81.9892 36.0995 85.3369 36.0995Z" fill="#898989"/>
<path d="M56 59.8811C56.0636 59.5535 56.1259 59.2257 56.1911 58.8985C56.4558 57.5704 57.0443 56.4056 57.9343 55.3807C58.6065 54.6066 59.3992 53.993 60.3154 53.5468C61.3134 53.0609 62.3726 52.7897 63.4908 52.7887C65.854 52.7865 68.2171 52.788 70.5803 52.788C70.7414 52.788 70.9025 52.788 71.1076 52.788C71.118 52.9252 71.1358 53.0497 71.1359 53.1743C71.1374 57.0928 71.1531 61.0114 71.127 64.9297C71.1194 66.0485 70.4204 67.1561 69.1798 67.5883C69.0394 67.6373 68.9088 67.7147 68.7738 67.7789C65.3381 67.7789 61.9024 67.7789 58.4667 67.7789C58.4268 67.746 58.3917 67.6936 58.3466 67.6831C57.2437 67.4265 56.5291 66.757 56.1876 65.6848C56.1299 65.5039 56.0628 65.3258 56 65.1464C56 63.3913 56 61.6362 56 59.8811Z" fill="#898989"/>
<path d="M79.5216 67.779C79.3109 67.7171 79.1027 67.6439 78.889 67.595C76.2672 66.9956 74.4021 65.4984 73.3571 63.0077C73.07 62.3234 72.8614 61.6206 72.8476 60.8832C72.802 58.4624 72.7825 56.0413 72.7539 53.6203C72.7509 53.3599 72.7535 53.0997 72.7535 52.7879C72.9606 52.7879 73.1315 52.7879 73.3025 52.7879C77.1763 52.7879 81.0501 52.8 84.9239 52.7815C86.2894 52.775 87.4734 53.7208 87.7818 55.0398C87.8436 55.304 87.8711 55.5822 87.8716 55.8541C87.8778 58.8212 87.8696 61.7885 87.8786 64.7557C87.882 65.8606 87.228 67.2167 85.8314 67.6023C85.7174 67.6338 85.6182 67.7188 85.5121 67.779C83.5153 67.779 81.5184 67.779 79.5216 67.779Z" fill="#898989"/>
<path d="M64.1929 36.0995C64.4478 36.1625 64.7002 36.2389 64.9581 36.2862C66.3902 36.5491 67.6144 37.2006 68.6876 38.1775C69.945 39.3221 70.6575 40.7548 71.0207 42.3819C71.0924 42.7037 71.1311 43.0397 71.1323 43.3693C71.1413 45.8532 71.1372 48.3372 71.1363 50.821C71.1363 50.892 71.1267 50.9631 71.1177 51.0906C70.9365 51.0906 70.7663 51.0906 70.596 51.0906C66.6651 51.0906 62.7341 51.0877 58.803 51.0924C57.5265 51.0938 56.332 50.0421 56.1002 48.7692C56.0869 48.696 56.0343 48.6301 56 48.5607C56 45.2846 56 42.0083 56 38.7321C56.0343 38.6636 56.0847 38.5985 56.1003 38.526C56.3282 37.4721 56.926 36.7295 57.9433 36.336C58.1471 36.2572 58.351 36.1783 58.5548 36.0995C60.4341 36.0995 62.3135 36.0995 64.1929 36.0995Z" fill="#898989"/>
<path d="M204 62.0751C203.751 62.2651 203.481 62.3487 203.156 62.3394C202.364 62.3169 201.571 62.3385 200.778 62.3275C200.583 62.3249 200.388 62.2659 200.154 62.226C200.113 61.9239 200.048 61.6577 200.046 61.3915C200.039 57.9992 200.046 54.6068 200.038 51.2145C200.037 50.3062 199.703 49.489 199.151 48.7884C198.664 48.1692 197.958 47.8279 197.192 47.6895C195.682 47.417 194.218 47.5934 192.851 48.3151C192.208 48.6543 191.618 49.0863 191.155 49.6515C191.024 49.8113 190.964 50.0728 190.963 50.2879C190.952 53.8703 190.955 57.4527 190.955 61.0351C190.955 61.3566 190.955 61.6779 190.955 62.0476C190.865 62.1226 190.755 62.2145 190.612 62.3321C189.638 62.3321 188.626 62.3379 187.614 62.3264C187.45 62.3246 187.287 62.2456 187.115 62.1998C187.106 62.0282 187.092 61.8999 187.092 61.7715C187.092 56.0982 187.092 50.4247 187.09 44.7513C187.09 44.5284 187.072 44.3067 187.365 44.1799C188.193 44.1799 189.058 44.1825 189.924 44.1783C190.195 44.177 190.36 44.298 190.424 44.5567C190.515 44.9171 190.601 45.2788 190.693 45.6387C190.719 45.7409 190.763 45.8386 190.797 45.9366C191.387 45.5446 191.925 45.1631 192.486 44.82C193.218 44.3724 194.029 44.1137 194.876 44.0137C195.511 43.9388 196.158 43.8899 196.795 43.9267C198.865 44.0463 200.74 44.654 202.161 46.2602C202.989 47.1967 203.462 48.3153 203.723 49.5228C203.82 49.9707 203.844 50.4338 203.909 50.8889C203.92 50.964 203.969 51.0337 204 51.1059C204 54.7622 204 58.4186 204 62.0751Z" fill="#898989"/>
<path d="M181.535 55.0636C176.645 55.0636 171.835 55.0636 167.003 55.0636C167.268 56.2347 167.957 57.0886 168.858 57.7783C169.927 58.5958 171.158 58.9241 172.502 58.9311C173.569 58.9367 174.617 58.8622 175.644 58.5702C176.627 58.2908 177.503 57.8069 178.306 57.1842C178.432 57.0875 178.559 56.9949 178.737 56.862C178.917 57.0486 179.111 57.2126 179.259 57.4107C179.758 58.0783 180.24 58.758 180.782 59.5065C180.602 59.6907 180.434 59.9166 180.217 60.0794C178.698 61.2169 177.019 61.9987 175.139 62.339C174.15 62.518 173.154 62.6437 172.152 62.5874C170.005 62.4666 168.003 61.8677 166.299 60.5193C164.585 59.1629 163.551 57.3802 163.121 55.2343C162.927 54.2675 162.888 53.293 162.971 52.3301C163.134 50.4318 163.791 48.7126 165.036 47.2247C166.49 45.4876 168.352 44.5012 170.555 44.0892C171.605 43.8929 172.653 43.8762 173.718 43.9918C175.155 44.1474 176.472 44.6043 177.674 45.3799C179.676 46.6721 180.878 48.5286 181.441 50.8171C181.753 52.0858 181.716 53.378 181.698 54.668C181.697 54.7941 181.597 54.9188 181.535 55.0636ZM177.736 51.4366C177.612 50.5148 177.284 49.7668 176.648 49.1761C175.104 47.7425 173.276 47.2753 171.216 47.6726C169.64 47.9769 168.367 48.7506 167.504 50.1225C167.256 50.5164 167.043 50.938 166.987 51.4366C170.595 51.4366 174.164 51.4366 177.736 51.4366Z" fill="#898989"/>
<path d="M117.46 50.1436C117.718 48.7262 116.795 48.0504 115.769 47.7832C115.091 47.6068 114.369 47.5018 113.671 47.5182C111.79 47.5624 109.969 47.8976 108.365 48.9764C108.258 49.0482 108.128 49.0855 108.018 49.1533C107.713 49.3412 107.442 49.2614 107.25 49.0042C106.736 48.3142 106.246 47.6064 105.718 46.866C105.864 46.6751 105.96 46.4625 106.125 46.3482C107.204 45.5992 108.338 44.9406 109.596 44.5386C110.488 44.2538 111.399 44.0349 112.344 44.0025C113.102 43.9766 113.863 43.8815 114.616 43.9283C116.62 44.053 118.489 44.5675 119.947 46.0618C120.66 46.7928 121.096 47.6851 121.258 48.6781C121.384 49.4451 121.43 50.2314 121.44 51.01C121.465 52.9398 121.459 54.8701 121.444 56.8002C121.435 57.9806 121.64 59.1176 122.016 60.2324C122.152 60.6365 122.254 61.0519 122.383 61.4995C122.195 61.618 122.054 61.7474 121.888 61.8048C121.101 62.0768 120.308 62.3303 119.517 62.5864C119.464 62.6036 119.4 62.5886 119.28 62.5886C118.731 61.9165 118.642 60.9818 118.157 60.202C118.054 60.2458 117.949 60.2626 117.884 60.322C116.599 61.4882 115.101 62.2056 113.376 62.4184C112.642 62.5088 111.897 62.6211 111.166 62.5776C109.666 62.4887 108.222 62.1224 107.03 61.1492C105.988 60.2984 105.363 59.1918 105.154 57.8432C105.013 56.9367 105.087 56.0662 105.335 55.1936C105.638 54.1299 106.248 53.283 107.11 52.6007C108.304 51.6539 109.715 51.2211 111.18 50.95C111.945 50.8085 112.73 50.7715 113.503 50.6696C114.289 50.5663 115.071 50.4351 115.857 50.3282C116.385 50.2563 116.917 50.2053 117.46 50.1436ZM117.477 53.3944C117.345 53.422 117.236 53.4499 117.125 53.4669C116.328 53.5894 115.53 53.7024 114.734 53.8324C113.727 53.9968 112.716 54.1463 111.718 54.3574C111.148 54.4779 110.57 54.6448 110.053 54.9032C109.254 55.3014 108.9 56.0366 108.951 56.9046C109.009 57.8746 109.774 58.7214 110.75 58.8122C111.697 58.9002 112.676 58.9411 113.611 58.8031C115.197 58.5692 116.498 57.7501 117.477 56.4741C117.477 55.4526 117.477 54.4326 117.477 53.3944Z" fill="#898989"/>
<path d="M131.641 38.9142C131.682 39.1751 131.75 39.409 131.75 39.6432C131.757 43.4887 131.755 47.3343 131.755 51.1798C131.755 51.3396 131.755 51.4995 131.755 51.7243C131.881 51.6224 131.971 51.5613 132.047 51.4868C134.177 49.3963 136.292 47.2905 138.447 45.2257C138.83 44.8588 139.162 44.371 139.747 44.2487C139.844 44.2284 139.94 44.1828 140.037 44.1825C141.461 44.1791 142.884 44.1811 144.308 44.1835C144.35 44.1836 144.391 44.2021 144.467 44.2202C144.492 44.3162 144.519 44.4227 144.55 44.5431C143.957 45.0778 143.376 45.6015 142.795 46.1255C142.741 46.1744 142.689 46.2258 142.636 46.2763C141.877 47.0029 141.122 47.7339 140.357 48.4553C139.404 49.3553 138.446 50.2501 137.485 51.1414C137.134 51.4669 136.767 51.7762 136.388 52.1108C136.631 52.4054 136.842 52.6762 137.069 52.9321C137.801 53.7562 138.547 54.5685 139.273 55.3976C140.179 56.4313 141.067 57.4806 141.972 58.5158C142.487 59.1059 143.021 59.6797 143.544 60.2638C143.989 60.7605 144.435 61.256 144.865 61.765C144.948 61.8628 144.958 62.0213 145.022 62.2121C144.812 62.2595 144.651 62.326 144.491 62.3272C143.258 62.336 142.025 62.3434 140.792 62.326C140.331 62.3195 139.956 62.1208 139.654 61.7394C138.866 60.744 138.04 59.7777 137.242 58.7899C136.6 57.9946 135.981 57.1804 135.341 56.3827C134.917 55.8531 134.474 55.3381 134.041 54.8152C133.941 54.694 133.848 54.567 133.716 54.3977C133.061 54.8997 132.415 55.3954 131.755 55.9012C131.755 57.7689 131.755 59.6397 131.755 61.5108C131.755 62.1909 131.617 62.3315 130.947 62.332C130.14 62.3324 129.332 62.3404 128.525 62.3262C128.319 62.3226 128.115 62.2473 127.907 62.2044C127.907 54.4808 127.907 46.8208 127.907 39.0788C128.023 39.0326 128.171 38.9241 128.32 38.922C129.391 38.9073 130.461 38.9142 131.641 38.9142Z" fill="#898989"/>
<path d="M150.444 62.2039C150.444 57.3584 150.444 52.593 150.444 47.7838C149.747 47.6782 149.068 47.5752 148.317 47.4614C148.262 47.4068 148.16 47.3055 148.066 47.2111C148.066 46.3642 148.062 45.5455 148.068 44.727C148.071 44.3217 148.21 44.1854 148.62 44.181C149.206 44.1747 149.792 44.1794 150.444 44.1794C150.444 43.843 150.444 43.5281 150.444 43.2131C150.446 41.6502 151.007 40.3116 152.122 39.2222C152.979 38.3848 154.038 37.9077 155.211 37.6906C155.679 37.6041 156.163 37.4879 156.627 37.5275C157.528 37.6044 158.432 37.6697 159.317 37.9271C160.215 38.1883 161.033 38.5915 161.822 39.0674C161.968 39.1552 162.07 39.3158 162.203 39.4541C161.755 40.2711 161.33 41.0373 160.915 41.8083C160.778 42.0629 160.542 42.0445 160.365 41.9548C159.585 41.5601 158.757 41.2913 157.898 41.2283C156.987 41.1617 156.049 40.9923 155.189 41.5624C154.624 41.9369 154.427 42.4832 154.319 43.0789C154.258 43.4166 154.308 43.7742 154.308 44.1792C154.495 44.1792 154.651 44.1792 154.806 44.1792C156.245 44.1792 157.684 44.1745 159.123 44.1845C159.329 44.1859 159.535 44.2583 159.768 44.303C159.768 45.3819 159.774 46.4029 159.761 47.4238C159.76 47.5351 159.653 47.6451 159.592 47.7631C157.836 47.7631 156.105 47.7631 154.338 47.7631C154.338 52.5178 154.338 57.2491 154.338 61.9434C154.162 62.2344 153.944 62.3351 153.658 62.3336C152.777 62.3289 151.896 62.3384 151.015 62.3264C150.837 62.3241 150.659 62.2522 150.444 62.2039Z" fill="#898989"/>
</svg>
