<svg width="263" height="103" viewBox="0 0 263 103" fill="none" xmlns="http://www.w3.org/2000/svg">
<g clip-path="url(#clip0)">
<path d="M73.3608 63.2345C73.3608 53.8855 73.3608 44.5721 73.3608 35.2173C79.4258 35.2173 85.4741 35.2173 91.5639 35.2173C91.5639 36.7832 91.5639 38.3639 91.5639 40.0008C87.2836 40.0008 82.998 40.0008 78.6824 40.0008C78.6824 41.9402 78.6824 43.8237 78.6824 45.7586C80.2062 45.7586 81.7063 45.7704 83.206 45.7549C84.3543 45.743 85.4983 45.774 86.6273 46.0024C90.1425 46.7135 92.5668 49.2043 93.1602 52.6316C93.541 54.831 93.351 56.9473 92.3259 58.9437C91.1721 61.1913 89.2772 62.4422 86.9077 63.021C85.9619 63.252 84.9955 63.2949 84.0259 63.2942C80.6987 63.2916 77.3715 63.2942 74.0443 63.291C73.8308 63.2907 73.6121 63.3333 73.3608 63.2345ZM78.6751 58.4662C80.5123 58.4662 82.3078 58.4539 84.1031 58.4692C86.4024 58.4887 87.9405 56.985 88.0059 54.7436C88.0762 52.3363 86.6475 50.7766 84.6093 50.6493C82.9301 50.5443 81.2496 50.6273 79.57 50.606C79.2801 50.6023 78.9815 50.5446 78.6749 50.6627C78.6751 53.2392 78.6751 55.8107 78.6751 58.4662Z" fill="#898989"/>
<path d="M38.1349 63.2928C37.0462 63.2927 35.9574 63.3017 34.8688 63.2893C34.1881 63.2814 34.0083 63.0788 34.0073 62.3767C34.0053 60.8447 34.02 59.3126 34.0002 57.7808C33.9921 57.156 34.2295 56.7373 34.7423 56.3908C39.6956 53.0448 44.6383 49.6826 49.5839 46.3247C52.5483 44.3119 55.5121 42.2982 58.4768 40.2855C59.1852 39.8047 59.4467 39.8044 60.1338 40.273C61.1967 40.9978 62.2517 41.7354 63.327 42.4409C63.8208 42.7649 64.0711 43.1787 64.0631 43.7797C64.0457 45.0693 64.0447 46.3591 64.0416 47.6488C64.0407 48.1333 63.8312 48.4693 63.4325 48.7391C56.5203 53.4178 49.6122 58.1027 42.7081 62.7938C42.2144 63.1293 41.6968 63.3036 41.1043 63.2961C40.1146 63.2841 39.1246 63.293 38.1349 63.2928Z" fill="#898989"/>
<path d="M212.069 70.8524C212.069 61.4707 212.069 52.1388 212.069 42.7707C213.657 42.7707 215.231 42.7707 216.843 42.7707C216.949 43.3591 216.836 43.9792 216.91 44.6668C217.25 44.3759 217.547 44.1266 217.839 43.8711C219.271 42.6144 220.974 42.3566 222.773 42.5371C224.183 42.6787 225.504 43.1041 226.601 44.0723C227.784 45.1169 228.398 46.4817 228.645 48.0233C229.136 51.0867 229.065 54.1653 228.752 57.2361C228.603 58.6954 228.222 60.0996 227.265 61.2776C226.314 62.4481 225.06 63.0798 223.643 63.355C222.156 63.644 220.661 63.6484 219.224 63.0244C218.431 62.6806 217.797 62.1116 217.074 61.4724C217.074 64.6477 217.074 67.7317 217.074 70.8526C215.375 70.8524 213.744 70.8524 212.069 70.8524ZM223.995 52.9886C223.934 51.8768 223.967 50.7284 223.697 49.6064C223.38 48.2778 222.703 47.2966 221.275 47.0963C219.458 46.8416 217.877 47.416 217.345 49.5308C217.173 50.2194 217.121 50.9143 217.081 51.6131C216.99 53.2426 216.987 54.8714 217.365 56.4697C217.61 57.5036 218.103 58.3606 219.153 58.7663C219.665 58.9643 220.192 58.955 220.723 58.9617C222.294 58.9817 223.211 58.0678 223.596 56.7154C223.944 55.4996 223.922 54.2566 223.995 52.9886Z" fill="#898989"/>
<path d="M138.444 42.7593C138.444 48.1249 138.444 53.4431 138.444 58.7953C140.627 58.7953 142.778 58.7953 144.983 58.7953C144.983 53.4813 144.983 48.149 144.983 42.7756C146.69 42.7756 148.343 42.7756 150.049 42.7756C150.049 48.0841 150.049 53.4171 150.049 58.8076C150.979 58.8076 151.86 58.8076 152.767 58.8076C152.767 62.002 152.767 65.1391 152.767 68.3139C151.198 68.3139 149.626 68.3139 148.001 68.3139C148.001 66.6483 148.001 64.9863 148.001 63.295C143.122 63.295 138.296 63.295 133.441 63.295C133.441 56.4379 133.441 49.6111 133.441 42.7594C135.097 42.7593 136.733 42.7593 138.444 42.7593Z" fill="#898989"/>
<path d="M96.0533 45.1998C97.3908 43.5804 99.2182 42.7474 101.381 42.5742C103.726 42.3863 106.037 42.4623 108.22 43.4677C110.372 44.4588 111.47 46.2314 111.693 48.5898C111.907 50.8431 111.766 53.1036 111.787 55.3606C111.811 57.9791 111.792 60.5981 111.792 63.255C110.169 63.255 108.574 63.255 106.942 63.255C106.822 62.7291 106.954 62.1671 106.881 61.6253C106.809 61.6063 106.758 61.5956 106.708 61.6491C105.572 62.8674 104.138 63.3907 102.528 63.4814C101.095 63.5621 99.6916 63.4047 98.3694 62.7947C96.3019 61.841 95.3068 60.126 95.1028 57.8898C94.9769 56.509 95.1417 55.1674 95.8869 53.965C96.8289 52.4448 98.2606 51.6766 99.9388 51.331C101.365 51.0374 102.815 51.1403 104.256 51.1281C105.067 51.1214 105.878 51.127 106.783 51.127C106.758 50.1171 106.902 49.1228 106.4 48.1926C106.009 47.4677 105.358 47.1183 104.611 46.937C103.677 46.7103 102.721 46.7396 101.778 46.8334C100.981 46.9127 100.269 47.2611 99.6834 47.8418C99.4871 48.0364 99.2826 48.2224 99.0007 48.489C98.0113 47.3847 97.037 46.2976 96.0533 45.1998ZM106.753 54.5787C106.262 54.5787 105.829 54.567 105.397 54.581C104.193 54.6201 102.984 54.478 101.783 54.6777C100.616 54.8717 99.8925 55.6943 99.8453 56.8928C99.8004 58.0263 100.426 58.8921 101.54 59.184C102.531 59.4436 103.536 59.452 104.531 59.2184C105.837 58.9117 106.568 58.1261 106.717 56.7997C106.798 56.0854 106.821 55.3568 106.753 54.5787Z" fill="#898989"/>
<path d="M186.132 50.5174C186.132 47.9338 186.132 45.3774 186.132 42.7776C187.814 42.7776 189.468 42.7776 191.166 42.7776C191.166 49.5677 191.166 56.3897 191.166 63.2524C189.526 63.2524 187.873 63.2524 186.157 63.2524C186.157 60.5343 186.157 57.8051 186.157 55.0516C183.945 55.0516 181.793 55.0516 179.577 55.0516C179.577 57.7778 179.577 60.507 179.577 63.2583C177.879 63.2583 176.247 63.2583 174.588 63.2583C174.588 56.4158 174.588 49.6083 174.588 42.7675C176.231 42.7675 177.865 42.7675 179.551 42.7675C179.551 45.3403 179.551 47.9117 179.551 50.5174C181.769 50.5174 183.937 50.5174 186.132 50.5174Z" fill="#898989"/>
<path d="M171.68 54.5547C167.438 54.5547 163.248 54.5547 159.061 54.5547C158.875 57.1383 160.399 58.9414 162.603 59.1944C163.393 59.2851 164.18 59.2775 164.965 59.134C166.176 58.9125 167.155 58.275 168.025 57.3553C168.962 58.3945 169.892 59.4261 170.856 60.4953C169.711 61.7248 168.19 62.7471 166.307 63.1864C164.084 63.7053 161.873 63.6744 159.705 62.9748C157.392 62.2287 155.761 60.6568 154.942 58.3318C153.731 54.8934 153.656 51.3958 154.922 47.9654C156.075 44.8427 158.326 43.0014 161.631 42.5893C164.235 42.2645 166.614 42.8016 168.642 44.5601C170.117 45.8399 170.93 47.5291 171.363 49.4285C171.742 51.0927 171.673 52.7825 171.68 54.5547ZM159.03 51.1034C161.593 51.1034 164.158 51.1034 166.723 51.1034C166.704 48.3968 165.281 46.7203 162.93 46.6804C160.212 46.6344 158.913 48.8834 159.03 51.1034Z" fill="#898989"/>
<path d="M122.24 55.3961C123.579 51.1835 124.918 46.9708 126.26 42.7489C127.994 42.7489 129.714 42.7489 131.493 42.7489C131.069 43.913 130.655 45.0468 130.244 46.182C127.746 53.0753 125.258 59.9725 122.745 66.8599C122.191 68.3795 121.332 69.6722 119.794 70.3551C119.021 70.6981 118.201 70.8128 117.377 70.8663C116.631 70.9149 115.88 70.8766 115.1 70.8766C115.1 69.3719 115.1 67.8898 115.1 66.3082C115.559 66.3082 116.026 66.3061 116.493 66.3085C117.571 66.3142 118.273 65.7785 118.629 64.7582C118.963 63.8006 119.287 62.8392 119.616 61.8745C117.314 55.5063 115.017 49.1533 112.708 42.7652C114.456 42.7652 116.18 42.7652 117.943 42.7652C119.329 46.9718 120.717 51.1861 122.106 55.4002C122.15 55.3988 122.195 55.3975 122.24 55.3961Z" fill="#898989"/>
<path d="M56.9149 38.2705C56.5996 38.8074 34.6516 53.6536 34.1635 53.6734C33.9538 53.5346 34.0098 53.3174 34.0095 53.1229C34.0073 49.9991 34.0129 46.8751 34.0037 43.7513C34.0021 43.1644 34.2646 42.7846 34.7304 42.4701C38.1613 40.1529 41.5838 37.8229 45.0091 35.4973C46.14 34.7294 47.2778 33.9717 48.3995 33.1898C48.8296 32.89 49.2133 32.8755 49.6491 33.1729C51.9574 34.7476 54.2736 36.3105 56.5865 37.8781C56.7356 37.9792 56.8665 38.0974 56.9149 38.2705Z" fill="#898989"/>
<path d="M209.988 42.7524C209.988 44.2494 209.988 45.6925 209.988 47.1952C208.047 47.1952 206.136 47.1952 204.183 47.1952C204.183 52.5706 204.183 57.8864 204.183 63.2476C202.512 63.2476 200.884 63.2476 199.203 63.2476C199.203 57.927 199.203 52.6126 199.203 47.23C197.187 47.23 195.22 47.23 193.232 47.23C193.232 45.6979 193.232 44.2342 193.232 42.7523C198.821 42.7524 204.38 42.7524 209.988 42.7524Z" fill="#898989"/>
<path d="M46.5356 63.0694C52.2774 59.1752 58.0191 55.2812 63.751 51.3939C64.1676 51.6461 64.0538 52.0002 64.0547 52.2944C64.0634 55.5996 64.0603 58.9048 64.0597 62.2101C64.0597 62.3306 64.0485 62.4515 64.0488 62.5722C64.0492 63.0398 63.826 63.2786 63.3626 63.2804C63.1848 63.2809 63.0067 63.2929 62.829 63.2931C57.6635 63.2938 52.4979 63.2936 47.3323 63.2936C47.0981 63.2936 46.8638 63.2936 46.6295 63.2936C46.598 63.2186 46.5668 63.1441 46.5356 63.0694Z" fill="#898989"/>
</g>
<defs>
<clipPath id="clip0">
<rect width="195" height="40" fill="white" transform="translate(34 32)"/>
</clipPath>
</defs>
</svg>
