<svg width="263" height="103" viewBox="0 0 263 103" fill="none" xmlns="http://www.w3.org/2000/svg">
<path d="M140.992 38.8496H150.861V59.8583H146.603V41.452H145.259V59.8583H140.992V38.8496ZM157.609 59.8583H153.351V38.8496H160.043C163.032 38.8496 163.211 41.1303 163.211 42.635V48.9943C163.211 50.4707 163.032 52.7797 160.043 52.7797H157.609V59.8583ZM157.609 50.3949H158.164C158.615 50.3949 158.953 49.9974 158.953 49.3445V42.5025C158.953 41.8495 158.615 41.452 158.164 41.452H157.609V50.3949ZM132.054 59.8583H135.588C138.577 59.8583 138.756 57.5776 138.756 56.0729V51.8806C138.756 51.1331 138.756 48.9659 135.87 49.0416V48.824C136.255 48.8713 136.645 48.831 137.012 48.706C137.379 48.581 137.713 48.3746 137.99 48.102C138.267 47.8295 138.48 47.4977 138.612 47.1313C138.745 46.7648 138.794 46.3731 138.756 45.985V42.6065C138.756 41.1303 138.577 38.8212 135.588 38.8212H132.054C129.075 38.8212 128.897 41.1019 128.897 42.6065V45.578H133.154V42.1429C133.149 42.0523 133.162 41.9617 133.194 41.8767C133.225 41.7919 133.274 41.7144 133.337 41.6494C133.399 41.5844 133.475 41.5333 133.558 41.4993C133.642 41.4654 133.731 41.4492 133.821 41.452C133.911 41.452 134 41.47 134.083 41.5047C134.165 41.5396 134.24 41.5907 134.303 41.6549C134.366 41.7192 134.416 41.7954 134.449 41.8792C134.483 41.9629 134.499 42.0525 134.498 42.1429V46.3257C134.498 47.6127 134.066 47.8871 132.853 47.8871H131.03V50.1962H132.759C134.348 50.1962 134.47 50.9249 134.47 51.5778V56.4705C134.471 56.5607 134.455 56.6502 134.421 56.734C134.388 56.8179 134.338 56.8941 134.275 56.9583C134.212 57.0226 134.137 57.0737 134.054 57.1084C133.972 57.1433 133.883 57.1612 133.793 57.1612C133.703 57.164 133.614 57.148 133.53 57.1139C133.447 57.08 133.371 57.0288 133.308 56.9639C133.246 56.8989 133.197 56.8214 133.166 56.7364C133.134 56.6515 133.121 56.5609 133.126 56.4705V52.5147H128.897V56.1202C128.897 57.5871 129.075 59.8583 132.054 59.8583ZM116.415 59.8583L118.633 38.8496H125.335L127.553 59.8583H123.38L122.985 54.2749H120.974L120.579 59.8583H116.415ZM121.115 51.9658H122.816L122.101 41.452H121.857L121.115 51.9658ZM165.288 56.1109V42.6065C165.288 41.1303 165.476 38.8212 168.455 38.8212H171.989C174.968 38.8212 175.156 41.1019 175.156 42.6065V56.1202C175.156 57.5871 174.968 59.9056 171.989 59.9056H168.455C165.466 59.8583 165.278 57.5871 165.278 56.1202L165.288 56.1109ZM169.554 56.461C169.549 56.5514 169.563 56.6421 169.594 56.727C169.626 56.8119 169.674 56.8894 169.737 56.9544C169.8 57.0193 169.875 57.0705 169.959 57.1044C170.042 57.1385 170.132 57.1545 170.222 57.1517C170.311 57.1505 170.398 57.1317 170.48 57.0963C170.562 57.0609 170.636 57.0097 170.698 56.9455C170.76 56.8814 170.808 56.8056 170.841 56.7225C170.874 56.6393 170.89 56.5504 170.889 56.461V42.1429C170.89 42.0534 170.874 41.9645 170.841 41.8814C170.808 41.7982 170.76 41.7224 170.698 41.6583C170.636 41.5941 170.562 41.5429 170.48 41.5075C170.398 41.472 170.311 41.4532 170.222 41.452C170.132 41.4492 170.042 41.4654 169.959 41.4993C169.875 41.5333 169.8 41.5844 169.737 41.6494C169.674 41.7144 169.626 41.7919 169.594 41.8767C169.563 41.9617 169.549 42.0523 169.554 42.1429V56.461ZM112.665 41.452H116.528V38.8496H108.399V59.8583H112.665V41.452ZM114.197 76.6085C114.298 76.61 114.397 76.5907 114.49 76.5518C114.582 76.5129 114.666 76.4554 114.736 76.3825C114.805 76.3098 114.859 76.2235 114.894 76.1288C114.929 76.0342 114.945 75.9333 114.94 75.8326V71.4225C114.943 71.3249 114.925 71.2278 114.889 71.1372C114.852 71.0468 114.797 70.9651 114.727 70.8974C114.657 70.8297 114.574 70.7774 114.483 70.7439C114.391 70.7105 114.294 70.6967 114.197 70.7033C114.101 70.6967 114.004 70.7104 113.913 70.7439C113.823 70.7774 113.74 70.8298 113.671 70.8977C113.602 70.9657 113.548 71.0475 113.512 71.138C113.476 71.2284 113.46 71.3254 113.464 71.4225V75.8326C113.458 75.9329 113.472 76.0336 113.506 76.1282C113.54 76.2228 113.593 76.3092 113.662 76.3822C113.731 76.455 113.814 76.5127 113.906 76.5518C113.998 76.5907 114.097 76.61 114.197 76.6085ZM92.2237 43.5529C91.6633 38.91 92.0568 34.2008 93.3797 29.7174C94.4763 26.3122 96.0424 23.0788 98.0319 20.1121C100.328 23.4543 102.032 27.1715 103.07 31.0991C104.198 35.3597 104.438 39.8093 103.774 44.1679C103.03 49.3558 101.068 54.29 98.0507 58.5618C96.6627 56.6599 95.4989 54.6021 94.5828 52.4295C93.4413 49.5781 92.6492 46.5973 92.2237 43.5529ZM99.7425 49.8839C99.6788 47.5772 99.1039 45.314 98.0602 43.2595C96.9051 45.3762 96.3005 47.7526 96.3027 50.1678C96.318 52.5953 96.911 54.9837 98.0319 57.1329C99.2155 54.9062 99.8049 52.4086 99.7425 49.8839ZM93.9718 46.5338C93.9449 43.7422 94.2 40.9551 94.7331 38.2156C95.4282 35.1316 96.5314 32.1556 98.0131 29.3673C99.5108 32.159 100.627 35.1417 101.331 38.2344C101.893 40.9373 102.133 43.6981 102.045 46.4582C102.447 44.5566 102.661 42.6199 102.684 40.676C102.73 37.4253 102.316 34.1846 101.453 31.0517C100.629 28.281 99.4739 25.6213 98.0131 23.1309C96.5882 25.6732 95.4501 28.3681 94.6203 31.1653C93.9703 33.5516 93.5733 36.0005 93.436 38.471C93.3501 41.1698 93.5295 43.8706 93.9718 46.5338ZM188.417 38.8496L185.598 53.622L182.882 38.8496H177.336V59.8583H181.603V46.6853H181.782L183.944 59.8583H187.355L189.545 46.6758H189.696V59.8583H194V38.8496H188.417ZM108.399 66.3975H193.925V80.8954H108.399V66.3975ZM185.203 77.9996H189.216V79.7882H191.294V76.353H190.842V69.3217H188.718V76.372H187.327V69.3217H185.203V77.9996ZM167.214 70.9494H168.887V77.9996H170.833V70.9494H172.384V69.3217H167.214V70.9494ZM148.539 69.3217L150.523 76.1732C150.488 76.2741 150.419 76.3592 150.328 76.4131C150.236 76.4669 150.129 76.4859 150.024 76.4665C149.844 76.473 149.664 76.4539 149.489 76.4098V77.8388C149.821 78.0046 150.19 78.0828 150.56 78.0659C152.045 78.0659 152.553 77.659 153.032 75.9744L154.912 69.2744H152.722L151.895 73.0597C151.795 73.6552 151.726 74.2553 151.688 74.8578C151.632 73.9114 151.632 73.3815 151.575 73.0597L150.767 69.3217H148.539ZM130.175 77.9996H132.299V74.3089H133.69V77.9996H135.814V69.3217H133.69V72.6718H132.299V69.3217H130.175V77.9996ZM111.378 75.4635C111.378 77.1952 112.318 78.2078 114.197 78.2078C116.077 78.2078 117.017 77.1952 117.017 75.4635V71.5645C117.017 70.2112 116.162 69.1041 114.197 69.1041C112.233 69.1041 111.321 70.1829 111.321 71.555L111.378 75.4635ZM90.3158 59.8583V66.4827C91.45 65.3772 92.9666 64.7591 94.5451 64.7591C96.1237 64.7591 97.6403 65.3772 98.7744 66.4827C99.3303 67.026 99.7723 67.6763 100.074 68.3948C100.376 69.1132 100.531 69.8854 100.531 70.6655C100.531 71.4456 100.376 72.2178 100.074 72.9363C99.7723 73.6548 99.3303 74.3049 98.7744 74.8483C96.5095 77.0659 93.4749 78.3065 90.3158 78.3065C87.1567 78.3065 84.1221 77.0659 81.8572 74.8483C79.8851 72.9322 78.6539 70.3723 78.3836 67.6263C78.1133 64.8803 78.8215 62.127 80.3816 59.8583C80.8182 59.2268 81.3121 58.6375 81.8572 58.0981C84.115 55.8692 87.1538 54.6248 90.3158 54.6345V38.8306C84.7205 38.7752 79.3322 40.9589 75.3352 44.9019C71.3382 48.8448 69.0595 54.2243 69 59.8583C69.0595 65.493 71.3379 70.8737 75.3346 74.8181C79.3313 78.7626 84.7197 80.9484 90.3158 80.8954C93.2203 80.9094 96.0973 80.3295 98.7726 79.1908C101.448 78.0522 103.866 76.3784 105.88 74.271V59.8583H90.3158Z" fill="#898989"/>
</svg>
