<svg width="263" height="103" viewBox="0 0 263 103" fill="none" xmlns="http://www.w3.org/2000/svg">
<path d="M81.9493 50.0976C85.1719 50.0976 88.3945 50.0961 91.6171 50.0985C92.7386 50.0993 93.0334 50.431 93.0734 51.5667C93.2299 56.0027 90.8959 58.8973 87.3319 61.0062C83.3508 63.3619 78.9992 64.4066 74.4217 64.5287C71.1985 64.6146 67.9774 64.5621 64.8114 63.8057C61.6465 63.0496 58.6914 61.8453 56.0783 59.8353C50.1596 55.2825 51.1843 48.2538 55.9456 44.4659C58.9203 42.0993 62.3225 40.6802 66.0101 40.043C72.4806 38.9251 78.8806 39.1569 85.1081 41.501C87.0327 42.2255 88.8108 43.2071 90.3601 44.5741C90.5709 44.7602 90.7977 45.2205 90.7091 45.3894C90.5844 45.6275 90.174 45.8388 89.8828 45.8425C87.2846 45.8764 84.6851 45.8792 82.0867 45.8434C81.7062 45.8381 81.2793 45.6547 80.958 45.4305C75.9943 41.9647 68.4295 42.1916 63.9825 45.9607C60.8674 48.6011 60.1016 52.5351 62.0913 55.8301C63.2956 57.8248 65.0699 59.1625 67.2012 59.9714C71.6031 61.6421 75.8824 61.3702 79.9394 58.8825C81.4786 57.9387 82.6741 56.6366 83.4233 54.9549C83.7641 54.1901 83.6323 53.9784 82.785 53.9772C79.292 53.9725 75.7992 53.9755 72.3062 53.9747C71.1592 53.9745 70.8715 53.6851 70.867 52.5299C70.8654 52.1309 70.8609 51.732 70.8688 51.3331C70.8856 50.4816 71.235 50.1233 72.0945 50.101C72.7178 50.0849 73.3418 50.0974 73.9657 50.0972C76.6268 50.0975 79.288 50.0975 81.9493 50.0976Z" fill="#898989"/>
<path d="M149.464 64.6607C145.447 64.6139 141.543 64.0791 137.804 62.5525C135.728 61.7048 133.823 60.5837 132.148 59.064C127.464 54.8137 128.372 48.641 132.152 45.1427C134.761 42.7282 137.865 41.2372 141.259 40.4365C147.999 38.846 154.686 38.9589 161.225 41.5058C163.584 42.4245 165.683 43.7417 167.388 45.653C171.354 50.1004 170.809 56.1335 166.094 59.7693C162.88 62.2478 159.184 63.5729 155.23 64.1606C153.325 64.4439 151.387 64.5011 149.464 64.6607ZM137.963 51.9729C137.977 52.2665 137.987 52.5602 138.007 52.8531C138.015 52.978 138.043 53.1018 138.067 53.2251C138.558 55.811 140.096 57.6454 142.242 58.9889C145.112 60.7855 148.263 61.3106 151.579 60.8539C153.97 60.5246 156.149 59.6448 158.019 58.0705C161.937 54.7728 162.054 49.6629 158.297 46.1881C153.643 41.8833 145.076 41.958 140.513 46.3581C138.933 47.8817 137.987 49.7178 137.963 51.9729Z" fill="#898989"/>
<path d="M175.738 63.8365C174.054 63.8362 172.369 63.8575 170.686 63.8207C170.282 63.8119 169.883 63.6094 169.481 63.496C169.744 63.1731 169.95 62.769 170.276 62.5397C174.643 59.4735 179.027 56.4317 183.407 53.3838C184.56 52.5815 184.56 51.5159 183.399 50.7311C179.03 47.7794 174.659 44.8315 170.289 41.8818C170.134 41.777 169.922 41.7009 169.841 41.5529C169.672 41.2448 169.465 40.8873 169.493 40.5706C169.508 40.4123 170.006 40.1852 170.287 40.1827C173.301 40.1556 176.316 40.166 179.33 40.1685C180.481 40.1695 181.431 40.5585 182.29 41.3925C184.536 43.5755 186.854 45.6841 189.144 47.8219C189.98 48.6021 190.396 48.6093 191.218 47.8434C193.616 45.6085 196.022 43.3797 198.404 41.1274C198.998 40.5659 199.672 40.2367 200.465 40.2203C202.397 40.1804 204.331 40.1766 206.264 40.1656C207.511 40.1586 208.76 40.1364 210.005 40.1839C210.328 40.1963 210.795 40.3603 210.927 40.6034C211.154 41.0228 210.81 41.3901 210.452 41.6428C209.958 41.9914 209.453 42.3224 208.953 42.6605C204.98 45.342 201.009 48.0262 197.033 50.7012C196.539 51.0333 196.165 51.4248 196.145 52.0543C196.128 52.606 196.393 52.9797 196.847 53.2941C201.235 56.3296 205.614 59.3777 209.987 62.4352C210.372 62.7051 211.043 62.9249 210.839 63.4915C210.752 63.7309 210.009 63.8188 209.563 63.8223C206.216 63.8487 202.869 63.8282 199.522 63.8422C198.634 63.846 197.908 63.5333 197.287 62.9101C195.24 60.8509 193.19 58.7955 191.139 56.7391C190.422 56.0209 189.962 56.0245 189.239 56.7502C187.236 58.7634 185.223 60.7698 183.23 62.794C182.53 63.5034 181.734 63.8672 180.727 63.8461C179.065 63.8114 177.401 63.8367 175.738 63.8365Z" fill="#898989"/>
<path d="M112.865 63.8283C108.271 63.8283 103.676 63.8295 99.0811 63.8278C97.2765 63.8271 96.6996 63.2429 96.699 61.4116C96.6974 55.1341 96.6972 48.8567 96.6992 42.5794C96.6998 40.7736 97.2945 40.1679 99.1033 40.1669C108.376 40.1622 117.649 40.1636 126.921 40.166C128.084 40.1663 128.39 40.4876 128.392 41.6679C128.396 43.7989 128.335 43.8599 126.23 43.86C119.993 43.86 113.756 43.8598 107.518 43.8603C106.253 43.8604 106.021 44.0922 106.018 45.3542C106.016 46.425 106.018 47.4956 106.018 48.5663C106.017 49.9298 106.269 50.1901 107.605 50.1904C112.72 50.1914 117.834 50.1908 122.949 50.191C123.156 50.191 123.365 50.182 123.572 50.1988C124.191 50.2493 124.523 50.5783 124.548 51.2C124.57 51.745 124.57 52.2921 124.549 52.8372C124.525 53.4821 124.172 53.82 123.524 53.8559C123.359 53.865 123.192 53.8581 123.025 53.8581C117.932 53.8581 112.838 53.8569 107.744 53.8611C107.435 53.8613 107.119 53.8733 106.816 53.9333C106.332 54.0298 106.039 54.3512 106.035 54.8559C106.021 56.3041 106.011 57.7531 106.04 59.2011C106.053 59.8856 106.428 60.1553 107.233 60.1557C111.433 60.1579 115.632 60.1567 119.832 60.1567C122.244 60.1567 124.655 60.1542 127.067 60.158C128.02 60.1594 128.375 60.5215 128.391 61.4892C128.396 61.825 128.394 62.161 128.391 62.497C128.384 63.492 128.064 63.825 127.086 63.8267C124.612 63.8311 122.138 63.8283 119.664 63.8283C117.398 63.8284 115.132 63.8283 112.865 63.8283Z" fill="#898989"/>
</svg>
