<svg width="303" height="155" fill="none" xmlns="http://www.w3.org/2000/svg"><path d="M223.574 65.363h.892c.617 0 1.304-.069 1.304-.79 0-.651-.549-.823-1.03-.823h-1.132v1.613h-.034zm-.344-1.922h1.545c.926 0 1.338.378 1.338 1.132 0 .687-.481.996-1.064 1.099l1.235 1.887h-.377l-1.235-1.922h-1.064v1.922h-.343V63.44h-.035zm-1.887 2.059c0 1.784 1.373 3.191 3.157 3.191s3.123-1.441 3.123-3.191c0-1.784-1.339-3.191-3.123-3.191-1.819 0-3.157 1.407-3.157 3.191zm6.657 0c0 1.922-1.578 3.5-3.5 3.5a3.493 3.493 0 01-3.5-3.5c0-1.922 1.578-3.5 3.5-3.5s3.5 1.578 3.5 3.5zM118.115 86.448s-.174.14-.487.28c-.523.21-1.706.385-2.437.595-.557.14-1.218.315-1.914.596-1.845.77-2.785 2.066-3.272 4.413-.279 1.366-.105 2.522.487 3.258.453.56 1.114.84 1.915.84 3.271 0 4.316-3.152 4.803-5.569l.905-4.413zM118.219 71c4.49 0 7.24.806 8.632 2.487.731.91 1.114 2.172 1.149 3.713 0 .876-.104 1.822-.313 2.907L124.589 95.1c-.418 2.067-.696 3.678-.661 4.974 0 .421.034.806.104 1.156h-8.423v-.28c0-.63.035-1.26.104-1.961l.105-1.226h-.453l-.174.28c-1.531 2.452-4.942 3.958-7.901 3.958-2.437 0-4.177-.631-5.186-1.856-1.114-1.367-1.393-3.538-.801-6.41 1.149-5.605 3.69-7.952 10.025-9.388l4.211-.981c2.506-.56 3.69-1.646 4.142-3.818.244-1.191.105-2.102-.383-2.732-.452-.56-1.218-.876-2.227-.876-2.263 0-3.446 1.156-4.212 4.098h-7.518C107.22 72.226 114.182 71 118.219 71zm38.403 15.216c-.898 4.403-.829 6.094.034 7.186.415.528 1.071.81 1.969.81 2.488 0 3.697-1.514 4.94-7.714.899-4.438 1.002-7.22.139-8.312-.415-.529-1.037-.775-1.9-.775-2.557-.036-3.904 2.641-5.182 8.805zm-8.084 12.575c-1.762-2.219-2.107-5.706-.898-11.905C150.3 73.396 155.344 71 159.696 71c2.073 0 5.217.775 5.597 4.509l.069.563h.622s.725-3.487.863-4.297H175c-.311 1.444-6.045 29.623-6.045 29.623-1.451 7.08-5.908 10.602-14.06 10.602-7.566 0-8.706-4.544-8.879-5.953-.069-.528.104-2.113.104-2.113h7.911c0 .704.069 1.796.311 2.078.311.423.587.916 1.865.916 1.658 0 3.282-.493 4.042-4.333l1.347-6.657h-.656l-.173.317c-1.623 2.853-4.629 4.297-7.842 4.297-1.969.036-3.385-.563-4.387-1.76zM189 72c-.28 1.414-5.874 28.069-6.084 29H174c.28-1.414 5.909-28.069 6.084-29H189zm16-10c-.314 1.425-7.889 38.027-8.099 39H188c.314-1.425 7.924-38.027 8.099-39H205zm14 0c-.314 1.425-7.924 38.027-8.099 39H202c.314-1.425 7.924-38.027 8.099-39H219zm-68.894 9c-2.969 0-6.546 2.014-8.298 5.278l-.179.347h-.68s.787-3.75 1.038-4.826h-9.479c.072.347.107.729.107 1.145 0 .938-.143 2.014-.357 3.334-1.681 7.916-5.043 23.646-5.258 24.722h9.121c.572-2.743 3.433-16.111 3.433-16.111.859-4.028 3.291-5.903 7.655-5.903.751 0 1.395.035 2.074.139.215-.938 1.467-6.91 1.717-8.125h-.894zm-74.344 29.143c-2.25-2.747-2.32-7.819-.351-17.469C78.61 67.213 83.217 62 93.697 62c4.184 0 7.138.986 8.721 2.959 1.055 1.267 1.547 3.028 1.582 5.212 0 1.197-.141 2.5-.422 3.945 0 0-.281 1.303-.422 2.043h-8.827s.669-4.227.669-5.143c0-1.056-.035-1.62-.458-2.148-.422-.564-1.02-.986-2.004-.986-3.903 0-5.17 3.733-7.42 14.475-1.723 8.347-2.356 12.186-1.02 13.806.493.635 1.266.916 2.321.916 3.06 0 4.29-2.641 5.838-9.967h8.897c-.176.845-.458 2.254-.458 2.254-1.863 9.052-7.173 13.63-15.754 13.63-4.641.071-7.56-.845-9.178-2.853zm113.22-32.323c.697-15.908-18.708-27.856-36.823-24.137-18.116 3.719-26.86 19.316-29.159 24.103h2.961c3.972-6.577 7.978-11.707 14.841-13.601 4.354-1.205 7.769-.93 16.164 3.718 3.867 2.135 12.646 8.54 22.052 9.848 4.041.517 9.964.069 9.964.069z" fill="#2A2A28"/></svg>