<svg width="85" height="84" fill="none" xmlns="http://www.w3.org/2000/svg"><g clip-path="url(#clip0)" fill="#C1A477"><path d="M42.5 20.672a1.641 1.641 0 10.001 3.283 1.641 1.641 0 00-.001-3.283zM15.266 50.203a1.641 1.641 0 10-.002-3.282 1.641 1.641 0 00.002 3.282z"/><path d="M55.625 4.266c-14.77 0-26.893 10.183-27.83 23.01C13.728 27.982.5 38.125.5 51.844c0 5.733 2.269 11.288 6.398 15.69a9.978 9.978 0 01-2.636 9.4 1.641 1.641 0 001.16 2.8c4.679 0 9.188-1.834 12.538-5.068 3.264 1.113 7.523 1.787 11.415 1.787 14.768 0 26.89-10.18 27.83-23.005 3.435-.153 7.008-.787 9.835-1.75a18.097 18.097 0 0012.538 5.068 1.64 1.64 0 001.16-2.801 9.978 9.978 0 01-2.636-9.4c4.13-4.402 6.398-9.957 6.398-15.69 0-14.255-14.247-24.61-28.875-24.61zm-26.25 68.906c-3.872 0-8.285-.76-11.24-1.936a1.64 1.64 0 00-1.818.416 14.803 14.803 0 01-7.363 4.37 13.268 13.268 0 001-9.765c-.074-.26-.211-.5-.4-.694C5.83 61.73 3.78 56.858 3.78 51.844c0-11.56 11.72-21.327 25.594-21.327 13.1 0 24.61 9.11 24.61 21.328 0 11.76-11.04 21.328-24.61 21.328zm46.071-30.577a1.646 1.646 0 00-.4.693 13.268 13.268 0 001 9.765 14.8 14.8 0 01-7.363-4.37 1.642 1.642 0 00-1.818-.416c-2.561 1.019-6.216 1.725-9.665 1.895-.48-6.204-3.575-12.035-8.866-16.365h21.4a1.64 1.64 0 100-3.281h-26.44c-3.724-1.896-7.906-3.002-12.21-3.234.943-11.019 11.59-19.735 24.541-19.735 13.874 0 25.594 9.767 25.594 21.328 0 5.014-2.05 9.886-5.773 13.72z"/><path d="M42.5 46.922H21.828a1.64 1.64 0 100 3.281H42.5a1.64 1.64 0 100-3.281zm0 9.844H15.266a1.64 1.64 0 100 3.28H42.5a1.64 1.64 0 100-3.28zm27.234-36.094H49.063a1.64 1.64 0 100 3.281h20.671a1.64 1.64 0 100-3.281z"/></g><defs><clipPath id="clip0"><path fill="#fff" transform="translate(.5)" d="M0 0h84v84H0z"/></clipPath></defs></svg>