<svg width="303" height="155" fill="none" xmlns="http://www.w3.org/2000/svg"><path d="M67 92h11.696C86.974 92 91 85.314 91 76.325 91 66.038 85.722 61 78.696 61H67v31zm5.96-25.271h4.256c5.92 0 7.822 3.996 7.822 10.248 0 6.86-3.305 9.291-6.76 9.291h-5.317v-19.54zM92 92h5.914l2.082-6.906h9.934L111.937 92H118l-9.931-31h-5.989L92 92zm12.982-23.36h.075l3.346 11.377h-6.881l3.46-11.376zm33.078 3.699c-.376-3.133-2.933-5.515-5.864-5.515-5.302 0-7.294 5.294-7.294 10.81 0 5.25 1.992 10.543 7.294 10.543 3.608 0 5.639-2.912 6.089-7.059H144C143.397 88.97 138.773 94 132.196 94 123.887 94 119 86.72 119 77.633 119 68.278 123.887 61 132.196 61c5.9 0 10.864 4.06 11.578 11.339h-5.714zM145 61h5.728v11.898h10.544V61H167v31h-5.728V78.628h-10.544V92H145V61zm28.815 21.793c0 4.194 2.835 5.823 6.048 5.823 2.103 0 5.318-.7 5.318-3.924 0-3.398-4.094-3.97-8.111-5.206-4.058-1.235-8.153-3.046-8.153-8.957 0-6.441 5.282-9.529 10.218-9.529 5.703 0 10.945 2.867 10.945 10.148h-5.816c-.194-3.794-2.525-4.766-5.396-4.766-1.913 0-4.13.926-4.13 3.575 0 2.425 1.297 2.734 8.15 4.763 1.987.573 8.112 2.031 8.112 9.176C191 89.676 187.057 94 179.634 94c-6.047 0-11.712-3.441-11.633-11.207h5.814zM192 61h19.707v5.729H197.79v6.645h12.772v5.296H197.79v7.599H212V92h-20V61zm21 31h5.874V79.885h5.869c2.955 0 4.039 1.434 4.45 4.69.3 2.474.223 5.471.934 7.425H236c-1.048-1.738-1.012-5.384-1.122-7.338-.187-3.126-1.011-6.383-3.888-7.25v-.088c2.953-1.389 4.224-4.126 4.224-7.772 0-4.689-3.028-8.552-7.816-8.552H213v31zm5.874-25.703h6.43c2.617 0 4.04 1.3 4.04 4.299 0 3.126-1.423 4.428-4.04 4.428h-6.43v-8.727z" fill="#2A2A28"/></svg>