<svg width="303" height="155" fill="none" xmlns="http://www.w3.org/2000/svg"><path d="M129.329 80.072c-.035.369-.055.686-.096 1-.251 1.887-.669 3.74-1.439 5.47-.893 2.008-1.943 3.934-3.509 5.501a20.658 20.658 0 01-5.365 3.875c-1.501.755-3.1 1.124-4.696 1.532a17.487 17.487 0 01-4.364.54c-8.902-.01-17.803-.005-26.704-.005-.686 0-1.15-.473-1.15-1.174V74.159c0-.809.367-1.18 1.161-1.18 3.135 0 6.27.009 9.404-.005 1.507-.006 2.5.798 2.912 2.178a5.46 5.46 0 01.234 1.512c.02 3.628.01 7.256.01 10.884 0 .942.348 1.305 1.272 1.318.43.007.861.002 1.292.002 2.058 0 4.116-.026 6.173.008 1.744.028 3.421-.25 5.054-.877 2.734-1.05 4.64-2.978 5.669-5.752 1.195-3.219 1.14-6.481-.039-9.697-.598-1.631-1.606-2.975-2.969-4.061-1.732-1.38-3.705-2.049-5.844-2.283a25.431 25.431 0 00-2.718-.158c-6.724-.013-13.447-.006-20.171-.012-.257 0-.525-.046-.77-.127-.473-.155-.67-.468-.67-.978 0-1.58.022-3.162-.005-4.743-.033-1.897 1.618-3.184 3.128-3.183 8.698.008 17.396-.023 26.094.033 1.282.009 2.581.336 3.84.653 1.491.375 2.974.812 4.343 1.573 2.087 1.16 3.993 2.55 5.533 4.425.077.093.157.183.257.3.051-.083.102-.144.128-.215.745-2.002 2.127-3.468 3.805-4.658 1.464-1.04 3.101-1.675 4.864-1.945.541-.083 1.09-.155 1.636-.155 12.024-.01 24.047-.015 36.071.003 1.45.002 2.851.323 4.218.879 1.136.462 2.137 1.1 3.113 1.837 1.244.94 2.103 2.171 2.766 3.556 3.635 7.593 7.252 15.196 10.871 22.798.129.271.214.504.6.5.429-.003.616-.234.776-.572 3.91-8.26 7.821-16.519 11.733-24.778.553-1.167 1.106-2.334 1.657-3.503.227-.48.553-.739 1.117-.736 3.493.017 6.987.009 10.48.009.625 0 .942.35.967.993.018.468-.091.877-.293 1.296a36739.903 36739.903 0 00-17.397 36.044c-.69 1.431-1.845 2.222-3.302 2.622-.135.038-.285.02-.428.02-3.291.001-6.581-.024-9.871.016-1.064.013-1.949-.376-2.806-.932-.61-.395-.978-.993-1.292-1.634l-5.462-11.162c-2.384-4.869-4.765-9.74-7.157-14.604-.899-1.828-2.308-2.964-4.309-3.329a18.382 18.382 0 00-3.349-.305c-7.203.013-14.405.006-21.607.008-.735 0-1.467.07-2.124.431-.6.33-1.07.806-1.313 1.486-.405 1.133-.47 2.274.142 3.33.261.45.724.793 1.138 1.128.613.496 1.367.556 2.111.557 5.228.008 10.457.031 15.685-.01a14.859 14.859 0 015.362.942c2.068.766 3.718 2.08 5.017 3.826.801 1.075 1.272 2.368 1.634 3.69.502 1.836.476 3.695.416 5.572-.043 1.336-.357 2.603-.829 3.814-.342.875-.859 1.693-1.382 2.477-1.447 2.163-3.558 3.348-5.944 4.103-1.43.451-2.886.613-4.383.608-6.891-.024-13.783.002-20.674-.02-1.725-.005-2.897-1.064-2.998-2.802-.103-1.758-.071-3.526-.081-5.29-.002-.499.341-.865.832-.952a3.71 3.71 0 01.64-.062c6.065-.003 12.131-.016 18.197.007 1.486.006 2.989-1.27 3.104-2.863a5.5 5.5 0 00-.199-1.917c-.28-.995-1.023-1.52-1.907-1.83a4.796 4.796 0 00-1.546-.245c-5.563-.017-11.126-.015-16.69-.008-1.572.002-3.13-.134-4.625-.645-.878-.3-1.72-.712-2.576-1.078-.119-.05-.229-.123-.403-.219z" fill="#2A2A28"/></svg>