<svg width="85" height="84" fill="none" xmlns="http://www.w3.org/2000/svg"><path d="M31.98 53.753H68.8c.681 0 1.233-.552 1.233-1.233V23.59c0-.378-.174-.736-.47-.97L51.151 8.155a1.233 1.233 0 00-1.523 0L31.218 22.62a1.233 1.233 0 00-.471.969V52.52c0 .681.551 1.233 1.233 1.233zm13.068-2.465V32.712h10.685v18.576H45.048zm-11.836-27.1L50.39 10.691l17.178 13.497v27.1h-9.37V31.479c0-.68-.551-1.232-1.232-1.232h-13.15c-.682 0-1.234.552-1.234 1.232v19.809h-9.37v-27.1zm43.48 27.1a1.233 1.233 0 100 2.465h5.26a1.233 1.233 0 100-2.465h-1.397V10.356h1.397a1.233 1.233 0 100-2.466h-5.26a1.233 1.233 0 100 2.466h1.397v40.932h-1.397z" fill="#C1A477"/><path d="M83.267 63.123H68.801a1.233 1.233 0 100 2.466h13.233v15.945h-6.74v-4.027a1.233 1.233 0 10-2.465 0v4.027h-8.055v-5.342a1.233 1.233 0 10-2.466 0v5.342h-8.055v-4.027a1.233 1.233 0 10-2.465 0v4.027h-8.055v-5.342a1.233 1.233 0 10-2.466 0v5.342h-8.055v-4.027a1.233 1.233 0 10-2.465 0v4.027h-8.055v-5.342a1.233 1.233 0 10-2.466 0v5.342h-8.055v-4.027a1.233 1.233 0 10-2.466 0v4.027h-6.74V74.79c.028.002.055.004.083.004h3.945a1.233 1.233 0 100-2.465H3.048c-.028 0-.055.002-.082.004V64.27c.027.002.054.004.082.004h6.575a1.233 1.233 0 100-2.466H3.048c-.028 0-.055.002-.082.004V53.75c.027.002.054.004.082.004h3.945a1.233 1.233 0 100-2.465H3.048c-.028 0-.055.002-.082.004V43.23c.027.002.054.004.082.004h6.575a1.233 1.233 0 100-2.466H3.048c-.028 0-.055.002-.082.004v-8.063c.027.002.054.004.082.004h3.945a1.233 1.233 0 100-2.465H3.048c-.028 0-.055.002-.082.004v-8.063c.027.002.054.004.082.004h6.575a1.233 1.233 0 100-2.466H3.048c-.028 0-.055.002-.082.004v-8.063c.027.002.054.004.082.004h3.945a1.233 1.233 0 100-2.466H3.048c-.028 0-.055.003-.082.005V2.466H18.91v61.89c0 .681.552 1.233 1.233 1.233H62.79a1.233 1.233 0 100-2.466H21.377V1.233C21.377.552 20.825 0 20.144 0H1.733C1.052 0 .5.552.5 1.233v81.534C.5 83.448 1.052 84 1.733 84h81.534c.681 0 1.233-.552 1.233-1.233v-18.41c0-.682-.552-1.234-1.233-1.234z" fill="#C1A477"/></svg>