<svg width="303" height="155" fill="none" xmlns="http://www.w3.org/2000/svg"><path fill-rule="evenodd" clip-rule="evenodd" d="M160.84 88.918v5.695c-.677.147-1.324.17-1.932.17-3.13 0-5.547-1.526-5.547-4.963 0-1.993.689-3.3 1.806-4.098 1.205-.857 2.91-1.13 4.784-1.13h5.689v-3.863h-6.613c-2.245 0-4.59.141-6.631 1.17C149.7 83.26 148 85.775 148 89.787c0 6.61 4.932 9.085 10.439 9.21 2.402.052 5.113-.34 7.24-1.035v-9.045l-4.839.002zm17.194-4.187h-3.879v4.153h3.879c1.26 0 2.328-.71 2.349-2.047.024-1.358-1.089-2.106-2.349-2.106zm1.811 13.801l-3.174-5.98h-2.516v5.98h-4.85V80.73h9.462c4.194 0 6.574 2.615 6.574 5.924 0 3.096-2.176 4.684-3.933 5.272l4.02 6.607h-5.583zm47.26-7.849c0 5.498-3.91 8.228-9.033 8.228-5.125 0-9.053-2.73-9.053-8.228V80.73h5.224v9.253c0 2.668.78 4.447 3.829 4.447 3.015 0 3.793-1.794 3.793-4.42v-9.28h5.24v9.954zm-47.229-26.318c-.847-.498-1.98-1.06-3.395-1.69-.798-.353-1.35-.663-1.658-.913-.428-.344-.606-.977-.336-1.471.248-.463.836-.688 1.397-.688h6.532V56h-6.923c-3.235 0-6.479 1.202-6.479 5.025 0 1.721.887 2.906 2.069 3.785 1.895 1.41 3.586 1.683 5.252 2.805.635.428.81.991.57 1.63-.284.743-1.319.834-2.022.834h-5.76v3.744h7.175c3.259 0 6.298-1.524 6.298-5.275 0-1.993-1.076-3.213-2.72-4.183zm59.816 20.368h-3.707v4.228h3.707c1.311 0 2.152-.83 2.155-2.088.002-1.355-.89-2.14-2.155-2.14zm-8.845 13.806V80.73h9.71c4.297 0 6.443 2.8 6.443 6.032 0 3.202-2.282 6.005-6.582 6.005h-4.433v5.773h-5.138zM160.84 64.2v5.697c-.677.145-1.324.167-1.932.167-3.13 0-5.547-1.524-5.547-4.96 0-1.995.689-3.301 1.806-4.098 1.205-.862 2.91-1.13 4.784-1.13h5.689V56.01h-6.613c-2.245 0-4.59.144-6.631 1.172C149.7 58.54 148 61.055 148 65.07c0 6.609 4.932 9.084 10.439 9.21 2.402.053 5.113-.34 7.24-1.036V64.2l-4.839.001zm36.102 16.166c-6.149 0-9.68 3.441-9.68 9.257 0 5.817 3.779 9.272 9.68 9.272 5.906 0 9.642-3.45 9.642-9.272 0-5.821-3.488-9.257-9.642-9.257zm0 14.354c-3.06 0-4.454-1.986-4.454-5.097 0-3.111 1.463-5.084 4.454-5.084 2.997 0 4.416 1.966 4.416 5.084 0 3.116-1.353 5.097-4.416 5.097zM119.83 66.582L98 98h40V56c-9.252.053-13.745 4.215-18.17 10.582zM77.38 99c7.777 0 13.857-3.721 18.197-10.092L118 56H77.404C65.584 56 56 65.584 56 77.5 56 89.398 65.57 99 77.38 99z" fill="#2A2A28"/></svg>