<svg width="85" height="84" fill="none" xmlns="http://www.w3.org/2000/svg"><path d="M82.095 69.644L79.39 66.94a1.23 1.23 0 00-1.74 1.74l2.704 2.704c.02.02.081.081.046.19a.171.171 0 01-.148.126l-6.465 1.008a2.64 2.64 0 00-2.209 2.209l-1.007 6.462a.174.174 0 01-.126.15.17.17 0 01-.19-.046L58.476 69.7a30.341 30.341 0 0010-10.198l5.562 5.563c.24.24.555.36.87.36a1.23 1.23 0 00.87-2.1l-6.081-6.083a29.944 29.944 0 003.01-13.12V13.75c0-3.6-2.928-6.53-6.525-6.53-.653 0-1.3.098-1.923.291a15.447 15.447 0 01-4.558.683 15.38 15.38 0 01-12.025-5.759A6.505 6.505 0 0042.588 0c-1.986 0-3.84.888-5.086 2.435a15.38 15.38 0 01-12.026 5.758c-1.555 0-3.09-.229-4.557-.683a6.518 6.518 0 00-1.923-.29c-3.598 0-6.525 2.93-6.525 6.53v13.322a1.23 1.23 0 102.46 0V13.75a4.061 4.061 0 015.262-3.887c1.704.525 3.481.791 5.284.791a17.83 17.83 0 0013.94-6.675 4.05 4.05 0 013.171-1.518c1.238 0 2.393.553 3.171 1.518A17.83 17.83 0 0059.7 10.654c1.802 0 3.58-.266 5.283-.792a4.071 4.071 0 015.262 3.887v30.373a27.487 27.487 0 01-3.167 12.843c-4.705 8.936-14.02 14.815-24.49 14.815-4.811 0-9.34-1.236-13.285-3.405l-.035-.02c-8.756-4.832-14.336-14.045-14.336-24.233V31.995a1.23 1.23 0 10-2.461 0v12.129c0 4.7 1.082 9.152 3.01 13.12L9.344 63.38a1.23 1.23 0 001.74 1.74l5.618-5.618a30.354 30.354 0 0010 10.198L14.92 81.483a.17.17 0 01-.189.046.173.173 0 01-.126-.15l-1.008-6.463a2.642 2.642 0 00-2.209-2.209L4.925 71.7a.17.17 0 01-.149-.126c-.035-.109.026-.17.046-.19l2.786-2.786a1.23 1.23 0 10-1.74-1.74l-2.786 2.786a2.635 2.635 0 00-.645 2.693 2.635 2.635 0 002.108 1.795l6.464 1.006a.188.188 0 01.157.158l1.007 6.462c.155.99.842 1.8 1.795 2.11a2.634 2.634 0 002.693-.645l12.263-12.264a29.936 29.936 0 0013.664 3.282c4.916 0 9.561-1.185 13.664-3.282l12.264 12.263a2.636 2.636 0 002.694.646 2.635 2.635 0 001.794-2.11l1.007-6.462a.187.187 0 01.157-.158l6.464-1.007a2.636 2.636 0 002.109-1.794 2.636 2.636 0 00-.646-2.693z" fill="#C1A477"/><path d="M17.3 44.123c0 13.944 11.344 25.288 25.289 25.288 13.959 0 25.288-11.358 25.288-25.288V31.994a1.23 1.23 0 10-2.46 0v12.129c0 4.145-1.112 8.037-3.052 11.391l-8.934-8.935a1.23 1.23 0 00-1.74 1.74l9.298 9.299c-4.158 5.656-10.858 9.332-18.4 9.332C30 66.95 19.76 56.71 19.76 44.123V16.387l18.887 18.889c.24.24.555.36.87.36a1.231 1.231 0 00.87-2.1l-18.3-18.305c1.117.167 2.25.252 3.39.252A22.629 22.629 0 0042.59 7.712a22.627 22.627 0 0017.11 7.772 22.77 22.77 0 005.716-.726v12.314a1.23 1.23 0 102.461 0V13.751a1.7 1.7 0 00-2.196-1.625c-1.93.595-3.942.897-5.98.897a20.189 20.189 0 01-15.786-7.558 1.696 1.696 0 00-1.326-.635c-.518 0-1.002.23-1.328.635a20.187 20.187 0 01-15.784 7.558 20.28 20.28 0 01-5.982-.898 1.7 1.7 0 00-2.194 1.55v.033l-.001.014v30.401z" fill="#C1A477"/><path d="M50.01 28.515L39.264 40.193l-4.158-4.373a5.491 5.491 0 00-7.755-.196 5.492 5.492 0 00-.196 7.755l7.57 7.964a6.365 6.365 0 004.594 1.97h.051a6.358 6.358 0 004.61-2.046l14.102-15.325a5.492 5.492 0 00-.321-7.75 5.491 5.491 0 00-7.75.323zm6.084 1.488a3.028 3.028 0 01.178 4.273L42.17 49.601a3.881 3.881 0 01-2.81 1.251h-.041a3.894 3.894 0 01-2.809-1.205l-7.571-7.964a3.027 3.027 0 01.108-4.276 3.012 3.012 0 012.083-.83c.8 0 1.599.315 2.192.939l5.064 5.327c.232.244.555.383.892.383h.01c.34-.003.665-.147.895-.397L51.822 30.18a3.027 3.027 0 014.272-.178z" fill="#C1A477"/></svg>