<svg width="303" height="155" fill="none" xmlns="http://www.w3.org/2000/svg"><path d="M66 110.868c.296-.289.346-.701.492-1.062.471-1.173.92-2.355 1.391-3.568.234.035.405.056.45.339.076.471.376.803.751 1.045 1.738 1.119 3.627 1.492 5.643 1.112 1.199-.227 1.853-1.027 2.08-2.229.086-.46.122-.923.122-1.391a7204.81 7204.81 0 010-11.388c.001-.555-.018-1.072-.695-1.23-.255-.06-.178-.284-.156-.496h5.835c.092.224.177.456-.115.526-.616.15-.657.606-.656 1.125.005 3.754 0 7.507.002 11.26 0 .871-.058 1.735-.216 2.593-.206 1.114-.77 2-1.617 2.703-1.21 1.003-2.621 1.485-4.147 1.694-2.05.281-4.038-.081-6.018-.549-.828-.196-1.649-.427-2.495-.113-.242.09-.425-.129-.651-.116v-.255zm39.904-9.634c.48.298.89.568 1.28.872 2.514 1.96 2.31 6.265.052 8.12-1.377 1.131-2.974 1.579-4.672 1.703-1.612.119-3.23.054-4.844.05-2.82-.006-5.642.046-8.463-.031-.06-.002-.118-.018-.21-.032-.061-.234-.116-.439.205-.533.568-.166.64-.628.638-1.164-.01-3.221-.005-6.443-.005-9.664 0-2.256-.005-4.51.004-6.766.002-.572-.04-1.08-.695-1.246-.243-.061-.191-.28-.176-.443.13-.131.258-.096.375-.096 4.273.007 8.546.013 12.819.028a8.552 8.552 0 013.119.592c1.759.69 2.878 1.943 3.064 3.952.181 1.968-.587 3.459-2.203 4.469-.07.043-.137.09-.288.189zm-11.837 7.32c2.475.002 4.887.087 7.298-.014.773-.032 1.548-.132 2.276-.456.647-.289 1.065-.778 1.218-1.504.312-1.478-.249-2.535-1.616-3.006-.882-.304-1.801-.389-2.723-.394-2.025-.012-4.05-.007-6.075-.006-.118.001-.246-.04-.378.08v5.3zm-.009-9.009c2.709.016 5.362.103 8.017 0a3.45 3.45 0 001.132-.265c.839-.332 1.267-1.019 1.225-1.943-.044-.955-.438-1.49-1.33-1.776-.69-.222-1.402-.277-2.121-.276-2.167 0-4.334-.002-6.502 0-.135 0-.287-.051-.42.093v4.167zM149 92.001c3.19 0 5.737.63 7.994 2.215 5.404 3.794 5.502 12.17-.694 15.987-3.868 2.383-9.773 2.418-13.6-.025-3.543-2.263-5.134-5.479-4.599-9.516.56-4.216 3.265-6.787 7.353-8.124A11.405 11.405 0 01149 92zm.42 16.357c.282 0 .565.016.845-.002 3.575-.234 6.21-2.471 6.468-5.895.282-3.751-1.987-6.285-5.289-6.936a9.79 9.79 0 00-3.494-.08c-2.65.434-4.619 1.76-5.377 4.292-.778 2.602-.405 5.046 1.799 6.976 1.418 1.242 3.175 1.639 5.048 1.645zM200.451 92c2.727-.007 5.252.612 7.489 2.165 5.639 3.914 5.61 12.821-1.389 16.331-3.968 1.99-8.134 2.026-12.094-.016-6.716-3.464-6.353-10.661-3.599-14.16 1.863-2.366 4.342-3.73 7.392-4.174a14.53 14.53 0 012.201-.146zm.026 16.272c.281 0 .564.018.843-.002 3.578-.256 6.091-2.483 6.394-5.721.355-3.78-1.898-6.424-5.37-7.067-1.115-.206-2.24-.243-3.357-.062-2.671.433-4.649 1.763-5.396 4.315-.76 2.594-.378 5.025 1.84 6.93 1.425 1.225 3.178 1.612 5.046 1.607zm-68.14-3.51l2.663 4.043c-.07.216-.254.215-.354.366-.427-.468-.837-.278-1.258-.027-1.502.897-3.068 1.664-4.753 2.181-1.839.564-3.719.795-5.64.615-3.687-.347-6.658-1.938-8.591-5.054-3.145-5.07-.797-11.606 4.952-13.883 3.458-1.37 6.983-1.234 10.507-.21.81.235 1.617.482 2.418.745.49.16.978.28 1.49.151.29-.072.488.042.69.255l-2.688 4.268c-.24-.09-.454-.124-.457-.396-.004-.399-.274-.64-.567-.847-.585-.41-1.23-.69-1.916-.922-.795-.269-1.589-.514-2.422-.62-1.525-.195-3.039-.185-4.521.293-2.938.948-4.678 3.342-4.6 6.333.077 2.942 1.943 5.255 4.902 6.05 2.537.681 4.984.334 7.363-.667.698-.293 1.378-.624 1.993-1.069.388-.281.638-.619.462-1.109-.098-.274.055-.368.327-.496zm50.976.017l2.687 4.074c-.216.179-.369.385-.65.13-.202-.183-.425-.138-.645-.016-.405.225-.813.443-1.217.668-2.972 1.655-6.12 2.634-9.585 2.3-7.901-.763-12.042-7.943-8.785-14.411 1.452-2.884 4.063-4.465 7.231-5.16 2.854-.625 5.679-.417 8.465.41a84.55 84.55 0 012.359.73c.529.173 1.055.311 1.613.167.27-.07.443.064.639.26l-2.677 4.26c-.286-.066-.466-.144-.474-.437-.01-.34-.247-.566-.504-.753-.597-.432-1.26-.725-1.968-.963-.795-.268-1.588-.514-2.422-.62-1.745-.223-3.467-.183-5.117.509-2.649 1.111-4.116 3.367-4.019 6.173.096 2.774 1.752 4.965 4.473 5.867 2.547.844 5.043.541 7.49-.404.805-.31 1.584-.683 2.288-1.187.387-.278.648-.608.484-1.104-.097-.293.039-.413.334-.493zM222.14 92h6.36c.055.244.109.418-.185.581-.76.42-.823.652-.429 1.498.787 1.692 1.592 3.375 2.391 5.062l4.817 10.178c.238.504.48 1.007.817 1.453.209.278.463.515.789.621.334.108.338.311.255.607h-6.83c-.139-.297-.074-.453.216-.605.704-.369.793-.639.465-1.399-.441-1.023-.912-2.031-1.38-3.067h-8.875c-.455 1.079-.942 2.175-1.379 3.291-.228.58-.101.848.476 1.132.269.133.422.267.293.628h-5.912c-.028-.23-.106-.419.209-.558.675-.297 1.061-.894 1.361-1.548 2.413-5.258 4.823-10.516 7.232-15.776.393-.858.327-1.096-.508-1.528-.319-.165-.323-.325-.183-.57zm6.087 12.124l-3.11-7.008a23683.99 23683.99 0 01-3.25 7.008h6.36zM186 52.632c-1.652 9.337-6.223 16.342-14.832 20.18-7.546 3.365-16.22 2.61-21.163-.638-.037-.245.124-.43.215-.634 1.578-3.493 3.717-6.61 6.145-9.526 4.094-4.916 8.798-9.106 14.245-12.392 3.231-1.949 6.634-3.47 10.335-4.218a20.235 20.235 0 014.202-.403c.264.002.528.032.849.052a54.449 54.449 0 01-1.498 4.413c-1.499 3.908-3.371 7.604-5.939 10.902-3.459 4.444-7.846 7.495-13.138 9.192-.138.044-.276.09-.411.144-.031.012-.051.057-.107.124 2.483-.066 4.831-.577 7.064-1.622 3.1-1.451 5.588-3.696 7.79-6.308 2.298-2.725 4.186-5.74 5.919-8.863.07-.126.1-.282.324-.403zm-29.692 18.029c7.96-1.783 13.868-6.685 18.827-13.02-.101-.02-.163.02-.217.071-2.707 2.542-5.75 4.573-9.022 6.262-1.515.782-3.038 1.55-4.502 2.433-1.901 1.147-3.623 2.522-5.086 4.254zm27.804-4.273c3.21-3.778 7.185-6.377 12.197-7.124 6.439-.96 12.131.678 16.872 5.153.728.687 1.319 1.486 1.819 2.348-.085.24-.316.325-.498.452-2.967 2.063-6.253 3.485-9.696 4.584-4.62 1.474-9.345 2.315-14.221 2.186-2.852-.075-5.632-.511-8.25-1.697a12.196 12.196 0 01-1.335-.706c.021-.056.027-.125.065-.16 2.687-2.434 5.551-4.632 8.839-6.255 3.275-1.617 6.727-2.501 10.415-2.408a21.52 21.52 0 013.313.338c.14.026.285.029.436.008-.891-.51-1.857-.826-2.849-1.065-2.928-.706-5.788-.335-8.61.552-2.729.857-5.257 2.134-7.718 3.551-.215.125-.439.236-.659.353l-.12-.11zm8.652.9c.167.02.25.047.326.035.206-.033.409-.08.613-.126 2.716-.605 5.471-.764 8.247-.678 1.804.055 3.607.08 5.398-.193.979-.15 1.941-.364 2.863-.746-6.019-1.665-11.744-.514-17.447 1.708z" fill="#2A2A28"/><path d="M180 43.191c-.145.203-.325.189-.483.232-5.396 1.478-10.532 3.573-15.19 6.803-5.594 3.879-9.824 9-12.966 15.114-.107.209-.212.418-.334.66-.335-1.99 2.532-9.425 4.942-12.835 2.731-3.864 6.265-6.658 10.596-8.369 4.328-1.71 8.81-2.081 13.435-1.605zm4 32.05c9.578 2.298 18.627 1.345 27-4.241-.803 2.162-6.771 6.28-10.615 7.32-5.954 1.613-11.364.263-16.385-3.079zM156 71c1.477-1.728 3.215-3.1 5.133-4.246 1.477-.881 3.014-1.647 4.543-2.428 3.302-1.686 6.374-3.713 9.105-6.25.054-.05.117-.09.219-.07-5.004 6.322-10.966 11.215-19 12.994zm37-4.03c5.557-1.751 11.135-2.659 17-1.346-.899.3-1.836.47-2.79.588-1.745.214-3.502.195-5.259.151-2.705-.067-5.389.058-8.036.535-.198.036-.397.074-.597.1-.074.01-.154-.012-.318-.028z" fill="#2A2A28"/></svg>