<svg width="303" height="155" fill="none" xmlns="http://www.w3.org/2000/svg"><path d="M24.481 85.123l17.683 3.45 1.373-2.41-15.717-6.899-3.339 5.859zm8.193-14.374l13.752 10.35 1.375-2.408-11.789-13.8-3.337 5.857zm-4.11 7.213l15.718 6.899 1.4-2.46-13.753-10.352-3.364 5.912v.001zM40.508 57l-3.71 6.523 11.787 13.801 1.746-3.06L40.506 57h.001zM20 93h19.646l1.746-3.06-17.681-3.452L20 93zm31.177-8.06L55.774 93H61l-9.823-17.253L41.354 93h5.226l4.597-8.06zm41.971 7.99h7.549l1.736-3.05h-9.285v3.05zm0-8.471v3.051h10.658l1.774-3.051H93.148zm160.039 3.618v-9.013h-3.341v13.867h2.797l8.043-9.077v9.077h3.34V79.064h-2.953l-7.886 9.013zm-140.392-9.013l-8.005 13.867h3.937l5.27-9.154 5.31 9.154h4.144l-8.003-13.867h-2.655.002zM88.746 89.88L80.743 76H78.01l-8.003 13.88H68V97h3.186v-4.07h16.381V97h3.187v-7.12h-2.008zm-14.75 0l5.27-9.167 5.31 9.166h-10.58zm123.97-10.816h-15.553v3.051h13.766l1.787-3.05zm-89.278 0h-15.54v3.051h13.765l1.775-3.05zm170.359 0l-7.886 9.013v-9.013h-3.342v13.867h2.811l8.028-9.077v9.077H282V79.064h-2.953zm-36.338 5.395h-7.317v-5.395h-3.34v13.867h3.34v-5.42h7.317v5.42h3.341V79.064h-3.341v5.395zm-40.649-5.395l-8.004 13.867h3.95l5.271-9.154 5.309 9.154h4.132l-8.003-13.867h-2.655zm-33.025 4.97h-5.075v-4.983h-3.342v13.88h8.392c2.266 0 4.623-1.248 4.623-4.52-.013-4.3-3.043-4.376-4.598-4.376zm-.193 5.962h-4.895v-3.09h4.895c.57 0 1.437.154 1.437 1.545 0 1.287-.712 1.545-1.437 1.545zm9.791-10.932h-3.303v13.88h3.303v-13.88zm-46.763-.334c-5.582 0-8.223 3.398-8.223 7.197 0 3.965 2.577 7.197 8.223 7.197 2.461 0 8.159-1.133 8.159-7.197 0-3.966-2.551-7.198-8.159-7.198zm-.038 11.343c-3.225 0-4.585-1.842-4.585-4.108 0-2.484 1.554-4.146 4.585-4.146 3.419 0 4.583 1.662 4.583 4.146 0 2.974-2.24 4.108-4.583 4.108zm50.581 2.858h7.55l1.748-3.05h-9.298v3.05zm0-8.472v3.051h10.658l1.788-3.051h-12.446zm35.005 3.54v-8.935h-3.34v13.867h2.81l8.042-9v9h3.341V79.064h-2.81L217.418 88zm-62.808-3.244c.881-.373 1.632-.98 1.632-2.484 0-2.872-2.422-3.207-4.132-3.207h-9.026v13.88h9.182c4.209 0 5.076-2.305 5.076-4.417.013-2.38-1.346-3.36-2.732-3.772zM146.387 82h5.347c.804 0 1.14.412 1.14 1.21 0 .825-.531 1.249-1.14 1.249h-5.347V82zm5.879 7.995h-5.879v-2.973h5.879c.945 0 1.631.23 1.631 1.466 0 .98-.413 1.507-1.631 1.507z" fill="#2A2A28"/></svg>