<svg width="85" height="84" fill="none" xmlns="http://www.w3.org/2000/svg"><g clip-path="url(#clip0)" fill="#C1A477"><path d="M83.727 34.705l-7-2.8a35.545 35.545 0 00-2.891-6.96l2.974-6.939a1.23 1.23 0 00-.261-1.354l-8.7-8.7a1.23 1.23 0 00-1.356-.262l-6.938 2.974a35.552 35.552 0 00-6.96-2.892l-2.8-6.998A1.231 1.231 0 0048.652 0H36.348a1.23 1.23 0 00-1.143.774l-2.8 6.998a35.528 35.528 0 00-6.96 2.892L18.506 7.69a1.23 1.23 0 00-1.354.261l-8.7 8.7a1.23 1.23 0 00-.262 1.356l2.974 6.938a35.567 35.567 0 00-2.892 6.96l-6.998 2.8A1.23 1.23 0 00.5 35.848v12.304c0 .503.306.956.774 1.143l6.998 2.8a35.489 35.489 0 002.892 6.96L8.19 65.993a1.23 1.23 0 00.261 1.355l8.7 8.7c.356.356.893.46 1.355.262l6.94-2.974a35.508 35.508 0 006.96 2.892l2.799 6.999c.187.467.64.773 1.143.773h12.304a1.23 1.23 0 001.142-.773l2.8-7a35.523 35.523 0 006.96-2.891l6.939 2.974c.463.198.999.094 1.355-.261l8.7-8.7c.356-.356.46-.893.262-1.356l-2.974-6.938a35.545 35.545 0 002.892-6.96l6.999-2.8c.467-.187.773-.64.773-1.143V35.848c0-.503-.306-.956-.773-1.143zm-1.688 12.614l-6.785 2.714a1.232 1.232 0 00-.73.815 33.04 33.04 0 01-3.127 7.528 1.23 1.23 0 00-.061 1.093l2.884 6.728-7.523 7.523-6.728-2.884a1.233 1.233 0 00-1.093.061 33.054 33.054 0 01-7.528 3.127c-.37.103-.672.373-.815.73l-2.714 6.785H37.181l-2.715-6.785a1.23 1.23 0 00-.814-.73 33.04 33.04 0 01-7.527-3.127 1.233 1.233 0 00-1.094-.061l-6.728 2.884-7.523-7.523 2.884-6.728a1.23 1.23 0 00-.062-1.093 33.09 33.09 0 01-3.127-7.528 1.232 1.232 0 00-.729-.815L2.961 47.32V36.681l6.785-2.715a1.23 1.23 0 00.73-.814 33.036 33.036 0 013.127-7.527c.19-.335.213-.74.061-1.093l-2.884-6.73 7.523-7.522 6.729 2.884a1.23 1.23 0 001.093-.061 33.037 33.037 0 017.527-3.127 1.23 1.23 0 00.814-.73l2.715-6.785h10.638l2.715 6.785c.142.357.443.627.814.73a33.037 33.037 0 017.527 3.127c.335.19.74.213 1.093.061l6.73-2.884 7.522 7.523-2.884 6.729a1.23 1.23 0 00.061 1.093 33.022 33.022 0 013.127 7.527c.103.37.373.672.73.814l6.785 2.715v10.638z"/><path d="M42.5 14.93c-14.927 0-27.07 12.143-27.07 27.07 0 14.926 12.143 27.07 27.07 27.07 14.926 0 27.07-12.143 27.07-27.07S57.427 14.93 42.5 14.93zm0 51.68c-13.57 0-24.61-11.04-24.61-24.61S28.93 17.39 42.5 17.39 67.11 28.43 67.11 42 56.07 66.61 42.5 66.61z"/><path d="M42.5 19.852c-5.03 0-9.77 1.643-13.71 4.753a1.23 1.23 0 101.524 1.932c3.5-2.764 7.715-4.224 12.186-4.224 10.856 0 19.688 8.831 19.688 19.687 0 10.856-8.832 19.688-19.688 19.688-10.856 0-19.688-8.832-19.688-19.688 0-4.47 1.461-8.685 4.225-12.186a1.23 1.23 0 10-1.932-1.525c-3.11 3.94-4.753 8.681-4.753 13.711 0 12.212 9.936 22.148 22.148 22.148S64.648 54.212 64.648 42 54.712 19.852 42.5 19.852z"/><path d="M28.032 51.064l13.853 7.998a1.233 1.233 0 001.23 0l13.853-7.998c.38-.22.615-.626.615-1.066V34.002c0-.44-.234-.846-.615-1.066l-13.853-7.998a1.23 1.23 0 00-1.23 0l-13.853 7.998a1.23 1.23 0 00-.616 1.066v15.996c0 .44.235.846.616 1.066zm1.845-14.931L41.27 42.71v13.155l-11.393-6.577V36.133zm13.854 19.732V42.71l11.392-6.577v13.155L43.73 55.865zM42.5 27.425l11.392 6.577L42.5 40.579l-11.392-6.577L42.5 27.425z"/></g><defs><clipPath id="clip0"><path fill="#fff" transform="translate(.5)" d="M0 0h84v84H0z"/></clipPath></defs></svg>