<svg width="303" height="155" fill="none" xmlns="http://www.w3.org/2000/svg"><path d="M289 85.558c-.894-.035-1.788-.096-2.682-.097a73.634 73.634 0 00-3.372.08c-.538.025-.649.006-.587-.583.06-.575.087-1.153.134-1.815-.171.104-.288.164-.393.24-.945.675-1.899 1.339-2.825 2.037-.407.307-.826.502-1.346.544-.641.051-1.277.063-1.908-.066-1.553-.318-2.601-1.37-2.894-2.901-.157-.82-.182-1.649.002-2.463.299-1.326 1.016-2.355 2.368-2.889 1.458-.576 2.969-.986 4.5-1.328.808-.18 1.623-.329 2.457-.496.011-.075.034-.157.035-.24a5.382 5.382 0 00-.229-1.642c-.39-1.281-1.285-2.006-2.64-2.213a5.675 5.675 0 00-2.058.068c-.149.032-.294.082-.439.128-.359.116-.6.327-.728.692-.155.44-.37.86-.568 1.31l-1.187-.252.102-2.216c1.251-.807 2.519-1.567 3.888-2.16.45-.196.935-.246 1.421-.272 1.444-.079 2.86.015 4.195.63 1.48.682 2.342 1.802 2.529 3.371.079.671.096 1.352.091 2.029-.019 2.255-.07 4.51-.086 6.766-.003.553.061 1.108.135 1.657.064.484.208.602.714.67.456.062.914.103 1.371.153v1.258zm-6.509-8.284c-1.279.278-2.494.553-3.623 1.099-.091.044-.177.098-.264.15-.626.373-.998.921-1.095 1.615a4.071 4.071 0 00-.001 1.177c.181 1.177 1.182 1.865 2.402 1.694.952-.134 1.724-.579 2.358-1.267a.817.817 0 00.228-.6c-.011-1.16-.005-2.318-.005-3.476v-.392zM38.51 85.997c-5.785 0-11.57-.003-17.355.003-.778 0-1.535-.09-2.267-.373-1.148-.443-2.029-1.231-2.723-2.257-.754-1.114-1.213-2.363-1.534-3.67a19.26 19.26 0 01-.558-3.969c-.043-1.325-.098-2.654-.06-3.978.063-2.245.27-4.474.988-6.618.367-1.1.847-2.137 1.569-3.04.86-1.076 1.947-1.761 3.283-1.992a7.036 7.036 0 011.19-.099C32.676 60 44.31 60 55.945 60.001c2.15 0 3.808.93 4.972 2.804.724 1.167 1.162 2.45 1.468 3.786.339 1.476.511 2.975.548 4.49.026 1.102.09 2.204.056 3.303-.067 2.219-.27 4.422-.992 6.537-.445 1.303-1.052 2.509-2.029 3.482-.83.825-1.812 1.342-2.954 1.507a8.92 8.92 0 01-1.265.083c-5.747.006-11.493.004-17.24.004zm-.041-.977c3.727 0 7.455.003 11.183-.004.461 0 .926-.02 1.382-.086 1.414-.203 2.658-.79 3.69-1.824 1.002-1.004 1.635-2.238 2.082-3.585.597-1.801.778-3.674.835-5.56a28.287 28.287 0 00-.287-4.96c-.226-1.546-.645-3.03-1.39-4.4-.775-1.42-1.849-2.504-3.338-3.11-.972-.396-1.987-.513-3.02-.513-7.302-.003-14.604-.006-21.905-.003-.513 0-1.027.026-1.537.072-1.791.162-3.264.962-4.403 2.402-.776.98-1.278 2.108-1.646 3.307-.51 1.658-.686 3.37-.757 5.095-.075 1.846-.022 3.688.29 5.514.228 1.34.59 2.637 1.227 3.837 1.31 2.472 3.332 3.784 6.063 3.809 3.843.035 7.687.009 11.53.009zm152.532-22.46v-1.555c3.84.195 7.673.154 11.532-.005v1.558c-.133.009-.272.016-.41.028-.587.052-1.175.1-1.761.159-.405.04-.646.278-.718.657a8.03 8.03 0 00-.156 1.141 91.825 91.825 0 00-.095 3.192c-.015 1.578-.004 3.156-.004 4.734v.192c-.002.12.013.217.152.277.142.062.223-.007.315-.08.091-.073.186-.143.272-.221.943-.854 1.912-1.684 2.821-2.57a328.82 328.82 0 005.094-5.088c.753-.767 1.444-1.593 2.168-2.389a.584.584 0 00.168-.45c-.015-.257-.017-.513-.022-.77-.003-.111-.001-.223-.001-.356h6.727v1.542l-.42.029c-.432.03-.865.05-1.295.094-.622.064-1.211.248-1.724.602a27.55 27.55 0 00-1.821 1.34c-1.216.999-2.437 1.994-3.599 3.05-1.21 1.1-2.353 2.27-3.525 3.41-.026.026-.041.065-.074.119.474.557.944 1.125 1.431 1.68 2.891 3.287 5.782 6.575 8.683 9.854.368.416.788.788 1.194 1.171.334.316.746.464 1.209.49.272.016.544.045.858.071v1.495h-7.395c-.009-.011-.055-.056-.084-.11-.394-.716-.892-1.36-1.433-1.973-2.39-2.71-4.78-5.421-7.173-8.13a20.363 20.363 0 00-1.088-1.164 2.737 2.737 0 00-.73-.51c-.454-.21-.704-.042-.705.449-.002 1.603-.004 3.207.01 4.81.011 1.193.044 2.385.075 3.578.005.204.049.406.071.61.049.455.348.68.771.75.374.063.755.085 1.134.114.352.027.705.04 1.081.06V86c-3.845-.138-7.679-.185-11.534.001V84.45c.273-.02.533-.035.791-.061.457-.045.912-.099 1.368-.147.474-.05.736-.333.809-.766.076-.454.129-.915.147-1.375.067-1.717.16-3.435.161-5.152.002-3.053-.05-6.106-.094-9.158-.017-1.166-.072-2.333-.118-3.499a5.546 5.546 0 00-.092-.802c-.093-.502-.285-.686-.804-.743-.586-.065-1.175-.104-1.763-.154l-.404-.032zM86 71.969v-1.33c.141-.03.282-.065.425-.093 1.132-.22 2.266-.43 3.395-.658.778-.157 1.513-.449 2.237-.768.394-.174.395-.173.816.099v2.756c.142-.098.233-.153.316-.22.83-.673 1.67-1.335 2.484-2.03.412-.35.885-.531 1.393-.609 1.053-.16 2.101-.084 3.134.174.949.237 1.663.806 2.191 1.618.218.336.403.693.616 1.062.094-.067.186-.126.272-.195.842-.68 1.694-1.346 2.518-2.046.413-.351.884-.533 1.393-.611a7.681 7.681 0 013.135.162c1.75.46 3.049 2.042 3.216 3.884.133 1.463.075 2.928.039 4.393a82.554 82.554 0 00-.005 3.412c.014.833.046 1.667.122 2.496.073.807.25.965 1.044 1.075.409.056.822.077 1.259.116V86c-1.166-.036-2.315-.095-3.465-.1-1.14-.005-2.28.045-3.47.071-.17-.122-.217-.33-.198-.591a92.59 92.59 0 00.225-8.94 22.965 22.965 0 00-.132-1.89c-.153-1.43-1.117-2.335-2.543-2.406-1.094-.053-2.009.344-2.759 1.142a1.51 1.51 0 00-.425.947c-.03.403-.07.807-.067 1.21.019 2.514.048 5.029.079 7.543.003.24.027.48.063.716.067.434.27.65.702.72.556.092 1.116.16 1.706.242v1.31h-9.222v-1.318l1.218-.143c.722-.084.978-.32 1.01-1.06.05-1.147.07-2.297.08-3.447.013-1.39.016-2.78-.003-4.17a11.18 11.18 0 00-.141-1.658c-.179-1.084-.939-1.847-2.01-2.027-1.407-.236-2.57.21-3.468 1.336-.179.223-.29.463-.285.76.005.354-.03.707-.028 1.06.014 2.465.032 4.929.055 7.393.004.353.034.707.07 1.058.048.46.22.657.673.733.42.07.846.1 1.27.15.085.01.17.022.273.036v1.297h-9.195V84.65c.162 0 .321.013.478-.002.41-.04.823-.08 1.23-.144.364-.059.584-.296.623-.663.057-.552.113-1.107.124-1.66.06-3.008.082-6.015-.059-9.021a4.71 4.71 0 00-.057-.49c-.051-.335-.163-.469-.488-.532-.245-.048-.496-.068-.746-.09-.36-.03-.72-.051-1.118-.08zm157.446 21.709V95c-1.754-.041-3.491-.113-5.228-.115-1.729-.002-3.458.065-5.218.103v-1.302c.11-.01.221-.025.332-.03.416-.022.833-.026 1.247-.064.651-.059.912-.3.947-.927.07-1.272.147-2.545.159-3.819.036-3.786.056-7.573.051-11.36-.001-1.435-.083-2.871-.135-4.307a4.445 4.445 0 00-.089-.668c-.073-.362-.269-.56-.651-.596-.478-.046-.96-.053-1.44-.076l-.419-.02v-1.335c.363-.044.723-.075 1.079-.132 1.051-.166 2.113-.294 3.148-.529.818-.186 1.605-.5 2.4-.772.419-.143.683.018.676.447l-.035 2.174c-.002.111 0 .223 0 .399.135-.088.23-.14.313-.206.939-.753 1.873-1.511 2.815-2.261.117-.093.26-.162.402-.22.911-.37 1.87-.41 2.838-.35.453.03.914.06 1.352.166 2.568.622 4.127 2.237 4.77 4.657.438 1.65.23 3.3-.25 4.922a12.54 12.54 0 01-.358 1.03 6.769 6.769 0 01-2.323 3.042c-1.012.745-2.033 1.482-3.013 2.264-1.133.904-2.434 1.19-3.862 1.1-.782-.05-1.547-.19-2.297-.409-.11-.032-.223-.054-.367-.088-.01.13-.024.238-.024.345-.001 2.075-.002 4.15.001 6.224.001.187.019.374.043.56a.58.58 0 00.483.526c.342.07.691.114 1.039.149.427.043.856.064 1.284.1.101.007.201.033.33.056zm-3.181-15.598l.001 3.936-.001.037c-.011.18.016.333.17.472.844.763 1.796 1.317 2.974 1.443 1.284.138 3.09-.217 3.995-1.975.172-.334.332-.68.449-1.035.481-1.465.579-2.965.374-4.483-.106-.783-.311-1.542-.673-2.259-.68-1.349-2.3-2.261-3.909-2.117-1.212.108-2.231.629-3.111 1.422a.76.76 0 00-.274.623c.012 1.312.006 2.624.005 3.936z" fill="#2A2A28"/><path d="M260.253 85.734v.408c0 2.022-.002 4.044.002 6.066.001.212.033.423.052.634a.571.571 0 00.47.535 8.8 8.8 0 001.038.152c.427.044.857.065 1.285.099.102.008.203.03.325.05V95c-1.737-.034-3.474-.1-5.211-.107-1.728-.008-3.457.064-5.214.101v-1.3c.109-.01.219-.025.331-.03.403-.02.807-.027 1.209-.06.67-.054.929-.292.994-.932.049-.484.081-.97.093-1.457.039-1.66.091-3.319.095-4.978.007-3.707-.005-7.415-.027-11.122-.004-.747-.084-1.494-.136-2.24-.009-.137-.044-.271-.074-.405-.068-.308-.286-.48-.595-.513-.426-.046-.856-.058-1.285-.078-.192-.008-.385-.001-.605-.001V70.53c.301-.04.615-.09.931-.122 2.029-.205 4.014-.573 5.887-1.386.023-.01.049-.012.095-.022l.368.226v2.853c.088-.046.17-.073.232-.123.96-.767 1.915-1.54 2.877-2.304.117-.094.258-.165.399-.223.924-.377 1.897-.415 2.878-.351.44.028.89.055 1.314.16 2.645.65 4.254 2.312 4.814 4.828.519 2.33.013 4.564-1.077 6.68a5.543 5.543 0 01-1.232 1.583 9.845 9.845 0 01-.652.536c-1.065.802-2.136 1.595-3.2 2.398a4.659 4.659 0 01-2.231.922 8.237 8.237 0 01-2.717-.117c-.456-.092-.906-.21-1.433-.334zm0-7.629c0 1.323.002 2.646-.003 3.968 0 .184.031.333.179.469.851.778 1.818 1.345 3.012 1.448 1.31.113 2.484-.2 3.395-1.164.535-.566.836-1.258 1.065-1.98.416-1.308.488-2.65.367-4.001-.078-.873-.283-1.725-.679-2.523-.693-1.397-2.293-2.315-3.865-2.194-1.257.097-2.312.626-3.217 1.454-.195.178-.261.375-.259.63.011 1.297.005 2.595.005 3.893zM68 85.11c.47-2.124.508-4.25.556-6.4h1.419c.007.145.01.275.019.404.061.888.117 1.776.192 2.663a.863.863 0 00.181.465c.322.37.639.762 1.019 1.058 1.574 1.226 3.35 1.726 5.3 1.561.902-.076 1.762-.3 2.57-.736 1.284-.693 1.961-1.82 2.158-3.303a5.558 5.558 0 00-.066-1.862c-.215-1.046-.782-1.8-1.685-2.272-.726-.38-1.503-.61-2.287-.805-1.324-.329-2.653-.63-3.976-.957-.44-.109-.879-.238-1.306-.394-1.915-.699-3.123-2.105-3.6-4.17-.526-2.27-.228-4.435.897-6.46.777-1.397 1.933-2.321 3.329-2.944 1.066-.476 2.186-.726 3.328-.853a16.835 16.835 0 016.554.555c.496.142.978.346 1.457.545.428.178.514.389.446.864-.12.827-.25 1.654-.333 2.485-.074.74-.09 1.486-.13 2.23-.008.13-.013.261-.02.422h-1.445c-.01-.142-.02-.258-.026-.375-.03-.677-.076-1.355-.084-2.032-.006-.495-.202-.857-.556-1.16a6.067 6.067 0 00-2.416-1.268c-1.422-.379-2.85-.414-4.244.11-1.367.516-2.305 1.51-2.655 3.026-.204.887-.11 1.776.208 2.624.26.694.733 1.201 1.364 1.54.724.387 1.493.632 2.289.789 1.498.294 3 .563 4.492.883.564.12 1.116.326 1.655.543 1.71.688 2.788 2.001 3.162 3.876.667 3.35-.063 6.268-2.556 8.595-1.483 1.384-3.218 2.163-5.16 2.448-1.999.293-3.996.266-5.98-.15-1.416-.298-2.742-.867-4.07-1.545zm47-13.34v-1.273c.383-.041.754-.082 1.125-.12 1.577-.162 3.103-.55 4.608-1.025.334-.105.665-.218 1-.32.305-.093.449.016.432.336-.051.985-.137 1.97-.16 2.955a288.8 288.8 0 00-.07 5.584c-.003.813.036 1.627.085 2.439.018.304.086.612.184.902.308.91.976 1.414 1.931 1.533 1.534.19 2.703-.42 3.586-1.632.342-.469.376-1.015.385-1.555.021-1.209.019-2.417.011-3.626-.007-1.048-.037-2.095-.057-3.143a2.275 2.275 0 00-.013-.184c-.053-.474-.187-.637-.666-.702-.446-.061-.898-.08-1.347-.118l-.548-.043v-1.293c.309-.044.617-.082.922-.133 1.073-.179 2.155-.323 3.216-.557.865-.191 1.706-.487 2.554-.749.223-.069.412-.071.604.138-.035.61-.077 1.248-.107 1.887-.075 1.638-.177 3.275-.207 4.914-.033 1.886-.005 3.774.008 5.66.003.505.049 1.01.08 1.514.007.11.036.219.057.328.054.285.213.47.516.506.397.049.795.094 1.193.138.221.024.443.042.678.064v1.301c-.107.009-.202.026-.297.023-.626-.02-1.253-.038-1.879-.07-1.442-.073-2.881.014-4.321.069-.523.02-.513.013-.478-.503.049-.722.082-1.446.122-2.169l-.08-.044c-.104.076-.216.143-.311.229-.842.756-1.686 1.51-2.517 2.278a1.65 1.65 0 01-.705.396c-1.36.374-2.722.42-4.071-.021-1.729-.565-2.862-2.028-2.944-3.819-.036-.774.016-1.552.019-2.329.006-1.442.007-2.885.005-4.327-.002-.678-.014-1.356-.022-2.034a4.589 4.589 0 00-.019-.407c-.057-.542-.3-.798-.85-.861-.398-.046-.799-.064-1.198-.095-.147-.012-.293-.027-.454-.042zm112.489 4.034c.002-1.106-.123-2.17-.878-3.064-.511-.605-1.211-.89-1.99-1.01a5.77 5.77 0 00-2.096.073 2.995 2.995 0 00-.366.107c-.36.127-.638.316-.769.702-.149.442-.366.862-.563 1.314l-1.169-.247c-.006-.111-.02-.217-.015-.323.022-.541.057-1.082.072-1.624.005-.194.079-.315.246-.421a34.793 34.793 0 013.275-1.845c.632-.31 1.304-.42 1.998-.452.898-.043 1.789.012 2.669.195a6.001 6.001 0 012.097.875c.983.649 1.528 1.569 1.74 2.682.18.951.146 1.912.124 2.874-.047 1.994-.081 3.99-.094 5.985-.004.589.06 1.18.126 1.767.063.559.213.684.8.759.429.055.859.099 1.304.149v1.234c-.184 0-.358.009-.53-.002a44.198 44.198 0 00-4.753-.057c-.332.015-.663.05-.994.067-.314.015-.389-.057-.371-.36.035-.59.076-1.18.114-1.77.004-.06 0-.122 0-.194-.175-.03-.267.09-.37.163a376.642 376.642 0 00-3.135 2.254c-.18.13-.363.22-.583.255-.788.13-1.578.162-2.363 0-1.606-.33-2.664-1.44-2.92-3.046-.113-.712-.138-1.426-.004-2.134.267-1.407.982-2.497 2.406-3.066 1.254-.502 2.552-.872 3.868-1.179 1.017-.237 2.044-.434 3.124-.661zm-.012 1.443c-.776.206-1.495.374-2.197.59-.508.158-1.01.352-1.488.58-.778.374-1.217 1.01-1.306 1.838-.04.375-.02.765.04 1.138.164 1.01 1.025 1.753 2.317 1.617.984-.103 1.782-.568 2.431-1.281a.835.835 0 00.231-.602c-.011-1.158-.004-2.316-.006-3.474 0-.109-.011-.217-.022-.406zM151 85.958v-1.323c.402-.041.798-.074 1.191-.125.319-.04.64-.088.953-.16.463-.107.656-.331.713-.81.038-.324.069-.652.075-.979.034-1.9.067-3.8.084-5.7.013-1.443.003-2.885.003-4.327v-.469c-.986-.057-1.934.045-2.917.077v-.91c.709-.377 1.423-.771 2.151-1.137.38-.191.529-.45.541-.895.026-1.033.109-2.066.198-3.096.065-.746.405-1.383.917-1.908a58.839 58.839 0 011.956-1.904c.741-.692 1.522-1.342 2.251-2.047 1.227-1.187 2.667-1.452 4.269-1.102.176.039.35.09.523.14.035.01.063.042.092.062l-.245 3.643c-.02.012-.075.042-.127.078-.343.24-.622.2-.948-.094-.598-.54-1.351-.628-2.114-.55a4.245 4.245 0 00-1.083.266c-.463.179-.756.545-.842 1.049-.059.348-.12.7-.128 1.051-.033 1.56-.048 3.12-.069 4.679-.001.077.012.154.02.26.104.015.202.041.3.039 1.355-.037 2.709-.078 4.064-.118.065-.002.129-.007.194-.008.407-.007.46.07.381.49-.12.63-.229 1.262-.348 1.928-1.521.048-3.041-.179-4.582.027-.01.1-.029.2-.028.301.002 2.4-.005 4.799.016 7.198.01 1.192.072 2.383.111 3.575.002.066.006.131.012.197.063.692.37 1.01 1.053 1.073.669.062 1.338.11 2.007.164.101.008.201.024.324.038v1.345c-.098.008-.207.026-.317.024-1.755-.034-3.511-.09-5.267-.102-1.303-.009-2.607.04-3.91.059-.476.007-.952.001-1.474.001zm33.875-15.944l-.303 2.318h-3.846c-.012.13-.031.236-.031.342.011 2.622.022 5.243.04 7.865.002.31.032.62.078.927.122.809.674 1.342 1.504 1.471a5.842 5.842 0 001.981-.045c.149-.028.299-.05.45-.076.03.038.06.063.074.095.264.582.262.58-.199 1.034-.441.432-.883.863-1.312 1.306a1.571 1.571 0 01-.633.4c-1.312.452-2.637.469-3.944.027-1.238-.418-2.077-1.242-2.383-2.511a3.557 3.557 0 01-.082-.85c.013-1.69.043-3.38.059-5.069.013-1.454.013-2.907.019-4.361v-.465h-2.333c-.004-.23-.029-.45-.001-.664.012-.085.13-.173.22-.23.502-.318 1.015-.623 1.517-.942.6-.381.609-.385.595-1.064-.029-1.415-.071-2.83-.106-4.246-.004-.16-.001-.32-.001-.53 1.536-.424 3.009-1.036 4.427-1.746.095.062.155.108.221.144.201.11.265.265.242.492a59.237 59.237 0 00-.191 2.265c-.082 1.34-.146 2.68-.216 4.02-.003.06.008.122.015.225 1.368.065 2.723-.022 4.139-.132zm-47.855 1.983v-1.34c.587-.104 1.162-.204 1.736-.307 1.452-.26 2.909-.507 4.267-1.12.058-.026.117-.05.175-.074.393-.17.393-.17.819.08v3.43c.105-.076.181-.114.234-.172.486-.532.97-1.068 1.453-1.603.288-.32.574-.641.861-.962.727-.814 1.664-1.016 2.705-.898.236.026.467.096.73.152l-.181 4.851-.712.228c-.101-.11-.197-.208-.286-.312-.864-1.006-2.622-1.151-3.684-.336a4.856 4.856 0 00-.77.779c-.23.279-.33.62-.332.986-.007 1.726-.019 3.452-.022 5.178-.001.768.012 1.537.027 2.305.005.251.035.502.058.753.039.42.284.679.687.75.5.09 1.008.136 1.513.196.275.034.552.06.845.09v1.343c-3.366-.185-6.721-.13-10.122.006-.035-.45-.017-.882-.012-1.326.468-.036.91-.058 1.349-.106.836-.092 1.054-.32 1.104-1.152.131-2.177.143-4.356.1-6.535-.024-1.21-.062-2.418-.098-3.626a4.257 4.257 0 00-.058-.563c-.059-.354-.173-.471-.536-.536-.237-.042-.479-.062-.72-.082-.366-.03-.733-.05-1.13-.077zM165 86v-1.224c.336-.034.663-.061.988-.1.33-.04.658-.093.987-.137.371-.05.572-.279.625-.623.065-.424.123-.852.141-1.28.125-3.045.086-6.092-.001-9.137a8.27 8.27 0 00-.071-.832c-.062-.477-.183-.624-.663-.688-.531-.07-1.069-.09-1.604-.13-.125-.01-.25-.013-.394-.02v-1.312c.47-.06.923-.123 1.378-.171 1.852-.197 3.659-.582 5.384-1.293.272-.112.461-.035.647.12 0 .287.008.563-.002.839-.048 1.351-.137 2.702-.146 4.054-.018 2.781.002 5.563.014 8.344.002.417.037.834.072 1.25.049.582.202.764.783.85.606.088 1.218.136 1.862.205V86h-10zm7.995-23.481c.071 1.28-1.326 2.52-3.021 2.48-1.656-.039-2.971-1.115-2.974-2.5-.003-1.39 1.337-2.495 3.017-2.499 1.777-.005 3.074 1.287 2.978 2.519zm-120 10.33L23.015 76l-.013-.056c.276-.054.551-.113.828-.162 2.736-.484 5.471-.965 8.206-1.45 1.606-.285 3.21-.575 4.815-.865a2.412 2.412 0 001.22-.59c.61-.558.658-1.303.121-1.935-.4-.47-.929-.732-1.513-.856-2.179-.464-4.362-.91-6.544-1.363-2.322-.48-4.645-.96-6.967-1.443-.06-.012-.114-.047-.168-.135L52.947 64l.01.066-.446.076c-1.577.282-3.153.566-4.73.849-1.577.283-3.153.569-4.73.85-1.245.221-2.49.44-3.734.656-.497.086-.958.254-1.352.582-.683.57-.731 1.387-.13 2.047.276.302.622.49 1 .6a25.84 25.84 0 001.855.473c2.745.578 5.491 1.142 8.237 1.71 1.226.255 2.453.508 3.678.764.133.028.264.069.395.103l-.005.073zM23 76.36L52.973 73l.012.064c-.422.092-.844.188-1.267.276l-7.787 1.605c-1.483.306-2.966.61-4.45.913-.379.077-.727.222-1.017.49-.512.471-.545 1.124-.078 1.643.341.38.78.576 1.262.692 1.995.481 3.99.968 5.985 1.453 2.351.57 4.702 1.14 7.053 1.712A.69.69 0 0153 82l-29.998-5.55-.002-.09z" fill="#2A2A28"/><path d="M52.976 79c.023.678.047 1.308-.017 2-3.024-.647-5.991-1.324-8.959-2h8.976z" fill="#2A2A28"/></svg>