<svg width="303" height="155" fill="none" xmlns="http://www.w3.org/2000/svg"><path d="M141 70.414c0 8.151.012 8.449.252 9.307.348 1.237.864 2.095 1.728 2.862 1.248 1.11 2.928 1.786 5.556 2.198 1.644.252 2.94.286 3.864.103l.6-.126v-3.583h-1.356c-2.172-.011-3.3-.48-3.96-1.637-.48-.835-.576-1.923-.54-5.918l.036-3.435 2.496-.034 2.484-.023v-3.79l-2.484.012-2.496.023V62H141v8.414zm15 5.086V85h5.935l.035-6.278.034-6.29.28-.614c.35-.779.956-1.345 1.831-1.7.618-.247.863-.27 2.437-.247.967 0 1.912.023 2.098.047l.35.035v-3.776l-.7-.094c-.979-.142-3.474-.012-4.313.212-.945.248-1.983.755-2.624 1.275l-.524.436-.082-.33a18.454 18.454 0 01-.152-1.003l-.07-.673H156v9.5zm21.612-9.342c-1.162.21-2.069.489-3.022.931-.836.384-2.091 1.176-2.335 1.467-.093.128.174.384 1.313 1.246l1.441 1.082.906-.349c1.104-.43 1.616-.57 2.754-.71 1.139-.14 2.894.023 3.673.36.976.432 1.731 1.503 1.731 2.492 0 .315-.011.326-.546.245-1.267-.175-4.555-.221-5.659-.082-1.534.198-3.08.63-4.033 1.13-2.034 1.07-3.103 3.201-2.777 5.507.337 2.363 1.534 3.807 3.951 4.761 2.719 1.072 7.217 1.002 9.727-.14l.616-.29.069.465.082.455H190v-6.124c0-6.788-.023-7.056-.755-8.604-1-2.12-3.289-3.47-6.578-3.9-1.197-.152-4.067-.129-5.055.058zm5.578 9.907l.883.082-.023 2.328-.035 2.329-.639.221c-1.615.547-4.021.536-5.334-.035-1.104-.465-1.755-1.548-1.581-2.608.093-.64.558-1.385 1.011-1.665.384-.233 1.302-.547 1.837-.64.488-.081 2.928-.081 3.881-.012zm45.835-10.028c-.024.024-.036 4.31-.012 9.505l.024 9.458H235V66.132c0-.083-5.88-.19-5.975-.095zm14.917.085c-3.178.6-5.067 2.183-5.458 4.551-.265 1.582.207 3.107 1.232 4.066 1.025.947 2.407 1.467 5.724 2.136 3.524.717 3.996.901 4.399 1.675.76 1.479-.899 2.784-3.363 2.622-1.44-.08-2.464-.704-2.649-1.594l-.057-.335H238l.069.659c.196 1.928 1.912 3.603 4.514 4.412.91.289 2.718.566 4.262.67 1.888.115 4.606-.393 6.092-1.144.794-.404 1.923-1.432 2.337-2.137.381-.658.726-1.825.726-2.46 0-.647-.345-1.802-.737-2.471-.392-.682-1.025-1.202-2.05-1.71-1.106-.554-1.912-.82-3.662-1.19-3.225-.681-3.651-.785-4.146-1.004-.645-.278-1.117-.716-1.209-1.132-.15-.682.506-1.56 1.405-1.86.587-.196 2.153-.196 2.833 0 .679.197 1.324.774 1.416 1.27l.081.359h5.643l-.081-.636c-.138-1.178-.483-1.882-1.382-2.783-.921-.924-1.785-1.398-3.259-1.79-.76-.208-1.301-.255-3.489-.29-1.843-.022-2.833.012-3.421.116zm-41.987.008a11.45 11.45 0 00-2.719.773c-.371.154-.685.284-.697.284-.011 0-.056-.213-.101-.474l-.078-.475H194V85h5.73V70.168l.427-.119c1.472-.403 3.517-.498 4.472-.19.629.19 1.169.725 1.405 1.366.123.333.157 1.805.191 7.09l.033 6.685h5.618l-.033-7.09c-.023-3.906-.079-7.196-.124-7.302-.079-.167.023-.238.674-.44 1.292-.404 2.113-.522 3.203-.463 1.528.071 2.134.463 2.573 1.639.123.332.157 1.745.191 7.03l.033 6.626H224v-6.65c0-4.465-.045-6.84-.124-7.267-.629-3.112-3.618-5.083-7.685-5.083-1.944 0-3.944.499-5.663 1.425l-.618.32-.674-.45c-.787-.511-2.034-.986-3.101-1.164-.843-.143-3.247-.143-4.18 0zM58.034 44.941c-2.133 2.978-4.684 7.085-6.84 10.971-.94 1.71-2.26 4.375-2.191 4.433.034.035.313-.128.637-.35.684-.5 1.67-.965 2.493-1.186.916-.244 2.886-.21 3.953.07 2.087.535 3.153 1.396 8.88 7.202 4.012 4.06 4.812 4.77 6.725 5.91 1.588.954 1.959 1.117 2.156.954.232-.198.197-.617-.081-.873-.302-.267-1.658-2.303-2.238-3.339-1.17-2.106-2.214-4.91-2.666-7.178-.36-1.804-.464-2.676-.765-6.34a407.26 407.26 0 00-.29-3.55c-.44-4.944-.603-5.747-1.206-6.328-.73-.699-1.739-.617-2.666.209-1.322 1.175-3.119 1.152-4.255-.07-.406-.419-.742-1.024-.742-1.315 0-.349-.232-.15-.904.78zM52.798 65.21c-.508.313-.785.794-.877 1.533a3.616 3.616 0 01-.289 1.041c-.265.504-1.05 1.21-1.581 1.422-.808.325-2.263.135-2.863-.38-.22-.19-.22-.168-.139 1.097.093 1.579.566 5.598.89 7.558.53 3.258 1.5 7.927 1.927 9.293.127.37.104.403.485-.817.623-1.96 2.031-3.493 4.086-4.456 1.397-.65 2.193-.762 5.033-.683 1.362.044 2.92.123 3.462.179 6.407.739 10.02.84 12.525.347 1.373-.269 1.593-.358 1.535-.717-.035-.201-.22-.28-1.247-.526a25.14 25.14 0 01-5.021-1.724c-3.59-1.657-4.536-2.385-10.389-8.006-2.597-2.497-4.986-4.714-5.31-4.927-.738-.492-1.638-.582-2.227-.235zm47.566 13.951c-.034.092.056.563.212 1.058.738 2.483 1.084 4.84 1.084 7.633.012 2.817-.301 4.645-1.654 9.6-1.956 7.22-2.291 9.002-1.81 9.749.491.77 1.419.966 2.537.529.749-.299 1.732-.253 2.425.103.928.495 1.677 1.794 1.576 2.782-.022.276 0 .414.079.38 1.084-.633 5.958-4.38 8.327-6.415 2.705-2.334 5.6-5.013 5.858-5.45.033-.046-.28.012-.693.115-.962.265-2.761.276-3.656.046-2.056-.551-3.61-1.759-4.817-3.759-.66-1.104-2.147-4.162-3.175-6.587-1.397-3.277-2.593-5.76-3.275-6.806-1.04-1.599-2.37-3.139-2.694-3.139-.145 0-.291.069-.324.161zm-6.687 3.979c-.057.081-.208.404-.323.728-.901 2.517-3.42 6.2-5.743 8.428-1.652 1.582-2.438 2.182-6.794 5.196-6.61 4.56-7.118 5.057-6.714 6.407.208.693.52.993 1.329 1.27.393.127.901.37 1.12.532.729.531 1.26 1.558 1.26 2.436 0 .554-.404 1.524-.809 1.939l-.358.37.532.069c2.553.358 5.361.473 10.92.485 3.212 0 6.297-.046 6.875-.104l1.028-.092-.913-.451c-1.664-.796-2.738-1.858-3.559-3.509-.832-1.675-1.04-3.164-.716-5.081.23-1.373 1.109-4.814 2.31-9.12.475-1.72.948-3.557 1.052-4.1.231-1.246.347-4.79.174-5.23-.127-.334-.474-.415-.67-.173zm-10.099 2.319c-1.799 1.003-4.855 2.042-7.322 2.479-2.445.436-4.717.425-9.802-.06-7.622-.72-8.88-.755-9.629-.26-.865.58-.98 1.76-.288 2.881.45.732.577 1.7.346 2.562-.288 1.05-1.5 2.066-2.456 2.066-.231 0-.427.047-.427.106 0 .177 4.416 4.533 6.423 6.327 2.099 1.889 4.705 4.061 6.47 5.407 1.706 1.299 1.694 1.299 1.29.413-.518-1.145-.737-2.136-.726-3.4 0-1.357.23-2.313.877-3.659.841-1.783 2.502-3.235 8.21-7.201 4.832-3.353 6.261-4.592 7.876-6.776.634-.862.68-1.003.461-1.228-.207-.212-.415-.153-1.303.343zm42.731 2.697c.485-3.297.846-7.313.98-10.823.081-2.113.134-5.255.089-5.801l-.039-.381-.324.553c-1.509 2.597-3.768 3.996-6.695 4.182-1.459.082-4.53-.724-9.81-2.558-4.214-1.468-5.656-1.868-7.425-2.094-1.591-.2-3.208-.248-3.47-.108-.1.057-.186.171-.19.27.003.14.275.33 1.163.76 3.194 1.585 6.438 4.235 8.631 7.015 1.14 1.465 1.553 2.093 4.099 6.204 4.101 6.644 4.624 7.28 5.819 7.049.841-.17 1.087-.392 1.524-1.36.625-1.38 1.487-2.042 2.754-2.118.787-.042 1.727.295 2.237.814.177.176.331.317.346.31.02-.016.158-.874.311-1.914z" fill="#2A2A28"/></svg>