<svg width="303" height="155" fill="none" xmlns="http://www.w3.org/2000/svg"><path d="M116.674 83.919c.049-1.633.16-3.272.326-4.919h-8a61.27 61.27 0 01.381 4.919c.056 1.63.086 3.374.086 5.235v1.83c0 1.86-.03 3.615-.086 5.26A52.935 52.935 0 01109 101h8a60.546 60.546 0 01-.326-4.757c-.048-1.644-.073-3.4-.073-5.258v-1.831c0-1.861.025-3.605.073-5.235zM113 68c-1.113 0-2.058.39-2.834 1.166-.777.777-1.166 1.723-1.166 2.834 0 1.115.389 2.06 1.166 2.837.776.777 1.721 1.163 2.834 1.163 1.114 0 2.06-.386 2.837-1.163C116.612 74.06 117 73.115 117 72c0-1.111-.388-2.057-1.163-2.834C115.06 68.39 114.114 68 113 68zm16.649 8.046c.077-2.32.193-4.668.351-7.046h-8c.134 2.378.233 4.726.301 7.046.067 2.32.099 4.867.099 7.639v2.76c0 2.772-.032 5.316-.099 7.638-.068 2.32-.167 4.627-.301 6.917h8c-.158-2.29-.274-4.596-.351-6.917a234.563 234.563 0 01-.115-7.638v-2.76c0-2.772.039-5.32.115-7.64m42.168 21.58a77.635 77.635 0 01-.078-3.236c0-1.21.033-2.422.094-3.632.063-1.212.096-2.608.096-4.19 0-3.011-.681-5.192-2.039-6.542-1.363-1.349-3.302-2.025-5.819-2.025a8.587 8.587 0 00-4.283 1.14c-1.34.762-2.518 1.855-3.525 3.284-.606-1.43-1.453-2.522-2.548-3.285-1.09-.758-2.394-1.139-3.906-1.139-1.611 0-3.048.357-4.31 1.072-1.26.714-2.361 1.722-3.301 3.026h-.102l.226-3.491H135c.184 1.675.305 3.343.358 5.005.056 1.66.085 3.437.085 5.33v1.863c0 1.892-.029 3.677-.085 5.354A56.23 56.23 0 01135 101h7.576v-.003c.005.002.015.002.027.003a61.401 61.401 0 01-.331-4.85 177.6 177.6 0 01-.074-5.364v-1.864c0-2.147.351-3.825 1.055-5.036.707-1.212 1.815-1.821 3.33-1.821 1.411 0 2.369.515 2.875 1.54.504 1.027.755 2.472.755 4.337v2.844c0 1.897-.026 3.685-.073 5.365a63.371 63.371 0 01-.331 4.849h7.577l-.013-.023a60.393 60.393 0 01-.328-4.826c-.052-1.68-.079-3.468-.079-5.365V87.43c0-.56.053-1.151.153-1.774.101-.62.305-1.202.604-1.747a3.767 3.767 0 011.238-1.329c.519-.342 1.183-.515 1.991-.515 1.278 0 2.268.46 2.973 1.376.708.917 1.06 2.355 1.06 4.315 0 2.829-.035 5.34-.102 7.531-.068 2.191-.223 4.097-.461 5.713H172l-.01-.01a180.666 180.666 0 01-.173-3.365zm26.421 2.009c-.403-.059-.728-.204-.971-.425-.245-.222-.431-.546-.549-.972-.126-.425-.187-1.018-.187-1.775 0-1.705.023-3.416.066-5.137.041-1.72.063-3.59.063-5.609 0-1.389-.234-2.57-.705-3.55a6.233 6.233 0 00-1.993-2.389c-.856-.617-1.87-1.066-3.04-1.35-1.172-.285-2.918-.427-4.316-.427-1.68 0-3.372.284-5.068.853-1.701.565-4.153 2.069-5.621 3.14 0 0 .35 2.237.557 2.795l.447 2.244s3.517-3.563 7.585-3.997c2.876-.304 4.111.625 4.521 1.562.1.338.152.695.152 1.07 0 .41-.059.757-.181 1.04-.124.286-.393.547-.817.783-.421.233-1.059.473-1.916.709a66.46 66.46 0 01-3.494.83c-1.188.25-2.258.56-3.205.922-.944.364-1.756.814-2.442 1.35a5.558 5.558 0 00-1.574 1.941c-.368.76-.55 1.657-.55 2.697 0 .758.136 1.51.415 2.252a5.394 5.394 0 001.337 1.989c.612.583 1.388 1.031 2.329 1.348.943.313 2.077.472 3.404.472 1.623 0 2.975-.299 4.056-.9a9.623 9.623 0 002.836-2.413c.419 1.073 1.03 1.895 1.834 2.461.8.569 1.847.852 3.137.852a8.63 8.63 0 002.253-.282 31.723 31.723 0 002.575-.853s1.216-.472.694-1.111c-.248-.303-.716.018-1.632-.12zm-8.962-8.547c-.02.71-.028 1.742-.028 3.1 0 1.543-.362 2.71-1.081 3.498-.718.79-1.658 1.182-2.815 1.182-.914 0-1.641-.307-2.182-.922-.544-.615-.819-1.504-.819-2.672 0-1.198.223-2.112.662-2.744a4.692 4.692 0 011.685-1.49c.688-.36 1.44-.66 2.267-.897a13.085 13.085 0 002.349-.925c0 .538-.013 1.161-.038 1.87M218 79.055c-.141 0-.669-.055-.842-.055-1.797 0-3.345.486-4.647 1.456-1.299.972-2.416 2.488-3.342 4.548l-.113-.087.16-5.47H202c.137 1.612.225 3.22.265 4.817.042 1.6.063 3.31.063 5.132v1.792c0 1.823-.021 3.54-.063 5.155A70.021 70.021 0 01202 101h7.872a56.416 56.416 0 01-.341-4.667 163.297 163.297 0 01-.082-5.162v-1.793c0-1.199.46-2.238 1.377-3.12.913-.882 2.163-1.324 3.746-1.324.562 0 1.062.062 1.501.181.44.118.836.267 1.189.445 0 0 .494.105.475-.358-.015-.359-.051-.49-.051-.757 0-.268-.045-.665-.045-.904l-.02-1.3c.041-.822.089-1.254.141-1.759.053-.503.133-.978.238-1.427zM101.896 79h-2.712l-3.676 12.35a616.248 616.248 0 01-1.464-4.436A393.615 393.615 0 0191.56 79h-8.453l-3.633 12.205a511.584 511.584 0 01-1.29-4.04A1030.82 1030.82 0 0175.651 79H68l.759 1.913c.328.858.707 1.871 1.143 3.052a704.594 704.594 0 013.114 8.62 233.84 233.84 0 011.546 4.508c.49 1.476.92 2.781 1.293 3.907h5.879a281.037 281.037 0 012.454-7.362c.86-2.47 1.731-4.985 2.61-7.547h.1c.338 1.069.71 2.219 1.116 3.453.405 1.234.827 2.499 1.266 3.798.44 1.294.88 2.605 1.317 3.93.44 1.33.862 2.57 1.269 3.728h5.623a878.01 878.01 0 011.392-3.84c.525-1.434 1.056-2.899 1.596-4.391.54-1.495 1.089-2.98 1.648-4.459.556-1.48 1.078-2.844 1.57-4.094a83.5 83.5 0 011.342-3.247c.404-.915.725-1.571.963-1.969h-4.104zm93.167-26l-20.566 12.072L153.935 53H140l34.497 21L209 53h-13.937z" fill="#2A2A28"/><path d="M221.062 53l-20.563 12.072L179.935 53H166l34.499 21L235 53h-13.938z" fill="#2A2A28"/></svg>